<?xml version="1.0" encoding="utf-8"?>
<!-- Generator: Adobe Illustrator 23.0.3, SVG Export Plug-In . SVG Version: 6.00 Build 0)  -->
<svg version="1.1" xmlns="http://www.w3.org/2000/svg" xmlns:xlink="http://www.w3.org/1999/xlink" x="0px" y="0px"
	 viewBox="0 0 650 295" style="enable-background:new 0 0 650 295;" xml:space="preserve">
<style type="text/css">
	.st0{fill:#00AE22;}
	.st1{fill:#FFFFFF;}
</style>
<g id="レイヤー_1">
</g>
<g id="レイヤー_2">
</g>
<g id="レイヤー_3">
	<g>
		<g>
			<g>
				<path class="st0" d="M82.36,83.26h22.33v3.86h-7.42v1.95h6.6v17.04h-3.75v-1.06H86.91v1.06h-3.72V89.07h5.7v-1.95h-6.53V83.26z
					 M86.91,98.05v3.24h13.22v-2.03c-0.35,0.3-0.83,0.47-1.27,0.47h-3.27c-0.83,0-1.7-0.64-1.7-1.88v-5.07h-1.67
					c-0.19,4.72-2.31,6.9-3.2,7.84L86.91,98.05z M86.91,92.78v4.55c1.74-1.88,1.91-3.59,1.98-4.55H86.91z M92.28,87.12v1.95h1.6
					v-1.95H92.28z M100.13,94.51v-1.73h-2.85v2.84c0,0.5,0,0.74,0.4,0.74c0.75,0,0.89,0,0.99-2.15L100.13,94.51z"/>
				<path class="st0" d="M117.31,104.19v0.27c-2.59,0.67-7.96,1.41-9.26,1.56l-0.33-3.83c0.97-0.07,1.93-0.15,3.58-0.35v-5.86h-3.39
					v-3.39h3.39v-1.04h-1.81v-1.01c-0.64,0.54-0.85,0.67-1.22,0.89l-0.97-4.08c0.75-0.54,2.69-1.9,4.1-4.72h3.75
					c0.64,1.29,1.74,2.67,2.9,3.49c0.17-1.46,0.14-2.2,0.12-2.77l3.37,0.37c-0.02,0.72-0.02,1.41-0.17,2.87h0.9v-3.96h3.51v3.96
					h3.91v3.69h-3.91v1.66c0,0.32-0.02,0.59-0.05,0.79h4.38v3.83h-3.82c1.27,3.49,3.44,5.22,4.29,5.91l-2.24,3.71
					c-2.62-2.35-3.58-4.65-4.17-6.53c-1.79,4.28-4.55,6.04-5.49,6.63L117.31,104.19z M110.01,96.54c0.42,1.29,0.75,3.59,0.82,4.2
					l-2.59,0.79c-0.02-1.21-0.28-2.99-0.61-4.25L110.01,96.54z M114.95,88.06c-0.87-1.01-1.25-1.66-1.58-2.23
					c-0.35,0.62-0.66,1.11-1.55,2.23H114.95z M117.64,96.54v-3.83h4.59c0.02-0.27,0.02-0.37,0.02-0.57v-1.88h-1.48
					c-0.26,1.06-0.45,1.53-0.66,2.1l-3.16-1.51c0.68-1.9,0.87-3.24,1.08-4.7l-1.74,3.07v2.33h-1.79v1.04h2.45v3.39h-2.45v5.42
					c1.37-0.2,2-0.32,2.78-0.45l0.02,1.34c1.13-0.69,3.18-2.33,4.22-5.74H117.64z M117.99,97.06c-0.26,1.46-0.87,3.22-0.99,3.59
					l-2.26-0.54c0.5-1.21,0.75-3.22,0.8-3.59L117.99,97.06z"/>
				<path class="st0" d="M133.05,102.48c3.02-0.2,5.75-1.29,6.13-1.43h-3.98V83.33h18.47v17.71h-4.19c1.23,0.52,3.98,1.36,6.2,1.43
					l-1.74,3.78c-3.32-0.84-5.07-1.38-7.99-3.24l2.19-1.98h-7.8l2.57,2.18c-1.74,1.14-3.56,1.98-8.1,3.12L133.05,102.48z
					 M139.09,86.94v1.29h10.72v-1.29H139.09z M139.09,91.47v1.46h10.72v-1.46H139.09z M139.09,96.12v1.48h10.72v-1.48H139.09z"/>
				<path class="st0" d="M165.5,97.43c2.31-0.89,4.05-1.93,4.71-2.52c-0.26-0.32-0.35-0.45-0.52-0.64c-1.7,1.19-2.9,1.68-3.53,1.95
					l-1.44-2.75c3.23-0.92,4.26-1.88,4.83-2.4h-2.33V89h-1.39v2.79h-1.58v5.81c0.5-0.15,0.8-0.27,1.2-0.4l0.24,3.61
					c-1.18,0.57-4.95,2.13-6.79,2.57l-0.4-4.3c0.47-0.1,1.04-0.2,2.26-0.52v-6.78h-1.91v-3.83h1.91v-5.29h3.49v5.29h1.34v-4.75
					h14.89V89h-1.74v2.08h-2.45c0.28,1.63,0.45,2.3,0.57,2.82c0.35-0.32,1.53-1.46,2.62-3.17l1.79,3.66
					c-1.6,1.68-2.9,2.62-3.25,2.87c1.15,2.5,2.59,3.88,3.2,4.45l-2.83,3.07c-2.5-3.14-4.43-8.9-4.78-13.7h-0.31
					c-0.49,0.57-0.85,0.94-1.44,1.48c0.94,0.96,3.34,3.51,3.34,8.61c0,3.86-1.72,4.87-2.92,4.87h-2.73l-0.57-2.87
					c-2.05,1.43-3.16,1.98-3.82,2.33l-1.65-2.82c3.37-1.04,6.55-3.12,8.22-4.67c-0.09-0.32-0.17-0.54-0.31-0.87
					c-0.68,0.64-2.17,1.78-4.66,2.92L165.5,97.43z M176.93,88.08v-1.41h-7.85v1.41H176.93z M171.04,103.07
					c0.54,0,1.23-0.07,1.13-2.52c-0.4,0.4-1.18,1.19-3.06,2.52H171.04z"/>
				<path class="st0" d="M186.86,97.38c0,1.51-0.12,4.75-0.8,7.69l-2.31-2c0.49-1.76,0.52-2.05,0.73-5.94L186.86,97.38z
					 M193.22,96.02l-2.1,0.74c-0.05-0.62-0.07-0.72-0.12-1.01c-0.21,0.02-0.42,0.05-0.66,0.1v10.24h-2.95v-9.82
					c-1.98,0.25-2.43,0.27-3.06,0.3l-0.28-3.59c0.17,0,1.11-0.05,1.32-0.05c0.33-0.45,0.71-0.99,0.97-1.36
					c-0.24-0.3-1.2-1.58-2.57-2.82l1.46-3.64c0.12,0.12,0.28,0.25,0.45,0.42c0.9-1.88,1.06-2.4,1.27-3.04l3.18,0.74
					c-0.85,1.98-1.96,3.88-2.36,4.53c0.19,0.2,0.4,0.47,0.57,0.67c1.3-2.1,1.6-2.75,1.96-3.46l2.95,1.29
					c-0.87,1.56-1.48,2.5-3.13,4.85l2.14-0.72c0.49,1.04,0.94,2.55,1.11,3.12v-9.25h3.98c0.09-0.27,0.21-0.57,0.47-1.71l4.12,0.22
					c-0.21,0.59-0.38,1.06-0.54,1.48h4.55v9.92h-4.62c0.31,0.89,0.52,1.41,0.99,2.25c0.94-0.94,1.46-1.78,1.7-2.15l2.8,2.33
					c-0.8,0.92-1.7,1.73-2.64,2.5c1.37,1.56,1.98,2,2.73,2.55l-1.86,3.88c-2.45-1.98-3.32-4.13-3.72-5.12v3.41
					c0,1.43-0.26,2.28-1.91,2.28h-3.37l-0.47-2.97c-0.89,1.56-1.48,2.05-2.1,2.57l-2.03-2.6c0.09-0.07,0.14-0.1,0.21-0.17
					l-0.59,0.15c0-0.87-0.05-4.01-0.28-5.69l2.24-0.4c0.12,0.96,0.31,2.55,0.38,3.98c0.68-1.01,0.99-1.88,1.18-2.45h-1.37V96.02z
					 M188.86,92.73c0.24-0.02,1.41-0.1,1.53-0.1c-0.07-0.22-0.35-1.19-0.4-1.39C189.28,92.19,189.05,92.49,188.86,92.73z
					 M197.81,95.13v-0.96h-4.26c0.14,0.54,0.19,0.72,0.24,0.96H197.81z M197.08,102.23c0.59,0,0.73-0.17,0.73-0.74v-5.24
					c-0.31,2.7-1.18,4.8-1.77,5.99H197.08z M197.01,87.07v1.09h5.21v-1.09H197.01z M197.01,90.36v1.16h5.21v-1.16H197.01z"/>
				<path class="st0" d="M229.68,80.1h-7.25v26.37h-5.38V74.45h12.63V80.1z"/>
				<path class="st0" d="M233.91,75.38h30.94v5.34h-10.28v2.71h9.14v23.59h-5.19v-1.47h-18.31v1.47h-5.16V83.43h7.9v-2.71h-9.04
					V75.38z M240.21,95.85v4.49h18.31v-2.81c-0.49,0.41-1.14,0.65-1.76,0.65h-4.54c-1.14,0-2.35-0.89-2.35-2.6v-7.02h-2.32
					c-0.26,6.54-3.2,9.55-4.44,10.85L240.21,95.85z M240.21,88.56v6.3c2.42-2.6,2.64-4.96,2.74-6.3H240.21z M247.65,80.72v2.71h2.22
					v-2.71H247.65z M258.52,90.96v-2.4h-3.95v3.94c0,0.68,0,1.03,0.55,1.03c1.04,0,1.24,0,1.37-2.98L258.52,90.96z"/>
				<path class="st0" d="M282.31,104.35v0.38c-3.59,0.92-11.03,1.95-12.83,2.16l-0.46-5.31c1.34-0.1,2.68-0.21,4.96-0.48v-8.12h-4.7
					v-4.69h4.7v-1.44h-2.51v-1.4c-0.88,0.75-1.17,0.92-1.7,1.23l-1.34-5.65c1.04-0.75,3.72-2.64,5.68-6.54h5.19
					c0.88,1.78,2.42,3.7,4.01,4.83c0.23-2.02,0.2-3.05,0.16-3.83l4.67,0.51c-0.03,0.99-0.03,1.95-0.23,3.97h1.24v-5.48h4.86v5.48
					h5.42v5.1h-5.42v2.29c0,0.45-0.03,0.82-0.07,1.1h6.07v5.31h-5.29c1.76,4.83,4.77,7.22,5.94,8.18l-3.1,5.14
					c-3.62-3.25-4.96-6.44-5.78-9.04c-2.48,5.92-6.3,8.35-7.6,9.18L282.31,104.35z M272.19,93.77c0.59,1.78,1.04,4.96,1.14,5.82
					l-3.59,1.1c-0.03-1.68-0.39-4.14-0.85-5.89L272.19,93.77z M279.04,82.02c-1.21-1.4-1.73-2.29-2.19-3.08
					c-0.49,0.86-0.91,1.54-2.15,3.08H279.04z M282.76,93.77v-5.31h6.36c0.03-0.38,0.03-0.51,0.03-0.79v-2.6h-2.06
					c-0.36,1.47-0.62,2.12-0.91,2.91l-4.37-2.09c0.95-2.64,1.21-4.49,1.5-6.51l-2.42,4.25v3.22h-2.48v1.44h3.39v4.69h-3.39v7.5
					c1.89-0.27,2.77-0.44,3.85-0.62l0.03,1.85c1.57-0.96,4.41-3.22,5.84-7.94H282.76z M283.25,94.48c-0.36,2.02-1.21,4.45-1.37,4.96
					l-3.13-0.75c0.69-1.68,1.04-4.45,1.11-4.96L283.25,94.48z"/>
				<path class="st0" d="M318.27,103.59l-0.36,0.72c-0.72-0.82-1.76-2.02-2.77-3.63v6.44h-4.86v-6.03c-0.29,0.41-1.99,2.71-4.6,4.62
					l-2.06-5.92c1.86-1.23,3.23-2.29,4.73-3.9h-3.79v-4.86h5.71v-1.64h-5.94v-4.96h2.81c-0.13-0.99-0.33-1.99-0.59-3.05h-1.63v-4.96
					h5.35v-1.99h5.03v1.99h4.99v4.96h-1.57c-0.2,1.06-0.23,1.27-0.65,3.05h2.35v4.96h-5.29v1.64h5.09v4.86h-3.39
					c1.5,1.78,1.66,1.92,3.26,3.32c0.85-2.33,1.17-5.34,1.17-7.84V76.2c3.07-0.03,7.9-0.51,12.01-2.12l2.02,5.38
					c-2.55,1.03-6.37,1.78-9.04,1.88v2.98h9.04v5.58h-2.35v17.22h-5.12V89.9h-1.57v1.51c0,8.66-2.68,13.63-3.82,15.72L318.27,103.59
					z M311.15,81.37c0.23,1.06,0.49,2.67,0.55,3.05h1.89c0.16-0.75,0.39-1.88,0.52-3.05H311.15z"/>
				<path class="st0" d="M344.53,85.99h-4.5v-9.28h12.37v-2.16h5.35v2.16h12.44v9.28h-4.54v7.29h-7.87
					c-0.16,0.45-0.42,1.37-0.46,1.51h11.13v12.22h-5.29v-1.3h-16.16v1.2h-5.32V94.79h10.02c0.16-0.58,0.26-0.86,0.42-1.51h-7.6
					V85.99z M364.8,82.84v-1.44h-19.39v1.44H364.8z M347.01,98.94v2.19h16.16v-2.19H347.01z M349.56,87.19v1.92h11.03v-1.92H349.56z
					"/>
				<path class="st0" d="M387.44,107.05h-12.63v-5.65h7.25V75.04h5.39V107.05z"/>
				<path class="st0" d="M401.54,96.54c0.07,2.77-0.16,6.92-1.04,9.52l-2.35-1.99c0.55-1.75,0.95-3.25,1.08-7.64L401.54,96.54z
					 M408.65,96.13c0.39,1.58,0.55,3.05,0.62,3.97c0.1-1.03,0.16-4.25,0.2-5.03h-9.69V75.34h13.77v4.28h-3.46v1.44h2.91v3.32h-2.91
					v1.51h2.91v3.59h-2.91v1.61h3.46c-0.07,0.75-0.13,4.52-0.16,5.38c-0.03,0.55-0.13,2.88-0.42,5.27
					c1.21-2.88,1.93-7.02,1.93-10.07V75.34h14.33v16.61h-3.13c0.75,5.03,3.17,8.29,4.24,9.62l-3.2,5.72
					c-2.55-2.81-4.73-6.3-5.84-15.34h-1.53v0.65c0,8.97-2.12,12.7-3.33,14.69l-3.79-3.53c-0.55,2.09-1.6,3.32-4.67,3.32h-2.45
					l-1.08-4.35h3.1c1.37,0,1.44-0.27,1.63-1.92l-1.37,0.31c-0.07-1.06-0.26-3.32-0.49-4.76L408.65,96.13z M404.08,96.54
					c0.1,2.05,0.13,2.91,0.13,3.66c0,0.79-0.03,2.12-0.1,3.29l-2.12,0.24c0.26-2.26,0.39-4.14,0.39-5.51c0-0.75-0.03-1.13-0.1-1.61
					L404.08,96.54z M404.41,79.62v1.44h1.79v-1.44H404.41z M404.41,84.38v1.51h1.79v-1.51H404.41z M404.41,89.49v1.61h1.79v-1.61
					H404.41z M406.53,96.4c0.36,2.16,0.42,4.18,0.42,5.24l-1.96,0.27c0.07-0.58,0.13-1.3,0.13-2.33c0-1.47-0.13-2.29-0.23-3.01
					L406.53,96.4z M419.91,80.82v6.03h4.21v-6.03H419.91z"/>
				<path class="st0" d="M433.55,79.49c2.12-1.4,3.98-3.46,4.83-5.31l5.06,1.54c-1.79,3.66-4.8,7.22-7.77,9.59L433.55,79.49z
					 M441.58,103.7v3.32h-5.16v-11.4c-0.59,0.55-0.91,0.82-1.5,1.34l-1.34-7.19c2.35-1.61,5.29-5.31,6.53-7.6l4.01,2.64h7.64v-2.36
					h-7.21v-5.2h7.21v-2.84h5.29v2.84h7.21v5.2h-7.21v2.36h8V90h-8v2.33h6.76v5.21h-6.76v3.42c0.65,0.03,1.79,0.1,3.53,0.1
					c2.09,0,3.49-0.07,4.86-0.14l-1.08,5.41c-10.31,0.1-13.12-0.17-16.55-4.21c-1.24,2.95-2.55,4.42-3.23,5.21L441.58,103.7z
					 M450.03,91.75c-0.1,1.13-0.2,2.71-0.65,5c0.26,0.48,0.88,1.54,2.38,2.6V90h-7.93v-3.83c-0.39,0.75-0.98,1.85-2.25,3.6v12.74
					c1.21-1.37,3.13-4.07,3.62-11.2L450.03,91.75z"/>
				<path class="st0" d="M470.39,101.61c2.09,0,10.8-0.07,15.41-2.43c-0.2,0.07-0.49,0.14-0.98,0.14h-6.27l-0.85-4.62
					c-1.67,1.75-3.33,3.12-5.16,4.11l-3.43-4.52c3.72-2.02,5.91-4.14,6.85-5.44h-6.53v-5.17h4.41v-7.71h5.35v7.71h3.3v-9.11h5.32
					v2.16h10.12v5.03h-10.12v1.92h12.5v5.17h-6.1c0.82,0.92,3.56,3.77,6.69,5.62l-3.43,4.45c-1.99-1.16-5.32-4.28-7.9-7.67l3.46-2.4
					h-5.22v7.19c0,0.45,0,1.71-0.78,2.4c2.22-1.51,3.43-3.15,4.11-4.14l3.85,3.77c-2.42,3.22-7.25,8.8-22.85,9.21L470.39,101.61z
					 M480.61,91.23c-0.36,0.58-0.91,1.47-2.54,3.08h3.46c0.98,0,0.98-0.92,0.98-1.23v-4.25h-5.55L480.61,91.23z"/>
				<path class="st0" d="M505.73,84.21c0-6.2,3.66-7.7,10.93-7.7c7.34,0,11.78,0.86,11.78,7.67c0,2.43-0.62,4.52-3.1,5.62
					c0.59,0.17,1.31,0.41,1.96,1.16c1.53,1.78,1.57,4.69,1.57,5.31c0,7.12-5.48,7.77-11.29,7.77c-5.88,0-12.27-0.14-12.27-7.7
					c0-0.68,0.06-3.66,1.6-5.38c0.65-0.75,1.37-0.99,1.93-1.16C506.58,88.8,505.73,86.92,505.73,84.21z M511.08,95.55
					c0,2.6,1.14,3.05,6.01,3.05c5.16,0,6.04-0.51,6.04-3.25c0-2.88-1.63-3.05-6.04-3.05C512.26,92.29,511.08,92.6,511.08,95.55z
					 M511.51,84.73c0,2.36,0.98,2.71,5.97,2.71c4.67,0,5.19-0.65,5.19-2.88c0-1.99-0.59-2.67-5.58-2.67
					C511.87,81.88,511.51,82.64,511.51,84.73z"/>
				<path class="st0" d="M538.72,89.21c-0.78,0.72-1.27,1.13-1.99,1.75l-3.52-5.27c6.36-4.21,8.22-9.07,9.01-11.4l5.35,1.06
					c-0.55,1.64-1.89,5.75-5.52,10.31h14.52c-2.71-3.56-4.44-7.53-5.45-10.13l5.35-1.3c1.73,4.08,4.31,8.59,8.98,11.81l-3.62,4.93
					c-0.69-0.51-1.21-0.92-1.79-1.47c-0.23,5.82-0.46,12.16-1.53,14.79c-0.72,1.75-1.6,2.81-4.15,2.81h-6.1l-1.08-5.68h4.83
					c0.72,0,1.27-0.38,1.47-0.79c0.26-0.55,0.78-3.63,0.98-9.52h-5.55c-0.98,8.59-5.48,12.98-12.17,16.09l-3.17-5.45
					c8.55-3.05,9.56-7.81,9.79-10.65h-4.63V89.21z"/>
			</g>
		</g>
		<path class="st0" d="M569.66,178.51H80.34c-13.05,0-23.62-10.58-23.62-23.62v-5.97c0-13.05,10.58-23.62,23.62-23.62h489.32
			c13.05,0,23.62,10.58,23.62,23.62v5.97C593.29,167.93,582.71,178.51,569.66,178.51z"/>
		<g>
			<path class="st0" d="M234.65,53.76c2.24-1.54,4.52-3.36,6.2-5.56h-5.27v-3.74h6.36v-2.68h-6.53v-3.74h3.36
				c-0.2-1.41-0.43-2.95-0.86-4.29h-1.88V30h5.9v-2.58h3.79V30h5.47v3.74h-1.55c-0.49,2.3-0.59,2.75-1.02,4.29h2.9v3.74h-5.87v2.68
				H251v3.74h-4.35c1.88,2.27,2.8,2.95,3.89,3.71l-1.94,3.67c-1.52-1.54-2.08-2.23-2.93-3.6v7.93h-3.72v-7.79
				c-2.37,3.4-4.25,4.88-5.41,5.73L234.65,53.76z M241.44,33.74c0.4,1.37,0.66,2.85,0.89,4.29h2.8c0.36-1.2,0.73-3.19,0.86-4.29
				H241.44z M266.23,31.27c-2.93,1.37-6.53,2.2-9.79,2.33v4.5h9.79v4.05h-2.9V59.9h-4.02V42.15h-2.87v1.13
				c0,10.37-2.74,14.42-4.22,16.62l-3.66-2.61c2.24-2.99,4.02-6.39,4.02-13.94v-13.6c1.52,0,6.36,0.07,11.73-2.44L266.23,31.27z"/>
			<path class="st0" d="M297.94,38.31v-4.63h-21.65v4.63h-4.09v-8.38h12.72v-2.51h4.22v2.51h12.85v8.38H297.94z M297.05,35.73v9.58
				h-7.98c-0.1,0.34-0.53,1.96-0.63,2.33h11.8v12.22h-4.12v-1.72h-18.09v1.68h-4.12V47.65h10.28c0.33-1,0.4-1.27,0.63-2.33h-7.75
				v-9.58H297.05z M278.03,51.01v3.67h18.09v-3.67H278.03z M280.86,39.1v2.85h12.33V39.1H280.86z"/>
			<path class="st0" d="M308.65,28.69h16.51v26.75h-12.72v2.78h-3.79V28.69z M312.44,32.68v7.21h2.77v-7.21H312.44z M312.44,43.63
				v7.83h2.77v-7.83H312.44z M318.64,32.68v7.21h2.93v-7.21H318.64z M318.64,43.63v7.83h2.93v-7.83H318.64z M331.95,35.15h-6.23
				v-4.39h13.22v4.39h-2.87v21.77c0,0.79-0.23,2.88-2.8,2.88h-6.82l-0.69-4.33h5.27c0.92,0,0.92-0.62,0.92-0.96V35.15z"/>
			<path class="st0" d="M343.42,53.76c2.24-1.54,4.52-3.36,6.2-5.56h-5.27v-3.74h6.36v-2.68h-6.53v-3.74h3.36
				c-0.2-1.41-0.43-2.95-0.86-4.29h-1.88V30h5.9v-2.58h3.79V30h5.47v3.74h-1.55c-0.49,2.3-0.59,2.75-1.02,4.29h2.9v3.74h-5.87v2.68
				h5.34v3.74h-4.35c1.88,2.27,2.8,2.95,3.89,3.71l-1.94,3.67c-1.52-1.54-2.08-2.23-2.93-3.6v7.93h-3.72v-7.79
				c-2.37,3.4-4.25,4.88-5.41,5.73L343.42,53.76z M350.21,33.74c0.4,1.37,0.66,2.85,0.89,4.29h2.8c0.36-1.2,0.73-3.19,0.86-4.29
				H350.21z M375,31.27c-2.93,1.37-6.53,2.2-9.79,2.33v4.5H375v4.05h-2.9V59.9h-4.02V42.15h-2.87v1.13
				c0,10.37-2.74,14.42-4.22,16.62l-3.66-2.61c2.24-2.99,4.02-6.39,4.02-13.94v-13.6c1.52,0,6.36,0.07,11.73-2.44L375,31.27z"/>
			<path class="st0" d="M406.71,38.31v-4.63h-21.65v4.63h-4.09v-8.38h12.72v-2.51h4.22v2.51h12.85v8.38H406.71z M405.82,35.73v9.58
				h-7.98c-0.1,0.34-0.53,1.96-0.63,2.33h11.8v12.22h-4.12v-1.72H386.8v1.68h-4.12V47.65h10.28c0.33-1,0.4-1.27,0.63-2.33h-7.75
				v-9.58H405.82z M386.8,51.01v3.67h18.09v-3.67H386.8z M389.63,39.1v2.85h12.33V39.1H389.63z"/>
		</g>
		<g>
			<g>
				<path d="M273.58,204.3h1.43v17.77h3.95v1.12h-3.95v4.06c0,1.54,0.77,2.13,2.45,2.13h0.56v1.12h-8.89v-1.12h0.56
					c1.64,0,2.45-0.56,2.45-2.13v-4.06h-9.41v-1.22L273.58,204.3z M272.15,208.92l-8.08,13.16h8.08V208.92z"/>
				<path d="M293.21,231.17c-1.26,0-2.48-0.28-3.74-0.7c-0.98-0.35-1.22-0.35-1.43-0.35c-1.12,0-2.38,0.73-2.8,0.98l-2.59-6.75
					l1.33-0.63c0.94,1.64,1.5,2.52,2.76,3.64c1.47,1.33,3.71,2.59,6.3,2.59c2.34,0,5.18-1.58,5.18-5.28c0-3.22-2.06-4.34-6.51-5.88
					c-4.93-1.68-8.12-3.5-8.12-7.7c0-3.67,2.55-6.79,7.03-6.79c0.7,0,1.54,0.07,2.48,0.28c0.38,0.07,1.82,0.39,2.1,0.39
					c1.22,0,1.61-0.35,1.96-0.67l2.41,6.16l-1.05,0.42c-1.12-1.96-3.15-5.42-7.63-5.42c-3.95,0-4.79,3.11-4.79,4.62
					c0,2.9,2.1,3.99,6.68,5.6c6.68,2.31,8.01,4.9,8.01,7.94C300.8,228.34,297.09,231.17,293.21,231.17z"/>
				<path d="M315.04,206.12h-1.22c-1.5,0-2.48,0.84-2.48,2.41v18.44c0,1.47,0.87,2.42,2.48,2.42h0.94c2.13,0,4.2-0.74,5.42-1.47
					c2.31-1.4,3.32-3.08,4.06-4.3l0.91,0.46l-2.48,6.44h-17.81v-1.12h1.19c1.43,0,2.52-0.77,2.52-2.42v-18.44
					c0-1.57-0.98-2.41-2.52-2.41h-1.19v-1.15h10.18V206.12z"/>
				<path d="M329.43,204.96h10.04c8.19,0,13.26,4.2,13.26,12.6c0,5.98-3.15,12.95-12.95,12.95h-10.36v-1.12h1.19
					c1.5,0,2.52-0.8,2.52-2.42v-18.44c0-1.57-0.98-2.41-2.52-2.41h-1.19V204.96z M335.9,226.97c0,1.47,0.87,2.42,2.48,2.42h1.68
					c6.33,0,9.52-5.67,9.52-12.11c0-4.44-1.82-11.16-9.38-11.16h-1.82c-1.5,0-2.48,0.84-2.48,2.41V226.97z"/>
				<path d="M369.73,214.76l7.77,12.42c0.81,1.29,2.41,2.21,4.13,2.21h0.49v1.12h-9.9v-1.12h0.84c0.67,0,1.4-0.38,1.4-1.16
					c0-0.52-0.24-1.05-0.49-1.43l-6.19-9.9l-3.32,3.6v6.47c0,1.54,0.98,2.42,2.52,2.42h0.98v1.12h-9.73v-1.12h0.98
					c1.43,0,2.48-0.77,2.48-2.42v-18.44c0-1.57-0.98-2.41-2.48-2.41h-0.98v-1.15h9.73v1.15h-0.98c-1.5,0-2.52,0.84-2.52,2.41v10.32
					l9.55-10.43c0.35-0.38,0.45-0.84,0.45-1.12c0-1.01-1.08-1.19-1.85-1.19h-0.91v-1.15h9.87v1.15h-0.63c-3.18,0-4.69,1.5-5.6,2.52
					L369.73,214.76z"/>
			</g>
		</g>
		<g>
			<g>
				<path d="M137.6,254.72l0.85-1.12c0.12-0.17,0.19-0.25,0.31-0.25c0.13,0,0.15,0.04,0.39,0.23l1.39,1.1
					c0.1,0.08,0.21,0.19,0.21,0.33c0,0.19-0.19,0.21-0.33,0.21h-6.91c0,0.68-0.02,3.67-0.02,4.27c0,0.21,0.02,4.52,0,5.12h5.5
					l1.04-1.12c0.15-0.17,0.21-0.25,0.31-0.25c0.12,0,0.19,0.06,0.39,0.23l1.37,1.1c0.1,0.08,0.21,0.19,0.21,0.31
					c0,0.19-0.19,0.23-0.31,0.23H126.4c-0.21,0-1.49,0-2.45,0.19l-0.42-0.83c1.39,0.12,2.8,0.15,3.19,0.15h5.29
					c-0.02-0.19-0.02-4.58-0.02-5.06v-4.33h-4.38c-0.27,0-1.43,0-2.45,0.19l-0.42-0.81c1.39,0.1,2.8,0.12,3.19,0.12H132
					c-0.04-4.71-0.04-5.25-0.52-6.76l2.51,0.66c0.21,0.06,0.33,0.1,0.33,0.29c0,0.17-0.1,0.25-0.19,0.31
					c-0.08,0.08-0.48,0.39-0.6,0.48c0,1.68-0.02,3.34-0.02,5.02H137.6z"/>
				<path d="M153.96,254.85h-2.43v6.68c1.68-0.5,2.16-0.68,2.63-0.85l0.08,0.17c-0.73,0.54-1.7,1.1-2.99,1.76
					c-0.85,0.44-1.93,0.97-2.55,1.29c-0.19,0.44-0.27,0.66-0.52,0.66c-0.15,0-0.27-0.15-0.33-0.25l-1.08-1.85
					c0.71,0.04,1.06,0.08,3.4-0.56c0-0.71,0.02-3.86,0.02-4.5v-2.55h-0.42c-0.37,0-1.43,0-2.45,0.19l-0.39-0.83
					c1.22,0.1,2.47,0.14,3.26,0.14c0-1.04,0-2.07-0.02-3.11c-0.02-1.74-0.06-2.2-0.27-3.07l2.09,0.71c0.1,0.04,0.29,0.12,0.29,0.31
					c0,0.25-0.41,0.56-0.71,0.75c-0.04,1.45-0.04,2.16-0.06,4.42h0.5l0.62-0.68c0.19-0.21,0.25-0.27,0.35-0.27
					c0.13,0,0.25,0.14,0.35,0.23l0.73,0.68c0.1,0.1,0.19,0.19,0.19,0.31C154.27,254.83,154.09,254.85,153.96,254.85z M163.23,265.46
					c-0.48,0.08-4.15,0.08-4.73,0.08c-3.4,0-4-0.17-4-2.43c0-0.81,0.06-4.38,0.06-5.1c0-0.21-0.02-1.14-0.02-1.33
					c-0.83,0.37-1.29,0.6-2.01,1.1l-0.71-0.58c1.12-0.37,2.41-0.93,2.72-1.08v-3.67c0-0.97-0.04-1.43-0.23-2.41l1.93,0.66
					c0.14,0.04,0.31,0.13,0.31,0.29c0,0.19-0.17,0.33-0.66,0.68c-0.02,0.62-0.04,3.32-0.04,3.86l2.26-1.02
					c0.02-2.07,0.02-3.55-0.04-5c-0.04-0.77-0.19-1.49-0.25-1.82l1.99,0.66c0.21,0.06,0.35,0.17,0.35,0.31
					c0,0.19-0.29,0.44-0.73,0.77c-0.04,1.87-0.04,2.14-0.04,4.5l2.01-0.89l0.5-0.83c0.1-0.17,0.21-0.35,0.35-0.35
					c0.14,0,0.27,0.08,0.39,0.17l0.97,0.6c0.08,0.04,0.21,0.19,0.21,0.33c0,0.25-0.23,0.46-0.52,0.73c0,6.22-0.04,7.65-2.47,8.29
					c-0.19-1.04-0.95-1.55-1.24-1.74v-0.1c0.35,0.04,0.48,0.04,0.64,0.04c1.45,0,1.68-0.19,1.68-4.56c0-1.41-0.02-1.64-0.04-2.24
					l-2.47,1.12c0.02,3.05,0.04,5.04,0.06,5.6c0,0.27,0.06,1.49,0.06,1.74c0,1-0.87,1.04-1.06,1.04c-0.29,0-0.5-0.1-0.5-0.54
					c0-0.23,0.06-1.29,0.06-1.49c0.04-1.33,0.04-2.12,0.06-5.76l-2.26,1.02c-0.02,0.83,0,7.2,0.02,7.44c0.02,0.27,0.23,0.5,0.5,0.58
					s3.24,0.08,3.63,0.08c2.14,0,2.78,0,3.21-0.77c0.39-0.73,0.83-2.26,0.91-2.51h0.14c0.04,0.75,0.1,1.97,0.39,2.47
					c0.12,0.21,0.48,0.39,0.48,0.6C165.14,264.3,164.79,265.19,163.23,265.46z"/>
				<path d="M177,252.81c0.48-1,1.02-2.61,1.22-3.46h-5.41c-0.56,0-1.53,0.02-2.45,0.19l-0.41-0.83c1.06,0.08,2.12,0.15,3.19,0.15
					h12.36l0.91-0.89c0.17-0.17,0.33-0.31,0.39-0.31c0.1,0,0.19,0.06,0.39,0.23l1.16,0.93c0.08,0.06,0.21,0.19,0.21,0.31
					c0,0.21-0.21,0.23-0.33,0.23h-8.07c-0.58,0.95-2.14,2.84-2.67,3.46h7.55l0.58-0.6c0.21-0.21,0.27-0.27,0.39-0.27
					c0.1,0,0.27,0.12,0.37,0.21l0.95,0.81c0.13,0.1,0.17,0.21,0.17,0.27c0,0.19-0.08,0.25-0.83,0.66c0,2.34,0.02,5.31,0.04,7.65
					c0.02,0.97,0.1,2.51,0.1,3.46c0,0.89-0.75,0.97-1.04,0.97c-0.62,0-0.62-0.33-0.58-1.51h-11.8c0,0.08,0.02,0.56,0.02,0.66
					c0,0.75-0.66,0.95-1.02,0.95c-0.66,0-0.66-0.46-0.66-0.64c0-0.08,0.06-1.1,0.06-1.26c0.04-2.26,0.14-7.03,0.14-9
					c0-1.49-0.04-2.14-0.29-3.4l2.14,1.04H177z M173.42,253.31v10.66h2.76v-10.66H173.42z M180.74,256.46v-3.15h-3.17v3.15H180.74z
					 M180.74,260.09v-3.13h-3.17v3.13H180.74z M180.74,263.97v-3.38h-3.17v3.38H180.74z M185.22,263.97v-10.66h-3.07v10.66H185.22z"
					/>
				<path d="M192.39,261.67c1.58-1.99,3.24-5.68,3.86-7.94h-0.48c-0.19,0-1.47,0-2.45,0.19l-0.39-0.83c1.18,0.1,2.38,0.15,3.46,0.15
					c0-1-0.04-2.47-0.04-3.36c-1.22,0.25-2.28,0.33-3.38,0.37v-0.17c0.42-0.14,4.52-1.51,5.6-2.32c0.27-0.21,0.35-0.35,0.44-0.5
					l1.43,1.2c0.08,0.06,0.15,0.17,0.15,0.29c0,0.21-0.21,0.21-0.39,0.21c0,0-0.25,0-0.6-0.02c-0.44,0.17-0.91,0.35-1.93,0.62
					c0,0.95,0.02,2.86,0.02,3.67h0.39l0.5-0.75c0.08-0.13,0.19-0.27,0.31-0.27c0.12,0,0.29,0.14,0.39,0.23l0.89,0.75
					c0.1,0.08,0.21,0.19,0.21,0.33c0,0.21-0.21,0.21-0.31,0.21h-2.38c0,0.39,0.02,1.33,0.02,1.82c2.03,0.73,2.72,1.97,2.72,2.61
					c0,0.44-0.31,0.83-0.77,0.83c-0.5,0-0.56-0.21-0.97-1.37c-0.27-0.79-0.48-1.39-0.97-1.8c0.04,3.61,0.04,4.02,0.08,5.6
					c0.04,1.41,0.08,3.05,0.08,3.79c0,0.37,0,1.2-1.04,1.2c-0.54,0-0.6-0.31-0.6-0.71c0-0.68,0.17-3.73,0.19-4.35
					c0.04-2.03,0.02-2.84,0.02-4.65c-0.91,1.97-2.22,3.73-3.92,5.06L192.39,261.67z M199.05,266.05c1.45-0.71,3.79-2.07,4.29-2.99
					l1.49,1.1c0.12,0.08,0.19,0.19,0.19,0.31c0,0.29-0.48,0.27-1,0.27c-1.33,0.68-3.75,1.35-4.94,1.43L199.05,266.05z
					 M208.26,249.54l0.52-0.83c0.1-0.17,0.21-0.29,0.31-0.29s0.27,0.14,0.39,0.25l1.02,0.83c0.1,0.08,0.21,0.19,0.21,0.33
					c0,0.19-0.17,0.21-0.31,0.21H206v1.7h1.66l0.5-0.75c0.08-0.12,0.17-0.25,0.31-0.25c0.1,0,0.25,0.12,0.37,0.23l0.85,0.72
					c0.12,0.1,0.21,0.21,0.21,0.33c0,0.19-0.19,0.21-0.31,0.21H206v1.87h3.44l0.6-0.85c0.1-0.17,0.23-0.27,0.33-0.27
					c0.13,0,0.25,0.12,0.37,0.25l0.89,0.83c0.1,0.1,0.21,0.21,0.21,0.33c0,0.21-0.17,0.21-0.31,0.21h-8.63c-0.35,0-1.45,0-2.45,0.19
					l-0.41-0.83c1.06,0.08,2.14,0.15,3.19,0.15h1.35v-1.87h-0.5c-0.27,0-1.43,0-2.45,0.21l-0.39-0.83c0.62,0.04,1.54,0.12,3.34,0.12
					c0-0.81-0.02-1.31-0.02-1.7h-1.37c-0.37,0-1.45,0-2.45,0.19l-0.42-0.83c1.51,0.12,2.84,0.14,3.19,0.14h1.02
					c-0.02-0.93-0.04-1.16-0.37-2.22l2.12,0.64c0.1,0.02,0.29,0.08,0.29,0.31c0,0.27-0.48,0.5-0.58,0.54v0.73H208.26z
					 M207.78,256.03l0.48-0.52c0.08-0.08,0.21-0.21,0.29-0.21c0.1,0,0.25,0.12,0.33,0.19l0.81,0.68c0.12,0.1,0.23,0.23,0.23,0.37
					c0,0.21-0.25,0.37-0.6,0.54c-0.02,0.21-0.02,0.35-0.02,0.77c0,0.71,0.17,3.79,0.17,4.42c0,0.29-0.04,0.95-0.95,0.95
					c-0.54,0-0.54-0.27-0.52-0.71h-4.94c0.04,0.48,0.06,0.95-0.93,0.95c-0.35,0-0.54-0.1-0.54-0.48c0-0.04,0.02-0.21,0.04-0.5
					c0.04-0.77,0.04-3.01,0.04-3.92c0-1.82,0-2.01-0.23-3.28l1.64,0.72H207.78z M203.05,256.53V258h4.94v-1.47H203.05z
					 M203.05,258.5v1.49h4.94v-1.49H203.05z M203.05,260.49v1.53h4.94v-1.53H203.05z M206.54,263.31c1.87,0.17,4.5,1.1,4.5,2.34
					c0,0.5-0.46,0.81-0.83,0.81c-0.48,0-0.95-0.52-1.31-0.91c-0.13-0.17-1.26-1.47-2.36-2.09V263.31z"/>
				<path d="M218.44,252.79c0,0.66-0.56,1.2-1.2,1.2c-0.66,0-1.2-0.54-1.2-1.2s0.52-1.2,1.2-1.2
					C217.9,251.59,218.44,252.11,218.44,252.79z M218.44,260.96c0,0.68-0.56,1.2-1.2,1.2c-0.66,0-1.2-0.52-1.2-1.2
					c0-0.64,0.52-1.2,1.2-1.2C217.9,259.76,218.44,260.3,218.44,260.96z"/>
				<path d="M223.4,264.1h1.14c1.08,0,1.45-0.42,1.45-1.26v-11.22c0-0.64-0.6-0.75-1-0.75h-1.58v-0.64h0.37
					c1.6,0,3.13-0.73,3.38-0.87c0.15-0.08,0.21-0.12,0.29-0.12c0.19,0,0.23,0.12,0.23,0.29v13.31c0,0.89,0.44,1.26,1.45,1.26h1.14
					v0.66h-6.88V264.1z"/>
				<path d="M236.26,264.1h1.14c1.08,0,1.45-0.42,1.45-1.26v-11.22c0-0.64-0.6-0.75-1-0.75h-1.58v-0.64h0.37
					c1.6,0,3.13-0.73,3.38-0.87c0.14-0.08,0.21-0.12,0.29-0.12c0.19,0,0.23,0.12,0.23,0.29v13.31c0,0.89,0.44,1.26,1.45,1.26h1.14
					v0.66h-6.88V264.1z"/>
				<path d="M252.56,265.15c-1.43,0-2.63-1-3.4-2.24c-0.87-1.43-1.26-3.98-1.26-5.91c0-4.42,1.89-7.78,4.67-7.78
					c2.14,0,4.67,2.3,4.67,7.96C257.22,262.27,255.09,265.15,252.56,265.15z M250.24,252.69c-0.29,1.04-0.48,2.78-0.48,4.5
					c0,4.62,1.1,7.26,2.8,7.26c1.43,0,2.07-1.91,2.3-2.7c0.29-1.06,0.5-2.82,0.5-4.56c0-4.73-1.14-7.26-2.8-7.26
					C251.09,249.93,250.44,251.97,250.24,252.69z"/>
				<path d="M263.36,263.95c0.02,0.68-0.56,1.2-1.2,1.2c-0.68,0-1.2-0.54-1.2-1.2s0.52-1.2,1.2-1.2
					C262.8,262.75,263.36,263.29,263.36,263.95z"/>
				<path d="M268.82,251.26l-0.19,5.23c0.89-0.79,1.68-1.43,3.21-1.43c2.99,0,4.42,2.47,4.42,4.75c0,3.01-2.38,5.35-5.12,5.35
					c-2.36,0-3.92-1.76-3.92-3.05c0-0.79,0.5-1.29,1.2-1.29c0.62,0,1.08,0.41,1.08,1.08c0,0.21-0.02,0.29-0.1,0.62
					c-0.04,0.17-0.06,0.46-0.06,0.58c0,0.89,0.93,1.35,1.76,1.35c1.68,0,3.26-1.6,3.26-4.38c0-2.63-1.39-4.08-2.9-4.08
					c-0.83,0-2.09,0.46-3.24,1.8l-0.31-0.17l0.31-8h7.22l-0.42,1.64H268.82z"/>
				<path d="M283.69,255.66c0.44-0.27,1.08-0.54,1.8-0.54c2.05,0,3.71,2.07,3.71,4.58c0,2.88-2.05,5.45-4.44,5.45
					c-2.36,0-4.77-2.68-4.77-7.15c0-4.79,2.7-8.77,5.87-8.77c1.39,0,2.36,0.83,2.36,1.82c0,0.75-0.58,1.08-1.06,1.08
					c-0.41,0-1.1-0.27-1.14-1.45c-0.02-0.46-0.06-0.75-0.62-0.75c-0.56,0-1.12,0.31-1.51,0.75c-1.84,2.03-1.95,5.08-2.03,6.95
					C282.26,256.98,282.69,256.26,283.69,255.66z M283,263.33c0.35,0.56,0.89,1.12,1.68,1.12c1.1,0,2.65-1.14,2.65-4.56
					c0-0.93-0.23-3.84-2.36-3.84c-0.79,0-2.12,0.58-3.09,2.82C281.97,260.01,282.13,262,283,263.33z"/>
				<path d="M296.17,254.56v1.64c0.56-0.56,1.62-1.64,3.42-1.64c1.93,0,2.3,1.26,2.49,1.87c0.68-0.68,1.85-1.87,3.71-1.87
					c1.82,0,2.65,1.1,2.65,3.4v4.89c0,0.79,0.41,1.24,1.04,1.24h0.37v0.66h-4.33v-0.66h0.39c0.73,0,1.04-0.56,1.04-1.24v-4.77
					c0-0.58-0.08-2.63-1.8-2.63c-0.58,0-1.89,0.33-2.94,1.8c0.02,0.17,0.04,0.33,0.04,0.71v4.89c0,0.87,0.48,1.24,1.04,1.24h0.6
					v0.66h-4.77v-0.66h0.6c0.58,0,1.06-0.39,1.06-1.24v-4.77c0-0.44-0.06-2.63-1.8-2.63c-0.5,0-1.83,0.27-2.8,1.64v5.76
					c0,0.87,0.48,1.24,1.04,1.24h0.37v0.66h-4.31v-0.66h0.37c0.62,0,1.04-0.44,1.04-1.24v-6.24c0-0.64-0.37-0.97-0.85-0.97
					c-0.25,0-0.46,0.02-0.62,0.08l-0.1-0.39L296.17,254.56z M306.89,253.33c0.31-0.41,0.48-0.58,1.2-1.33
					c0.44-0.48,1.18-1.29,1.18-2.01c0-0.27-0.17-0.77-0.64-0.77c-0.37,0-0.71,0.29-0.71,0.56c0,0.08,0.19,0.46,0.19,0.54
					c0,0.25-0.23,0.54-0.58,0.54c-0.41,0-0.62-0.35-0.62-0.71c0-0.71,0.79-1.49,1.83-1.49c0.85,0,1.51,0.54,1.51,1.41
					c0,0.77-0.39,1.12-0.64,1.35c-0.23,0.23-1.51,1.27-1.72,1.56h1.29c0.54,0,0.71-0.42,0.81-0.71l0.33,0.1l-0.44,1.43h-2.99V253.33
					z"/>
				<path d="M354.97,265.67c-7.53-0.1-10.76-0.14-13.56-2.86c-1.26,1.87-2.45,2.7-4.23,3.59l-0.13-0.13
					c1.64-1.41,2.67-2.51,3.59-4.31c-1.33-1.66-1.74-3.26-1.93-4l0.21-0.17c0.66,1.89,1.76,3.07,2.09,3.4
					c0.64-1.49,1.16-3.4,1.16-5.64h-1.74c-0.41,1.16-0.52,1.47-1.2,1.47c-0.15,0-0.75-0.02-0.75-0.48c0-0.13,0.31-0.97,0.5-1.47
					c1.08-2.78,1.93-5.04,2.18-5.95h-0.75c-0.35,0-1.51,0-2.45,0.19l-0.39-0.83c1.06,0.08,2.12,0.15,3.17,0.15h0.37l0.54-0.44
					c0.19-0.15,0.29-0.21,0.39-0.21c0.08,0,0.21,0.08,0.35,0.21l0.81,0.68c0.17,0.12,0.21,0.25,0.21,0.37
					c0,0.25-0.42,0.44-0.95,0.66c-0.46,1.16-0.73,1.87-1.87,5.14h1.41l0.56-0.43c0.17-0.13,0.29-0.21,0.39-0.21
					c0.15,0,0.25,0.08,0.39,0.23l0.64,0.66c0.17,0.17,0.25,0.31,0.25,0.43c0,0.19-0.21,0.31-0.64,0.58c-0.19,1.99-0.71,3.92-1.7,5.7
					c1.99,1.6,4.67,2.05,7.22,2.05c2.47,0,5.37-0.27,7.3-0.6l0.04,0.17C355.26,264.24,355.09,265.09,354.97,265.67z M356.19,252.75
					h-2.86c0.08,2.47,0.08,2.47,0.08,2.61c0,0.42,0,1.06-1,1.06c-0.56,0-0.54-0.33-0.52-0.68h-2.55v2.16h3.11l0.62-0.79
					c0.15-0.17,0.23-0.27,0.35-0.27c0.13,0,0.23,0.1,0.39,0.23l0.93,0.79c0.1,0.1,0.21,0.23,0.21,0.31c0,0.19-0.15,0.23-0.31,0.23
					h-5.31l0.02,2.2h3.69l0.79-0.91c0.17-0.19,0.25-0.27,0.35-0.27c0.12,0,0.23,0.08,0.37,0.23l0.97,0.91
					c0.15,0.12,0.21,0.25,0.21,0.35c0,0.12-0.13,0.19-0.31,0.19h-6.08c0,0.25,0.04,1.47,0,1.74c-0.02,0.27-0.39,0.75-0.91,0.75
					c-0.66,0-0.66-0.37-0.66-0.6c0-0.27,0.1-1.58,0.1-1.89h-1.41c-0.15,0-1.47,0-2.43,0.19l-0.41-0.81
					c1.62,0.12,3.15,0.12,3.19,0.12h1.08c0.02-0.56,0.02-1.08,0.04-2.2h-0.62c-0.54,0-1.53,0.02-2.43,0.19l-0.42-0.81
					c0.62,0.04,1.78,0.13,3.48,0.13v-2.16h-0.42c-0.17,0-1.47,0-2.45,0.19l-0.41-0.81c1.49,0.1,3.07,0.13,3.28,0.13l0.02-2.49h-1.93
					c-0.54,0-1.53,0.02-2.43,0.19l-0.42-0.83c1.06,0.1,2.12,0.15,3.17,0.15h1.6l-0.02-2.43h-0.5c-0.35,0-1.47,0.02-2.45,0.19
					l-0.39-0.83c1.45,0.13,2.8,0.15,3.32,0.15c0-1.04-0.02-1.27-0.31-1.93l1.99,0.48c0.23,0.06,0.35,0.14,0.35,0.33
					c0,0.21-0.25,0.37-0.58,0.56v0.56h2.41l0.52-0.46c0.15-0.13,0.25-0.21,0.37-0.21c0.13,0,0.23,0.1,0.37,0.23l0.58,0.56
					c0.15,0.13,0.25,0.27,0.25,0.39c0,0.17-0.17,0.29-0.58,0.58c-0.04,0.39-0.04,0.42,0,1.83h0.75l0.6-0.77
					c0.13-0.17,0.23-0.25,0.33-0.25c0.13,0,0.25,0.08,0.39,0.21l0.89,0.77c0.1,0.1,0.21,0.21,0.21,0.31
					C356.5,252.65,356.4,252.75,356.19,252.75z M351.94,252.75h-2.57l-0.02,2.49h2.59V252.75z M351.94,249.83h-2.53l-0.04,2.43h2.57
					V249.83z"/>
				<path d="M366.21,258.64c0,2.51,0,2.95,0.04,4.15c0.02,0.73,0.08,1.89,0.08,2.61c0,0.85-0.89,0.95-1.08,0.95
					c-0.46,0-0.56-0.27-0.56-0.58c0-0.08,0.04-0.85,0.04-1c0.08-1.56,0.08-2.12,0.12-5.43c-1.51,0.79-2.11,1.02-2.55,1.18
					c-0.02,0.37-0.06,0.73-0.39,0.73c-0.23,0-0.35-0.23-0.42-0.35l-0.97-1.87c1.29,0.06,1.64,0.04,4.36-0.79
					c0-1.83,0.02-3.88,0-5.45h-1.87c-0.62,2.51-1.51,4.02-1.85,4.58l-0.13-0.04c0.79-3.07,0.93-6.3,0.93-7.2
					c0-0.77-0.08-1.04-0.21-1.41l1.99,0.48c0.17,0.04,0.35,0.08,0.35,0.31c0,0.29-0.29,0.42-0.62,0.54c-0.1,0.97-0.21,1.6-0.35,2.24
					h1.72c-0.04-2.92-0.1-3.77-0.56-4.81l2.28,0.66c0.12,0.04,0.31,0.14,0.31,0.29c0,0.25-0.35,0.44-0.66,0.6
					c-0.02,0.44-0.02,2.63-0.02,3.26h0.41l0.58-0.79c0.1-0.13,0.21-0.27,0.31-0.27c0.13,0,0.27,0.12,0.37,0.23l0.83,0.79
					c0.08,0.08,0.19,0.19,0.19,0.31c0,0.19-0.19,0.23-0.31,0.23h-2.38c0,1.33-0.02,3.65,0,4.98c0.41-0.14,2.34-0.81,2.72-0.95
					l0.06,0.14C368.41,257.38,367.76,257.79,366.21,258.64z M378.44,253.02c-0.17,4.33-0.33,8.27-1.64,10.97
					c-0.79,1.64-2.28,1.91-3.21,2.09c-0.15-0.93-0.48-1.51-1.76-2.45l0.06-0.15c1.37,0.39,2.16,0.44,2.51,0.44
					c0.5,0,0.83,0,1.41-1.47c0.73-1.91,1.31-6.45,1.16-10.04h-1.18c-0.6,4.69-2.59,10.72-8.58,12.98l-0.06-0.14
					c4.4-3.3,6.26-6.8,7.13-12.84h-1.16c-0.85,4.37-3.19,8.15-6.2,9.56l-0.06-0.12c2.55-2.55,4.19-6.06,4.75-9.44h-1.04
					c-0.66,1.49-1.58,2.94-2.8,4.13l-0.1-0.1c2.03-3.82,2.67-7.59,2.67-8.46c0-0.23-0.02-0.39-0.1-0.71l2.07,0.83
					c0.21,0.08,0.31,0.21,0.31,0.33c0,0.27-0.39,0.37-0.73,0.46c-0.54,1.66-0.89,2.51-1.1,3.03h5.97l0.5-0.52
					c0.12-0.14,0.23-0.23,0.31-0.23s0.23,0.08,0.37,0.19l0.97,0.73c0.15,0.1,0.23,0.17,0.23,0.29
					C379.15,252.69,378.67,252.92,378.44,253.02z"/>
				<path d="M391.22,252.81c0.48-1,1.02-2.61,1.22-3.46h-5.41c-0.56,0-1.53,0.02-2.45,0.19l-0.41-0.83
					c1.06,0.08,2.12,0.15,3.19,0.15h12.36l0.91-0.89c0.17-0.17,0.33-0.31,0.39-0.31c0.1,0,0.19,0.06,0.39,0.23l1.16,0.93
					c0.08,0.06,0.21,0.19,0.21,0.31c0,0.21-0.21,0.23-0.33,0.23h-8.07c-0.58,0.95-2.14,2.84-2.67,3.46h7.55l0.58-0.6
					c0.21-0.21,0.27-0.27,0.39-0.27c0.1,0,0.27,0.12,0.37,0.21l0.95,0.81c0.13,0.1,0.17,0.21,0.17,0.27c0,0.19-0.08,0.25-0.83,0.66
					c0,2.34,0.02,5.31,0.04,7.65c0.02,0.97,0.1,2.51,0.1,3.46c0,0.89-0.75,0.97-1.04,0.97c-0.62,0-0.62-0.33-0.58-1.51h-11.8
					c0,0.08,0.02,0.56,0.02,0.66c0,0.75-0.66,0.95-1.02,0.95c-0.66,0-0.66-0.46-0.66-0.64c0-0.08,0.06-1.1,0.06-1.26
					c0.04-2.26,0.14-7.03,0.14-9c0-1.49-0.04-2.14-0.29-3.4l2.14,1.04H391.22z M387.63,253.31v10.66h2.76v-10.66H387.63z
					 M394.95,256.46v-3.15h-3.17v3.15H394.95z M394.95,260.09v-3.13h-3.17v3.13H394.95z M394.95,263.97v-3.38h-3.17v3.38H394.95z
					 M399.43,263.97v-10.66h-3.07v10.66H399.43z"/>
				<path d="M406.61,261.67c1.58-1.99,3.24-5.68,3.86-7.94h-0.48c-0.19,0-1.47,0-2.45,0.19l-0.39-0.83c1.18,0.1,2.38,0.15,3.46,0.15
					c0-1-0.04-2.47-0.04-3.36c-1.22,0.25-2.28,0.33-3.38,0.37v-0.17c0.42-0.14,4.52-1.51,5.6-2.32c0.27-0.21,0.35-0.35,0.44-0.5
					l1.43,1.2c0.08,0.06,0.15,0.17,0.15,0.29c0,0.21-0.21,0.21-0.39,0.21c0,0-0.25,0-0.6-0.02c-0.44,0.17-0.91,0.35-1.93,0.62
					c0,0.95,0.02,2.86,0.02,3.67h0.39l0.5-0.75c0.08-0.13,0.19-0.27,0.31-0.27c0.12,0,0.29,0.14,0.39,0.23l0.89,0.75
					c0.1,0.08,0.21,0.19,0.21,0.33c0,0.21-0.21,0.21-0.31,0.21h-2.38c0,0.39,0.02,1.33,0.02,1.82c2.03,0.73,2.72,1.97,2.72,2.61
					c0,0.44-0.31,0.83-0.77,0.83c-0.5,0-0.56-0.21-0.97-1.37c-0.27-0.79-0.48-1.39-0.97-1.8c0.04,3.61,0.04,4.02,0.08,5.6
					c0.04,1.41,0.08,3.05,0.08,3.79c0,0.37,0,1.2-1.04,1.2c-0.54,0-0.6-0.31-0.6-0.71c0-0.68,0.17-3.73,0.19-4.35
					c0.04-2.03,0.02-2.84,0.02-4.65c-0.91,1.97-2.22,3.73-3.92,5.06L406.61,261.67z M413.27,266.05c1.45-0.71,3.79-2.07,4.29-2.99
					l1.49,1.1c0.12,0.08,0.19,0.19,0.19,0.31c0,0.29-0.48,0.27-1,0.27c-1.33,0.68-3.75,1.35-4.94,1.43L413.27,266.05z
					 M422.47,249.54l0.52-0.83c0.1-0.17,0.21-0.29,0.31-0.29s0.27,0.14,0.39,0.25l1.02,0.83c0.1,0.08,0.21,0.19,0.21,0.33
					c0,0.19-0.17,0.21-0.31,0.21h-4.4v1.7h1.66l0.5-0.75c0.08-0.12,0.17-0.25,0.31-0.25c0.1,0,0.25,0.12,0.37,0.23l0.85,0.72
					c0.12,0.1,0.21,0.21,0.21,0.33c0,0.19-0.19,0.21-0.31,0.21h-3.59v1.87h3.44l0.6-0.85c0.1-0.17,0.23-0.27,0.33-0.27
					c0.13,0,0.25,0.12,0.37,0.25l0.89,0.83c0.1,0.1,0.21,0.21,0.21,0.33c0,0.21-0.17,0.21-0.31,0.21h-8.63c-0.35,0-1.45,0-2.45,0.19
					l-0.41-0.83c1.06,0.08,2.14,0.15,3.19,0.15h1.35v-1.87h-0.5c-0.27,0-1.43,0-2.45,0.21l-0.39-0.83c0.62,0.04,1.54,0.12,3.34,0.12
					c0-0.81-0.02-1.31-0.02-1.7h-1.37c-0.37,0-1.45,0-2.45,0.19l-0.42-0.83c1.51,0.12,2.84,0.14,3.19,0.14h1.02
					c-0.02-0.93-0.04-1.16-0.37-2.22l2.12,0.64c0.1,0.02,0.29,0.08,0.29,0.31c0,0.27-0.48,0.5-0.58,0.54v0.73H422.47z M422,256.03
					l0.48-0.52c0.08-0.08,0.21-0.21,0.29-0.21c0.1,0,0.25,0.12,0.33,0.19l0.81,0.68c0.12,0.1,0.23,0.23,0.23,0.37
					c0,0.21-0.25,0.37-0.6,0.54c-0.02,0.21-0.02,0.35-0.02,0.77c0,0.71,0.17,3.79,0.17,4.42c0,0.29-0.04,0.95-0.95,0.95
					c-0.54,0-0.54-0.27-0.52-0.71h-4.94c0.04,0.48,0.06,0.95-0.93,0.95c-0.35,0-0.54-0.1-0.54-0.48c0-0.04,0.02-0.21,0.04-0.5
					c0.04-0.77,0.04-3.01,0.04-3.92c0-1.82,0-2.01-0.23-3.28l1.64,0.72H422z M417.27,256.53V258h4.94v-1.47H417.27z M417.27,258.5
					v1.49h4.94v-1.49H417.27z M417.27,260.49v1.53h4.94v-1.53H417.27z M420.75,263.31c1.87,0.17,4.5,1.1,4.5,2.34
					c0,0.5-0.46,0.81-0.83,0.81c-0.48,0-0.95-0.52-1.31-0.91c-0.13-0.17-1.26-1.47-2.36-2.09V263.31z"/>
				<path d="M432.66,252.79c0,0.66-0.56,1.2-1.2,1.2c-0.66,0-1.2-0.54-1.2-1.2s0.52-1.2,1.2-1.2
					C432.12,251.59,432.66,252.11,432.66,252.79z M432.66,260.96c0,0.68-0.56,1.2-1.2,1.2c-0.66,0-1.2-0.52-1.2-1.2
					c0-0.64,0.52-1.2,1.2-1.2C432.12,259.76,432.66,260.3,432.66,260.96z"/>
				<path d="M437.62,264.1h1.14c1.08,0,1.45-0.42,1.45-1.26v-11.22c0-0.64-0.6-0.75-1-0.75h-1.58v-0.64h0.37
					c1.6,0,3.13-0.73,3.38-0.87c0.14-0.08,0.21-0.12,0.29-0.12c0.19,0,0.23,0.12,0.23,0.29v13.31c0,0.89,0.44,1.26,1.45,1.26h1.14
					v0.66h-6.88V264.1z"/>
				<path d="M453.92,265.15c-1.43,0-2.63-1-3.4-2.24c-0.87-1.43-1.26-3.98-1.26-5.91c0-4.42,1.89-7.78,4.67-7.78
					c2.14,0,4.67,2.3,4.67,7.96C458.58,262.27,456.45,265.15,453.92,265.15z M451.59,252.69c-0.29,1.04-0.48,2.78-0.48,4.5
					c0,4.62,1.1,7.26,2.8,7.26c1.43,0,2.07-1.91,2.3-2.7c0.29-1.06,0.5-2.82,0.5-4.56c0-4.73-1.14-7.26-2.8-7.26
					C452.44,249.93,451.8,251.97,451.59,252.69z"/>
				<path d="M463.85,251.26l-0.19,5.23c0.89-0.79,1.68-1.43,3.21-1.43c2.99,0,4.42,2.47,4.42,4.75c0,3.01-2.38,5.35-5.12,5.35
					c-2.36,0-3.92-1.76-3.92-3.05c0-0.79,0.5-1.29,1.2-1.29c0.62,0,1.08,0.41,1.08,1.08c0,0.21-0.02,0.29-0.1,0.62
					c-0.04,0.17-0.06,0.46-0.06,0.58c0,0.89,0.93,1.35,1.76,1.35c1.68,0,3.25-1.6,3.25-4.38c0-2.63-1.39-4.08-2.9-4.08
					c-0.83,0-2.09,0.46-3.24,1.8l-0.31-0.17l0.31-8h7.22l-0.42,1.64H463.85z"/>
				<path d="M477.58,263.95c0.02,0.68-0.56,1.2-1.2,1.2c-0.68,0-1.2-0.54-1.2-1.2s0.52-1.2,1.2-1.2
					C477.02,262.75,477.58,263.29,477.58,263.95z"/>
				<path d="M490.58,249.62v1.1c-3.3,5.08-4.46,7.96-4.73,12.59c-0.04,0.54-0.1,1.85-1.16,1.85c-0.52,0-1.06-0.44-1.06-1.14
					c0-1.47,1.45-5.83,5.83-12.75h-3.55c-3.01,0-3.46,1.39-3.92,2.72l-0.62-0.14l0.85-4.21H490.58z"/>
				<path d="M498.82,265.15c-1.43,0-2.63-1-3.4-2.24c-0.87-1.43-1.26-3.98-1.26-5.91c0-4.42,1.89-7.78,4.67-7.78
					c2.14,0,4.67,2.3,4.67,7.96C503.48,262.27,501.35,265.15,498.82,265.15z M496.49,252.69c-0.29,1.04-0.48,2.78-0.48,4.5
					c0,4.62,1.1,7.26,2.8,7.26c1.43,0,2.07-1.91,2.3-2.7c0.29-1.06,0.5-2.82,0.5-4.56c0-4.73-1.14-7.26-2.8-7.26
					C497.34,249.93,496.7,251.97,496.49,252.69z"/>
				<path d="M510.39,254.56v1.64c0.56-0.56,1.62-1.64,3.42-1.64c1.93,0,2.3,1.26,2.49,1.87c0.68-0.68,1.85-1.87,3.71-1.87
					c1.83,0,2.65,1.1,2.65,3.4v4.89c0,0.79,0.42,1.24,1.04,1.24h0.37v0.66h-4.33v-0.66h0.39c0.73,0,1.04-0.56,1.04-1.24v-4.77
					c0-0.58-0.08-2.63-1.8-2.63c-0.58,0-1.89,0.33-2.94,1.8c0.02,0.17,0.04,0.33,0.04,0.71v4.89c0,0.87,0.48,1.24,1.04,1.24h0.6
					v0.66h-4.77v-0.66h0.6c0.58,0,1.06-0.39,1.06-1.24v-4.77c0-0.44-0.06-2.63-1.8-2.63c-0.5,0-1.82,0.27-2.8,1.64v5.76
					c0,0.87,0.48,1.24,1.04,1.24h0.37v0.66h-4.31v-0.66h0.37c0.62,0,1.04-0.44,1.04-1.24v-6.24c0-0.64-0.37-0.97-0.85-0.97
					c-0.25,0-0.46,0.02-0.62,0.08l-0.1-0.39L510.39,254.56z M521.11,253.33c0.31-0.41,0.48-0.58,1.2-1.33
					c0.44-0.48,1.18-1.29,1.18-2.01c0-0.27-0.17-0.77-0.64-0.77c-0.37,0-0.71,0.29-0.71,0.56c0,0.08,0.19,0.46,0.19,0.54
					c0,0.25-0.23,0.54-0.58,0.54c-0.42,0-0.62-0.35-0.62-0.71c0-0.71,0.79-1.49,1.83-1.49c0.85,0,1.51,0.54,1.51,1.41
					c0,0.77-0.39,1.12-0.64,1.35c-0.23,0.23-1.51,1.27-1.72,1.56h1.29c0.54,0,0.71-0.42,0.81-0.71l0.33,0.1l-0.44,1.43h-2.99V253.33
					z"/>
			</g>
		</g>
		<g>
			<g>
				<path class="st1" d="M110.54,163.4c2.14-1.51,4.61-3.33,6.69-6.42h-5.73v-3.16h6.69v-3.19h-6.86v-3.12h3.66
					c-0.03-0.27-0.36-3.06-0.99-4.91h-2.01v-3.13h6.2v-2.85h3.16v2.85h5.7v3.13h-1.55c-0.69,3.16-0.76,3.54-1.19,4.91h3.23v3.12
					h-6.2v3.19h5.44v3.16h-4.81c0.76,0.96,2.14,2.68,4.05,3.91l-1.65,3.09c-1.71-1.72-2.11-2.27-3.03-3.67v8.62h-3.16v-8.55
					c-2.7,3.74-4.58,5.25-5.83,6.18L110.54,163.4z M117,142.59c0.49,1.65,0.99,4.5,1.02,4.91h3.33c0.4-1.37,0.86-3.67,1.02-4.91H117
					z M142.15,139.85c-3,1.48-6.66,2.44-10.18,2.58v5.22h10.18v3.3h-3.23v17.99h-3.43v-17.99h-3.53v0.93
					c0,9.58-1.81,13.25-4.42,17.06l-3.2-2.3c2.87-3.57,4.32-7.07,4.32-14.66v-12.77c5.8,0.1,9.46-1.51,11.6-2.58L142.15,139.85z"/>
				<path class="st1" d="M159.62,153.41c-2.27,0.51-9.46,1.68-11.67,1.96l-0.53-3.16c0.3-0.04,4.68-0.48,5.47-0.58v-3.43h-3.92
					v-2.75h0.23l-2.08-2.23c0.89-0.79,3.69-3.09,4.98-6.69l3.23,0.62c-0.13,0.45-0.17,0.55-0.53,1.44h7.71v2.75h-5.01
					c0.36,0.65,0.63,1.17,0.89,1.79l-3.23,1.24c-0.2-0.82-0.66-2.23-1.05-3.02h-0.86c-0.23,0.41-1.55,2.4-3.49,4.12h10.09v2.75
					h-3.86v3.09c2.24-0.27,2.93-0.41,3.86-0.58v1.99c2.67-1.75,3-3.64,3.13-7.76h11.87v6.39c0,0.62,0.13,0.75,0.4,0.75
					c0.72,0,0.79,0,0.86-0.93c0-0.28,0.03-1.61,0.03-1.92l2.83,0.79c-0.17,3.64-0.26,4.81-2.08,4.81h-3.06
					c-1.05,0-2.04-0.65-2.04-2.33v-4.88h-5.93c-0.07,1.27-0.36,5.25-4.05,7.79h2.83v1.41h13.91v2.95H167.3
					c1.55,1.27,3.72,3.02,11.73,5.01l-1.48,3.23c-4.75-1.37-9.23-3.5-12.92-6.9v7.72h-3.2v-7.76c-3.92,4.05-9.36,6.01-12.79,6.93
					l-1.35-3.26c4.25-0.76,8.96-2.85,11.6-4.98h-11.27v-2.95h13.81v-1.17L159.62,153.41z M166.97,141.32
					c-1.02,1.75-1.62,2.4-2.34,3.12l-2.8-2.03c2.14-1.99,3.03-3.85,3.66-5.73l3.33,0.51c-0.2,0.58-0.3,0.89-0.46,1.37h10.18v2.75
					h-6.53c0.36,0.58,0.63,1.13,0.86,1.75l-2.97,1.27c-0.26-0.69-0.92-2.27-1.29-3.02H166.97z M168.05,148.19
					c1.62,1.44,2.64,2.47,3.46,3.57l-2.14,2.09c-0.53-0.65-1.85-2.3-3.36-3.6L168.05,148.19z"/>
				<path class="st1" d="M188.75,149.25c-1.55,1.44-2.5,2.2-3.39,2.88l-2.37-3.12c4.19-2.4,8.37-7.52,9.89-12.5l3.43,0.93
					c-1.19,3.26-2.9,7.11-7.18,11.4h20.3c0,3.47-0.1,12.39-1.35,16.93c-0.86,3.09-3.1,3.19-4.55,3.19h-5.04l-0.66-3.64h5.04
					c1.88,0,2.18-1.72,2.44-3.23c0.26-1.54,0.69-4.77,0.66-9.78h-7.65c-0.86,9.27-5.44,13.66-12.26,16.65l-2.01-3.3
					c7.15-3.12,9.92-6.25,10.75-13.36h-6.03V149.25z M213.08,151.86c-2.7-1.89-8.4-7.93-10.68-14.32l3.43-1.03
					c1.71,4.29,5.24,9.61,9.66,12.36L213.08,151.86z"/>
				<path class="st1" d="M220.03,142.46h10.91v3.06h-10.91V142.46z M220.86,137.37h9.03v3.09h-9.03V137.37z M220.86,147.43h9.03
					v3.12h-9.03V147.43z M220.86,152.55h9.03v3.06h-9.03V152.55z M220.86,157.8h9.03v9.79h-6.06v1.44h-2.97V157.8z M223.82,160.76
					v4.02h3.1v-4.02H223.82z M250.85,160.07c-0.73,0.72-1.09,1.06-3.59,3.09c1.55,1.41,2.93,2.09,3.96,2.64l-1.68,3.23
					c-4.22-2.4-7.88-6.01-9-10.85c-0.13,0.17-1.12,1.24-2.34,2.13v4.6c2.6-0.21,3.66-0.38,4.91-0.55v3.23
					c-2.47,0.38-7.65,0.96-10.98,1.06l-0.56-3.47c0.99,0,1.81,0,3.56-0.07v-2.81c-1.29,0.72-2.34,1.13-3.69,1.65l-1.35-2.99
					c1.15-0.34,4.29-1.17,6.86-3.3h-6v-2.58h4.68v-1.75h-3.49v-2.37h3.49v-1.51h-4.05v-2.44h4.05v-1.13h2.97v1.13h4.98v-1.13h3v1.13
					h4.29v2.44h-4.29v1.51h3.63v2.37h-3.63v1.75h4.48v2.58h-7.78c0.4,0.82,0.92,1.82,1.81,3.09c1.32-1.03,1.91-1.61,3.1-2.85
					L250.85,160.07z M231.54,143.62c1.71-0.38,3.33-0.75,6.06-2.06h-6.39v-2.88h8.17v-1.92h3.33v1.92h8.34v2.88h-6.33
					c1.52,0.86,3.59,1.58,6.33,2.16l-1.35,2.44c-1.12-0.17-4.25-0.79-6.99-2.44l1.68-2.16h-6.59l1.98,2.16
					c-2.57,1.51-6.13,2.44-6.92,2.64L231.54,143.62z M238.59,149.46v1.51h4.98v-1.51H238.59z M238.59,153.34v1.75h4.98v-1.75H238.59
					z"/>
				<path class="st1" d="M259.42,152.41c-1.09,1.54-1.65,2.16-2.27,2.85l-1.48-4.39c1.78-1.99,4.91-7.38,5.7-14.14l3.43,0.45
					c-0.1,1.3-0.36,4.15-2.01,8.55v23.17h-3.36V152.41z M277.75,143.55c-1.94-1.75-4.15-3.12-6.46-4.33l2.11-2.88
					c2.14,1.06,4.55,2.58,6.63,4.12l-2.04,3.09h8.54v3.4h-8.83v6.49h7.61v3.4h-7.61v7.62h9.59v3.33h-22.64v-3.33h9.56v-7.62h-7.65
					v-3.4h7.65v-6.49h-8.73v-3.4H277.75z"/>
				<path class="st1" d="M307.58,154.2l15.66-1.72l0.26,3.4l-15.92,1.75v6.8c0,0.65,0.46,0.65,0.69,0.65h9.06
					c0.53,0,0.92-0.21,1.05-0.89c0.13-0.58,0.23-3.43,0.23-4.6l3.59,0.93c-0.13,5.18-0.3,8.14-3.59,8.14h-11.34
					c-0.86,0-3.16,0-3.16-2.54v-8.1l-11.34,1.27l-0.23-3.43l11.57-1.27v-4.15c-1.91,0.24-4.05,0.38-5.93,0.52l-1.09-3.5
					c2.54-0.1,11.96-0.45,19.51-3.23l1.71,3.23c-3.82,1.44-6.79,1.96-10.75,2.54V154.2z M306.36,136.65h3.43v3.02h12.82v8.21h-3.43
					v-4.77h-22.21v4.77h-3.46v-8.21h12.85V136.65z"/>
				<path class="st1" d="M334.04,148.53c-1.48,0.89-2.7,1.48-4.02,2.13l-1.68-3.47c5.11-1.89,10.84-6.15,14.04-10.58h3.69
					c3.16,4.19,7.78,8.27,14.24,10.47l-1.85,3.5c-1.02-0.45-2.04-0.89-3.96-2.06v2.57h-8.54v4.63h10.42v3.09h-10.42v5.56h13.35v3.5
					h-30.26v-3.5h13.38v-5.56H332.1v-3.09h10.35v-4.63h-8.4V148.53z M353.29,147.74c-2.77-1.85-6-4.39-9.1-8.1
					c-1.65,2.03-4.55,5.32-8.9,8.1H353.29z"/>
				<path class="st1" d="M379.79,138.78v27.05h-3.96v-23.35h-5.04v-3.71H379.79z"/>
				<path class="st1" d="M392.88,157.32c0.79-1.2,3.49-5.12,4.75-11.09h-4.25v-3.3h4.35v-6.25h3.16v6.25h3.66v3.3h-3.66v1.2
					c1.61,3.84,3.16,5.49,4.05,6.42l-1.68,3.16c-0.5-0.69-1.55-2.27-2.37-4.29v16.17h-3.16v-15.11c-1.42,5.08-2.74,6.87-3.63,8.1
					L392.88,157.32z M402.67,164.57c5.5-3.02,7.98-6.9,8.37-7.55h-5.67v-12.39h7.42v-1.96h-8.24v-3.36h8.24v-2.61h3.1v2.61h8.5v3.36
					h-8.5v1.96h7.45v12.39h-5.44c0.49,0.79,2.83,4.46,7.02,7.24l-1.91,3.06c-2.87-2.2-4.94-4.39-7.12-8.51v10.09h-3.1v-9.65
					c-3.13,5.08-6.43,7.28-8.24,8.41L402.67,164.57z M408.44,147.33v2.27h4.35v-2.27H408.44z M408.44,152.03v2.23h4.35v-2.23H408.44
					z M415.88,147.33v2.27h4.45v-2.27H415.88z M415.88,152.03v2.23h4.45v-2.23H415.88z"/>
				<path class="st1" d="M458.63,138.78v27.05h-3.96v-23.35h-5.04v-3.71H458.63z"/>
				<path class="st1" d="M479.3,159.79c-0.33,0.62-0.66,1.17-1.29,2.13l-3.43-1.37c0.76-1.17,1.71-2.64,3.76-7.24h-6v-3.26h30.92
					v3.26h-21.13c-0.26,0.69-1.09,2.71-1.35,3.26h19.48c-0.2,2.64-0.66,7.96-1.71,9.99c-0.73,1.37-1.91,2.37-3.82,2.37h-5.8
					l-0.76-3.6h5.93c1.19,0,2.08-0.62,2.44-5.53H479.3z M500.49,137.79v9.79h-25.18v-9.79H500.49z M478.61,140.91v3.57h18.59v-3.57
					H478.61z"/>
				<path class="st1" d="M507.65,157.32c0.79-1.2,3.49-5.12,4.75-11.09h-4.25v-3.3h4.35v-6.25h3.16v6.25h3.66v3.3h-3.66v1.2
					c1.61,3.84,3.16,5.49,4.05,6.42l-1.68,3.16c-0.5-0.69-1.55-2.27-2.37-4.29v16.17h-3.16v-15.11c-1.42,5.08-2.74,6.87-3.63,8.1
					L507.65,157.32z M517.44,164.57c5.5-3.02,7.98-6.9,8.37-7.55h-5.67v-12.39h7.42v-1.96h-8.24v-3.36h8.24v-2.61h3.1v2.61h8.5v3.36
					h-8.5v1.96h7.45v12.39h-5.44c0.49,0.79,2.83,4.46,7.02,7.24l-1.91,3.06c-2.87-2.2-4.94-4.39-7.12-8.51v10.09h-3.1v-9.65
					c-3.13,5.08-6.43,7.28-8.24,8.41L517.44,164.57z M523.2,147.33v2.27h4.35v-2.27H523.2z M523.2,152.03v2.23h4.35v-2.23H523.2z
					 M530.65,147.33v2.27h4.45v-2.27H530.65z M530.65,152.03v2.23h4.45v-2.23H530.65z"/>
			</g>
		</g>
	</g>
</g>
</svg>
