<?xml version="1.0" encoding="utf-8"?>
<!-- Generator: Adobe Illustrator 23.0.3, SVG Export Plug-In . SVG Version: 6.00 Build 0)  -->
<svg version="1.1" xmlns="http://www.w3.org/2000/svg" xmlns:xlink="http://www.w3.org/1999/xlink" x="0px" y="0px"
	 viewBox="0 0 650 295" style="enable-background:new 0 0 650 295;" xml:space="preserve">
<style type="text/css">
	.st0{fill:#00AE22;}
	.st1{fill:#FFFFFF;}
</style>
<g id="レイヤー_1">
</g>
<g id="レイヤー_2">
</g>
<g id="レイヤー_3">
	<g>
		<g>
			<g>
				<path class="st0" d="M77.47,80.26H99.8v3.86h-7.42v1.95h6.6v17.04h-3.75v-1.06H82.02v1.06h-3.72V86.07h5.7v-1.95h-6.53V80.26z
					 M82.02,95.05v3.24h13.22v-2.03c-0.35,0.3-0.82,0.47-1.27,0.47h-3.27c-0.82,0-1.7-0.64-1.7-1.88v-5.07h-1.67
					c-0.19,4.72-2.31,6.9-3.2,7.84L82.02,95.05z M82.02,89.78v4.55c1.74-1.88,1.91-3.59,1.98-4.55H82.02z M87.39,84.12v1.95h1.6
					v-1.95H87.39z M95.23,91.51v-1.73h-2.85v2.84c0,0.5,0,0.74,0.4,0.74c0.75,0,0.9,0,0.99-2.15L95.23,91.51z"/>
				<path class="st0" d="M112.41,101.19v0.27c-2.59,0.67-7.96,1.41-9.26,1.56l-0.33-3.83c0.97-0.07,1.93-0.15,3.58-0.35v-5.86h-3.39
					v-3.39h3.39v-1.04h-1.81v-1.01c-0.64,0.54-0.85,0.67-1.23,0.89l-0.97-4.08c0.75-0.54,2.69-1.9,4.1-4.72h3.75
					c0.64,1.29,1.74,2.67,2.9,3.49c0.17-1.46,0.14-2.2,0.12-2.77l3.37,0.37c-0.02,0.72-0.02,1.41-0.17,2.87h0.9v-3.96h3.51v3.96
					h3.91v3.69h-3.91v1.66c0,0.32-0.02,0.59-0.05,0.79h4.38v3.83h-3.82c1.27,3.49,3.44,5.22,4.29,5.91l-2.24,3.71
					c-2.62-2.35-3.58-4.65-4.17-6.53c-1.79,4.28-4.55,6.04-5.49,6.63L112.41,101.19z M105.11,93.54c0.42,1.29,0.75,3.59,0.82,4.2
					l-2.59,0.79c-0.02-1.21-0.28-2.99-0.61-4.25L105.11,93.54z M110.06,85.06c-0.87-1.01-1.25-1.66-1.58-2.23
					c-0.35,0.62-0.66,1.11-1.56,2.23H110.06z M112.74,93.54v-3.83h4.59c0.02-0.27,0.02-0.37,0.02-0.57v-1.88h-1.48
					c-0.26,1.06-0.45,1.53-0.66,2.1l-3.16-1.51c0.68-1.9,0.87-3.24,1.08-4.7l-1.74,3.07v2.33h-1.79v1.04h2.45v3.39h-2.45v5.42
					c1.37-0.2,2-0.32,2.78-0.45l0.02,1.34c1.13-0.69,3.18-2.33,4.22-5.74H112.74z M113.1,94.06c-0.26,1.46-0.87,3.22-0.99,3.59
					l-2.26-0.54c0.49-1.21,0.75-3.22,0.8-3.59L113.1,94.06z"/>
				<path class="st0" d="M128.44,98.74c1.11-1.56,4.05-5.59,4.48-17.56l4.08,0.57c-0.8,11.72-2.59,16.75-5.11,20.28L128.44,98.74z
					 M144.3,81.3c0.42,1.31,0.71,3.07,0.8,3.61l0.49-0.12c0.92,6.08,1.84,9.62,4.9,13.9l-3.79,3.14c-2.9-4.5-4.71-10.09-5.4-20.08
					L144.3,81.3z M145.76,84.17c-0.28-1.41-0.59-2.7-1.06-4.01l1.86-0.47c0.54,1.24,0.87,2.3,1.22,3.88L145.76,84.17z M148.89,83.85
					c-0.19-0.82-0.78-2.97-1.2-3.98l2.03-0.37c0.59,1.39,0.85,2.25,1.2,3.88L148.89,83.85z"/>
				<path class="st0" d="M154.2,98.71c5.84-2.52,10.32-7.05,12.6-13.11h-11.17V81.5h16.66c-0.68,4.2-1.86,7.22-4.12,10.71
					c4.15,3.14,6.29,5.37,7.59,6.75l-3.51,3.59c-2.26-2.77-5.32-5.91-6.62-7.1c-4.52,4.87-7.47,6.18-9.12,6.9L154.2,98.71z"/>
				<path class="st0" d="M199.33,77.1h-7.25v26.37h-5.39V71.45h12.63V77.1z"/>
				<path class="st0" d="M216.1,85.49v-4.35h-12.57v-5.85h12.57v-3.87h5.74v3.87h12.73v5.85h-12.73v4.35h10.05v18.63h-5.68v-1.54
					h-14.36v1.54h-5.71V85.49H216.1z M211.85,91.18v5.68h14.36v-5.68H211.85z"/>
				<path class="st0" d="M241.48,84.57c-0.52,0.34-0.65,0.44-1.14,0.72l-2.06-5.2c0.82-0.45,2.35-1.27,3.53-3.01h-3.04v-4.21h4.5
					c0.06-0.62,0.1-1.03,0.13-1.64l5.22,0.21c-0.07,0.58-0.1,0.92-0.16,1.44h6.2c-0.07,4.55-0.16,8.87-1.96,10.14h14.3v15.27h-5.09
					c3.56,1.2,6.85,1.33,8.13,1.37l-2.22,4.73c-3.66-0.38-7.8-1.47-11.29-3.22l2.77-2.88h-10.22l2.55,2.91
					c-3.62,1.68-6.66,2.57-11.1,3.15l-2.12-4.69c4.11-0.17,6.98-0.79,8.65-1.37h-5.58V84.57z M246.77,82.99l-0.59-3.25
					c-1.01,1.61-1.99,2.6-2.68,3.25H246.77z M248.4,79.26c1.04,0,1.11-0.62,1.24-2.19h-2.15c-0.26,0.72-0.55,1.4-1.01,2.19H248.4z
					 M246.83,86.31v1.1h14.82v-1.1H246.83z M246.83,89.98v1.13h14.82v-1.13H246.83z M246.83,93.71v1.13h14.82v-1.13H246.83z
					 M255.97,72.28h12.92v9.59h-12.92V72.28z M260.77,76.08v1.95h3.13v-1.95H260.77z"/>
				<path class="st0" d="M275.26,72.48h28.53v31.57h-5.22v-1.23h-17.98v1.23h-5.32V72.48z M291.12,80.53v-2.74h-10.54v2.74H291.12z
					 M285.21,85.39h-4.63v12.09h6.98l-0.55-4.18h3.13c0.98,0,0.98-0.58,0.98-0.96v-6.95h-5.74c1.34,1.71,2.81,4.14,3.79,6.3
					l-4.28,3.01c-0.55-1.4-2.22-4.93-3.46-6.61L285.21,85.39z M296.18,94.91c0,1.1-0.42,2.09-1.44,2.57h3.82V85.39h-2.38V94.91z
					 M298.56,80.53v-2.74h-2.38v2.74H298.56z"/>
				<path class="st0" d="M318.62,84.71h-1.34v8.01c0.39-0.14,0.55-0.17,1.96-0.69l0.07,5.34c-3.17,1.44-7.25,2.81-9.92,3.56
					l-0.82-5.96c1.01-0.21,2.09-0.38,3.43-0.72v-9.55h-2.84v-5.44H312v-7.84h5.29v7.84h2.02v2.19l0.98-0.27v-6.64h4.96v5.31
					l2.09-0.58v-7.84h5.03v6.5l7.15-1.95c0,2.36-0.29,13.46-0.72,15.44c-0.56,2.74-2.45,2.74-3,2.74h-2.32l-1.04-5.62h0.72
					c0.95,0,1.31,0,1.31-5.31l-2.09,0.58v12.22h-5.03V85.15l-2.09,0.58V97.2c0,0.44,0.23,0.82,0.85,0.82h7.7
					c0.95,0,1.14-0.1,1.31-0.75c0.07-0.24,0.29-1.37,0.33-2.91l4.9,1.13c-0.16,3.12-0.42,4.72-0.88,5.85
					c-0.95,2.23-3.17,2.23-3.59,2.23h-12.44c-1.4,0-3.13-0.99-3.13-3.36V87.07l-1.4,0.38L318.62,84.71z"/>
				<path class="st0" d="M344.5,74.84h6.92c-0.16-0.41-0.88-2.09-1.21-2.64l6.01-0.92c0.46,0.82,1.17,2.71,1.44,3.56h5.06
					c0.39-0.96,0.62-1.64,1.08-3.53l6.14,0.68c-0.36,1.06-0.91,2.4-1.11,2.84h6.69v5H344.5V74.84z M345.87,81.52h13.87v19.72
					c0,2.02-1.24,2.84-2.38,2.84h-4.7l-0.75-5.24h2.25c0.55,0,0.55-0.45,0.55-0.72v-1.58h-3.62v7.53h-5.22V81.52z M351.09,85.97v1.4
					h3.62v-1.4H351.09z M351.09,91.11v1.54h3.62v-1.54H351.09z M361.44,81.9h5.22v15.13h-5.22V81.9z M368.81,81.04h5.32v19.45
					c0,3.22-1.08,3.59-3.98,3.59h-5.88l-0.91-5.44h4.83c0.49,0,0.62-0.14,0.62-0.75V81.04z"/>
				<path class="st0" d="M392.34,104.05h-12.63V98.4h7.25V72.04h5.39V104.05z"/>
				<path class="st0" d="M405.59,89.64c-0.49,0.58-0.69,0.79-1.21,1.37l-1.24-8.22c3.1-4.14,3.82-9.07,4.08-11.51l5.19,0.48
					c-0.03,0.21-0.16,1.17-0.2,1.4h8.13v-1.71h5.19v1.71h9.04v4.14h-22.52v-3.05c-0.16,0.89-0.52,2.88-1.37,5.72v24.07h-5.09V89.64z
					 M432.32,94.02v2.74h-6.33v3.83c0,3.25-1.83,3.46-3.59,3.46h-6.07l-0.75-4.72h4.37c0.69,0,0.82-0.34,0.82-0.89v-1.68h-6.98
					v-2.74h-2.02v-6.64h22.42v6.64H432.32z M432.64,78.37v7.84h-19.42v-7.84H432.64z M429.28,91.25h-12.7v1.37h12.7V91.25z
					 M418.44,81.56v1.51h8.88v-1.51H418.44z"/>
				<path class="st0" d="M438.44,76.49c2.12-1.4,3.98-3.46,4.83-5.31l5.06,1.54c-1.8,3.66-4.8,7.22-7.77,9.59L438.44,76.49z
					 M446.47,100.7v3.32h-5.16v-11.4c-0.59,0.55-0.91,0.82-1.5,1.34l-1.34-7.19c2.35-1.61,5.29-5.31,6.53-7.6l4.01,2.64h7.64v-2.36
					h-7.21v-5.2h7.21v-2.84h5.29v2.84h7.21v5.2h-7.21v2.36h8V87h-8v2.33h6.76v5.21h-6.76v3.42c0.65,0.03,1.8,0.1,3.53,0.1
					c2.09,0,3.49-0.07,4.86-0.14l-1.08,5.41c-10.31,0.1-13.12-0.17-16.55-4.21c-1.24,2.95-2.55,4.42-3.23,5.21L446.47,100.7z
					 M454.93,88.75c-0.1,1.13-0.2,2.71-0.65,5c0.26,0.48,0.88,1.54,2.38,2.6V87h-7.93v-3.83c-0.39,0.75-0.98,1.85-2.25,3.6V99.5
					c1.21-1.37,3.13-4.07,3.62-11.2L454.93,88.75z"/>
				<path class="st0" d="M475.29,98.61c2.09,0,10.8-0.07,15.41-2.43c-0.2,0.07-0.49,0.14-0.98,0.14h-6.27l-0.85-4.62
					c-1.66,1.75-3.33,3.12-5.16,4.11l-3.43-4.52c3.72-2.02,5.91-4.14,6.85-5.44h-6.53v-5.17h4.41v-7.71h5.35v7.71h3.3v-9.11h5.32
					v2.16h10.12v5.03h-10.12v1.92h12.5v5.17h-6.1c0.82,0.92,3.56,3.77,6.69,5.62l-3.43,4.45c-1.99-1.16-5.32-4.28-7.9-7.67l3.46-2.4
					h-5.22v7.19c0,0.45,0,1.71-0.78,2.4c2.22-1.51,3.43-3.15,4.11-4.14l3.85,3.77c-2.42,3.22-7.25,8.8-22.85,9.21L475.29,98.61z
					 M485.5,88.23c-0.36,0.58-0.91,1.47-2.55,3.08h3.46c0.98,0,0.98-0.92,0.98-1.23v-4.25h-5.55L485.5,88.23z"/>
				<path class="st0" d="M526.06,73.78v26.98h-5.91V79.4h-5.29v-5.62H526.06z"/>
				<path class="st0" d="M543.62,86.21c-0.78,0.72-1.27,1.13-1.99,1.75l-3.52-5.27c6.36-4.21,8.23-9.07,9.01-11.4l5.35,1.06
					c-0.55,1.64-1.89,5.75-5.52,10.31h14.52c-2.71-3.56-4.44-7.53-5.45-10.13l5.35-1.3c1.73,4.08,4.31,8.59,8.98,11.81l-3.62,4.93
					c-0.69-0.51-1.21-0.92-1.79-1.47c-0.23,5.82-0.46,12.16-1.53,14.79c-0.72,1.75-1.6,2.81-4.15,2.81h-6.1l-1.08-5.68h4.83
					c0.72,0,1.27-0.38,1.47-0.79c0.26-0.55,0.78-3.63,0.98-9.52h-5.55c-0.98,8.59-5.48,12.98-12.17,16.09l-3.17-5.45
					c8.55-3.05,9.56-7.81,9.79-10.65h-4.63V86.21z"/>
			</g>
		</g>
		<path class="st0" d="M569.66,175.51H80.34c-13.05,0-23.62-10.58-23.62-23.62v-5.97c0-13.05,10.58-23.62,23.62-23.62h489.32
			c13.05,0,23.62,10.58,23.62,23.62v5.97C593.29,164.93,582.71,175.51,569.66,175.51z"/>
		<g>
			<path class="st0" d="M248.66,38.74v-5.46h-13.51v-4.29h13.51v-4.57h4.25v4.57h13.61v4.29h-13.61v5.46h10.48V56.9h-4.25v-1.79
				h-16.61v1.79h-4.22V38.74H248.66z M242.53,42.86v8.07h16.61v-8.07H242.53z"/>
			<path class="st0" d="M276.88,26.24c0.1-0.72,0.17-1.24,0.23-1.96l3.72,0.07c-0.07,0.96-0.1,1.37-0.2,1.89h6.59
				c-0.26,6.97-0.92,9.89-3.79,9.89h-3.72l-0.59-3.57h2.83c1.12,0,1.22-0.48,1.48-2.99h-3.56c-0.79,2.09-2.21,5.22-6.79,7.49
				l-1.78-3.61c2.9-1.3,4.09-3.02,4.52-3.88h-4.25v-3.33H276.88z M281.59,51.44l1.98,2.4c-3.46,1.82-8.11,2.71-10.58,3.02
				l-1.55-3.54c2.74-0.1,6.66-1.03,8.77-1.89h-5.41V36.75h24.62v14.69h-5.54c3.26,1.27,5.77,1.65,8.87,1.79l-1.65,3.74
				c-3.26-0.34-6.76-1.06-11.01-3.09l2.11-2.44H281.59z M278.82,39.46v1.51h16.61v-1.51H278.82z M278.82,43.17v1.58h16.61v-1.58
				H278.82z M278.82,46.98v1.61h16.61v-1.61H278.82z M289.07,25.49h12.62v9.58h-12.62V25.49z M292.76,28.68v3.3H298v-3.3H292.76z"/>
			<path class="st0" d="M338.88,31.98h-13.51v3.29h10.98v15.35c0,3.12-1.98,3.64-2.97,3.64h-5.01l-0.76-4.43h3.89
				c0.72,0,0.76-0.31,0.76-0.93v-9.51h-6.89v17.44h-4.15V39.39h-6.63v15.17h-4.15V35.27h10.78v-3.29h-13.35v-4.19h13.35v-3.3h4.15
				v3.3h13.51V31.98z"/>
			<path class="st0" d="M346.75,46.29c0,2.61-0.26,6.52-0.96,9.06l-2.24-1.37c0.72-2.47,1.05-4.98,1.05-7.73L346.75,46.29z
				 M357.4,54.05c-0.63,1.82-2.14,2.82-3.79,2.82h-3.79l-0.69-3.5h3.69c0.73,0,1.09,0,1.52-0.86c0.53-1.1,0.86-5.05,0.86-8.03
				h-10.28V25.56h13.84v3.26h-4.22v2.16h3.56v2.78h-3.56v2.27h3.56v2.85h-3.56v2.44h4.09c-0.07,6.39-0.56,9.92-0.99,11.88
				c1.65-2.54,2.8-6.56,2.8-11.67V25.56h13.84v15.52h-4.05c0.53,3.88,2.01,8.31,5.27,11.71l-2.44,4.15
				c-3.36-3.54-5.73-9.06-6.46-15.86h-2.37v0.82c0,5.01-0.96,10.95-3.96,15.04L357.4,54.05z M349.23,46.29
				c0.16,2.23,0.2,4.19,0.16,6.52l-1.94,0.24c0.2-2.09,0.2-4.53,0.2-4.84c0-0.69-0.03-1.24-0.1-1.89L349.23,46.29z M348.57,28.82
				v2.16h2.77v-2.16H348.57z M348.57,33.76v2.27h2.77v-2.27H348.57z M348.57,38.88v2.44h2.77v-2.44H348.57z M351.66,46.05
				c0.3,1.82,0.43,3.33,0.49,5.66l-1.68,0.28c0.03-2.82-0.1-4.26-0.33-5.67L351.66,46.05z M353.84,45.74
				c0.49,2.13,0.59,3.91,0.63,4.7l-1.42,0.27c0-1.58-0.17-3.26-0.49-4.77L353.84,45.74z M364.26,29.61v7.55h6.13v-7.55H364.26z"/>
			<path class="st0" d="M411.32,30.88h-13.41v1.68h11.4v13.46h-8.44c4.45,3.91,9.1,5.53,10.98,6.08l-2.37,4.26
				c-3.46-1.41-8.11-4.5-11.57-8.55v9.03h-4.02v-8.96c-2.18,2.88-6.2,6.21-11.67,8.65l-2.37-4.19c7.22-2.71,9.76-5.08,11.11-6.32
				h-8.37V32.56h11.31v-1.68h-13.48v-3.81h13.48v-2.58h4.02v2.58h13.41V30.88z M386.44,37.85h7.45v-2.09h-7.45V37.85z M386.44,42.86
				h7.45v-2.09h-7.45V42.86z M397.91,35.75v2.09h7.51v-2.09H397.91z M397.91,40.77v2.09h7.51v-2.09H397.91z"/>
		</g>
		<g>
			<g>
				<path d="M232.39,201.3h1.43v17.77h3.95v1.12h-3.95v4.06c0,1.54,0.77,2.13,2.45,2.13h0.56v1.12h-8.89v-1.12h0.56
					c1.64,0,2.45-0.56,2.45-2.13v-4.06h-9.41v-1.22L232.39,201.3z M230.96,205.92l-8.08,13.16h8.08V205.92z"/>
				<path d="M251.67,203.12h-1.22c-1.5,0-2.48,0.84-2.48,2.41v18.44c0,1.47,0.87,2.42,2.48,2.42h0.94c2.13,0,4.2-0.74,5.42-1.47
					c2.31-1.4,3.32-3.08,4.06-4.3l0.91,0.46l-2.48,6.44h-17.81v-1.12h1.19c1.43,0,2.52-0.77,2.52-2.42v-18.44
					c0-1.57-0.98-2.41-2.52-2.41h-1.19v-1.15h10.18V203.12z"/>
				<path d="M266.06,201.96h10.04c8.19,0,13.26,4.2,13.26,12.6c0,5.98-3.15,12.95-12.95,12.95h-10.36v-1.12h1.19
					c1.5,0,2.52-0.8,2.52-2.42v-18.44c0-1.57-0.98-2.41-2.52-2.41h-1.19V201.96z M272.53,223.97c0,1.47,0.87,2.42,2.48,2.42h1.68
					c6.33,0,9.52-5.67,9.52-12.11c0-4.44-1.82-11.16-9.38-11.16h-1.82c-1.5,0-2.48,0.84-2.48,2.41V223.97z"/>
				<path d="M306.36,211.76l7.77,12.42c0.81,1.29,2.41,2.21,4.13,2.21h0.49v1.12h-9.9v-1.12h0.84c0.67,0,1.4-0.38,1.4-1.16
					c0-0.52-0.24-1.05-0.49-1.43l-6.19-9.9l-3.32,3.6v6.47c0,1.54,0.98,2.42,2.52,2.42h0.98v1.12h-9.73v-1.12h0.98
					c1.43,0,2.48-0.77,2.48-2.42v-18.44c0-1.57-0.98-2.41-2.48-2.41h-0.98v-1.15h9.73v1.15h-0.98c-1.5,0-2.52,0.84-2.52,2.41v10.32
					l9.55-10.43c0.35-0.38,0.45-0.84,0.45-1.12c0-1.01-1.08-1.19-1.85-1.19h-0.91v-1.15h9.87v1.15h-0.63c-3.18,0-4.69,1.5-5.6,2.52
					L306.36,211.76z"/>
				<path d="M323.69,217.95h6.05v-6.03h1.25v6.03h6.07v1.25h-6.07v6.03h-1.25v-6.03h-6.05V217.95z"/>
				<path d="M367.18,210.44c-1.4,0-1.96,0.81-2.28,2.06l-3.89,15.48h-0.59l-3.94-14.01l-4.24,14.01h-0.51l-4.02-15.53
					c-0.44-1.71-1.18-2.01-1.98-2.01h-0.61v-0.81h6.47v0.81h-0.61c-1,0-1.42,0.37-1.42,1.13c0,0.34,0.02,0.49,0.22,1.22l2.89,11.12
					l3.43-11.34c-0.47-1.47-0.83-2.13-2.13-2.13h-0.51v-0.81h6.61v0.81h-0.86c-0.76,0-1.22,0.37-1.22,1.18
					c0,0.42,0.1,0.93,0.25,1.42l3.04,10.78l2.82-11.22c0.1-0.39,0.15-0.74,0.15-0.96c0-0.88-0.81-1.2-1.49-1.2h-0.78v-0.81h5.71
					v0.81H367.18z"/>
				<path d="M377.55,226.18c0,0.81-0.66,1.42-1.42,1.42c-0.81,0-1.42-0.64-1.42-1.42c0-0.78,0.61-1.42,1.42-1.42
					C376.89,224.76,377.55,225.37,377.55,226.18z"/>
				<path d="M384.23,227.51v-0.78h1.18c1,0,1.74-0.54,1.74-1.69v-12.91c0-1.1-0.69-1.69-1.74-1.69h-1.18v-0.81h7.79v0.81h-1.18
					c-1.05,0-1.74,0.56-1.74,1.69v12.91c0,1.1,0.69,1.69,1.74,1.69h1.18v0.78H384.23z"/>
				<path d="M401.57,226.18c0,0.81-0.66,1.42-1.42,1.42c-0.81,0-1.42-0.64-1.42-1.42c0-0.78,0.61-1.42,1.42-1.42
					C400.91,224.76,401.57,225.37,401.57,226.18z"/>
				<path d="M422.44,214.01c-0.88-1.37-2.67-4.04-5.93-4.04c-3.94,0-5.88,3.99-5.88,8.25c0,4.75,2.33,8.62,6.44,8.62
					c3.48,0,5.17-3.18,5.83-4.43l0.64,0.39c-0.93,1.89-2.67,5.17-7.22,5.17c-5.17,0-7.69-4.19-7.69-9.01c0-5.73,3.55-9.8,7.71-9.8
					c0.59,0,1.3,0.07,2.06,0.29c0.17,0.05,1.32,0.37,1.47,0.37c0.54,0,1.18-0.29,1.64-0.59l1.74,4.41L422.44,214.01z"/>
			</g>
		</g>
		<g>
			<g>
				<path d="M53.63,251.72l0.85-1.12c0.12-0.17,0.19-0.25,0.31-0.25s0.15,0.04,0.39,0.23l1.39,1.1c0.1,0.08,0.21,0.19,0.21,0.33
					c0,0.19-0.19,0.21-0.33,0.21h-6.91c0,0.68-0.02,3.67-0.02,4.27c0,0.21,0.02,4.52,0,5.12h5.5l1.04-1.12
					c0.15-0.17,0.21-0.25,0.31-0.25c0.12,0,0.19,0.06,0.39,0.23l1.37,1.1c0.1,0.08,0.21,0.19,0.21,0.31c0,0.19-0.19,0.23-0.31,0.23
					H42.43c-0.21,0-1.49,0-2.45,0.19l-0.41-0.83c1.39,0.12,2.8,0.15,3.19,0.15h5.29c-0.02-0.19-0.02-4.58-0.02-5.06v-4.33h-4.38
					c-0.27,0-1.43,0-2.45,0.19l-0.42-0.81c1.39,0.1,2.8,0.12,3.19,0.12h4.04c-0.04-4.71-0.04-5.25-0.52-6.76l2.51,0.66
					c0.21,0.06,0.33,0.1,0.33,0.29c0,0.17-0.1,0.25-0.19,0.31c-0.08,0.08-0.48,0.39-0.6,0.48c0,1.68-0.02,3.34-0.02,5.02H53.63z"/>
				<path d="M69.99,251.85h-2.43v6.68c1.68-0.5,2.16-0.68,2.63-0.85l0.08,0.17c-0.73,0.54-1.7,1.1-2.99,1.76
					c-0.85,0.44-1.93,0.97-2.55,1.29c-0.19,0.44-0.27,0.66-0.52,0.66c-0.15,0-0.27-0.15-0.33-0.25l-1.08-1.85
					c0.71,0.04,1.06,0.08,3.4-0.56c0-0.71,0.02-3.86,0.02-4.5v-2.55h-0.42c-0.37,0-1.43,0-2.45,0.19l-0.39-0.83
					c1.22,0.1,2.47,0.14,3.26,0.14c0-1.04,0-2.07-0.02-3.11c-0.02-1.74-0.06-2.2-0.27-3.07l2.09,0.71c0.1,0.04,0.29,0.12,0.29,0.31
					c0,0.25-0.41,0.56-0.71,0.75c-0.04,1.45-0.04,2.16-0.06,4.42h0.5l0.62-0.68c0.19-0.21,0.25-0.27,0.35-0.27
					c0.12,0,0.25,0.14,0.35,0.23l0.73,0.68c0.1,0.1,0.19,0.19,0.19,0.31C70.3,251.83,70.11,251.85,69.99,251.85z M79.26,262.46
					c-0.48,0.08-4.15,0.08-4.73,0.08c-3.4,0-4-0.17-4-2.43c0-0.81,0.06-4.38,0.06-5.1c0-0.21-0.02-1.14-0.02-1.33
					c-0.83,0.37-1.29,0.6-2.01,1.1l-0.71-0.58c1.12-0.37,2.41-0.93,2.72-1.08v-3.67c0-0.97-0.04-1.43-0.23-2.41l1.93,0.66
					c0.15,0.04,0.31,0.13,0.31,0.29c0,0.19-0.17,0.33-0.66,0.68c-0.02,0.62-0.04,3.32-0.04,3.86l2.26-1.02
					c0.02-2.07,0.02-3.55-0.04-5c-0.04-0.77-0.19-1.49-0.25-1.82l1.99,0.66c0.21,0.06,0.35,0.17,0.35,0.31
					c0,0.19-0.29,0.44-0.73,0.77c-0.04,1.87-0.04,2.14-0.04,4.5l2.01-0.89l0.5-0.83c0.1-0.17,0.21-0.35,0.35-0.35
					s0.27,0.08,0.39,0.17l0.97,0.6c0.08,0.04,0.21,0.19,0.21,0.33c0,0.25-0.23,0.46-0.52,0.73c0,6.22-0.04,7.65-2.47,8.29
					c-0.19-1.04-0.95-1.55-1.24-1.74v-0.1c0.35,0.04,0.48,0.04,0.64,0.04c1.45,0,1.68-0.19,1.68-4.56c0-1.41-0.02-1.64-0.04-2.24
					l-2.47,1.12c0.02,3.05,0.04,5.04,0.06,5.6c0,0.27,0.06,1.49,0.06,1.74c0,1-0.87,1.04-1.06,1.04c-0.29,0-0.5-0.1-0.5-0.54
					c0-0.23,0.06-1.29,0.06-1.49c0.04-1.33,0.04-2.12,0.06-5.76l-2.26,1.02c-0.02,0.83,0,7.2,0.02,7.44c0.02,0.27,0.23,0.5,0.5,0.58
					s3.23,0.08,3.63,0.08c2.14,0,2.78,0,3.21-0.77c0.39-0.73,0.83-2.26,0.91-2.51h0.15c0.04,0.75,0.1,1.97,0.39,2.47
					c0.12,0.21,0.48,0.39,0.48,0.6C81.17,261.3,80.81,262.19,79.26,262.46z"/>
				<path d="M93.03,249.81c0.48-1,1.02-2.61,1.22-3.46h-5.41c-0.56,0-1.53,0.02-2.45,0.19l-0.41-0.83c1.06,0.08,2.12,0.15,3.19,0.15
					h12.36l0.91-0.89c0.17-0.17,0.33-0.31,0.39-0.31c0.1,0,0.19,0.06,0.39,0.23l1.16,0.93c0.08,0.06,0.21,0.19,0.21,0.31
					c0,0.21-0.21,0.23-0.33,0.23H96.2c-0.58,0.95-2.14,2.84-2.68,3.46h7.55l0.58-0.6c0.21-0.21,0.27-0.27,0.39-0.27
					c0.1,0,0.27,0.12,0.37,0.21l0.95,0.81c0.12,0.1,0.17,0.21,0.17,0.27c0,0.19-0.08,0.25-0.83,0.66c0,2.34,0.02,5.31,0.04,7.65
					c0.02,0.97,0.1,2.51,0.1,3.46c0,0.89-0.75,0.97-1.04,0.97c-0.62,0-0.62-0.33-0.58-1.51h-11.8c0,0.08,0.02,0.56,0.02,0.66
					c0,0.75-0.66,0.95-1.02,0.95c-0.66,0-0.66-0.46-0.66-0.64c0-0.08,0.06-1.1,0.06-1.26c0.04-2.26,0.15-7.03,0.15-9
					c0-1.49-0.04-2.14-0.29-3.4l2.14,1.04H93.03z M89.44,250.31v10.66h2.76v-10.66H89.44z M96.76,253.46v-3.15h-3.17v3.15H96.76z
					 M96.76,257.09v-3.13h-3.17v3.13H96.76z M96.76,260.97v-3.38h-3.17v3.38H96.76z M101.24,260.97v-10.66h-3.07v10.66H101.24z"/>
				<path d="M108.42,258.67c1.58-1.99,3.23-5.68,3.86-7.94h-0.48c-0.19,0-1.47,0-2.45,0.19l-0.39-0.83c1.18,0.1,2.38,0.15,3.46,0.15
					c0-1-0.04-2.47-0.04-3.36c-1.22,0.25-2.28,0.33-3.38,0.37v-0.17c0.42-0.14,4.52-1.51,5.6-2.32c0.27-0.21,0.35-0.35,0.44-0.5
					l1.43,1.2c0.08,0.06,0.15,0.17,0.15,0.29c0,0.21-0.21,0.21-0.39,0.21c0,0-0.25,0-0.6-0.02c-0.44,0.17-0.91,0.35-1.93,0.62
					c0,0.95,0.02,2.86,0.02,3.67h0.39l0.5-0.75c0.08-0.13,0.19-0.27,0.31-0.27s0.29,0.14,0.39,0.23l0.89,0.75
					c0.1,0.08,0.21,0.19,0.21,0.33c0,0.21-0.21,0.21-0.31,0.21h-2.38c0,0.39,0.02,1.33,0.02,1.82c2.03,0.73,2.72,1.97,2.72,2.61
					c0,0.44-0.31,0.83-0.77,0.83c-0.5,0-0.56-0.21-0.97-1.37c-0.27-0.79-0.48-1.39-0.97-1.8c0.04,3.61,0.04,4.02,0.08,5.6
					c0.04,1.41,0.08,3.05,0.08,3.79c0,0.37,0,1.2-1.04,1.2c-0.54,0-0.6-0.31-0.6-0.71c0-0.68,0.17-3.73,0.19-4.35
					c0.04-2.03,0.02-2.84,0.02-4.65c-0.91,1.97-2.22,3.73-3.92,5.06L108.42,258.67z M115.08,263.05c1.45-0.71,3.79-2.07,4.29-2.99
					l1.49,1.1c0.12,0.08,0.19,0.19,0.19,0.31c0,0.29-0.48,0.27-1,0.27c-1.33,0.68-3.75,1.35-4.94,1.43L115.08,263.05z
					 M124.28,246.54l0.52-0.83c0.1-0.17,0.21-0.29,0.31-0.29c0.1,0,0.27,0.14,0.39,0.25l1.02,0.83c0.1,0.08,0.21,0.19,0.21,0.33
					c0,0.19-0.17,0.21-0.31,0.21h-4.4v1.7h1.66l0.5-0.75c0.08-0.12,0.17-0.25,0.31-0.25c0.1,0,0.25,0.12,0.37,0.23l0.85,0.72
					c0.12,0.1,0.21,0.21,0.21,0.33c0,0.19-0.19,0.21-0.31,0.21h-3.59v1.87h3.44l0.6-0.85c0.1-0.17,0.23-0.27,0.33-0.27
					c0.12,0,0.25,0.12,0.37,0.25l0.89,0.83c0.1,0.1,0.21,0.21,0.21,0.33c0,0.21-0.17,0.21-0.31,0.21h-8.63c-0.35,0-1.45,0-2.45,0.19
					l-0.41-0.83c1.06,0.08,2.14,0.15,3.19,0.15h1.35v-1.87h-0.5c-0.27,0-1.43,0-2.45,0.21l-0.39-0.83c0.62,0.04,1.53,0.12,3.34,0.12
					c0-0.81-0.02-1.31-0.02-1.7h-1.37c-0.37,0-1.45,0-2.45,0.19l-0.41-0.83c1.51,0.12,2.84,0.14,3.19,0.14h1.02
					c-0.02-0.93-0.04-1.16-0.37-2.22l2.12,0.64c0.1,0.02,0.29,0.08,0.29,0.31c0,0.27-0.48,0.5-0.58,0.54v0.73H124.28z
					 M123.81,253.03l0.48-0.52c0.08-0.08,0.21-0.21,0.29-0.21c0.1,0,0.25,0.12,0.33,0.19l0.81,0.68c0.12,0.1,0.23,0.23,0.23,0.37
					c0,0.21-0.25,0.37-0.6,0.54c-0.02,0.21-0.02,0.35-0.02,0.77c0,0.71,0.17,3.79,0.17,4.42c0,0.29-0.04,0.95-0.95,0.95
					c-0.54,0-0.54-0.27-0.52-0.71h-4.94c0.04,0.48,0.06,0.95-0.93,0.95c-0.35,0-0.54-0.1-0.54-0.48c0-0.04,0.02-0.21,0.04-0.5
					c0.04-0.77,0.04-3.01,0.04-3.92c0-1.82,0-2.01-0.23-3.28l1.64,0.72H123.81z M119.08,253.53V255h4.94v-1.47H119.08z
					 M119.08,255.5v1.49h4.94v-1.49H119.08z M119.08,257.49v1.53h4.94v-1.53H119.08z M122.56,260.31c1.87,0.17,4.5,1.1,4.5,2.34
					c0,0.5-0.46,0.81-0.83,0.81c-0.48,0-0.95-0.52-1.31-0.91c-0.12-0.17-1.26-1.47-2.36-2.09V260.31z"/>
				<path d="M134.47,249.79c0,0.66-0.56,1.2-1.2,1.2c-0.66,0-1.2-0.54-1.2-1.2s0.52-1.2,1.2-1.2
					C133.93,248.59,134.47,249.11,134.47,249.79z M134.47,257.96c0,0.68-0.56,1.2-1.2,1.2c-0.66,0-1.2-0.52-1.2-1.2
					c0-0.64,0.52-1.2,1.2-1.2C133.93,256.76,134.47,257.3,134.47,257.96z"/>
				<path d="M139.43,261.1h1.14c1.08,0,1.45-0.42,1.45-1.26v-11.22c0-0.64-0.6-0.75-1-0.75h-1.58v-0.64h0.37
					c1.6,0,3.13-0.73,3.38-0.87c0.15-0.08,0.21-0.12,0.29-0.12c0.19,0,0.23,0.12,0.23,0.29v13.31c0,0.89,0.44,1.26,1.45,1.26h1.14
					v0.66h-6.88V261.1z"/>
				<path d="M152.8,248.26l-0.19,5.23c0.89-0.79,1.68-1.43,3.21-1.43c2.99,0,4.42,2.47,4.42,4.75c0,3.01-2.38,5.35-5.12,5.35
					c-2.36,0-3.92-1.76-3.92-3.05c0-0.79,0.5-1.29,1.2-1.29c0.62,0,1.08,0.41,1.08,1.08c0,0.21-0.02,0.29-0.1,0.62
					c-0.04,0.17-0.06,0.46-0.06,0.58c0,0.89,0.93,1.35,1.76,1.35c1.68,0,3.26-1.6,3.26-4.38c0-2.63-1.39-4.08-2.9-4.08
					c-0.83,0-2.09,0.46-3.23,1.8l-0.31-0.17l0.31-8h7.22l-0.42,1.64H152.8z"/>
				<path d="M170.2,246.23h0.85v10.53h2.34v0.66h-2.34v2.41c0,0.91,0.46,1.26,1.45,1.26h0.33v0.66h-5.27v-0.66h0.33
					c0.97,0,1.45-0.33,1.45-1.26v-2.41h-5.58v-0.73L170.2,246.23z M169.35,248.97l-4.79,7.8h4.79V248.97z"/>
				<path d="M179.39,260.95c0.02,0.68-0.56,1.2-1.2,1.2c-0.68,0-1.2-0.54-1.2-1.2s0.52-1.2,1.2-1.2
					C178.83,259.75,179.39,260.29,179.39,260.95z"/>
				<path d="M184.84,248.26l-0.19,5.23c0.89-0.79,1.68-1.43,3.21-1.43c2.99,0,4.42,2.47,4.42,4.75c0,3.01-2.38,5.35-5.12,5.35
					c-2.36,0-3.92-1.76-3.92-3.05c0-0.79,0.5-1.29,1.2-1.29c0.62,0,1.08,0.41,1.08,1.08c0,0.21-0.02,0.29-0.1,0.62
					c-0.04,0.17-0.06,0.46-0.06,0.58c0,0.89,0.93,1.35,1.76,1.35c1.68,0,3.26-1.6,3.26-4.38c0-2.63-1.39-4.08-2.9-4.08
					c-0.83,0-2.09,0.46-3.24,1.8l-0.31-0.17l0.31-8h7.22l-0.42,1.64H184.84z"/>
				<path d="M199.71,252.66c0.44-0.27,1.08-0.54,1.8-0.54c2.05,0,3.71,2.07,3.71,4.58c0,2.88-2.05,5.45-4.44,5.45
					c-2.36,0-4.77-2.68-4.77-7.15c0-4.79,2.7-8.77,5.87-8.77c1.39,0,2.36,0.83,2.36,1.82c0,0.75-0.58,1.08-1.06,1.08
					c-0.41,0-1.1-0.27-1.14-1.45c-0.02-0.46-0.06-0.75-0.62-0.75c-0.56,0-1.12,0.31-1.51,0.75c-1.85,2.03-1.95,5.08-2.03,6.95
					C198.28,253.98,198.72,253.26,199.71,252.66z M199.03,260.33c0.35,0.56,0.89,1.12,1.68,1.12c1.1,0,2.65-1.14,2.65-4.56
					c0-0.93-0.23-3.84-2.36-3.84c-0.79,0-2.12,0.58-3.09,2.82C197.99,257.01,198.16,259,199.03,260.33z"/>
				<path d="M212.2,251.56v1.64c0.56-0.56,1.62-1.64,3.42-1.64c1.93,0,2.3,1.26,2.49,1.87c0.68-0.68,1.85-1.87,3.71-1.87
					c1.82,0,2.65,1.1,2.65,3.4v4.89c0,0.79,0.41,1.24,1.04,1.24h0.37v0.66h-4.33v-0.66h0.39c0.73,0,1.04-0.56,1.04-1.24v-4.77
					c0-0.58-0.08-2.63-1.8-2.63c-0.58,0-1.89,0.33-2.94,1.8c0.02,0.17,0.04,0.33,0.04,0.71v4.89c0,0.87,0.48,1.24,1.04,1.24h0.6
					v0.66h-4.77v-0.66h0.6c0.58,0,1.06-0.39,1.06-1.24v-4.77c0-0.44-0.06-2.63-1.8-2.63c-0.5,0-1.82,0.27-2.8,1.64v5.76
					c0,0.87,0.48,1.24,1.04,1.24h0.37v0.66h-4.31v-0.66h0.37c0.62,0,1.04-0.44,1.04-1.24v-6.24c0-0.64-0.37-0.97-0.85-0.97
					c-0.25,0-0.46,0.02-0.62,0.08l-0.1-0.39L212.2,251.56z M222.92,250.33c0.31-0.41,0.48-0.58,1.2-1.33
					c0.44-0.48,1.18-1.29,1.18-2.01c0-0.27-0.17-0.77-0.64-0.77c-0.37,0-0.71,0.29-0.71,0.56c0,0.08,0.19,0.46,0.19,0.54
					c0,0.25-0.23,0.54-0.58,0.54c-0.41,0-0.62-0.35-0.62-0.71c0-0.71,0.79-1.49,1.83-1.49c0.85,0,1.51,0.54,1.51,1.41
					c0,0.77-0.39,1.12-0.64,1.35c-0.23,0.23-1.51,1.27-1.72,1.56h1.29c0.54,0,0.71-0.42,0.81-0.71l0.33,0.1l-0.44,1.43h-2.99V250.33
					z"/>
				<path d="M270.99,262.67c-7.53-0.1-10.76-0.14-13.56-2.86c-1.26,1.87-2.45,2.7-4.23,3.59l-0.12-0.13
					c1.64-1.41,2.67-2.51,3.59-4.31c-1.33-1.66-1.74-3.26-1.93-4l0.21-0.17c0.66,1.89,1.76,3.07,2.09,3.4
					c0.64-1.49,1.16-3.4,1.16-5.64h-1.74c-0.41,1.16-0.52,1.47-1.2,1.47c-0.15,0-0.75-0.02-0.75-0.48c0-0.13,0.31-0.97,0.5-1.47
					c1.08-2.78,1.93-5.04,2.18-5.95h-0.75c-0.35,0-1.51,0-2.45,0.19l-0.39-0.83c1.06,0.08,2.11,0.15,3.17,0.15h0.37l0.54-0.44
					c0.19-0.15,0.29-0.21,0.39-0.21c0.08,0,0.21,0.08,0.35,0.21l0.81,0.68c0.17,0.12,0.21,0.25,0.21,0.37
					c0,0.25-0.42,0.44-0.95,0.66c-0.46,1.16-0.73,1.87-1.87,5.14h1.41l0.56-0.43c0.17-0.13,0.29-0.21,0.39-0.21
					c0.15,0,0.25,0.08,0.39,0.23l0.64,0.66c0.17,0.17,0.25,0.31,0.25,0.43c0,0.19-0.21,0.31-0.64,0.58c-0.19,1.99-0.71,3.92-1.7,5.7
					c1.99,1.6,4.67,2.05,7.22,2.05c2.47,0,5.37-0.27,7.3-0.6l0.04,0.17C271.28,261.24,271.12,262.09,270.99,262.67z M272.22,249.75
					h-2.86c0.08,2.47,0.08,2.47,0.08,2.61c0,0.42,0,1.06-1,1.06c-0.56,0-0.54-0.33-0.52-0.68h-2.55v2.16h3.11l0.62-0.79
					c0.15-0.17,0.23-0.27,0.35-0.27s0.23,0.1,0.39,0.23l0.93,0.79c0.1,0.1,0.21,0.23,0.21,0.31c0,0.19-0.15,0.23-0.31,0.23h-5.31
					l0.02,2.2h3.69l0.79-0.91c0.17-0.19,0.25-0.27,0.35-0.27c0.12,0,0.23,0.08,0.37,0.23l0.97,0.91c0.15,0.12,0.21,0.25,0.21,0.35
					c0,0.12-0.12,0.19-0.31,0.19h-6.08c0,0.25,0.04,1.47,0,1.74c-0.02,0.27-0.39,0.75-0.91,0.75c-0.66,0-0.66-0.37-0.66-0.6
					c0-0.27,0.1-1.58,0.1-1.89h-1.41c-0.15,0-1.47,0-2.43,0.19l-0.41-0.81c1.62,0.12,3.15,0.12,3.19,0.12h1.08
					c0.02-0.56,0.02-1.08,0.04-2.2h-0.62c-0.54,0-1.53,0.02-2.43,0.19l-0.42-0.81c0.62,0.04,1.78,0.13,3.48,0.13v-2.16h-0.41
					c-0.17,0-1.47,0-2.45,0.19l-0.41-0.81c1.49,0.1,3.07,0.13,3.28,0.13l0.02-2.49h-1.93c-0.54,0-1.53,0.02-2.43,0.19l-0.41-0.83
					c1.06,0.1,2.11,0.15,3.17,0.15h1.6l-0.02-2.43h-0.5c-0.35,0-1.47,0.02-2.45,0.19l-0.39-0.83c1.45,0.13,2.8,0.15,3.32,0.15
					c0-1.04-0.02-1.27-0.31-1.93l1.99,0.48c0.23,0.06,0.35,0.14,0.35,0.33c0,0.21-0.25,0.37-0.58,0.56v0.56h2.41l0.52-0.46
					c0.15-0.13,0.25-0.21,0.37-0.21s0.23,0.1,0.37,0.23l0.58,0.56c0.15,0.13,0.25,0.27,0.25,0.39c0,0.17-0.17,0.29-0.58,0.58
					c-0.04,0.39-0.04,0.42,0,1.83h0.75l0.6-0.77c0.12-0.17,0.23-0.25,0.33-0.25c0.12,0,0.25,0.08,0.39,0.21l0.89,0.77
					c0.1,0.1,0.21,0.21,0.21,0.31C272.53,249.65,272.42,249.75,272.22,249.75z M267.97,249.75h-2.57l-0.02,2.49h2.59V249.75z
					 M267.97,246.83h-2.53l-0.04,2.43h2.57V246.83z"/>
				<path d="M282.24,255.64c0,2.51,0,2.95,0.04,4.15c0.02,0.73,0.08,1.89,0.08,2.61c0,0.85-0.89,0.95-1.08,0.95
					c-0.46,0-0.56-0.27-0.56-0.58c0-0.08,0.04-0.85,0.04-1c0.08-1.56,0.08-2.12,0.12-5.43c-1.51,0.79-2.11,1.02-2.55,1.18
					c-0.02,0.37-0.06,0.73-0.39,0.73c-0.23,0-0.35-0.23-0.42-0.35l-0.97-1.87c1.29,0.06,1.64,0.04,4.35-0.79
					c0-1.83,0.02-3.88,0-5.45h-1.87c-0.62,2.51-1.51,4.02-1.85,4.58l-0.12-0.04c0.79-3.07,0.93-6.3,0.93-7.2
					c0-0.77-0.08-1.04-0.21-1.41l1.99,0.48c0.17,0.04,0.35,0.08,0.35,0.31c0,0.29-0.29,0.42-0.62,0.54c-0.1,0.97-0.21,1.6-0.35,2.24
					h1.72c-0.04-2.92-0.1-3.77-0.56-4.81l2.28,0.66c0.12,0.04,0.31,0.14,0.31,0.29c0,0.25-0.35,0.44-0.66,0.6
					c-0.02,0.44-0.02,2.63-0.02,3.26h0.41l0.58-0.79c0.1-0.13,0.21-0.27,0.31-0.27c0.12,0,0.27,0.12,0.37,0.23l0.83,0.79
					c0.08,0.08,0.19,0.19,0.19,0.31c0,0.19-0.19,0.23-0.31,0.23h-2.38c0,1.33-0.02,3.65,0,4.98c0.41-0.14,2.34-0.81,2.72-0.95
					l0.06,0.14C284.43,254.38,283.79,254.79,282.24,255.64z M294.47,250.02c-0.17,4.33-0.33,8.27-1.64,10.97
					c-0.79,1.64-2.28,1.91-3.21,2.09c-0.15-0.93-0.48-1.51-1.76-2.45l0.06-0.15c1.37,0.39,2.16,0.44,2.51,0.44
					c0.5,0,0.83,0,1.41-1.47c0.73-1.91,1.31-6.45,1.16-10.04h-1.18c-0.6,4.69-2.59,10.72-8.58,12.98l-0.06-0.14
					c4.4-3.3,6.26-6.8,7.13-12.84h-1.16c-0.85,4.38-3.19,8.15-6.2,9.56l-0.06-0.12c2.55-2.55,4.19-6.06,4.75-9.44h-1.04
					c-0.66,1.49-1.58,2.94-2.8,4.13l-0.1-0.1c2.03-3.82,2.67-7.59,2.67-8.46c0-0.23-0.02-0.39-0.1-0.71l2.07,0.83
					c0.21,0.08,0.31,0.21,0.31,0.33c0,0.27-0.39,0.37-0.73,0.46c-0.54,1.66-0.89,2.51-1.1,3.03h5.97l0.5-0.52
					c0.12-0.14,0.23-0.23,0.31-0.23s0.23,0.08,0.37,0.19l0.97,0.73c0.15,0.1,0.23,0.17,0.23,0.29
					C295.18,249.69,294.7,249.92,294.47,250.02z"/>
				<path d="M307.25,249.81c0.48-1,1.02-2.61,1.22-3.46h-5.41c-0.56,0-1.53,0.02-2.45,0.19l-0.41-0.83
					c1.06,0.08,2.12,0.15,3.19,0.15h12.36l0.91-0.89c0.17-0.17,0.33-0.31,0.39-0.31c0.1,0,0.19,0.06,0.39,0.23l1.16,0.93
					c0.08,0.06,0.21,0.19,0.21,0.31c0,0.21-0.21,0.23-0.33,0.23h-8.07c-0.58,0.95-2.14,2.84-2.68,3.46h7.55l0.58-0.6
					c0.21-0.21,0.27-0.27,0.39-0.27c0.1,0,0.27,0.12,0.37,0.21l0.95,0.81c0.12,0.1,0.17,0.21,0.17,0.27c0,0.19-0.08,0.25-0.83,0.66
					c0,2.34,0.02,5.31,0.04,7.65c0.02,0.97,0.1,2.51,0.1,3.46c0,0.89-0.75,0.97-1.04,0.97c-0.62,0-0.62-0.33-0.58-1.51h-11.8
					c0,0.08,0.02,0.56,0.02,0.66c0,0.75-0.66,0.95-1.02,0.95c-0.66,0-0.66-0.46-0.66-0.64c0-0.08,0.06-1.1,0.06-1.26
					c0.04-2.26,0.15-7.03,0.15-9c0-1.49-0.04-2.14-0.29-3.4l2.14,1.04H307.25z M303.66,250.31v10.66h2.76v-10.66H303.66z
					 M310.98,253.46v-3.15h-3.17v3.15H310.98z M310.98,257.09v-3.13h-3.17v3.13H310.98z M310.98,260.97v-3.38h-3.17v3.38H310.98z
					 M315.46,260.97v-10.66h-3.07v10.66H315.46z"/>
				<path d="M322.64,258.67c1.58-1.99,3.23-5.68,3.86-7.94h-0.48c-0.19,0-1.47,0-2.45,0.19l-0.39-0.83c1.18,0.1,2.38,0.15,3.46,0.15
					c0-1-0.04-2.47-0.04-3.36c-1.22,0.25-2.28,0.33-3.38,0.37v-0.17c0.42-0.14,4.52-1.51,5.6-2.32c0.27-0.21,0.35-0.35,0.44-0.5
					l1.43,1.2c0.08,0.06,0.15,0.17,0.15,0.29c0,0.21-0.21,0.21-0.39,0.21c0,0-0.25,0-0.6-0.02c-0.44,0.17-0.91,0.35-1.93,0.62
					c0,0.95,0.02,2.86,0.02,3.67h0.39l0.5-0.75c0.08-0.13,0.19-0.27,0.31-0.27s0.29,0.14,0.39,0.23l0.89,0.75
					c0.1,0.08,0.21,0.19,0.21,0.33c0,0.21-0.21,0.21-0.31,0.21h-2.38c0,0.39,0.02,1.33,0.02,1.82c2.03,0.73,2.72,1.97,2.72,2.61
					c0,0.44-0.31,0.83-0.77,0.83c-0.5,0-0.56-0.21-0.97-1.37c-0.27-0.79-0.48-1.39-0.97-1.8c0.04,3.61,0.04,4.02,0.08,5.6
					c0.04,1.41,0.08,3.05,0.08,3.79c0,0.37,0,1.2-1.04,1.2c-0.54,0-0.6-0.31-0.6-0.71c0-0.68,0.17-3.73,0.19-4.35
					c0.04-2.03,0.02-2.84,0.02-4.65c-0.91,1.97-2.22,3.73-3.92,5.06L322.64,258.67z M329.29,263.05c1.45-0.71,3.79-2.07,4.29-2.99
					l1.49,1.1c0.12,0.08,0.19,0.19,0.19,0.31c0,0.29-0.48,0.27-1,0.27c-1.33,0.68-3.75,1.35-4.94,1.43L329.29,263.05z M338.5,246.54
					l0.52-0.83c0.1-0.17,0.21-0.29,0.31-0.29c0.1,0,0.27,0.14,0.39,0.25l1.02,0.83c0.1,0.08,0.21,0.19,0.21,0.33
					c0,0.19-0.17,0.21-0.31,0.21h-4.4v1.7h1.66l0.5-0.75c0.08-0.12,0.17-0.25,0.31-0.25c0.1,0,0.25,0.12,0.37,0.23l0.85,0.72
					c0.12,0.1,0.21,0.21,0.21,0.33c0,0.19-0.19,0.21-0.31,0.21h-3.59v1.87h3.44l0.6-0.85c0.1-0.17,0.23-0.27,0.33-0.27
					c0.12,0,0.25,0.12,0.37,0.25l0.89,0.83c0.1,0.1,0.21,0.21,0.21,0.33c0,0.21-0.17,0.21-0.31,0.21h-8.63c-0.35,0-1.45,0-2.45,0.19
					l-0.41-0.83c1.06,0.08,2.14,0.15,3.19,0.15h1.35v-1.87h-0.5c-0.27,0-1.43,0-2.45,0.21l-0.39-0.83c0.62,0.04,1.53,0.12,3.34,0.12
					c0-0.81-0.02-1.31-0.02-1.7h-1.37c-0.37,0-1.45,0-2.45,0.19l-0.41-0.83c1.51,0.12,2.84,0.14,3.19,0.14h1.02
					c-0.02-0.93-0.04-1.16-0.37-2.22l2.12,0.64c0.1,0.02,0.29,0.08,0.29,0.31c0,0.27-0.48,0.5-0.58,0.54v0.73H338.5z M338.02,253.03
					l0.48-0.52c0.08-0.08,0.21-0.21,0.29-0.21c0.1,0,0.25,0.12,0.33,0.19l0.81,0.68c0.12,0.1,0.23,0.23,0.23,0.37
					c0,0.21-0.25,0.37-0.6,0.54c-0.02,0.21-0.02,0.35-0.02,0.77c0,0.71,0.17,3.79,0.17,4.42c0,0.29-0.04,0.95-0.95,0.95
					c-0.54,0-0.54-0.27-0.52-0.71h-4.94c0.04,0.48,0.06,0.95-0.93,0.95c-0.35,0-0.54-0.1-0.54-0.48c0-0.04,0.02-0.21,0.04-0.5
					c0.04-0.77,0.04-3.01,0.04-3.92c0-1.82,0-2.01-0.23-3.28l1.64,0.72H338.02z M333.3,253.53V255h4.94v-1.47H333.3z M333.3,255.5
					v1.49h4.94v-1.49H333.3z M333.3,257.49v1.53h4.94v-1.53H333.3z M336.78,260.31c1.87,0.17,4.5,1.1,4.5,2.34
					c0,0.5-0.46,0.81-0.83,0.81c-0.48,0-0.95-0.52-1.31-0.91c-0.12-0.17-1.26-1.47-2.36-2.09V260.31z"/>
				<path d="M348.68,249.79c0,0.66-0.56,1.2-1.2,1.2c-0.66,0-1.2-0.54-1.2-1.2s0.52-1.2,1.2-1.2
					C348.14,248.59,348.68,249.11,348.68,249.79z M348.68,257.96c0,0.68-0.56,1.2-1.2,1.2c-0.66,0-1.2-0.52-1.2-1.2
					c0-0.64,0.52-1.2,1.2-1.2C348.14,256.76,348.68,257.3,348.68,257.96z"/>
				<path d="M353.64,261.1h1.14c1.08,0,1.45-0.42,1.45-1.26v-11.22c0-0.64-0.6-0.75-1-0.75h-1.58v-0.64h0.37
					c1.6,0,3.13-0.73,3.38-0.87c0.15-0.08,0.21-0.12,0.29-0.12c0.19,0,0.23,0.12,0.23,0.29v13.31c0,0.89,0.44,1.26,1.45,1.26h1.14
					v0.66h-6.88V261.1z"/>
				<path d="M369.94,262.15c-1.43,0-2.63-1-3.4-2.24c-0.87-1.43-1.26-3.98-1.26-5.91c0-4.42,1.89-7.78,4.67-7.78
					c2.14,0,4.67,2.3,4.67,7.96C374.61,259.27,372.47,262.15,369.94,262.15z M367.62,249.69c-0.29,1.04-0.48,2.78-0.48,4.5
					c0,4.62,1.1,7.26,2.8,7.26c1.43,0,2.07-1.91,2.3-2.7c0.29-1.06,0.5-2.82,0.5-4.56c0-4.73-1.14-7.26-2.8-7.26
					C368.47,246.93,367.83,248.97,367.62,249.69z"/>
				<path d="M384.42,246.23h0.85v10.53h2.34v0.66h-2.34v2.41c0,0.91,0.46,1.26,1.45,1.26h0.33v0.66h-5.27v-0.66h0.33
					c0.97,0,1.45-0.33,1.45-1.26v-2.41h-5.58v-0.73L384.42,246.23z M383.57,248.97l-4.79,7.8h4.79V248.97z"/>
				<path d="M393.61,260.95c0.02,0.68-0.56,1.2-1.2,1.2c-0.68,0-1.2-0.54-1.2-1.2s0.52-1.2,1.2-1.2
					C393.05,259.75,393.61,260.29,393.61,260.95z"/>
				<path d="M401.07,252.66c0.44-0.27,1.08-0.54,1.8-0.54c2.05,0,3.71,2.07,3.71,4.58c0,2.88-2.05,5.45-4.44,5.45
					c-2.36,0-4.77-2.68-4.77-7.15c0-4.79,2.7-8.77,5.87-8.77c1.39,0,2.36,0.83,2.36,1.82c0,0.75-0.58,1.08-1.06,1.08
					c-0.41,0-1.1-0.27-1.14-1.45c-0.02-0.46-0.06-0.75-0.62-0.75c-0.56,0-1.12,0.31-1.51,0.75c-1.85,2.03-1.95,5.08-2.03,6.95
					C399.64,253.98,400.08,253.26,401.07,252.66z M400.39,260.33c0.35,0.56,0.89,1.12,1.68,1.12c1.1,0,2.65-1.14,2.65-4.56
					c0-0.93-0.23-3.84-2.36-3.84c-0.79,0-2.12,0.58-3.09,2.82C399.35,257.01,399.52,259,400.39,260.33z"/>
				<path d="M419.47,246.62v1.1c-3.3,5.08-4.46,7.96-4.73,12.59c-0.04,0.54-0.1,1.85-1.16,1.85c-0.52,0-1.06-0.44-1.06-1.14
					c0-1.47,1.45-5.83,5.83-12.75h-3.55c-3.01,0-3.46,1.39-3.92,2.72l-0.62-0.14l0.85-4.21H419.47z"/>
				<path d="M426.42,251.56v1.64c0.56-0.56,1.62-1.64,3.42-1.64c1.93,0,2.3,1.26,2.49,1.87c0.68-0.68,1.85-1.87,3.71-1.87
					c1.82,0,2.65,1.1,2.65,3.4v4.89c0,0.79,0.41,1.24,1.04,1.24h0.37v0.66h-4.33v-0.66h0.39c0.73,0,1.04-0.56,1.04-1.24v-4.77
					c0-0.58-0.08-2.63-1.8-2.63c-0.58,0-1.89,0.33-2.94,1.8c0.02,0.17,0.04,0.33,0.04,0.71v4.89c0,0.87,0.48,1.24,1.04,1.24h0.6
					v0.66h-4.77v-0.66h0.6c0.58,0,1.06-0.39,1.06-1.24v-4.77c0-0.44-0.06-2.63-1.8-2.63c-0.5,0-1.82,0.27-2.8,1.64v5.76
					c0,0.87,0.48,1.24,1.04,1.24h0.37v0.66h-4.31v-0.66h0.37c0.62,0,1.04-0.44,1.04-1.24v-6.24c0-0.64-0.37-0.97-0.85-0.97
					c-0.25,0-0.46,0.02-0.62,0.08l-0.1-0.39L426.42,251.56z M437.14,250.33c0.31-0.41,0.48-0.58,1.2-1.33
					c0.44-0.48,1.18-1.29,1.18-2.01c0-0.27-0.17-0.77-0.64-0.77c-0.37,0-0.71,0.29-0.71,0.56c0,0.08,0.19,0.46,0.19,0.54
					c0,0.25-0.23,0.54-0.58,0.54c-0.41,0-0.62-0.35-0.62-0.71c0-0.71,0.79-1.49,1.83-1.49c0.85,0,1.51,0.54,1.51,1.41
					c0,0.77-0.39,1.12-0.64,1.35c-0.23,0.23-1.51,1.27-1.72,1.56h1.29c0.54,0,0.71-0.42,0.81-0.71l0.33,0.1l-0.44,1.43h-2.99V250.33
					z"/>
				<path d="M452.55,263.92c-3.23-2.59-4.91-6.32-4.91-10.04c0-3.71,1.68-7.44,4.91-10.04l0.19,0.29c-3.86,4.08-3.94,8.23-3.94,9.75
					s0.08,5.66,3.94,9.75L452.55,263.92z"/>
				<path d="M464.41,251.41c-0.35,0.44-1.56,2.55-1.82,2.97c-1.24,1.97-2.74,3.67-5.74,5.23l-0.04-0.19
					c3.9-3.44,5.83-7.76,5.83-8.65c0-0.52-0.19-1-1.31-1.49c0.23-0.08,0.64-0.19,1.06-0.19c0.97,0,2.47,1.35,2.47,1.7
					C464.85,250.89,464.62,251.18,464.41,251.41z M473.58,258.48c-0.6,0-0.73-0.46-1.26-2.16c-0.85-2.76-3.11-5.64-4.48-6.95
					c2.63,0.79,6.51,4.87,6.51,7.96C474.34,257.9,474.03,258.48,473.58,258.48z M473.02,250.25c-0.29,0-0.37-0.1-1.1-0.95
					c-0.08-0.1-0.85-1.02-1.95-1.66c1.31-0.02,3.53,0.71,3.53,1.99C473.49,250.04,473.24,250.25,473.02,250.25z M474.74,248.36
					c-0.25,0-0.31-0.06-0.87-0.66c-0.19-0.21-1.12-1.04-2.3-1.62c1.33-0.08,3.67,0.5,3.67,1.7
					C475.23,248.18,474.97,248.36,474.74,248.36z"/>
				<path d="M484.86,250.35c-0.04,0.48-0.21,2.61-0.25,3.05c-0.54,4.46-3.21,6.82-4.98,7.55l-0.1-0.12
					c3.84-3.61,3.84-8.09,3.84-9.83c0-1.72-0.02-1.72-1.6-2.14c0.33-0.23,0.79-0.54,1.37-0.54c0.54,0,1.95,0.46,1.95,1.04
					C485.09,249.52,484.88,250.21,484.86,250.35z M489.9,258.92c-0.71,0.5-0.77,0.58-1.31,1.16c-0.1,0.1-0.29,0.31-0.41,0.31
					c-0.39,0-1.33-1.7-1.33-1.97c0-0.15,0.25-0.77,0.27-0.91c0.19-0.87,0.19-3.57,0.19-4.13c0-0.77-0.02-4.6-0.12-5.1
					c-0.08-0.37-0.5-0.64-1.49-0.97c0.27-0.17,0.68-0.44,1.16-0.44c0.62,0,2.24,0.62,2.24,1.24c0,0.19-0.25,1.02-0.29,1.18
					c-0.21,1.06-0.31,6.86-0.31,8.13c0,0.08,0,0.35,0.15,0.35c0.5,0,4.25-2.38,7.51-6.53l0.17,0.13
					C494.9,254.77,491.91,257.49,489.9,258.92z"/>
				<path d="M513.89,250.44c-0.29,0.21-0.37,0.31-0.46,0.66c-0.33,1.35-0.5,2.38-1.16,6.26c0.39,0.08,0.97,0.39,0.97,0.85
					c0,0.56-0.54,0.56-1.12,0.56c-0.39,0-2.11-0.08-2.47-0.08c-2.63,0-4.89,0.33-5.79,0.62c-0.19,0.06-0.93,0.35-1.1,0.35
					c-0.64,0-1.72-1.49-1.72-2.3c0-0.31,0.08-0.5,0.15-0.68c0.25,0.29,1.1,1.33,2.22,1.33c0.71,0,1.58-0.08,7.59-0.56
					c0.64-4.29,0.97-6.55,0.97-7.36c0-0.19-0.08-0.25-0.29-0.25c-1.53,0-7.24,0.73-7.71,0.93c-0.15,0.06-0.81,0.33-0.93,0.33
					c-0.68,0-1.85-1.37-1.85-2.41c0-0.33,0.04-0.52,0.1-0.71c0.54,0.81,1.31,1.47,2.36,1.47c0.97,0,7.47-0.48,8.03-0.68
					c0.17-0.08,0.87-0.56,1.02-0.56c0.23,0,1.7,1.24,1.7,1.66C514.41,250.1,514.31,250.17,513.89,250.44z"/>
				<path d="M535.32,258.34c-0.04,0-1.08-0.19-1.62-0.27c-0.68-0.12-1.89-0.23-3.13-0.23c-1.91,0-6.12,0.35-7.76,0.87
					c-0.85,0.27-0.93,0.29-1.12,0.29c-0.54,0-1.91-1.02-1.91-2.43c0-0.23,0.04-0.35,0.08-0.54c0.75,0.91,1.29,1.29,2.45,1.29
					c0.12,0,5.74-0.48,6.82-0.52c1.27-0.06,3.09-0.15,3.73-0.35c0.68-0.21,0.75-0.23,0.87-0.23c0.44,0,2.09,0.73,2.09,1.53
					C535.84,258.07,535.65,258.34,535.32,258.34z M531.58,250.19c-0.46,0.04-2.07,0.14-3.19,0.21c-1.2,0.06-2.38,0.12-3.71,0.44
					c-0.15,0.04-0.25,0.04-0.37,0.04c-0.52,0-1.8-0.46-1.91-2.03c0.37,0.25,1.1,0.73,2.55,0.73c0.68,0,3.67-0.14,5.16-0.56
					c0.19-0.04,1.04-0.37,1.22-0.37c0.39,0,1.66,0.31,1.66,0.95C532.99,250.08,532.62,250.13,531.58,250.19z"/>
				<path d="M555.89,254.58c-0.19,0-0.68-0.04-0.73-0.04c-0.75-0.06-0.95-0.08-2.34-0.08c-6.32,0-8.19,0.12-9.12,0.37
					c-0.06,0.02-0.73,0.19-0.79,0.19c-0.54,0-1.66-1.33-1.66-2.28c0-0.12,0.02-0.52,0.25-1c0.71,1.58,1.35,1.58,3.5,1.58
					c1.43,0,8.17-0.02,9.12-0.25c0.12-0.02,0.73-0.19,0.85-0.19c0.12,0,2.2,0.23,2.2,1.04
					C557.18,254.56,556.14,254.58,555.89,254.58z"/>
				<path d="M568.54,246.95c-0.27,0.54-0.83,1.68-1.39,2.63c-0.89,1.51-1,1.68-1.1,1.89c1.06,0.83,2.53,2.14,2.53,4.25
					c0,1.56-0.85,2.34-2.38,2.63c-0.12-0.75-0.5-1.51-1.12-1.87l0.04-0.17c0.35,0.06,0.71,0.12,1.08,0.12c0.58,0,0.95-0.1,0.95-1.39
					c0-1.39-0.54-2.59-1.58-3.55c0.33-0.89,0.89-2.47,1.45-5.33h-2.22c-0.02,1.16-0.02,7.28-0.02,8.94c0,1.08,0.1,6.57,0.1,6.84
					c0,1.02-0.97,1.02-1.08,1.02c-0.54,0-0.56-0.44-0.56-0.58c0-0.08,0.02-0.29,0.02-0.41c0.17-2.3,0.23-4.15,0.23-11.18
					c0-4.08-0.19-5.04-0.39-6.05l1.89,0.93h2.12l0.46-0.44c0.12-0.13,0.23-0.21,0.33-0.21c0.08,0,0.19,0.08,0.33,0.21l0.97,0.83
					c0.08,0.06,0.12,0.21,0.12,0.29C569.33,246.64,569.16,246.77,568.54,246.95z M570.91,258.44c-1.12,1.41-2.3,2.49-4.31,3.52
					l-0.04-0.12c1.56-1.58,3.09-3.34,3.34-5.02l1.6,0.93c0.19,0.1,0.27,0.17,0.27,0.31C571.76,258.42,571.18,258.44,570.91,258.44z
					 M579.74,252.24c-2.36-1.22-4.69-3.88-5.76-6.01l-0.1,0.02c-1.74,2.65-3.57,4.77-6.26,6.41l-0.08-0.17
					c2.16-1.93,4.69-5.79,5.02-7.82l1.89,0.83c0.12,0.06,0.19,0.19,0.19,0.29c0,0.25-0.21,0.31-0.31,0.35
					c3.13,3.61,5.5,4.27,7.15,4.56v0.13C581.09,250.98,580.42,251.2,579.74,252.24z M579.28,255.97h-5.02
					c0,0.71,0.04,3.84,0.04,4.48c0,1.45-0.1,2.18-2.41,2.86c-0.12-1.26-1.43-1.85-1.7-1.97v-0.15c0.48,0.04,1.18,0.1,1.85,0.1
					c0.58,0,0.83,0,0.87-0.35c0.02-0.19,0.02-1.53,0.02-4.98h-1.2c-0.52,0-1.51,0-2.45,0.19l-0.39-0.83
					c1.41,0.12,2.88,0.14,3.17,0.14h0.85v-3.23c-0.68,0-1.68,0-2.67,0.19l-0.42-0.83c1.41,0.12,2.9,0.14,3.19,0.14h1.89l0.58-0.81
					c0.12-0.17,0.19-0.27,0.31-0.27c0.12,0,0.21,0.08,0.37,0.23l0.97,0.81c0.1,0.08,0.21,0.17,0.21,0.31c0,0.21-0.19,0.23-0.33,0.23
					h-2.76v3.23h2.7l0.58-0.97c0.06-0.12,0.19-0.27,0.31-0.27c0.1,0,0.23,0.1,0.37,0.23l1.18,0.97c0.08,0.08,0.21,0.17,0.21,0.31
					C579.62,255.93,579.43,255.97,579.28,255.97z M579.16,261.84c-0.58,0-0.73-0.25-1.29-1.33c-0.71-1.33-1.7-2.26-2.32-2.7l0.1-0.1
					c1.87,0.39,4.35,1.68,4.35,3.19C580.01,261.59,579.57,261.84,579.16,261.84z"/>
				<path d="M593.47,263.27c-0.33,0-0.39-0.08-1.37-1.66c-1.14-1.85-1.62-2.32-5.56-6.22c-0.21-0.21-0.75-0.81-0.75-1.47
					c0-0.33,0.06-0.68,0.77-1.43c2.09-2.22,5.25-5.52,5.25-6.32c0-0.5-0.46-0.95-1-1.49c1.82-0.19,2.8,1.33,2.8,2.12
					c0,0.42-0.21,0.58-0.83,1.08c-0.66,0.52-3.75,3.36-5.47,5.25c-0.35,0.37-0.35,0.64-0.35,0.77c0,0.52,0.15,0.66,1.82,2.2
					c4.65,4.19,5.47,4.91,5.47,5.99C594.26,262.55,593.99,263.27,593.47,263.27z"/>
				<path d="M600.17,263.92l-0.19-0.29c3.86-4.08,3.94-8.23,3.94-9.75s-0.08-5.66-3.94-9.75l0.19-0.29
					c3.23,2.59,4.91,6.32,4.91,10.04C605.09,257.59,603.41,261.32,600.17,263.92z"/>
			</g>
		</g>
		<g>
			<g>
				<path class="st1" d="M110.54,160.4c2.14-1.51,4.61-3.33,6.69-6.42h-5.73v-3.16h6.69v-3.19h-6.86v-3.12h3.66
					c-0.03-0.27-0.36-3.06-0.99-4.91h-2.01v-3.13h6.2v-2.85h3.16v2.85h5.7v3.13h-1.55c-0.69,3.16-0.76,3.54-1.19,4.91h3.23v3.12
					h-6.2v3.19h5.44v3.16h-4.81c0.76,0.96,2.14,2.68,4.05,3.91l-1.65,3.09c-1.71-1.72-2.11-2.27-3.03-3.67v8.62h-3.16v-8.55
					c-2.7,3.74-4.58,5.25-5.83,6.18L110.54,160.4z M117,139.59c0.49,1.65,0.99,4.5,1.02,4.91h3.33c0.4-1.37,0.86-3.67,1.02-4.91H117
					z M142.15,136.85c-3,1.48-6.66,2.44-10.18,2.58v5.22h10.18v3.3h-3.23v17.99h-3.43v-17.99h-3.53v0.93
					c0,9.58-1.81,13.25-4.42,17.06l-3.2-2.3c2.87-3.57,4.32-7.07,4.32-14.66v-12.77c5.8,0.1,9.46-1.51,11.6-2.58L142.15,136.85z"/>
				<path class="st1" d="M159.62,150.41c-2.27,0.51-9.46,1.68-11.67,1.96l-0.53-3.16c0.3-0.04,4.68-0.48,5.47-0.58v-3.43h-3.92
					v-2.75h0.23l-2.08-2.23c0.89-0.79,3.69-3.09,4.98-6.69l3.23,0.62c-0.13,0.45-0.17,0.55-0.53,1.44h7.71v2.75h-5.01
					c0.36,0.65,0.63,1.17,0.89,1.79l-3.23,1.24c-0.2-0.82-0.66-2.23-1.05-3.02h-0.86c-0.23,0.41-1.55,2.4-3.49,4.12h10.09v2.75
					h-3.86v3.09c2.24-0.27,2.93-0.41,3.86-0.58v1.99c2.67-1.75,3-3.64,3.13-7.76h11.87v6.39c0,0.62,0.13,0.75,0.4,0.75
					c0.72,0,0.79,0,0.86-0.93c0-0.28,0.03-1.61,0.03-1.92l2.83,0.79c-0.16,3.64-0.26,4.81-2.08,4.81h-3.06
					c-1.05,0-2.04-0.65-2.04-2.33v-4.88h-5.93c-0.07,1.27-0.36,5.25-4.05,7.79h2.83v1.41h13.91v2.95H167.3
					c1.55,1.27,3.72,3.02,11.73,5.01l-1.48,3.23c-4.75-1.37-9.23-3.5-12.92-6.9v7.72h-3.2v-7.76c-3.92,4.05-9.36,6.01-12.79,6.93
					l-1.35-3.26c4.25-0.76,8.96-2.85,11.6-4.98h-11.27v-2.95h13.81v-1.17L159.62,150.41z M166.97,138.32
					c-1.02,1.75-1.61,2.4-2.34,3.12l-2.8-2.03c2.14-1.99,3.03-3.85,3.66-5.73l3.33,0.51c-0.2,0.58-0.3,0.89-0.46,1.37h10.18v2.75
					h-6.53c0.36,0.58,0.63,1.13,0.86,1.75l-2.97,1.27c-0.26-0.69-0.92-2.27-1.29-3.02H166.97z M168.05,145.19
					c1.62,1.44,2.64,2.47,3.46,3.57l-2.14,2.09c-0.53-0.65-1.85-2.3-3.36-3.6L168.05,145.19z"/>
				<path class="st1" d="M188.76,146.25c-1.55,1.44-2.5,2.2-3.39,2.88l-2.37-3.12c4.19-2.4,8.37-7.52,9.89-12.5l3.43,0.93
					c-1.19,3.26-2.9,7.11-7.19,11.4h20.3c0,3.47-0.1,12.39-1.35,16.93c-0.86,3.09-3.1,3.19-4.55,3.19h-5.04l-0.66-3.64h5.04
					c1.88,0,2.18-1.72,2.44-3.23c0.26-1.54,0.69-4.77,0.66-9.78h-7.65c-0.86,9.27-5.44,13.66-12.26,16.65l-2.01-3.3
					c7.15-3.12,9.92-6.25,10.74-13.36h-6.03V146.25z M213.08,148.86c-2.7-1.89-8.4-7.93-10.68-14.32l3.43-1.03
					c1.71,4.29,5.24,9.61,9.66,12.36L213.08,148.86z"/>
				<path class="st1" d="M220.03,139.46h10.91v3.06h-10.91V139.46z M220.86,134.37h9.03v3.09h-9.03V134.37z M220.86,144.43h9.03
					v3.12h-9.03V144.43z M220.86,149.55h9.03v3.06h-9.03V149.55z M220.86,154.8h9.03v9.79h-6.06v1.44h-2.97V154.8z M223.83,157.76
					v4.02h3.1v-4.02H223.83z M250.85,157.07c-0.73,0.72-1.09,1.06-3.59,3.09c1.55,1.41,2.93,2.09,3.96,2.64l-1.68,3.23
					c-4.22-2.4-7.88-6.01-9-10.85c-0.13,0.17-1.12,1.24-2.34,2.13v4.6c2.6-0.21,3.66-0.38,4.91-0.55v3.23
					c-2.47,0.38-7.65,0.96-10.98,1.06l-0.56-3.47c0.99,0,1.81,0,3.56-0.07v-2.81c-1.29,0.72-2.34,1.13-3.69,1.65l-1.35-2.99
					c1.15-0.34,4.29-1.17,6.86-3.3h-6v-2.58h4.68v-1.75h-3.49v-2.37h3.49v-1.51h-4.05v-2.44h4.05v-1.13h2.97v1.13h4.98v-1.13h3v1.13
					h4.29v2.44h-4.29v1.51h3.63v2.37h-3.63v1.75h4.48v2.58h-7.78c0.4,0.82,0.92,1.82,1.81,3.09c1.32-1.03,1.91-1.61,3.1-2.85
					L250.85,157.07z M231.54,140.62c1.71-0.38,3.33-0.75,6.06-2.06h-6.39v-2.88h8.17v-1.92h3.33v1.92h8.34v2.88h-6.33
					c1.52,0.86,3.59,1.58,6.33,2.16l-1.35,2.44c-1.12-0.17-4.25-0.79-6.99-2.44l1.68-2.16h-6.59l1.98,2.16
					c-2.57,1.51-6.13,2.44-6.92,2.64L231.54,140.62z M238.59,146.46v1.51h4.98v-1.51H238.59z M238.59,150.34v1.75h4.98v-1.75H238.59
					z"/>
				<path class="st1" d="M259.42,149.41c-1.09,1.54-1.65,2.16-2.27,2.85l-1.48-4.39c1.78-1.99,4.91-7.38,5.7-14.14l3.43,0.45
					c-0.1,1.3-0.36,4.15-2.01,8.55v23.17h-3.36V149.41z M277.75,140.55c-1.94-1.75-4.15-3.12-6.46-4.33l2.11-2.88
					c2.14,1.06,4.55,2.58,6.63,4.12l-2.04,3.09h8.54v3.4h-8.83v6.49h7.61v3.4h-7.61v7.62h9.59v3.33h-22.64v-3.33h9.56v-7.62h-7.65
					v-3.4h7.65v-6.49h-8.73v-3.4H277.75z"/>
				<path class="st1" d="M307.58,151.2l15.66-1.72l0.26,3.4l-15.92,1.75v6.8c0,0.65,0.46,0.65,0.69,0.65h9.06
					c0.53,0,0.92-0.21,1.05-0.89c0.13-0.58,0.23-3.43,0.23-4.6l3.59,0.93c-0.13,5.18-0.3,8.14-3.59,8.14h-11.34
					c-0.86,0-3.16,0-3.16-2.54v-8.1l-11.34,1.27l-0.23-3.43l11.57-1.27v-4.15c-1.91,0.24-4.05,0.38-5.93,0.52l-1.09-3.5
					c2.54-0.1,11.96-0.45,19.51-3.23l1.71,3.23c-3.82,1.44-6.79,1.96-10.74,2.54V151.2z M306.36,133.65h3.43v3.02h12.82v8.21h-3.43
					v-4.77h-22.21v4.77h-3.46v-8.21h12.85V133.65z"/>
				<path class="st1" d="M334.05,145.53c-1.48,0.89-2.7,1.48-4.02,2.13l-1.68-3.47c5.11-1.89,10.84-6.15,14.04-10.58h3.69
					c3.16,4.19,7.78,8.27,14.24,10.47l-1.85,3.5c-1.02-0.45-2.04-0.89-3.96-2.06v2.57h-8.54v4.63h10.42v3.09h-10.42v5.56h13.35v3.5
					h-30.26v-3.5h13.38v-5.56H332.1v-3.09h10.35v-4.63h-8.4V145.53z M353.29,144.74c-2.77-1.85-6-4.39-9.1-8.1
					c-1.65,2.03-4.55,5.32-8.9,8.1H353.29z"/>
				<path class="st1" d="M373.93,153.19c-2.27,0.38-4.09,0.89-4.09,5.18v0.76h17.3v3.71h-21.23v-2.99c0-4.26,0.33-9.27,6.66-10.23
					l6.46-1c2.9-0.45,4.32-1.27,4.32-4.63c0-3.33-1.52-4.77-6.39-4.77c-5.5,0-6.69,1.34-6.72,5.63h-3.89
					c0.07-5.84,1.68-9.34,10.38-9.34c4.98,0,10.51,0.65,10.51,8.48c0,3.6-1.09,5.32-2.87,6.52c-1.05,0.69-2.34,1.34-4.19,1.65
					L373.93,153.19z"/>
				<path class="st1" d="M392.88,154.32c0.79-1.2,3.49-5.12,4.75-11.09h-4.25v-3.3h4.35v-6.25h3.16v6.25h3.66v3.3h-3.66v1.2
					c1.61,3.84,3.16,5.49,4.05,6.42l-1.68,3.16c-0.49-0.69-1.55-2.27-2.37-4.29v16.17h-3.16v-15.11c-1.42,5.08-2.74,6.87-3.63,8.1
					L392.88,154.32z M402.67,161.57c5.5-3.02,7.98-6.9,8.37-7.55h-5.67v-12.39h7.42v-1.96h-8.24v-3.36h8.24v-2.61h3.1v2.61h8.5v3.36
					h-8.5v1.96h7.45v12.39h-5.44c0.49,0.79,2.83,4.46,7.02,7.24l-1.91,3.06c-2.87-2.2-4.94-4.39-7.12-8.51v10.09h-3.1v-9.65
					c-3.13,5.08-6.43,7.28-8.24,8.41L402.67,161.57z M408.44,144.33v2.27h4.35v-2.27H408.44z M408.44,149.03v2.23h4.35v-2.23H408.44
					z M415.88,144.33v2.27h4.45v-2.27H415.88z M415.88,149.03v2.23h4.45v-2.23H415.88z"/>
				<path class="st1" d="M458.63,135.78v27.05h-3.96v-23.35h-5.04v-3.71H458.63z"/>
				<path class="st1" d="M479.3,156.79c-0.33,0.62-0.66,1.17-1.29,2.13l-3.43-1.37c0.76-1.17,1.71-2.64,3.76-7.24h-6v-3.26h30.92
					v3.26h-21.13c-0.26,0.69-1.09,2.71-1.35,3.26h19.48c-0.2,2.64-0.66,7.96-1.71,9.99c-0.73,1.37-1.91,2.37-3.82,2.37h-5.8
					l-0.76-3.6h5.93c1.19,0,2.08-0.62,2.44-5.53H479.3z M500.49,134.79v9.79h-25.18v-9.79H500.49z M478.61,137.91v3.57h18.59v-3.57
					H478.61z"/>
				<path class="st1" d="M507.65,154.32c0.79-1.2,3.49-5.12,4.75-11.09h-4.25v-3.3h4.35v-6.25h3.16v6.25h3.66v3.3h-3.66v1.2
					c1.61,3.84,3.16,5.49,4.05,6.42l-1.68,3.16c-0.49-0.69-1.55-2.27-2.37-4.29v16.17h-3.16v-15.11c-1.42,5.08-2.74,6.87-3.63,8.1
					L507.65,154.32z M517.44,161.57c5.5-3.02,7.98-6.9,8.37-7.55h-5.67v-12.39h7.42v-1.96h-8.24v-3.36h8.24v-2.61h3.1v2.61h8.5v3.36
					h-8.5v1.96h7.45v12.39h-5.44c0.49,0.79,2.83,4.46,7.02,7.24l-1.91,3.06c-2.87-2.2-4.94-4.39-7.12-8.51v10.09h-3.1v-9.65
					c-3.13,5.08-6.43,7.28-8.24,8.41L517.44,161.57z M523.2,144.33v2.27h4.35v-2.27H523.2z M523.2,149.03v2.23h4.35v-2.23H523.2z
					 M530.65,144.33v2.27h4.45v-2.27H530.65z M530.65,149.03v2.23h4.45v-2.23H530.65z"/>
			</g>
		</g>
	</g>
</g>
</svg>
