<?xml version="1.0" encoding="utf-8"?>
<!-- Generator: Adobe Illustrator 23.0.3, SVG Export Plug-In . SVG Version: 6.00 Build 0)  -->
<svg version="1.1" xmlns="http://www.w3.org/2000/svg" xmlns:xlink="http://www.w3.org/1999/xlink" x="0px" y="0px"
	 viewBox="0 0 650 295" style="enable-background:new 0 0 650 295;" xml:space="preserve">
<style type="text/css">
	.st0{fill:#00AE22;}
	.st1{fill:#FFFFFF;}
</style>
<g id="レイヤー_1">
</g>
<g id="レイヤー_2">
</g>
<g id="レイヤー_3">
	<g>
		<g>
			<g>
				<path class="st0" d="M69.15,84.27v13.21c0,5.96-3.51,6.48-7.37,6.48c-7,0-8.2-1.24-8.2-7.79v-0.84h4.29c0,0.42,0,2.33,0.02,2.72
					c0.07,1.58,0.97,1.86,3.13,1.86c2.78,0,3.89,0,3.89-2.5V84.27H69.15z"/>
				<path class="st0" d="M85.74,84.27c2.17,0,5.09,0.57,5.09,5.42c0,1.48-0.07,4.06-2.66,5c1.67,0.42,2.38,1.66,2.38,3.54v1.76
					c0,2,0.28,3.19,0.45,3.78h-4.36c-0.21-0.89-0.31-2.08-0.31-2.99v-1.83c0-2.2-1.15-2.23-2.31-2.23h-5.51v7.05h-4.22V84.27H85.74z
					 M78.51,88.33v4.45h6.13c1.3,0,2-0.45,2-2.45c0-1.61-0.8-2-1.98-2H78.51z"/>
				<path class="st0" d="M98.52,103.24c-0.38,1.41-0.75,2.23-1.11,2.94l-3.46-2.87c0.52-1.11,1.67-3.51,1.67-9.1V83.98h8.27v-1.48h4
					v1.48h8.69v3.61h-6.34v1.06h5.56v7.37h-4.88v1.71c0.78-0.15,2.38-0.52,4.03-1.36l1.58,3.17c-1.58,0.64-2.24,0.79-5.61,1.53v0.89
					c0,0.5,0.24,0.52,0.54,0.52h1.3c0.45,0,0.78-0.07,0.75-1.95l3.27,0.64c-0.09,2.72-0.31,4.92-2.8,4.92h-4.52
					c-0.85,0-2.14-0.49-2.14-2.25v-7.82h-3.49v1.14h2.87v3.19h-2.87v1.76c0.97-0.1,2.31-0.25,2.87-0.32v3.34
					c-2.5,0.42-6.22,0.79-8.17,0.92L98.52,103.24z M100.24,96.02h-0.83c-0.07,1.68-0.17,3.93-0.71,6.38c0.26,0,1.34-0.05,1.53-0.05
					V96.02z M99.41,87.59v1.06h1.98v-1.06H99.41z M99.41,91.69v1.34h1.98v-1.34H99.41z M104.83,87.59v1.06h1.96v-1.06H104.83z
					 M104.83,91.69v1.34h1.96v-1.34H104.83z M110.25,91.69v1.34h1.91v-1.34H110.25z"/>
				<path class="st0" d="M129.53,96.34c-0.61,6.43-3.58,8.66-8.5,9.92l-1.6-4.13c4.52-0.89,5.84-2.2,6.27-6.13L129.53,96.34z
					 M120.84,96.17v-13.6h4v13.6H120.84z M126.68,83.23h14.35v12.24h-14.35V83.23z M130.59,86.62v1.14h6.57v-1.14H130.59z
					 M130.59,90.88v1.21h6.57v-1.21H130.59z M135.56,96.15v5.27c0,0.59,0.33,0.59,0.68,0.59h1.37c0.33,0,0.57-0.27,0.61-0.64
					c0.12-0.77,0.17-1.71,0.21-2.82l3.68,0.87c-0.24,4.38-0.38,6.53-2.85,6.53h-5.44c-2.05,0-2.19-1.66-2.19-2.08v-7.72H135.56z"/>
				<path class="st0" d="M150.81,101.91v-2.65h-4.05V84.05h6.93c0.24-0.64,0.26-0.82,0.4-1.51h4.62c-0.26,0.72-0.35,0.99-0.61,1.51
					h7.26v8.24h-14.72v0.79h16.94v2.67h-16.94v0.79h16.4c-0.02,1.88-0.28,6.06-0.64,7.37c-0.59,2.23-2.17,2.23-3.53,2.23h-2.5
					l-0.45-1.76v0.69h-10.6v0.77h-3.86v-5.94h3.86v2H150.81z M150.62,86.43v0.89h10.84v-0.89H150.62z M150.62,89.22v0.89h10.84
					v-0.89H150.62z M156.21,101.91v-2h3.7v2.55h1.81c0.82,0,1.18,0,1.27-3.19h-8.41v2.65H156.21z"/>
				<path class="st0" d="M175.93,100.05c-1.81,2-2.83,2.77-3.35,3.17l-2.26-4.16c4.5-3.07,6.57-6.46,7.94-9.23h-7.52v-3.96h9.17
					v-3.36h3.93v3.36h9.24v3.96h-7.66c1.13,2.82,4.15,6.58,8.08,9.2l-2.31,4.18c-0.68-0.49-1.86-1.34-3.44-3.14v2.2h-4v3.93h-3.84
					v-3.93h-3.98V100.05z M179.92,98.47v-4.38c-0.4,0.84-1.01,2.15-2.71,4.38H179.92z M186.46,98.47c-1.6-2.18-2.29-3.54-2.71-4.38
					v4.38H186.46z"/>
				<path class="st0" d="M198.89,97.38c0,1.51-0.12,4.75-0.8,7.69l-2.31-2c0.49-1.76,0.52-2.05,0.73-5.94L198.89,97.38z
					 M205.25,96.02l-2.1,0.74c-0.05-0.62-0.07-0.72-0.12-1.01c-0.21,0.02-0.42,0.05-0.66,0.1v10.24h-2.95v-9.82
					c-1.98,0.25-2.43,0.27-3.06,0.3l-0.28-3.59c0.17,0,1.11-0.05,1.32-0.05c0.33-0.45,0.71-0.99,0.97-1.36
					c-0.24-0.3-1.2-1.58-2.57-2.82l1.46-3.64c0.12,0.12,0.28,0.25,0.45,0.42c0.9-1.88,1.06-2.4,1.27-3.04l3.18,0.74
					c-0.85,1.98-1.96,3.88-2.36,4.53c0.19,0.2,0.4,0.47,0.57,0.67c1.3-2.1,1.6-2.75,1.96-3.46l2.94,1.29
					c-0.87,1.56-1.48,2.5-3.13,4.85l2.14-0.72c0.5,1.04,0.94,2.55,1.11,3.12v-9.25h3.98c0.09-0.27,0.21-0.57,0.47-1.71l4.12,0.22
					c-0.21,0.59-0.38,1.06-0.54,1.48h4.55v9.92h-4.62c0.31,0.89,0.52,1.41,0.99,2.25c0.94-0.94,1.46-1.78,1.7-2.15l2.8,2.33
					c-0.8,0.92-1.7,1.73-2.64,2.5c1.37,1.56,1.98,2,2.73,2.55l-1.86,3.88c-2.45-1.98-3.32-4.13-3.72-5.12v3.41
					c0,1.43-0.26,2.28-1.91,2.28h-3.37l-0.47-2.97c-0.9,1.56-1.48,2.05-2.1,2.57l-2.03-2.6c0.09-0.07,0.14-0.1,0.21-0.17l-0.59,0.15
					c0-0.87-0.05-4.01-0.28-5.69l2.24-0.4c0.12,0.96,0.31,2.55,0.38,3.98c0.68-1.01,0.99-1.88,1.18-2.45h-1.37V96.02z M200.89,92.73
					c0.24-0.02,1.41-0.1,1.53-0.1c-0.07-0.22-0.35-1.19-0.4-1.39C201.32,92.19,201.08,92.49,200.89,92.73z M209.84,95.13v-0.96
					h-4.26c0.14,0.54,0.19,0.72,0.24,0.96H209.84z M209.11,102.23c0.59,0,0.73-0.17,0.73-0.74v-5.24c-0.31,2.7-1.18,4.8-1.77,5.99
					H209.11z M209.04,87.07v1.09h5.21v-1.09H209.04z M209.04,90.36v1.16h5.21v-1.16H209.04z"/>
				<path class="st0" d="M241.71,80.1h-7.25v26.37h-5.39V74.45h12.63V80.1z"/>
				<path class="st0" d="M256.32,97.22c-0.52-0.68-0.91-1.2-1.73-2.6v12.39h-5.35V96.54c-0.98,0.92-1.6,1.4-2.48,2.05l-1.57-6.81
					c1.6-0.86,4.47-3.22,6.36-7.43h-5.71v-5.34h3.39v-4.59h5.35v4.59h2.38v-3.9h20.01v4.83h-19.97v4.42
					c-0.46,1.27-0.82,2.33-1.83,4.28c0.26,0.31,1.27,1.44,2.32,2.4v-0.45h18.64v16.44h-4.96v-1.2h-8.68v1.2h-4.99V93.97
					L256.32,97.22z M275.38,80.99v8.53h-17.1v-8.53H275.38z M262.49,94.31v1.88h2.32v-1.88H262.49z M262.49,99.48v1.92h2.32v-1.92
					H262.49z M263.17,84.49v1.51h7.31v-1.51H263.17z M268.85,94.31v1.88h2.32v-1.88H268.85z M268.85,99.48v1.92h2.32v-1.92H268.85z"
					/>
				<path class="st0" d="M282.52,76h28.26v5.72h-11.13v18.11h12.43v5.68h-30.88v-5.68h12.6V81.71h-11.29V76z"/>
				<path class="st0" d="M316,101.09c7.05-2.6,10.61-6.16,12.3-13.42h-11.85v-5.72h12.4v-7.5h5.61v7.5h12.86v5.72h-12.14
					c2.25,7.7,5.94,10.99,12.79,13.63l-2.97,5.68c-3.23-1.33-9.86-4.45-12.96-13.42c-3.49,8.94-10.71,12.26-13.22,13.35L316,101.09z
					"/>
				<path class="st0" d="M351.63,77.84h6.92c-0.16-0.41-0.88-2.09-1.21-2.64l6-0.92c0.46,0.82,1.17,2.71,1.44,3.56h5.06
					c0.39-0.96,0.62-1.64,1.08-3.53l6.14,0.68c-0.36,1.06-0.91,2.4-1.11,2.84h6.69v5h-31.01V77.84z M353.01,84.52h13.87v19.72
					c0,2.02-1.24,2.84-2.38,2.84h-4.7l-0.75-5.24h2.25c0.55,0,0.55-0.45,0.55-0.72v-1.58h-3.62v7.53h-5.22V84.52z M358.23,88.97v1.4
					h3.62v-1.4H358.23z M358.23,94.11v1.54h3.62v-1.54H358.23z M368.57,84.9h5.22v15.13h-5.22V84.9z M375.95,84.04h5.32v19.45
					c0,3.22-1.08,3.59-3.98,3.59h-5.88l-0.91-5.44h4.83c0.49,0,0.62-0.14,0.62-0.75V84.04z"/>
				<path class="st0" d="M399.47,107.05h-12.63v-5.65h7.25V75.04h5.38V107.05z"/>
				<path class="st0" d="M413.57,96.54c0.07,2.77-0.16,6.92-1.04,9.52l-2.35-1.99c0.55-1.75,0.95-3.25,1.08-7.64L413.57,96.54z
					 M420.68,96.13c0.39,1.58,0.56,3.05,0.62,3.97c0.1-1.03,0.16-4.25,0.2-5.03h-9.69V75.34h13.77v4.28h-3.46v1.44h2.91v3.32h-2.91
					v1.51h2.91v3.59h-2.91v1.61h3.46c-0.07,0.75-0.13,4.52-0.16,5.38c-0.03,0.55-0.13,2.88-0.42,5.27
					c1.21-2.88,1.93-7.02,1.93-10.07V75.34h14.33v16.61h-3.13c0.75,5.03,3.17,8.29,4.24,9.62l-3.2,5.72
					c-2.55-2.81-4.73-6.3-5.84-15.34h-1.53v0.65c0,8.97-2.12,12.7-3.33,14.69l-3.79-3.53c-0.55,2.09-1.6,3.32-4.67,3.32h-2.45
					l-1.08-4.35h3.1c1.37,0,1.44-0.27,1.63-1.92l-1.37,0.31c-0.06-1.06-0.26-3.32-0.49-4.76L420.68,96.13z M416.11,96.54
					c0.1,2.05,0.13,2.91,0.13,3.66c0,0.79-0.03,2.12-0.1,3.29l-2.12,0.24c0.26-2.26,0.39-4.14,0.39-5.51c0-0.75-0.03-1.13-0.1-1.61
					L416.11,96.54z M416.44,79.62v1.44h1.79v-1.44H416.44z M416.44,84.38v1.51h1.79v-1.51H416.44z M416.44,89.49v1.61h1.79v-1.61
					H416.44z M418.56,96.4c0.36,2.16,0.42,4.18,0.42,5.24l-1.96,0.27c0.07-0.58,0.13-1.3,0.13-2.33c0-1.47-0.13-2.29-0.23-3.01
					L418.56,96.4z M431.94,80.82v6.03h4.21v-6.03H431.94z"/>
				<path class="st0" d="M445.58,79.49c2.12-1.4,3.98-3.46,4.83-5.31l5.06,1.54c-1.8,3.66-4.8,7.22-7.77,9.59L445.58,79.49z
					 M453.61,103.7v3.32h-5.16v-11.4c-0.59,0.55-0.91,0.82-1.5,1.34l-1.34-7.19c2.35-1.61,5.29-5.31,6.53-7.6l4.01,2.64h7.64v-2.36
					h-7.21v-5.2h7.21v-2.84h5.29v2.84h7.21v5.2h-7.21v2.36h8V90h-8v2.33h6.76v5.21h-6.76v3.42c0.65,0.03,1.8,0.1,3.53,0.1
					c2.09,0,3.49-0.07,4.86-0.14l-1.08,5.41c-10.31,0.1-13.12-0.17-16.55-4.21c-1.24,2.95-2.55,4.42-3.23,5.21L453.61,103.7z
					 M462.06,91.75c-0.1,1.13-0.2,2.71-0.65,5c0.26,0.48,0.88,1.54,2.38,2.6V90h-7.93v-3.83c-0.39,0.75-0.98,1.85-2.25,3.6v12.74
					c1.21-1.37,3.13-4.07,3.62-11.2L462.06,91.75z"/>
				<path class="st0" d="M482.42,101.61c2.09,0,10.8-0.07,15.41-2.43c-0.2,0.07-0.49,0.14-0.98,0.14h-6.27l-0.85-4.62
					c-1.66,1.75-3.33,3.12-5.16,4.11l-3.43-4.52c3.72-2.02,5.91-4.14,6.85-5.44h-6.53v-5.17h4.41v-7.71h5.35v7.71h3.3v-9.11h5.32
					v2.16h10.12v5.03h-10.12v1.92h12.5v5.17h-6.1c0.82,0.92,3.56,3.77,6.69,5.62l-3.43,4.45c-1.99-1.16-5.32-4.28-7.9-7.67l3.46-2.4
					h-5.22v7.19c0,0.45,0,1.71-0.78,2.4c2.22-1.51,3.43-3.15,4.11-4.14l3.85,3.77c-2.42,3.22-7.25,8.8-22.85,9.21L482.42,101.61z
					 M492.64,91.23c-0.36,0.58-0.91,1.47-2.55,3.08h3.46c0.98,0,0.98-0.92,0.98-1.23v-4.25h-5.55L492.64,91.23z"/>
				<path class="st0" d="M533.2,76.78v26.98h-5.91V82.4H522v-5.62H533.2z"/>
				<path class="st0" d="M554.57,76.78v26.98h-5.91V82.4h-5.29v-5.62H554.57z"/>
				<path class="st0" d="M567.56,89.21c-0.78,0.72-1.27,1.13-1.99,1.75l-3.53-5.27c6.37-4.21,8.23-9.07,9.01-11.4l5.35,1.06
					c-0.55,1.64-1.89,5.75-5.52,10.31h14.52c-2.71-3.56-4.44-7.53-5.45-10.13l5.35-1.3c1.73,4.08,4.31,8.59,8.98,11.81l-3.62,4.93
					c-0.69-0.51-1.21-0.92-1.79-1.47c-0.23,5.82-0.46,12.16-1.53,14.79c-0.72,1.75-1.6,2.81-4.14,2.81h-6.1l-1.08-5.68h4.83
					c0.72,0,1.27-0.38,1.47-0.79c0.26-0.55,0.78-3.63,0.98-9.52h-5.55c-0.98,8.59-5.48,12.98-12.17,16.09l-3.17-5.45
					c8.55-3.05,9.56-7.81,9.79-10.65h-4.63V89.21z"/>
			</g>
		</g>
		<path class="st0" d="M569.66,178.51H80.34c-13.05,0-23.62-10.58-23.62-23.62v-5.97c0-13.05,10.58-23.62,23.62-23.62h489.32
			c13.05,0,23.62,10.58,23.62,23.62v5.97C593.29,167.93,582.71,178.51,569.66,178.51z"/>
		<g>
			<path class="st0" d="M185.11,48.61c-1.09,2.68-1.85,4.09-3.1,5.97l-1.62-4.94c1.09-1.34,2.9-3.6,4.45-7.52h-3.92v-3.95h4.19
				V27.46h3.72v10.71h3.13v3.95H189c1.42,2.37,2.37,3.57,3.96,5.05l-1.65,3.81c-1.42-1.85-1.55-2.13-2.47-3.78v12.67h-3.72V48.61z
				 M183.34,29.11c0.86,3.91,0.99,6.01,1.05,7.14l-2.8,0.65c-0.03-1.44-0.13-3.74-0.96-7L183.34,29.11z M192.43,29.11h5.21v-1.65
				h3.23v1.65h1.98v-1.65h3.23v1.65h6v3.36h-6v1.65h5.04v11.47h-18.36v-11.4h4.88v-1.72h-5.04c-0.03,0.24-0.2,1.65-0.73,4.12
				l-2.57-0.69c0.56-2.68,0.76-4.63,0.86-6.76l2.27,0.38V29.11z M210.56,47.17v12.7h-3.82v-1.2h-9.56v1.2h-3.86v-12.7H210.56z
				 M195.93,36.76v1.85h1.98v-1.85H195.93z M195.93,41.05v1.85h1.98v-1.85H195.93z M197.18,49.98v1.58h9.56v-1.58H197.18z
				 M197.18,53.96v1.72h9.56v-1.72H197.18z M200.87,32.47v1.72h1.98v-1.72H200.87z M200.87,36.76v1.85h1.98v-1.85H200.87z
				 M200.87,41.05v1.85h1.98v-1.85H200.87z M205.88,36.76v1.85h2.04v-1.85H205.88z M205.88,41.05v1.85h2.04v-1.85H205.88z"/>
			<path class="st0" d="M233.34,47.71c-1.22,0.07-7.15,0.28-8.5,0.31l-0.4-3.6h2.44c0.73-1.27,0.92-1.58,1.38-2.78h-4.52v1.37
				c0,9.54-1.42,13.18-3.36,16.69l-3.59-2.99c1.85-3.23,2.8-6.35,2.8-13.73V28.52h27.22v8.17h-23.07v1.65h24.52v3.3h-5.01
				c1.52,1.72,3,3.43,4.25,5.32l-3.43,2.27c-0.46-0.75-0.5-0.82-1.35-2.13c-1.65,0.21-4.12,0.38-5.34,0.45v2.37h9.59v3.13h-9.59
				v2.68h10.88v3.36h-24.72v-3.36h9.79v-2.68h-8.37v-3.13h8.37V47.71z M242.7,31.65h-18.95v2.06h18.95V31.65z M240.22,41.64h-7.42
				c-0.26,0.45-1.32,2.4-1.58,2.78c4.32-0.04,6.36-0.04,9.23-0.28c-0.69-0.82-1.09-1.17-1.65-1.72L240.22,41.64z"/>
			<path class="st0" d="M258.52,34.57c0.07-1.58,0.03-2.23,0.03-2.64h-4.22v-3.54h15.33v6.18h2.11v3.6h-2.11v6.08h-9.13
				c-0.17,0.41-0.43,1.13-0.99,2.3h10.12v12.02h-10.09v1.3h-3.76V51.9c-0.59,0.62-0.63,0.69-1.05,1.13l-1.75-4.09
				c0.89-0.82,2.31-2.13,3.53-4.7h-2.21v-3.47h3.36c0.1-0.41,0.23-1,0.5-2.61h-4.75v-3.6H258.52z M259.57,50.19v4.6h6.26v-4.6
				H259.57z M265.84,40.78v-2.61h-3.96c-0.23,1.61-0.33,2.2-0.43,2.61H265.84z M265.84,34.57v-2.64h-3.53c0,0.45,0,1.03-0.1,2.64
				H265.84z M276.22,32.16v27.57h-3.92V28.39h11.77v3.88c-0.66,2.71-2.54,6.73-3.3,8.24c1.75,2.27,3.82,4.94,3.82,10.06
				c0,6.11-3.23,6.11-5.8,6.11h-1.52l-0.66-4.19h1.52c0.92,0,2.21,0.03,2.21-3.09c0-5.01-3.1-7.48-4.02-8.21
				c1.55-3.09,2.7-5.63,3.59-9.03H276.22z"/>
			<path class="st0" d="M289.04,53.76c2.24-1.54,4.52-3.36,6.2-5.56h-5.27v-3.74h6.36v-2.68h-6.53v-3.74h3.36
				c-0.2-1.41-0.43-2.95-0.86-4.29h-1.88V30h5.9v-2.58h3.79V30h5.47v3.74h-1.55c-0.49,2.3-0.59,2.75-1.02,4.29h2.9v3.74h-5.87v2.68
				h5.34v3.74h-4.35c1.88,2.27,2.8,2.95,3.89,3.71l-1.95,3.67c-1.52-1.54-2.08-2.23-2.93-3.6v7.93h-3.72v-7.79
				c-2.37,3.4-4.25,4.88-5.41,5.73L289.04,53.76z M295.83,33.74c0.4,1.37,0.66,2.85,0.89,4.29h2.8c0.36-1.2,0.72-3.19,0.86-4.29
				H295.83z M320.61,31.27c-2.93,1.37-6.53,2.2-9.79,2.33v4.5h9.79v4.05h-2.9V59.9h-4.02V42.15h-2.87v1.13
				c0,10.37-2.74,14.42-4.22,16.62l-3.66-2.61c2.24-2.99,4.02-6.39,4.02-13.94v-13.6c1.52,0,6.36,0.07,11.73-2.44L320.61,31.27z"/>
			<path class="st0" d="M352.32,38.31v-4.63h-21.65v4.63h-4.09v-8.38h12.72v-2.51h4.22v2.51h12.85v8.38H352.32z M351.43,35.73v9.58
				h-7.98c-0.1,0.34-0.53,1.96-0.63,2.33h11.8v12.22h-4.12v-1.72h-18.09v1.68h-4.12V47.65h10.28c0.33-1,0.4-1.27,0.63-2.33h-7.75
				v-9.58H351.43z M332.42,51.01v3.67h18.09v-3.67H332.42z M335.25,39.1v2.85h12.33V39.1H335.25z"/>
			<path class="st0" d="M363.04,28.69h16.51v26.75h-12.72v2.78h-3.79V28.69z M366.83,32.68v7.21h2.77v-7.21H366.83z M366.83,43.63
				v7.83h2.77v-7.83H366.83z M373.02,32.68v7.21h2.93v-7.21H373.02z M373.02,43.63v7.83h2.93v-7.83H373.02z M386.34,35.15h-6.23
				v-4.39h13.22v4.39h-2.87v21.77c0,0.79-0.23,2.88-2.8,2.88h-6.82l-0.69-4.33h5.27c0.92,0,0.92-0.62,0.92-0.96V35.15z"/>
			<path class="st0" d="M407.37,55.92c1.55-0.34,4.55-1.06,7.88-3.23c-0.89-0.93-2.64-2.78-4.12-5.94
				c-0.79,0.79-1.42,1.34-2.47,2.23l-2.44-3.6c2.9-2.16,6.16-4.94,8.21-11.19h-6.99l2.34,0.58c-0.53,1.41-1.38,3.78-3.63,7.07v18.09
				h-4.05V46.93c-0.73,0.75-1.22,1.24-2.11,1.99l-2.11-4.15c3.96-3.09,6.69-8.03,7.51-10.57h-6.82v-3.91h13.42v-2.85h4.28v2.85
				h13.15v3.91h-13.88l2.97,0.69c-0.23,0.86-0.43,1.54-0.86,2.58h10.25v3.47c-1.35,5.66-3.69,8.96-6.33,11.81
				c3.33,2.09,6.23,2.68,7.94,3.02l-1.85,4.19c-1.71-0.51-5.34-1.61-9.23-4.46c-3.92,2.88-7.38,3.91-9.26,4.46L407.37,55.92z
				 M417.88,41.91c0.86,0.55,1.94,1.27,4.19,3.36c0.96-1.89,1.29-3.16,1.55-4.15h-7.94c-0.59,0.96-1.25,1.85-1.98,2.71
				c0.79,1.68,2.08,3.95,4.65,6.42c0.92-0.89,1.45-1.51,1.78-1.92c-2.04-2.03-3.46-3.09-4.48-3.84L417.88,41.91z"/>
			<path class="st0" d="M436.31,30.48c3.23-0.27,7.45-0.89,12-2.88l1.65,4.02c-1.45,0.58-4.45,1.72-9.56,2.47v7.45h8.27v3.91h-8.27
				v7.93h19.68v-7.93h-8.37v-3.91h8.37v-7.52h-8.57v-4.15h12.69v29.63h-4.12V57.5h-19.68v1.96h-4.09V30.48z"/>
		</g>
		<g>
			<g>
				<path d="M284.67,204.3h1.44v17.77h3.95v1.12h-3.95v4.06c0,1.54,0.77,2.13,2.45,2.13h0.56v1.12h-8.89v-1.12h0.56
					c1.64,0,2.45-0.56,2.45-2.13v-4.06h-9.41v-1.22L284.67,204.3z M283.24,208.92l-8.08,13.16h8.08V208.92z"/>
				<path d="M303.95,206.12h-1.22c-1.5,0-2.48,0.84-2.48,2.41v18.44c0,1.47,0.88,2.42,2.48,2.42h0.94c2.13,0,4.2-0.74,5.42-1.47
					c2.31-1.4,3.32-3.08,4.06-4.3l0.91,0.46l-2.48,6.44h-17.81v-1.12h1.19c1.43,0,2.52-0.77,2.52-2.42v-18.44
					c0-1.57-0.98-2.41-2.52-2.41h-1.19v-1.15h10.18V206.12z"/>
				<path d="M318.33,204.96h10.04c8.19,0,13.26,4.2,13.26,12.6c0,5.98-3.15,12.95-12.95,12.95h-10.36v-1.12h1.19
					c1.5,0,2.52-0.8,2.52-2.42v-18.44c0-1.57-0.98-2.41-2.52-2.41h-1.19V204.96z M324.81,226.97c0,1.47,0.88,2.42,2.48,2.42h1.68
					c6.33,0,9.52-5.67,9.52-12.11c0-4.44-1.82-11.16-9.38-11.16h-1.82c-1.5,0-2.48,0.84-2.48,2.41V226.97z"/>
				<path d="M358.64,214.76l7.77,12.42c0.8,1.29,2.41,2.21,4.13,2.21h0.49v1.12h-9.9v-1.12h0.84c0.66,0,1.4-0.38,1.4-1.16
					c0-0.52-0.24-1.05-0.49-1.43l-6.19-9.9l-3.32,3.6v6.47c0,1.54,0.98,2.42,2.52,2.42h0.98v1.12h-9.73v-1.12h0.98
					c1.43,0,2.48-0.77,2.48-2.42v-18.44c0-1.57-0.98-2.41-2.48-2.41h-0.98v-1.15h9.73v1.15h-0.98c-1.5,0-2.52,0.84-2.52,2.41v10.32
					l9.55-10.43c0.35-0.38,0.45-0.84,0.45-1.12c0-1.01-1.08-1.19-1.85-1.19h-0.91v-1.15h9.87v1.15h-0.63c-3.18,0-4.69,1.5-5.6,2.52
					L358.64,214.76z"/>
			</g>
		</g>
		<g>
			<g>
				<path d="M144.03,254.72l0.85-1.12c0.13-0.17,0.19-0.25,0.31-0.25c0.12,0,0.14,0.04,0.39,0.23l1.39,1.1
					c0.1,0.08,0.21,0.19,0.21,0.33c0,0.19-0.19,0.21-0.33,0.21h-6.91c0,0.68-0.02,3.67-0.02,4.27c0,0.21,0.02,4.52,0,5.12h5.5
					l1.04-1.12c0.15-0.17,0.21-0.25,0.31-0.25c0.13,0,0.19,0.06,0.39,0.23l1.37,1.1c0.1,0.08,0.21,0.19,0.21,0.31
					c0,0.19-0.19,0.23-0.31,0.23h-15.59c-0.21,0-1.49,0-2.45,0.19l-0.41-0.83c1.39,0.12,2.8,0.15,3.19,0.15h5.29
					c-0.02-0.19-0.02-4.58-0.02-5.06v-4.33h-4.38c-0.27,0-1.43,0-2.45,0.19l-0.42-0.81c1.39,0.1,2.8,0.12,3.19,0.12h4.04
					c-0.04-4.71-0.04-5.25-0.52-6.76l2.51,0.66c0.21,0.06,0.33,0.1,0.33,0.29c0,0.17-0.1,0.25-0.19,0.31
					c-0.08,0.08-0.48,0.39-0.6,0.48c0,1.68-0.02,3.34-0.02,5.02H144.03z"/>
				<path d="M160.39,254.85h-2.43v6.68c1.68-0.5,2.16-0.68,2.63-0.85l0.08,0.17c-0.73,0.54-1.7,1.1-2.99,1.76
					c-0.85,0.44-1.93,0.97-2.55,1.29c-0.19,0.44-0.27,0.66-0.52,0.66c-0.14,0-0.27-0.15-0.33-0.25l-1.08-1.85
					c0.71,0.04,1.06,0.08,3.4-0.56c0-0.71,0.02-3.86,0.02-4.5v-2.55h-0.42c-0.37,0-1.43,0-2.45,0.19l-0.39-0.83
					c1.22,0.1,2.47,0.14,3.26,0.14c0-1.04,0-2.07-0.02-3.11c-0.02-1.74-0.06-2.2-0.27-3.07l2.09,0.71c0.1,0.04,0.29,0.12,0.29,0.31
					c0,0.25-0.42,0.56-0.71,0.75c-0.04,1.45-0.04,2.16-0.06,4.42h0.5l0.62-0.68c0.19-0.21,0.25-0.27,0.35-0.27
					c0.12,0,0.25,0.14,0.35,0.23l0.73,0.68c0.1,0.1,0.19,0.19,0.19,0.31C160.7,254.83,160.52,254.85,160.39,254.85z M169.66,265.46
					c-0.48,0.08-4.15,0.08-4.73,0.08c-3.4,0-4-0.17-4-2.43c0-0.81,0.06-4.38,0.06-5.1c0-0.21-0.02-1.14-0.02-1.33
					c-0.83,0.37-1.29,0.6-2.01,1.1l-0.71-0.58c1.12-0.37,2.41-0.93,2.72-1.08v-3.67c0-0.97-0.04-1.43-0.23-2.41l1.93,0.66
					c0.15,0.04,0.31,0.13,0.31,0.29c0,0.19-0.17,0.33-0.66,0.68c-0.02,0.62-0.04,3.32-0.04,3.86l2.26-1.02
					c0.02-2.07,0.02-3.55-0.04-5c-0.04-0.77-0.19-1.49-0.25-1.82l1.99,0.66c0.21,0.06,0.35,0.17,0.35,0.31
					c0,0.19-0.29,0.44-0.73,0.77c-0.04,1.87-0.04,2.14-0.04,4.5l2.01-0.89l0.5-0.83c0.1-0.17,0.21-0.35,0.35-0.35
					c0.15,0,0.27,0.08,0.39,0.17l0.97,0.6c0.08,0.04,0.21,0.19,0.21,0.33c0,0.25-0.23,0.46-0.52,0.73c0,6.22-0.04,7.65-2.47,8.29
					c-0.19-1.04-0.95-1.55-1.24-1.74v-0.1c0.35,0.04,0.48,0.04,0.64,0.04c1.45,0,1.68-0.19,1.68-4.56c0-1.41-0.02-1.64-0.04-2.24
					l-2.47,1.12c0.02,3.05,0.04,5.04,0.06,5.6c0,0.27,0.06,1.49,0.06,1.74c0,1-0.87,1.04-1.06,1.04c-0.29,0-0.5-0.1-0.5-0.54
					c0-0.23,0.06-1.29,0.06-1.49c0.04-1.33,0.04-2.12,0.06-5.76l-2.26,1.02c-0.02,0.83,0,7.2,0.02,7.44c0.02,0.27,0.23,0.5,0.5,0.58
					s3.23,0.08,3.63,0.08c2.14,0,2.78,0,3.21-0.77c0.39-0.73,0.83-2.26,0.91-2.51h0.15c0.04,0.75,0.1,1.97,0.39,2.47
					c0.13,0.21,0.48,0.39,0.48,0.6C171.57,264.3,171.22,265.19,169.66,265.46z"/>
				<path d="M183.43,252.81c0.48-1,1.02-2.61,1.22-3.46h-5.41c-0.56,0-1.54,0.02-2.45,0.19l-0.42-0.83
					c1.06,0.08,2.12,0.15,3.19,0.15h12.36l0.91-0.89c0.17-0.17,0.33-0.31,0.39-0.31c0.1,0,0.19,0.06,0.39,0.23l1.16,0.93
					c0.08,0.06,0.21,0.19,0.21,0.31c0,0.21-0.21,0.23-0.33,0.23h-8.07c-0.58,0.95-2.14,2.84-2.68,3.46h7.55l0.58-0.6
					c0.21-0.21,0.27-0.27,0.39-0.27c0.1,0,0.27,0.12,0.37,0.21l0.95,0.81c0.12,0.1,0.17,0.21,0.17,0.27c0,0.19-0.08,0.25-0.83,0.66
					c0,2.34,0.02,5.31,0.04,7.65c0.02,0.97,0.1,2.51,0.1,3.46c0,0.89-0.75,0.97-1.04,0.97c-0.62,0-0.62-0.33-0.58-1.51h-11.8
					c0,0.08,0.02,0.56,0.02,0.66c0,0.75-0.66,0.95-1.02,0.95c-0.66,0-0.66-0.46-0.66-0.64c0-0.08,0.06-1.1,0.06-1.26
					c0.04-2.26,0.15-7.03,0.15-9c0-1.49-0.04-2.14-0.29-3.4l2.14,1.04H183.43z M179.85,253.31v10.66h2.76v-10.66H179.85z
					 M187.17,256.46v-3.15h-3.17v3.15H187.17z M187.17,260.09v-3.13h-3.17v3.13H187.17z M187.17,263.97v-3.38h-3.17v3.38H187.17z
					 M191.65,263.97v-10.66h-3.07v10.66H191.65z"/>
				<path d="M198.82,261.67c1.58-1.99,3.23-5.68,3.86-7.94h-0.48c-0.19,0-1.47,0-2.45,0.19l-0.39-0.83c1.18,0.1,2.38,0.15,3.46,0.15
					c0-1-0.04-2.47-0.04-3.36c-1.22,0.25-2.28,0.33-3.38,0.37v-0.17c0.42-0.14,4.52-1.51,5.6-2.32c0.27-0.21,0.35-0.35,0.44-0.5
					l1.43,1.2c0.08,0.06,0.14,0.17,0.14,0.29c0,0.21-0.21,0.21-0.39,0.21c0,0-0.25,0-0.6-0.02c-0.44,0.17-0.91,0.35-1.93,0.62
					c0,0.95,0.02,2.86,0.02,3.67h0.39l0.5-0.75c0.08-0.13,0.19-0.27,0.31-0.27c0.13,0,0.29,0.14,0.39,0.23l0.89,0.75
					c0.1,0.08,0.21,0.19,0.21,0.33c0,0.21-0.21,0.21-0.31,0.21h-2.38c0,0.39,0.02,1.33,0.02,1.82c2.03,0.73,2.72,1.97,2.72,2.61
					c0,0.44-0.31,0.83-0.77,0.83c-0.5,0-0.56-0.21-0.97-1.37c-0.27-0.79-0.48-1.39-0.97-1.8c0.04,3.61,0.04,4.02,0.08,5.6
					c0.04,1.41,0.08,3.05,0.08,3.79c0,0.37,0,1.2-1.04,1.2c-0.54,0-0.6-0.31-0.6-0.71c0-0.68,0.17-3.73,0.19-4.35
					c0.04-2.03,0.02-2.84,0.02-4.65c-0.91,1.97-2.22,3.73-3.92,5.06L198.82,261.67z M205.48,266.05c1.45-0.71,3.79-2.07,4.29-2.99
					l1.49,1.1c0.13,0.08,0.19,0.19,0.19,0.31c0,0.29-0.48,0.27-1,0.27c-1.33,0.68-3.75,1.35-4.94,1.43L205.48,266.05z
					 M214.69,249.54l0.52-0.83c0.1-0.17,0.21-0.29,0.31-0.29c0.1,0,0.27,0.14,0.39,0.25l1.02,0.83c0.1,0.08,0.21,0.19,0.21,0.33
					c0,0.19-0.17,0.21-0.31,0.21h-4.4v1.7h1.66l0.5-0.75c0.08-0.12,0.17-0.25,0.31-0.25c0.1,0,0.25,0.12,0.37,0.23l0.85,0.72
					c0.13,0.1,0.21,0.21,0.21,0.33c0,0.19-0.19,0.21-0.31,0.21h-3.59v1.87h3.44l0.6-0.85c0.1-0.17,0.23-0.27,0.33-0.27
					c0.12,0,0.25,0.12,0.37,0.25l0.89,0.83c0.1,0.1,0.21,0.21,0.21,0.33c0,0.21-0.17,0.21-0.31,0.21h-8.63c-0.35,0-1.45,0-2.45,0.19
					l-0.42-0.83c1.06,0.08,2.14,0.15,3.19,0.15h1.35v-1.87h-0.5c-0.27,0-1.43,0-2.45,0.21l-0.39-0.83c0.62,0.04,1.53,0.12,3.34,0.12
					c0-0.81-0.02-1.31-0.02-1.7h-1.37c-0.37,0-1.45,0-2.45,0.19l-0.41-0.83c1.51,0.12,2.84,0.14,3.19,0.14h1.02
					c-0.02-0.93-0.04-1.16-0.37-2.22l2.12,0.64c0.1,0.02,0.29,0.08,0.29,0.31c0,0.27-0.48,0.5-0.58,0.54v0.73H214.69z
					 M214.21,256.03l0.48-0.52c0.08-0.08,0.21-0.21,0.29-0.21c0.1,0,0.25,0.12,0.33,0.19l0.81,0.68c0.13,0.1,0.23,0.23,0.23,0.37
					c0,0.21-0.25,0.37-0.6,0.54c-0.02,0.21-0.02,0.35-0.02,0.77c0,0.71,0.17,3.79,0.17,4.42c0,0.29-0.04,0.95-0.95,0.95
					c-0.54,0-0.54-0.27-0.52-0.71h-4.94c0.04,0.48,0.06,0.95-0.93,0.95c-0.35,0-0.54-0.1-0.54-0.48c0-0.04,0.02-0.21,0.04-0.5
					c0.04-0.77,0.04-3.01,0.04-3.92c0-1.82,0-2.01-0.23-3.28l1.64,0.72H214.21z M209.48,256.53V258h4.94v-1.47H209.48z
					 M209.48,258.5v1.49h4.94v-1.49H209.48z M209.48,260.49v1.53h4.94v-1.53H209.48z M212.97,263.31c1.87,0.17,4.5,1.1,4.5,2.34
					c0,0.5-0.46,0.81-0.83,0.81c-0.48,0-0.95-0.52-1.31-0.91c-0.12-0.17-1.26-1.47-2.36-2.09V263.31z"/>
				<path d="M224.87,252.79c0,0.66-0.56,1.2-1.2,1.2c-0.66,0-1.2-0.54-1.2-1.2s0.52-1.2,1.2-1.2
					C224.33,251.59,224.87,252.11,224.87,252.79z M224.87,260.96c0,0.68-0.56,1.2-1.2,1.2c-0.66,0-1.2-0.52-1.2-1.2
					c0-0.64,0.52-1.2,1.2-1.2C224.33,259.76,224.87,260.3,224.87,260.96z"/>
				<path d="M229.83,264.1h1.14c1.08,0,1.45-0.42,1.45-1.26v-11.22c0-0.64-0.6-0.75-1-0.75h-1.58v-0.64h0.37
					c1.6,0,3.13-0.73,3.38-0.87c0.14-0.08,0.21-0.12,0.29-0.12c0.19,0,0.23,0.12,0.23,0.29v13.31c0,0.89,0.44,1.26,1.45,1.26h1.14
					v0.66h-6.88V264.1z"/>
				<path d="M242.69,264.1h1.14c1.08,0,1.45-0.42,1.45-1.26v-11.22c0-0.64-0.6-0.75-1-0.75h-1.58v-0.64h0.37
					c1.6,0,3.13-0.73,3.38-0.87c0.15-0.08,0.21-0.12,0.29-0.12c0.19,0,0.23,0.12,0.23,0.29v13.31c0,0.89,0.44,1.26,1.45,1.26h1.14
					v0.66h-6.88V264.1z"/>
				<path d="M263.67,260.59c0,2.41-1.89,4.56-4.89,4.56c-2.36,0-4.48-1.37-4.48-3.73c0-2.24,1.78-3.3,3.69-4.42
					c-1.1-0.64-3.09-1.8-3.09-4.06c0-2.05,1.62-3.71,4.15-3.71c2.84,0,3.79,2.12,3.79,3.28c0,1.76-1.7,3.05-2.59,3.71
					C262.2,257.42,263.67,258.46,263.67,260.59z M256.04,261.36c0,1.82,1.37,3.09,2.99,3.09c1.8,0,3.15-1.6,3.15-3.13
					c0-1.97-2.05-3.13-3.57-3.98C257.68,258.04,256.04,259.31,256.04,261.36z M261.33,252.73c0-1.58-1.06-2.8-2.57-2.8
					c-1.47,0-2.45,1.12-2.45,2.47c0,1.45,1.18,2.18,3.34,3.46C260.25,255.35,261.33,254.45,261.33,252.73z"/>
				<path d="M269.79,263.95c0.02,0.68-0.56,1.2-1.2,1.2c-0.68,0-1.2-0.54-1.2-1.2s0.52-1.2,1.2-1.2
					C269.23,262.75,269.79,263.29,269.79,263.95z"/>
				<path d="M274.73,264.1h1.14c1.08,0,1.45-0.42,1.45-1.26v-11.22c0-0.64-0.6-0.75-1-0.75h-1.58v-0.64h0.37
					c1.6,0,3.13-0.73,3.38-0.87c0.14-0.08,0.21-0.12,0.29-0.12c0.19,0,0.23,0.12,0.23,0.29v13.31c0,0.89,0.44,1.26,1.45,1.26h1.14
					v0.66h-6.88V264.1z"/>
				<path d="M291.03,265.15c-1.43,0-2.63-1-3.4-2.24c-0.87-1.43-1.26-3.98-1.26-5.91c0-4.42,1.89-7.78,4.67-7.78
					c2.14,0,4.67,2.3,4.67,7.96C295.7,262.27,293.56,265.15,291.03,265.15z M288.71,252.69c-0.29,1.04-0.48,2.78-0.48,4.5
					c0,4.62,1.1,7.26,2.8,7.26c1.43,0,2.07-1.91,2.3-2.7c0.29-1.06,0.5-2.82,0.5-4.56c0-4.73-1.14-7.26-2.8-7.26
					C289.56,249.93,288.91,251.97,288.71,252.69z"/>
				<path d="M302.6,254.56v1.64c0.56-0.56,1.62-1.64,3.42-1.64c1.93,0,2.3,1.26,2.49,1.87c0.68-0.68,1.85-1.87,3.71-1.87
					c1.83,0,2.65,1.1,2.65,3.4v4.89c0,0.79,0.42,1.24,1.04,1.24h0.37v0.66h-4.33v-0.66h0.39c0.73,0,1.04-0.56,1.04-1.24v-4.77
					c0-0.58-0.08-2.63-1.8-2.63c-0.58,0-1.89,0.33-2.94,1.8c0.02,0.17,0.04,0.33,0.04,0.71v4.89c0,0.87,0.48,1.24,1.04,1.24h0.6
					v0.66h-4.77v-0.66h0.6c0.58,0,1.06-0.39,1.06-1.24v-4.77c0-0.44-0.06-2.63-1.8-2.63c-0.5,0-1.82,0.27-2.8,1.64v5.76
					c0,0.87,0.48,1.24,1.04,1.24h0.37v0.66h-4.31v-0.66h0.37c0.62,0,1.04-0.44,1.04-1.24v-6.24c0-0.64-0.37-0.97-0.85-0.97
					c-0.25,0-0.46,0.02-0.62,0.08l-0.1-0.39L302.6,254.56z M313.32,253.33c0.31-0.41,0.48-0.58,1.2-1.33
					c0.44-0.48,1.18-1.29,1.18-2.01c0-0.27-0.17-0.77-0.64-0.77c-0.37,0-0.71,0.29-0.71,0.56c0,0.08,0.19,0.46,0.19,0.54
					c0,0.25-0.23,0.54-0.58,0.54c-0.42,0-0.62-0.35-0.62-0.71c0-0.71,0.79-1.49,1.83-1.49c0.85,0,1.51,0.54,1.51,1.41
					c0,0.77-0.39,1.12-0.64,1.35c-0.23,0.23-1.51,1.27-1.72,1.56h1.29c0.54,0,0.71-0.42,0.81-0.71l0.33,0.1l-0.44,1.43h-2.99V253.33
					z"/>
				<path d="M361.4,265.67c-7.53-0.1-10.76-0.14-13.56-2.86c-1.26,1.87-2.45,2.7-4.23,3.59l-0.12-0.13
					c1.64-1.41,2.67-2.51,3.59-4.31c-1.33-1.66-1.74-3.26-1.93-4l0.21-0.17c0.66,1.89,1.76,3.07,2.09,3.4
					c0.64-1.49,1.16-3.4,1.16-5.64h-1.74c-0.42,1.16-0.52,1.47-1.2,1.47c-0.14,0-0.75-0.02-0.75-0.48c0-0.13,0.31-0.97,0.5-1.47
					c1.08-2.78,1.93-5.04,2.18-5.95h-0.75c-0.35,0-1.51,0-2.45,0.19l-0.39-0.83c1.06,0.08,2.11,0.15,3.17,0.15h0.37l0.54-0.44
					c0.19-0.15,0.29-0.21,0.39-0.21c0.08,0,0.21,0.08,0.35,0.21l0.81,0.68c0.17,0.12,0.21,0.25,0.21,0.37
					c0,0.25-0.42,0.44-0.95,0.66c-0.46,1.16-0.73,1.87-1.87,5.14h1.41l0.56-0.43c0.17-0.13,0.29-0.21,0.39-0.21
					c0.15,0,0.25,0.08,0.39,0.23l0.64,0.66c0.17,0.17,0.25,0.31,0.25,0.43c0,0.19-0.21,0.31-0.64,0.58c-0.19,1.99-0.71,3.92-1.7,5.7
					c1.99,1.6,4.67,2.05,7.22,2.05c2.47,0,5.37-0.27,7.3-0.6l0.04,0.17C361.69,264.24,361.52,265.09,361.4,265.67z M362.62,252.75
					h-2.86c0.08,2.47,0.08,2.47,0.08,2.61c0,0.42,0,1.06-1,1.06c-0.56,0-0.54-0.33-0.52-0.68h-2.55v2.16h3.11l0.62-0.79
					c0.14-0.17,0.23-0.27,0.35-0.27c0.12,0,0.23,0.1,0.39,0.23l0.93,0.79c0.1,0.1,0.21,0.23,0.21,0.31c0,0.19-0.14,0.23-0.31,0.23
					h-5.31l0.02,2.2h3.69l0.79-0.91c0.17-0.19,0.25-0.27,0.35-0.27c0.12,0,0.23,0.08,0.37,0.23l0.97,0.91
					c0.14,0.12,0.21,0.25,0.21,0.35c0,0.12-0.12,0.19-0.31,0.19h-6.08c0,0.25,0.04,1.47,0,1.74c-0.02,0.27-0.39,0.75-0.91,0.75
					c-0.66,0-0.66-0.37-0.66-0.6c0-0.27,0.1-1.58,0.1-1.89h-1.41c-0.14,0-1.47,0-2.43,0.19l-0.42-0.81
					c1.62,0.12,3.15,0.12,3.19,0.12h1.08c0.02-0.56,0.02-1.08,0.04-2.2h-0.62c-0.54,0-1.53,0.02-2.43,0.19l-0.42-0.81
					c0.62,0.04,1.78,0.13,3.48,0.13v-2.16h-0.41c-0.17,0-1.47,0-2.45,0.19l-0.42-0.81c1.49,0.1,3.07,0.13,3.28,0.13l0.02-2.49h-1.93
					c-0.54,0-1.54,0.02-2.43,0.19l-0.41-0.83c1.06,0.1,2.11,0.15,3.17,0.15h1.6l-0.02-2.43h-0.5c-0.35,0-1.47,0.02-2.45,0.19
					l-0.39-0.83c1.45,0.13,2.8,0.15,3.32,0.15c0-1.04-0.02-1.27-0.31-1.93l1.99,0.48c0.23,0.06,0.35,0.14,0.35,0.33
					c0,0.21-0.25,0.37-0.58,0.56v0.56h2.41l0.52-0.46c0.15-0.13,0.25-0.21,0.37-0.21c0.12,0,0.23,0.1,0.37,0.23l0.58,0.56
					c0.15,0.13,0.25,0.27,0.25,0.39c0,0.17-0.17,0.29-0.58,0.58c-0.04,0.39-0.04,0.42,0,1.83h0.75l0.6-0.77
					c0.12-0.17,0.23-0.25,0.33-0.25c0.12,0,0.25,0.08,0.39,0.21l0.89,0.77c0.1,0.1,0.21,0.21,0.21,0.31
					C362.93,252.65,362.83,252.75,362.62,252.75z M358.37,252.75h-2.57l-0.02,2.49h2.59V252.75z M358.37,249.83h-2.53l-0.04,2.43
					h2.57V249.83z"/>
				<path d="M372.64,258.64c0,2.51,0,2.95,0.04,4.15c0.02,0.73,0.08,1.89,0.08,2.61c0,0.85-0.89,0.95-1.08,0.95
					c-0.46,0-0.56-0.27-0.56-0.58c0-0.08,0.04-0.85,0.04-1c0.08-1.56,0.08-2.12,0.12-5.43c-1.51,0.79-2.12,1.02-2.55,1.18
					c-0.02,0.37-0.06,0.73-0.39,0.73c-0.23,0-0.35-0.23-0.42-0.35l-0.97-1.87c1.29,0.06,1.64,0.04,4.35-0.79
					c0-1.83,0.02-3.88,0-5.45h-1.87c-0.62,2.51-1.51,4.02-1.85,4.58l-0.12-0.04c0.79-3.07,0.93-6.3,0.93-7.2
					c0-0.77-0.08-1.04-0.21-1.41l1.99,0.48c0.17,0.04,0.35,0.08,0.35,0.31c0,0.29-0.29,0.42-0.62,0.54c-0.1,0.97-0.21,1.6-0.35,2.24
					h1.72c-0.04-2.92-0.1-3.77-0.56-4.81l2.28,0.66c0.13,0.04,0.31,0.14,0.31,0.29c0,0.25-0.35,0.44-0.66,0.6
					c-0.02,0.44-0.02,2.63-0.02,3.26h0.42l0.58-0.79c0.1-0.13,0.21-0.27,0.31-0.27c0.12,0,0.27,0.12,0.37,0.23l0.83,0.79
					c0.08,0.08,0.19,0.19,0.19,0.31c0,0.19-0.19,0.23-0.31,0.23h-2.38c0,1.33-0.02,3.65,0,4.98c0.42-0.14,2.34-0.81,2.72-0.95
					l0.06,0.14C374.84,257.38,374.19,257.79,372.64,258.64z M384.87,253.02c-0.17,4.33-0.33,8.27-1.64,10.97
					c-0.79,1.64-2.28,1.91-3.21,2.09c-0.15-0.93-0.48-1.51-1.76-2.45l0.06-0.15c1.37,0.39,2.16,0.44,2.51,0.44
					c0.5,0,0.83,0,1.41-1.47c0.73-1.91,1.31-6.45,1.16-10.04h-1.18c-0.6,4.69-2.59,10.72-8.58,12.98l-0.06-0.14
					c4.4-3.3,6.26-6.8,7.13-12.84h-1.16c-0.85,4.37-3.19,8.15-6.2,9.56l-0.06-0.12c2.55-2.55,4.19-6.06,4.75-9.44h-1.04
					c-0.66,1.49-1.58,2.94-2.8,4.13l-0.1-0.1c2.03-3.82,2.67-7.59,2.67-8.46c0-0.23-0.02-0.39-0.1-0.71l2.07,0.83
					c0.21,0.08,0.31,0.21,0.31,0.33c0,0.27-0.39,0.37-0.73,0.46c-0.54,1.66-0.89,2.51-1.1,3.03h5.97l0.5-0.52
					c0.13-0.14,0.23-0.23,0.31-0.23s0.23,0.08,0.37,0.19l0.97,0.73c0.15,0.1,0.23,0.17,0.23,0.29
					C385.58,252.69,385.1,252.92,384.87,253.02z"/>
				<path d="M397.65,252.81c0.48-1,1.02-2.61,1.22-3.46h-5.41c-0.56,0-1.54,0.02-2.45,0.19l-0.42-0.83
					c1.06,0.08,2.12,0.15,3.19,0.15h12.36l0.91-0.89c0.17-0.17,0.33-0.31,0.39-0.31c0.1,0,0.19,0.06,0.39,0.23l1.16,0.93
					c0.08,0.06,0.21,0.19,0.21,0.31c0,0.21-0.21,0.23-0.33,0.23h-8.07c-0.58,0.95-2.14,2.84-2.68,3.46h7.55l0.58-0.6
					c0.21-0.21,0.27-0.27,0.39-0.27c0.1,0,0.27,0.12,0.37,0.21l0.95,0.81c0.12,0.1,0.17,0.21,0.17,0.27c0,0.19-0.08,0.25-0.83,0.66
					c0,2.34,0.02,5.31,0.04,7.65c0.02,0.97,0.1,2.51,0.1,3.46c0,0.89-0.75,0.97-1.04,0.97c-0.62,0-0.62-0.33-0.58-1.51h-11.8
					c0,0.08,0.02,0.56,0.02,0.66c0,0.75-0.66,0.95-1.02,0.95c-0.66,0-0.66-0.46-0.66-0.64c0-0.08,0.06-1.1,0.06-1.26
					c0.04-2.26,0.15-7.03,0.15-9c0-1.49-0.04-2.14-0.29-3.4l2.14,1.04H397.65z M394.06,253.31v10.66h2.76v-10.66H394.06z
					 M401.38,256.46v-3.15h-3.17v3.15H401.38z M401.38,260.09v-3.13h-3.17v3.13H401.38z M401.38,263.97v-3.38h-3.17v3.38H401.38z
					 M405.86,263.97v-10.66h-3.07v10.66H405.86z"/>
				<path d="M413.04,261.67c1.58-1.99,3.23-5.68,3.86-7.94h-0.48c-0.19,0-1.47,0-2.45,0.19l-0.39-0.83c1.18,0.1,2.38,0.15,3.46,0.15
					c0-1-0.04-2.47-0.04-3.36c-1.22,0.25-2.28,0.33-3.38,0.37v-0.17c0.42-0.14,4.52-1.51,5.6-2.32c0.27-0.21,0.35-0.35,0.44-0.5
					l1.43,1.2c0.08,0.06,0.14,0.17,0.14,0.29c0,0.21-0.21,0.21-0.39,0.21c0,0-0.25,0-0.6-0.02c-0.44,0.17-0.91,0.35-1.93,0.62
					c0,0.95,0.02,2.86,0.02,3.67h0.39l0.5-0.75c0.08-0.13,0.19-0.27,0.31-0.27c0.13,0,0.29,0.14,0.39,0.23l0.89,0.75
					c0.1,0.08,0.21,0.19,0.21,0.33c0,0.21-0.21,0.21-0.31,0.21h-2.38c0,0.39,0.02,1.33,0.02,1.82c2.03,0.73,2.72,1.97,2.72,2.61
					c0,0.44-0.31,0.83-0.77,0.83c-0.5,0-0.56-0.21-0.97-1.37c-0.27-0.79-0.48-1.39-0.97-1.8c0.04,3.61,0.04,4.02,0.08,5.6
					c0.04,1.41,0.08,3.05,0.08,3.79c0,0.37,0,1.2-1.04,1.2c-0.54,0-0.6-0.31-0.6-0.71c0-0.68,0.17-3.73,0.19-4.35
					c0.04-2.03,0.02-2.84,0.02-4.65c-0.91,1.97-2.22,3.73-3.92,5.06L413.04,261.67z M419.7,266.05c1.45-0.71,3.79-2.07,4.29-2.99
					l1.49,1.1c0.13,0.08,0.19,0.19,0.19,0.31c0,0.29-0.48,0.27-1,0.27c-1.33,0.68-3.75,1.35-4.94,1.43L419.7,266.05z M428.9,249.54
					l0.52-0.83c0.1-0.17,0.21-0.29,0.31-0.29c0.1,0,0.27,0.14,0.39,0.25l1.02,0.83c0.1,0.08,0.21,0.19,0.21,0.33
					c0,0.19-0.17,0.21-0.31,0.21h-4.4v1.7h1.66l0.5-0.75c0.08-0.12,0.17-0.25,0.31-0.25c0.1,0,0.25,0.12,0.37,0.23l0.85,0.72
					c0.13,0.1,0.21,0.21,0.21,0.33c0,0.19-0.19,0.21-0.31,0.21h-3.59v1.87h3.44l0.6-0.85c0.1-0.17,0.23-0.27,0.33-0.27
					c0.12,0,0.25,0.12,0.37,0.25l0.89,0.83c0.1,0.1,0.21,0.21,0.21,0.33c0,0.21-0.17,0.21-0.31,0.21h-8.63c-0.35,0-1.45,0-2.45,0.19
					l-0.42-0.83c1.06,0.08,2.14,0.15,3.19,0.15h1.35v-1.87h-0.5c-0.27,0-1.43,0-2.45,0.21l-0.39-0.83c0.62,0.04,1.53,0.12,3.34,0.12
					c0-0.81-0.02-1.31-0.02-1.7h-1.37c-0.37,0-1.45,0-2.45,0.19l-0.41-0.83c1.51,0.12,2.84,0.14,3.19,0.14h1.02
					c-0.02-0.93-0.04-1.16-0.37-2.22l2.12,0.64c0.1,0.02,0.29,0.08,0.29,0.31c0,0.27-0.48,0.5-0.58,0.54v0.73H428.9z M428.43,256.03
					l0.48-0.52c0.08-0.08,0.21-0.21,0.29-0.21c0.1,0,0.25,0.12,0.33,0.19l0.81,0.68c0.13,0.1,0.23,0.23,0.23,0.37
					c0,0.21-0.25,0.37-0.6,0.54c-0.02,0.21-0.02,0.35-0.02,0.77c0,0.71,0.17,3.79,0.17,4.42c0,0.29-0.04,0.95-0.95,0.95
					c-0.54,0-0.54-0.27-0.52-0.71h-4.94c0.04,0.48,0.06,0.95-0.93,0.95c-0.35,0-0.54-0.1-0.54-0.48c0-0.04,0.02-0.21,0.04-0.5
					c0.04-0.77,0.04-3.01,0.04-3.92c0-1.82,0-2.01-0.23-3.28l1.64,0.72H428.43z M423.7,256.53V258h4.94v-1.47H423.7z M423.7,258.5
					v1.49h4.94v-1.49H423.7z M423.7,260.49v1.53h4.94v-1.53H423.7z M427.18,263.31c1.87,0.17,4.5,1.1,4.5,2.34
					c0,0.5-0.46,0.81-0.83,0.81c-0.48,0-0.95-0.52-1.31-0.91c-0.12-0.17-1.26-1.47-2.36-2.09V263.31z"/>
				<path d="M439.09,252.79c0,0.66-0.56,1.2-1.2,1.2c-0.66,0-1.2-0.54-1.2-1.2s0.52-1.2,1.2-1.2
					C438.55,251.59,439.09,252.11,439.09,252.79z M439.09,260.96c0,0.68-0.56,1.2-1.2,1.2c-0.66,0-1.2-0.52-1.2-1.2
					c0-0.64,0.52-1.2,1.2-1.2C438.55,259.76,439.09,260.3,439.09,260.96z"/>
				<path d="M448.4,258.75c-0.44,0.27-1.08,0.54-1.8,0.54c-2.05,0-3.71-2.07-3.71-4.6c0-2.86,2.05-5.45,4.44-5.45
					c2.36,0,4.77,2.7,4.77,7.15c0,4.79-2.7,8.77-5.87,8.77c-1.39,0-2.36-0.83-2.36-1.8c0-0.75,0.58-1.08,1.06-1.08
					c0.42,0,1.1,0.27,1.14,1.43c0.02,0.46,0.06,0.75,0.62,0.75c0.56,0,1.12-0.27,1.51-0.73c1.85-2.03,1.95-5.1,2.03-6.95
					C449.83,257.42,449.4,258.12,448.4,258.75z M449.08,251.05c-0.35-0.56-0.89-1.12-1.68-1.12c-1.1,0-2.65,1.16-2.65,4.56
					c0,0.95,0.23,3.86,2.36,3.86c0.79,0,2.12-0.58,3.09-2.82C450.12,254.39,449.95,252.4,449.08,251.05z"/>
				<path d="M463.41,257.71c0.95,0.81,1.41,1.85,1.41,3.07c0,2.55-2.09,4.38-4.83,4.38c-2.24,0-4.13-1.27-4.13-2.92
					c0-0.91,0.6-1.33,1.18-1.33c0.71,0,1.02,0.6,1.02,1.04c0,0.31-0.06,0.5-0.13,0.66c-0.04,0.12-0.06,0.27-0.06,0.48
					c0,0.79,0.89,1.37,1.87,1.37c1.6,0,3.21-1.58,3.21-3.67c0-2.14-1.58-3.79-3.24-3.79c-0.12,0-0.71,0.08-0.83,0.08
					c-0.31,0-0.46-0.19-0.46-0.44c0-0.27,0.21-0.48,0.48-0.48c0.13,0,0.75,0.13,0.89,0.13c1.74,0,2.84-1.56,2.84-3.24
					c0-1.62-0.97-3.11-2.61-3.11c-1.1,0-1.68,0.79-1.68,1.39c0,0.1,0.04,0.21,0.06,0.31c0.04,0.15,0.06,0.35,0.06,0.5
					c0,0.64-0.48,1.14-1.06,1.14c-0.68,0-1.04-0.6-1.04-1.14c0-1.14,1.33-2.9,3.98-2.9c2.55,0,4.15,1.66,4.15,3.48
					c0,0.73-0.27,1.43-0.77,2.12c-0.85,1.12-1.78,1.47-2.63,1.76C462.07,256.88,462.69,257.09,463.41,257.71z"/>
				<path d="M471.15,263.95c0.02,0.68-0.56,1.2-1.2,1.2c-0.68,0-1.2-0.54-1.2-1.2s0.52-1.2,1.2-1.2
					C470.59,262.75,471.15,263.29,471.15,263.95z"/>
				<path d="M480.44,258.75c-0.44,0.27-1.08,0.54-1.8,0.54c-2.05,0-3.71-2.07-3.71-4.6c0-2.86,2.05-5.45,4.44-5.45
					c2.36,0,4.77,2.7,4.77,7.15c0,4.79-2.7,8.77-5.87,8.77c-1.39,0-2.36-0.83-2.36-1.8c0-0.75,0.58-1.08,1.06-1.08
					c0.42,0,1.1,0.27,1.14,1.43c0.02,0.46,0.06,0.75,0.62,0.75c0.56,0,1.12-0.27,1.51-0.73c1.85-2.03,1.95-5.1,2.03-6.95
					C481.87,257.42,481.44,258.12,480.44,258.75z M481.13,251.05c-0.35-0.56-0.89-1.12-1.68-1.12c-1.1,0-2.65,1.16-2.65,4.56
					c0,0.95,0.23,3.86,2.36,3.86c0.79,0,2.12-0.58,3.09-2.82C482.16,254.39,482,252.4,481.13,251.05z"/>
				<path d="M491.48,255.66c0.44-0.27,1.08-0.54,1.8-0.54c2.05,0,3.71,2.07,3.71,4.58c0,2.88-2.05,5.45-4.44,5.45
					c-2.36,0-4.77-2.68-4.77-7.15c0-4.79,2.7-8.77,5.87-8.77c1.39,0,2.36,0.83,2.36,1.82c0,0.75-0.58,1.08-1.06,1.08
					c-0.41,0-1.1-0.27-1.14-1.45c-0.02-0.46-0.06-0.75-0.62-0.75c-0.56,0-1.12,0.31-1.51,0.75c-1.84,2.03-1.95,5.08-2.03,6.95
					C490.04,256.98,490.48,256.26,491.48,255.66z M490.79,263.33c0.35,0.56,0.89,1.12,1.68,1.12c1.1,0,2.65-1.14,2.65-4.56
					c0-0.93-0.23-3.84-2.36-3.84c-0.79,0-2.12,0.58-3.09,2.82C489.75,260.01,489.92,262,490.79,263.33z"/>
				<path d="M503.96,254.56v1.64c0.56-0.56,1.62-1.64,3.42-1.64c1.93,0,2.3,1.26,2.49,1.87c0.68-0.68,1.85-1.87,3.71-1.87
					c1.82,0,2.65,1.1,2.65,3.4v4.89c0,0.79,0.41,1.24,1.04,1.24h0.37v0.66h-4.33v-0.66h0.39c0.73,0,1.04-0.56,1.04-1.24v-4.77
					c0-0.58-0.08-2.63-1.8-2.63c-0.58,0-1.89,0.33-2.94,1.8c0.02,0.17,0.04,0.33,0.04,0.71v4.89c0,0.87,0.48,1.24,1.04,1.24h0.6
					v0.66h-4.77v-0.66h0.6c0.58,0,1.06-0.39,1.06-1.24v-4.77c0-0.44-0.06-2.63-1.8-2.63c-0.5,0-1.83,0.27-2.8,1.64v5.76
					c0,0.87,0.48,1.24,1.04,1.24h0.37v0.66h-4.31v-0.66h0.37c0.62,0,1.04-0.44,1.04-1.24v-6.24c0-0.64-0.37-0.97-0.85-0.97
					c-0.25,0-0.46,0.02-0.62,0.08l-0.1-0.39L503.96,254.56z M514.68,253.33c0.31-0.41,0.48-0.58,1.2-1.33
					c0.44-0.48,1.18-1.29,1.18-2.01c0-0.27-0.17-0.77-0.64-0.77c-0.37,0-0.71,0.29-0.71,0.56c0,0.08,0.19,0.46,0.19,0.54
					c0,0.25-0.23,0.54-0.58,0.54c-0.41,0-0.62-0.35-0.62-0.71c0-0.71,0.79-1.49,1.83-1.49c0.85,0,1.51,0.54,1.51,1.41
					c0,0.77-0.39,1.12-0.64,1.35c-0.23,0.23-1.51,1.27-1.72,1.56h1.29c0.54,0,0.71-0.42,0.81-0.71l0.33,0.1l-0.44,1.43h-2.99V253.33
					z"/>
			</g>
		</g>
		<g>
			<g>
				<path class="st1" d="M110.54,163.4c2.14-1.51,4.61-3.33,6.69-6.42h-5.73v-3.16h6.69v-3.19h-6.86v-3.12h3.66
					c-0.03-0.27-0.36-3.06-0.99-4.91h-2.01v-3.13h6.2v-2.85h3.16v2.85h5.7v3.13h-1.55c-0.69,3.16-0.76,3.54-1.19,4.91h3.23v3.12
					h-6.2v3.19h5.44v3.16h-4.81c0.76,0.96,2.14,2.68,4.05,3.91l-1.65,3.09c-1.71-1.72-2.11-2.27-3.03-3.67v8.62h-3.16v-8.55
					c-2.7,3.74-4.58,5.25-5.83,6.18L110.54,163.4z M117,142.59c0.49,1.65,0.99,4.5,1.02,4.91h3.33c0.4-1.37,0.86-3.67,1.02-4.91H117
					z M142.15,139.85c-3,1.48-6.66,2.44-10.18,2.58v5.22h10.18v3.3h-3.23v17.99h-3.43v-17.99h-3.53v0.93
					c0,9.58-1.81,13.25-4.42,17.06l-3.2-2.3c2.87-3.57,4.32-7.07,4.32-14.66v-12.77c5.8,0.1,9.46-1.51,11.6-2.58L142.15,139.85z"/>
				<path class="st1" d="M159.62,153.41c-2.27,0.51-9.46,1.68-11.67,1.96l-0.53-3.16c0.3-0.04,4.68-0.48,5.47-0.58v-3.43h-3.92
					v-2.75h0.23l-2.08-2.23c0.89-0.79,3.69-3.09,4.98-6.69l3.23,0.62c-0.13,0.45-0.17,0.55-0.53,1.44h7.71v2.75h-5.01
					c0.36,0.65,0.63,1.17,0.89,1.79l-3.23,1.24c-0.2-0.82-0.66-2.23-1.05-3.02h-0.86c-0.23,0.41-1.55,2.4-3.49,4.12h10.08v2.75
					h-3.86v3.09c2.24-0.27,2.93-0.41,3.86-0.58v1.99c2.67-1.75,3-3.64,3.13-7.76h11.87v6.39c0,0.62,0.13,0.75,0.4,0.75
					c0.72,0,0.79,0,0.86-0.93c0-0.28,0.03-1.61,0.03-1.92l2.83,0.79c-0.16,3.64-0.26,4.81-2.08,4.81h-3.07
					c-1.05,0-2.04-0.65-2.04-2.33v-4.88h-5.93c-0.07,1.27-0.36,5.25-4.05,7.79h2.83v1.41h13.91v2.95H167.3
					c1.55,1.27,3.72,3.02,11.73,5.01l-1.48,3.23c-4.75-1.37-9.23-3.5-12.92-6.9v7.72h-3.2v-7.76c-3.92,4.05-9.36,6.01-12.79,6.93
					l-1.35-3.26c4.25-0.76,8.96-2.85,11.6-4.98h-11.27v-2.95h13.81v-1.17L159.62,153.41z M166.97,141.32
					c-1.02,1.75-1.61,2.4-2.34,3.12l-2.8-2.03c2.14-1.99,3.03-3.85,3.66-5.73l3.33,0.51c-0.2,0.58-0.3,0.89-0.46,1.37h10.18v2.75
					h-6.53c0.36,0.58,0.63,1.13,0.86,1.75l-2.97,1.27c-0.26-0.69-0.92-2.27-1.29-3.02H166.97z M168.06,148.19
					c1.62,1.44,2.64,2.47,3.46,3.57l-2.14,2.09c-0.53-0.65-1.85-2.3-3.36-3.6L168.06,148.19z"/>
				<path class="st1" d="M188.76,149.25c-1.55,1.44-2.5,2.2-3.39,2.88l-2.37-3.12c4.19-2.4,8.37-7.52,9.89-12.5l3.43,0.93
					c-1.19,3.26-2.9,7.11-7.19,11.4h20.3c0,3.47-0.1,12.39-1.35,16.93c-0.86,3.09-3.1,3.19-4.55,3.19h-5.04l-0.66-3.64h5.04
					c1.88,0,2.18-1.72,2.44-3.23c0.26-1.54,0.69-4.77,0.66-9.78h-7.65c-0.86,9.27-5.44,13.66-12.26,16.65l-2.01-3.3
					c7.15-3.12,9.92-6.25,10.74-13.36h-6.03V149.25z M213.08,151.86c-2.7-1.89-8.41-7.93-10.68-14.32l3.43-1.03
					c1.71,4.29,5.24,9.61,9.66,12.36L213.08,151.86z"/>
				<path class="st1" d="M220.03,142.46h10.91v3.06h-10.91V142.46z M220.86,137.37h9.03v3.09h-9.03V137.37z M220.86,147.43h9.03
					v3.12h-9.03V147.43z M220.86,152.55h9.03v3.06h-9.03V152.55z M220.86,157.8h9.03v9.79h-6.06v1.44h-2.97V157.8z M223.83,160.76
					v4.02h3.1v-4.02H223.83z M250.85,160.07c-0.73,0.72-1.09,1.06-3.59,3.09c1.55,1.41,2.93,2.09,3.96,2.64l-1.68,3.23
					c-4.22-2.4-7.88-6.01-9-10.85c-0.13,0.17-1.12,1.24-2.34,2.13v4.6c2.6-0.21,3.66-0.38,4.91-0.55v3.23
					c-2.47,0.38-7.65,0.96-10.97,1.06l-0.56-3.47c0.99,0,1.81,0,3.56-0.07v-2.81c-1.29,0.72-2.34,1.13-3.69,1.65l-1.35-2.99
					c1.15-0.34,4.29-1.17,6.86-3.3h-6v-2.58h4.68v-1.75h-3.49v-2.37h3.49v-1.51h-4.05v-2.44h4.05v-1.13h2.97v1.13h4.98v-1.13h3v1.13
					h4.29v2.44h-4.29v1.51h3.63v2.37h-3.63v1.75h4.48v2.58h-7.78c0.4,0.82,0.92,1.82,1.81,3.09c1.32-1.03,1.91-1.61,3.1-2.85
					L250.85,160.07z M231.54,143.62c1.71-0.38,3.33-0.75,6.06-2.06h-6.39v-2.88h8.17v-1.92h3.33v1.92h8.34v2.88h-6.33
					c1.52,0.86,3.59,1.58,6.33,2.16l-1.35,2.44c-1.12-0.17-4.25-0.79-6.99-2.44l1.68-2.16h-6.59l1.98,2.16
					c-2.57,1.51-6.13,2.44-6.92,2.64L231.54,143.62z M238.59,149.46v1.51h4.98v-1.51H238.59z M238.59,153.34v1.75h4.98v-1.75H238.59
					z"/>
				<path class="st1" d="M259.42,152.41c-1.09,1.54-1.65,2.16-2.27,2.85l-1.48-4.39c1.78-1.99,4.91-7.38,5.7-14.14l3.43,0.45
					c-0.1,1.3-0.36,4.15-2.01,8.55v23.17h-3.36V152.41z M277.75,143.55c-1.94-1.75-4.15-3.12-6.46-4.33l2.11-2.88
					c2.14,1.06,4.55,2.58,6.63,4.12l-2.04,3.09h8.54v3.4h-8.83v6.49h7.61v3.4h-7.61v7.62h9.59v3.33h-22.64v-3.33h9.56v-7.62h-7.65
					v-3.4h7.65v-6.49h-8.73v-3.4H277.75z"/>
				<path class="st1" d="M307.58,154.2l15.66-1.72l0.26,3.4l-15.92,1.75v6.8c0,0.65,0.46,0.65,0.69,0.65h9.06
					c0.53,0,0.92-0.21,1.05-0.89c0.13-0.58,0.23-3.43,0.23-4.6l3.59,0.93c-0.13,5.18-0.3,8.14-3.59,8.14h-11.34
					c-0.86,0-3.16,0-3.16-2.54v-8.1l-11.34,1.27l-0.23-3.43l11.57-1.27v-4.15c-1.91,0.24-4.05,0.38-5.93,0.52l-1.09-3.5
					c2.54-0.1,11.96-0.45,19.51-3.23l1.71,3.23c-3.82,1.44-6.79,1.96-10.74,2.54V154.2z M306.36,136.65h3.43v3.02h12.82v8.21h-3.43
					v-4.77h-22.21v4.77h-3.46v-8.21h12.85V136.65z"/>
				<path class="st1" d="M334.05,148.53c-1.48,0.89-2.7,1.48-4.02,2.13l-1.68-3.47c5.11-1.89,10.84-6.15,14.04-10.58h3.69
					c3.16,4.19,7.78,8.27,14.24,10.47l-1.85,3.5c-1.02-0.45-2.04-0.89-3.96-2.06v2.57h-8.54v4.63h10.42v3.09h-10.42v5.56h13.35v3.5
					h-30.26v-3.5h13.38v-5.56H332.1v-3.09h10.35v-4.63h-8.4V148.53z M353.29,147.74c-2.77-1.85-6-4.39-9.1-8.1
					c-1.65,2.03-4.55,5.32-8.9,8.1H353.29z"/>
				<path class="st1" d="M379.79,138.78v27.05h-3.96v-23.35h-5.04v-3.71H379.79z"/>
				<path class="st1" d="M392.88,157.32c0.79-1.2,3.49-5.12,4.75-11.09h-4.25v-3.3h4.35v-6.25h3.16v6.25h3.66v3.3h-3.66v1.2
					c1.62,3.84,3.16,5.49,4.05,6.42l-1.68,3.16c-0.49-0.69-1.55-2.27-2.37-4.29v16.17h-3.16v-15.11c-1.42,5.08-2.74,6.87-3.63,8.1
					L392.88,157.32z M402.67,164.57c5.5-3.02,7.98-6.9,8.37-7.55h-5.67v-12.39h7.42v-1.96h-8.24v-3.36h8.24v-2.61h3.1v2.61h8.5v3.36
					h-8.5v1.96h7.45v12.39h-5.44c0.5,0.79,2.83,4.46,7.02,7.24l-1.91,3.06c-2.87-2.2-4.94-4.39-7.12-8.51v10.09h-3.1v-9.65
					c-3.13,5.08-6.43,7.28-8.24,8.41L402.67,164.57z M408.44,147.33v2.27h4.35v-2.27H408.44z M408.44,152.03v2.23h4.35v-2.23H408.44
					z M415.89,147.33v2.27h4.45v-2.27H415.89z M415.89,152.03v2.23h4.45v-2.23H415.89z"/>
				<path class="st1" d="M458.64,138.78v27.05h-3.96v-23.35h-5.04v-3.71H458.64z"/>
				<path class="st1" d="M479.3,159.79c-0.33,0.62-0.66,1.17-1.29,2.13l-3.43-1.37c0.76-1.17,1.71-2.64,3.76-7.24h-6v-3.26h30.92
					v3.26h-21.13c-0.26,0.69-1.09,2.71-1.35,3.26h19.48c-0.2,2.64-0.66,7.96-1.71,9.99c-0.73,1.37-1.91,2.37-3.82,2.37h-5.8
					l-0.76-3.6h5.93c1.19,0,2.08-0.62,2.44-5.53H479.3z M500.49,137.79v9.79h-25.18v-9.79H500.49z M478.61,140.91v3.57h18.59v-3.57
					H478.61z"/>
				<path class="st1" d="M507.65,157.32c0.79-1.2,3.49-5.12,4.75-11.09h-4.25v-3.3h4.35v-6.25h3.16v6.25h3.66v3.3h-3.66v1.2
					c1.62,3.84,3.16,5.49,4.05,6.42l-1.68,3.16c-0.49-0.69-1.55-2.27-2.37-4.29v16.17h-3.16v-15.11c-1.42,5.08-2.74,6.87-3.63,8.1
					L507.65,157.32z M517.44,164.57c5.5-3.02,7.98-6.9,8.37-7.55h-5.67v-12.39h7.42v-1.96h-8.24v-3.36h8.24v-2.61h3.1v2.61h8.5v3.36
					h-8.5v1.96h7.45v12.39h-5.44c0.5,0.79,2.83,4.46,7.02,7.24l-1.91,3.06c-2.87-2.2-4.94-4.39-7.12-8.51v10.09h-3.1v-9.65
					c-3.13,5.08-6.43,7.28-8.24,8.41L517.44,164.57z M523.2,147.33v2.27h4.35v-2.27H523.2z M523.2,152.03v2.23h4.35v-2.23H523.2z
					 M530.65,147.33v2.27h4.45v-2.27H530.65z M530.65,152.03v2.23h4.45v-2.23H530.65z"/>
			</g>
		</g>
	</g>
</g>
</svg>
