<?xml version="1.0" encoding="utf-8"?>
<!-- Generator: Adobe Illustrator 23.0.3, SVG Export Plug-In . SVG Version: 6.00 Build 0)  -->
<svg version="1.1" xmlns="http://www.w3.org/2000/svg" xmlns:xlink="http://www.w3.org/1999/xlink" x="0px" y="0px"
	 viewBox="0 0 700 500" style="enable-background:new 0 0 700 500;" xml:space="preserve">
<style type="text/css">
	.グラフィックスタイル{fill:none;stroke:#000000;stroke-width:2;stroke-miterlimit:10;}
	.グラフィックスタイル_x0020_2{fill:#D8EACC;stroke:#000000;stroke-width:2;}
	.グラフィックスタイル_x0020_3{fill:#FFFFFF;stroke:#000000;stroke-width:2;stroke-miterlimit:10;}
	.グラフィックスタイル_x0020_4{fill:#FFFFFF;stroke:#000000;stroke-width:1.2664;stroke-miterlimit:10;}
	.グラフィックスタイル_x0020_7{fill:none;stroke:#000000;stroke-width:1.5;stroke-linejoin:bevel;stroke-miterlimit:10;}
	.st0{fill:#FFFFFF;}
	.st1{fill:#D8EACC;stroke:#000000;stroke-width:2;}
	.st2{fill:none;stroke:#000000;stroke-width:1.4318;stroke-linecap:round;stroke-linejoin:round;}
	.st3{fill:none;stroke:#000000;stroke-width:1.8264;stroke-linecap:round;stroke-linejoin:round;}
	.st4{fill:#FFFFFF;stroke:#000000;stroke-width:1.2664;stroke-miterlimit:10;}
	.st5{fill:#030201;}
	.st6{fill:#242323;}
	.st7{fill:none;stroke:#000000;stroke-width:2;stroke-linejoin:round;stroke-miterlimit:10;}
	.st8{fill:none;stroke:#000000;stroke-width:2;stroke-miterlimit:10;}
	.st9{fill:none;stroke:#000000;stroke-width:2;stroke-linejoin:bevel;stroke-miterlimit:10;}
	.st10{fill:#E83589;}
	.st11{fill:none;stroke:#000000;stroke-width:2;stroke-miterlimit:10;stroke-dasharray:5.901,5.901;}
	.st12{fill:none;stroke:#000000;stroke-width:1.5;stroke-linejoin:bevel;stroke-miterlimit:10;}
	.st13{fill:#D8EACC;stroke:#000000;stroke-width:1.5;}
	.st14{fill:none;stroke:#000000;stroke-width:1.5;stroke-miterlimit:10;}
	.st15{fill:none;stroke:#000000;stroke-linejoin:bevel;stroke-miterlimit:10;}
	.st16{fill:#FFFFFF;stroke:#000000;stroke-width:1.5;stroke-miterlimit:10;}
	.st17{fill:#FFFFFF;stroke:#DE0000;stroke-width:2;stroke-miterlimit:10;}
	.st18{fill:#DE0000;}
	.st19{fill:none;stroke:#000000;stroke-miterlimit:10;}
	.st20{fill:none;stroke:#000000;stroke-miterlimit:10;stroke-dasharray:3.0312,3.0312;}
	.st21{fill:url(#);stroke:#000000;stroke-width:1.1494;}
	.st22{fill:#FFFFFF;stroke:#000000;stroke-miterlimit:10;}
	.st23{fill:none;stroke:#000000;stroke-width:3;stroke-miterlimit:10;stroke-dasharray:5;}
	.st24{fill:none;stroke:#FFFFFF;stroke-width:0.75;stroke-linejoin:round;}
	.st25{fill:none;stroke:#000000;stroke-miterlimit:10;stroke-dasharray:5;}
	.st26{fill:none;stroke:#FFFFFF;stroke-width:3;stroke-linejoin:round;}
	.st27{fill:none;stroke:#000000;stroke-width:1.3;stroke-linejoin:bevel;stroke-miterlimit:10;}
	.st28{fill:none;stroke:#000000;stroke-width:1.5;stroke-miterlimit:10;stroke-dasharray:5;}
	.st29{fill:none;stroke:#47738A;stroke-linejoin:bevel;stroke-miterlimit:10;}
	.st30{fill:none;}
	.st31{fill:none;stroke:#FFFFFF;stroke-width:5;stroke-linejoin:round;}
	.st32{fill:#D8EACC;}
	.st33{fill:#D8EACC;stroke:#000000;stroke-width:0.25;}
	.st34{fill:none;stroke:#000000;stroke-width:2;}
	.st35{fill:none;stroke:#FFFFFF;stroke-linejoin:round;}
	.st36{fill:none;stroke:#000000;stroke-width:1.9773;stroke-linecap:round;stroke-linejoin:round;}
	.st37{fill:none;stroke:#000000;stroke-width:2.5222;stroke-linecap:round;stroke-linejoin:round;}
	.st38{fill:#FFFFFF;stroke:#000000;stroke-width:2;stroke-miterlimit:10;}
	.st39{fill:#FFFFFF;stroke:#000000;stroke-width:1.0238;stroke-miterlimit:10;}
	.st40{fill:#FFFFFF;stroke:#000000;stroke-width:1.089;stroke-miterlimit:10;}
	.st41{fill:#FFFFFF;stroke:#000000;stroke-width:1.2553;stroke-miterlimit:10;}
	.st42{fill:url(#);}
	.st43{fill:none;stroke:#000000;stroke-width:1.7765;stroke-linejoin:bevel;stroke-miterlimit:10;}
	.st44{fill:none;stroke:#000000;stroke-width:2.3687;stroke-miterlimit:10;}
	.st45{fill:#D8EACC;stroke:#000000;stroke-width:2.0455;}
	.st46{fill:none;stroke:#000000;stroke-width:2.0455;stroke-linecap:round;stroke-miterlimit:10;stroke-dasharray:0,6.1366;}
	.st47{fill:#FFFFFF;stroke:#000000;stroke-width:2.3687;stroke-miterlimit:10;}
	.st48{fill:#FFFFFF;stroke:#000000;stroke-width:1.4998;stroke-miterlimit:10;}
	.st49{fill:#FFFFFF;stroke:#000000;stroke-width:0.6137;stroke-miterlimit:10;}
	.st50{fill:url(#);stroke:#000000;stroke-width:1.0228;}
	.st51{fill:none;stroke:#FFFFFF;stroke-width:4.0911;stroke-linejoin:round;}
	.st52{fill:none;stroke:#000000;stroke-width:2.4559;stroke-linecap:round;stroke-linejoin:round;}
	.st53{fill:none;stroke:#000000;stroke-width:3.1327;stroke-linecap:round;stroke-linejoin:round;}
	.st54{fill:none;stroke:#FFFFFF;stroke-width:4;stroke-linejoin:round;}
</style>
<g id="レイヤー_5">
	<rect x="-3643.06" y="-2032.14" class="st0" width="5667.56" height="5248"/>
</g>
<g id="レイヤー_1">
</g>
<g id="レイヤー_3">
</g>
<g id="レイヤー_4">
</g>
<g id="レイヤー_2">
	<g>
		<rect class="st0" width="700" height="500"/>
		<polygon class="グラフィックスタイル_x0020_2" points="236.01,451.52 476.5,454.19 472.94,155.97 236.01,155.97 		"/>
		<g>
			<path d="M483.18,124.29h9.2v-2.63h1.31v2.63h3.35v1.5h-3.35v7h-1.29l-9.21-6.63V124.29z M487.48,125.79
				c-0.78,0-2.11-0.03-2.94-0.08v0.07c0.9,0.46,1.68,0.9,2.16,1.24l5.68,4.05v-5.27H487.48z"/>
			<path d="M494.6,118.09h2.43v2.43h-2.43V118.09z"/>
			<path d="M489.13,111.95c0-2.43-0.88-3.77-2.48-3.77c-1.41,0-2.29,1.14-2.29,2.98c0,1.38,0.41,2.29,1.48,3.33l-0.95,1
				c-1.17-1.05-1.87-2.69-1.87-4.37c0-2.74,1.45-4.64,3.52-4.64c1.72,0,2.89,1.26,3.14,3.35h0.07c0.17-2.46,1.5-3.89,3.59-3.89
				c2.43,0,3.98,2.01,3.98,5.2c0,2.07-0.61,3.64-1.92,4.84l-1-1c1.02-1.02,1.53-2.29,1.53-3.82c0-2.18-1.02-3.49-2.7-3.49
				c-1.9,0-2.79,1.36-2.79,4.32v1.11h-1.29V111.95z"/>
			<path d="M490.15,93.95c4.42,0,7.14,1.95,7.14,5.1c0,3.14-2.74,5.1-7.14,5.1c-4.42,0-7.14-1.96-7.14-5.12
				C483.01,95.9,485.74,93.95,490.15,93.95z M490.15,102.48c3.57,0,5.78-1.31,5.78-3.45c0-2.11-2.21-3.42-5.78-3.42
				c-3.6,0-5.8,1.31-5.8,3.45C484.35,101.17,486.58,102.48,490.15,102.48z"/>
			<path d="M490.15,82.22c4.42,0,7.14,1.95,7.14,5.1c0,3.14-2.74,5.1-7.14,5.1c-4.42,0-7.14-1.96-7.14-5.12
				C483.01,84.17,485.74,82.22,490.15,82.22z M490.15,90.75c3.57,0,5.78-1.31,5.78-3.45c0-2.11-2.21-3.42-5.78-3.42
				c-3.6,0-5.8,1.31-5.8,3.45C484.35,89.44,486.58,90.75,490.15,90.75z"/>
		</g>
		<g>
			<path d="M214.1,120.42h9.2v-2.63h1.31v2.63h3.35v1.5h-3.35v7h-1.29l-9.21-6.63V120.42z M218.4,121.92
				c-0.78,0-2.11-0.03-2.94-0.08v0.07c0.9,0.46,1.68,0.9,2.16,1.24l5.68,4.05v-5.27H218.4z"/>
			<path d="M225.53,114.22h2.43v2.43h-2.43V114.22z"/>
			<path d="M220.05,108.08c0-2.43-0.88-3.77-2.48-3.77c-1.41,0-2.29,1.14-2.29,2.98c0,1.38,0.41,2.29,1.48,3.33l-0.95,1
				c-1.17-1.05-1.87-2.69-1.87-4.37c0-2.74,1.45-4.64,3.52-4.64c1.72,0,2.89,1.26,3.14,3.35h0.07c0.17-2.46,1.5-3.89,3.59-3.89
				c2.43,0,3.98,2.01,3.98,5.2c0,2.07-0.61,3.64-1.92,4.84l-1-1c1.02-1.02,1.53-2.29,1.53-3.82c0-2.18-1.02-3.49-2.7-3.49
				c-1.9,0-2.79,1.36-2.79,4.32v1.11h-1.29V108.08z"/>
			<path d="M215.7,95.52c0.34,0.76,0.8,2.26,1.02,3.3l-1.27,0.37c-0.32-1.56-0.97-3.32-1.51-4.11v-1.14h14.02v1.58H215.7z"/>
			<path d="M221.07,78.35c4.42,0,7.14,1.95,7.14,5.1c0,3.14-2.74,5.1-7.14,5.1c-4.42,0-7.14-1.96-7.14-5.12
				C213.93,80.3,216.67,78.35,221.07,78.35z M221.07,86.88c3.57,0,5.78-1.31,5.78-3.45c0-2.11-2.21-3.42-5.78-3.42
				c-3.6,0-5.8,1.31-5.8,3.45C215.28,85.57,217.5,86.88,221.07,86.88z"/>
		</g>
		<g>
			
				<rect x="110.48" y="198.71" transform="matrix(6.123234e-17 -1 1 6.123234e-17 -116.345 376.6093)" class="st10" width="39.3" height="95.53"/>
			<g>
				<path class="st0" d="M99.6,252.32h15.55v2.09H99.6v1.41h-2.32v-18.56h17.34v2.01H99.6V252.32z M100.28,249.98
					c2.12-1.08,3.67-2.24,5.41-4.02c-1.33-1.12-3.09-2.38-4.83-3.52l1.41-1.58c1.72,1.08,3.21,2.14,4.85,3.4
					c1.02-1.35,1.85-2.72,2.7-4.44l2.09,1.02c-0.93,1.84-1.97,3.5-3.01,4.85c1.16,0.95,2.7,2.32,4.25,3.79l-1.64,1.72
					c-1.35-1.35-2.86-2.74-4.08-3.79c-1.74,1.85-3.55,3.19-5.76,4.35L100.28,249.98z"/>
				<path class="st0" d="M128.76,239.09h-8.69v-1.87h19.7v1.87h-8.81v1.99h4.44v10.35h-10.97v-10.35h4.33V239.09z M136.97,252.78
					v-11.7h2.12v14.74h-2.12v-1.14h-14.12v1.14h-2.09v-14.74h2.09v11.7H136.97z M126.4,242.78v2.51h2.45v-2.51H126.4z M126.4,246.89
					v2.8h2.45v-2.8H126.4z M130.88,245.29h2.55v-2.51h-2.55V245.29z M130.88,249.69h2.55v-2.8h-2.55V249.69z"/>
				<path class="st0" d="M162.96,255.83h-2.26v-1.06h-13.44v1.06h-2.24v-18.75h17.94V255.83z M147.26,252.82h13.44v-13.85h-13.44
					V252.82z M158.77,251.93c-1.31-0.81-2.84-1.68-4.23-2.38c-1.51,1.26-3.34,2.28-5.37,3.01l-1.29-1.56
					c1.89-0.6,3.24-1.31,4.67-2.45l-0.54-0.25c-1.35-0.66-2.34-1.1-4.11-1.83l0.93-1.53c2.09,0.77,3.3,1.24,5.29,2.18
					c1.68-1.78,3.09-4.33,3.86-7.03l2.01,0.62c-0.85,2.63-2.38,5.5-3.94,7.34c0.1,0.06,0.1,0.06,0.19,0.1
					c1.04,0.52,2.18,1.14,3.75,2.07L158.77,251.93z M150.04,245.15c-0.48-1.62-1.04-2.99-1.66-4.06l1.91-0.77
					c0.66,1.16,1.22,2.49,1.72,4.04L150.04,245.15z M153.61,244.34c-0.5-1.58-1.06-2.92-1.68-4.08l1.82-0.73
					c0.75,1.33,1.39,2.8,1.72,4L153.61,244.34z"/>
			</g>
		</g>
		<polyline class="st2" points="117.71,299.79 117.71,288.05 124.61,299.79 124.61,288.05 		"/>
		<g>
			<circle class="st3" cx="130.14" cy="329.45" r="24.35"/>
			<polygon points="133.87,342.59 146.74,346.24 123.65,306.6 124.85,352.46 			"/>
		</g>
		<g>
			<g>
				<g>
					<path class="st0" d="M445.46,264.37c-6.13,0.72-12.26,0.72-18.4,0c-7.06-0.89-12.35-8.05-11.97-14.59
						c1.08-21.41,1.07-42.82-0.03-64.23c-0.37-6.21,4.65-13,11.35-13.9c6.56-0.83,13.12-0.83,19.68,0c6.7,0.9,11.72,7.69,11.35,13.9
						c-1.11,21.41-1.12,42.82-0.03,64.23C457.8,256.32,452.52,263.48,445.46,264.37z"/>
					<path class="st5" d="M436.26,265.15c-3.08,0-6.16-0.18-9.23-0.54c-6.9-0.87-12.59-7.8-12.18-14.84
						c1.08-21.3,1.07-42.9-0.03-64.21c-0.39-6.66,5.01-13.27,11.56-14.15c6.55-0.83,13.19-0.83,19.74,0
						c6.55,0.88,11.95,7.49,11.56,14.15c-1.1,21.3-1.11,42.91-0.03,64.21c0.41,7.04-5.28,13.97-12.17,14.84h0
						C442.42,264.97,439.34,265.15,436.26,265.15z M436.26,171.27c-3.28,0-6.56,0.21-9.81,0.62c-6.32,0.84-11.53,7.22-11.15,13.65
						c1.1,21.32,1.11,42.94,0.03,64.26c-0.4,6.8,5.1,13.5,11.76,14.34c6.08,0.72,12.25,0.72,18.34,0
						c6.66-0.84,12.16-7.54,11.76-14.34c-1.08-21.32-1.07-42.94,0.03-64.26c0.38-6.43-4.83-12.81-11.15-13.65
						C442.81,171.48,439.54,171.27,436.26,171.27z"/>
				</g>
			</g>
			<g>
				<path class="st6" d="M450.93,252.32h-29.34c0.03,0.34,0.08,0.69,0.12,1.03h29.1C450.85,253.01,450.89,252.67,450.93,252.32z"/>
			</g>
			<g>
				<path class="st5" d="M453.92,241.82l-0.25-0.88c-1.82-6.26-2.82-14.57-2.82-23.38c0-0.96,0.01-1.95,0.04-2.93l0.01-0.06
					l4.45-10.47l0.02,0.82c0.06,2.43,0.09,4.84,0.09,7.15c0,9.9-0.48,19.6-1.44,28.83L453.92,241.82z M451.24,214.69
					c-0.02,0.96-0.04,1.93-0.04,2.88c0,8.36,0.9,16.26,2.55,22.37c0.89-8.94,1.34-18.31,1.34-27.86c0-2.05-0.02-4.17-0.07-6.32
					L451.24,214.69z"/>
			</g>
			<g>
				<path class="st5" d="M418.6,241.82l-0.09-0.91c-0.96-9.23-1.44-18.93-1.44-28.83c0-2.3,0.03-4.7,0.09-7.15l0.02-0.82l4.46,10.54
					c0.03,0.98,0.04,1.96,0.04,2.93c0,8.81-1,17.11-2.82,23.38L418.6,241.82z M417.49,205.76c-0.05,2.16-0.07,4.29-0.07,6.32
					c0,9.55,0.45,18.92,1.34,27.86c1.65-6.12,2.55-14.01,2.55-22.37c0-0.95-0.01-1.92-0.04-2.88L417.49,205.76z"/>
			</g>
			<g>
				<path class="st0" d="M455.03,202.1v-15.4c0-9.04-7.39-16.44-16.42-16.44h-4.72c-9.03,0-16.42,7.4-16.42,16.44v15.4
					c6.14-1.41,12.46-2.14,18.78-2.12C442.57,199.96,448.89,200.68,455.03,202.1z"/>
				<path d="M455.21,202.32l-0.22-0.05c-6.19-1.42-12.49-2.15-18.74-2.11c-0.08,0-0.16,0-0.25,0c-6.16,0-12.38,0.71-18.49,2.11
					l-0.22,0.05v-15.62c0-9.16,7.44-16.62,16.6-16.62h4.72c9.15,0,16.6,7.45,16.6,16.62V202.32z M433.9,170.43
					c-8.95,0-16.24,7.29-16.24,16.26v15.18c6.07-1.38,12.24-2.07,18.35-2.07c0.17,0,0.33,0,0.5,0c6.11,0,12.28,0.7,18.35,2.07
					v-15.18c0-8.97-7.28-16.26-16.24-16.26H433.9z"/>
			</g>
			<g>
				<path class="st0" d="M449.82,238.16c-9.04-1.37-18.09-1.37-27.13,0c-1.25,4.73-1.64,9.45-1.16,14.18h29.45
					C451.46,247.61,451.08,242.88,449.82,238.16z"/>
				<path d="M451.14,252.51h-29.77l-0.02-0.16c-0.48-4.73-0.09-9.52,1.16-14.24l0.03-0.11l0.12-0.02c9.02-1.36,18.17-1.36,27.19,0
					l0.12,0.02l0.03,0.11c1.25,4.72,1.64,9.51,1.16,14.24L451.14,252.51z M421.7,252.16h29.12c0.45-4.6,0.06-9.25-1.14-13.84
					c-8.91-1.33-17.94-1.33-26.85,0C421.63,242.91,421.25,247.56,421.7,252.16z"/>
			</g>
			<g>
				<path class="st6" d="M450.98,252.34h-29.45c0.03,0.34,0.08,0.69,0.12,1.03h29.21C450.91,253.02,450.95,252.68,450.98,252.34z"/>
			</g>
			<g>
				<path class="st0" d="M421.65,253.36v7.39c3.59,1.94,8.81,3.16,14.6,3.16c5.8,0,11.01-1.22,14.6-3.16v-7.39H421.65z"/>
				<path d="M436.26,264.09c-5.59,0-10.94-1.16-14.69-3.18l-0.09-0.05v-7.68h29.56v7.68l-0.09,0.05
					C447.2,262.93,441.85,264.09,436.26,264.09z M421.83,260.65c3.69,1.96,8.94,3.09,14.43,3.09c5.48,0,10.73-1.12,14.43-3.09v-7.11
					h-28.85V260.65z"/>
			</g>
			<g>
				<path class="st6" d="M454.91,202l0.36-0.99c-12.42-3.43-25.61-3.43-38.04,0l0.36,0.99C429.8,198.7,442.72,198.7,454.91,202z"/>
			</g>
			<g>
				<path class="st0" d="M418.13,201.95l4.56,12.49h27.13l4.56-12.49C442.53,198.74,429.98,198.74,418.13,201.95z"/>
				<path d="M449.95,214.62h-27.38l-4.67-12.79l0.19-0.05c11.89-3.22,24.46-3.22,36.35,0l0.19,0.05L449.95,214.62z M422.82,214.26
					h26.88l4.45-12.19c-11.71-3.13-24.08-3.13-35.79,0L422.82,214.26z"/>
			</g>
			<g>
				<g>
					<path class="st5" d="M450.81,260.75h0.19c2.21,0,4.02-1.81,4.02-4.02v-0.3C454.09,258.29,452.61,259.81,450.81,260.75z"/>
				</g>
				<g>
					<path class="st5" d="M421.71,260.75h-0.19c-2.21,0-4.02-1.81-4.02-4.02v-0.3C418.43,258.29,419.9,259.81,421.71,260.75z"/>
				</g>
			</g>
			<g>
				<g>
					<path class="st0" d="M460.03,211.86c0.13-0.55,0-1.19-0.28-1.44l-3.28-2.83c-0.06-0.05-0.11-0.08-0.17-0.09v2.64l3.65,2.05
						L460.03,211.86z"/>
					<path class="st5" d="M460.07,212.46l-3.95-2.22v-2.96l0.21,0.04c0.09,0.02,0.17,0.06,0.25,0.13l3.28,2.83
						c0.34,0.29,0.49,1,0.34,1.62L460.07,212.46z M456.47,210.04l3.36,1.88l0.02-0.1c0.12-0.52-0.02-1.09-0.23-1.26l-3.15-2.72
						V210.04z"/>
				</g>
				<g>
					<path class="st0" d="M412.49,211.86c-0.13-0.55,0-1.19,0.28-1.44l3.28-2.83c0.06-0.05,0.11-0.08,0.17-0.09v2.64l-3.65,2.05
						L412.49,211.86z"/>
					<path class="st5" d="M412.45,212.46l-0.13-0.56c-0.15-0.62,0-1.32,0.34-1.62l3.28-2.83c0.08-0.07,0.16-0.11,0.25-0.13
						l0.21-0.04v2.96L412.45,212.46z M416.04,207.83l-3.15,2.72c-0.21,0.18-0.35,0.74-0.23,1.26l0.02,0.1l3.36-1.88V207.83z"/>
				</g>
			</g>
			<g>
				<g>
					<path class="st5" d="M445.92,192.59c0-5.91-1.05-11.11-2.63-14.11c1.18,3.08,1.91,7.54,1.91,12.5c0,2.4-0.17,4.68-0.48,6.75
						h0.93C445.83,196.11,445.92,194.38,445.92,192.59z"/>
				</g>
				<g>
					<path class="st5" d="M426.59,192.59c0-5.91,1.05-11.11,2.63-14.11c-1.18,3.08-1.91,7.54-1.91,12.5c0,2.4,0.17,4.68,0.48,6.75
						h-0.93C426.69,196.11,426.59,194.38,426.59,192.59z"/>
				</g>
			</g>
			<g>
				<rect x="422.69" y="214.44" class="st0" width="27.13" height="23.72"/>
				<path d="M450,238.34h-27.49v-24.08H450V238.34z M422.87,237.98h26.78v-23.37h-26.78V237.98z"/>
			</g>
		</g>
		<g>
			<g>
				<g>
					<path class="st0" d="M445.46,381.2c-6.13,0.72-12.26,0.72-18.4,0c-7.06-0.89-12.35-8.05-11.97-14.59
						c1.08-21.41,1.07-42.82-0.03-64.23c-0.37-6.21,4.65-13,11.35-13.9c6.56-0.83,13.12-0.83,19.68,0c6.7,0.9,11.72,7.69,11.35,13.9
						c-1.11,21.41-1.12,42.82-0.03,64.23C457.8,373.15,452.52,380.31,445.46,381.2z"/>
					<path class="st5" d="M436.26,381.97c-3.08,0-6.16-0.18-9.23-0.54c-6.9-0.87-12.59-7.8-12.18-14.84
						c1.08-21.3,1.07-42.9-0.03-64.21c-0.39-6.66,5.01-13.27,11.56-14.15c6.55-0.83,13.19-0.83,19.74,0
						c6.55,0.88,11.95,7.49,11.56,14.15c-1.1,21.3-1.11,42.91-0.03,64.21c0.41,7.04-5.28,13.97-12.17,14.84h0
						C442.42,381.79,439.34,381.97,436.26,381.97z M436.26,288.1c-3.28,0-6.56,0.21-9.81,0.62c-6.32,0.84-11.53,7.22-11.15,13.65
						c1.1,21.32,1.11,42.94,0.03,64.26c-0.4,6.8,5.1,13.5,11.76,14.34c6.08,0.72,12.25,0.72,18.34,0
						c6.66-0.84,12.16-7.54,11.76-14.34c-1.08-21.32-1.07-42.94,0.03-64.26c0.38-6.43-4.83-12.81-11.15-13.65
						C442.81,288.3,439.54,288.1,436.26,288.1z"/>
				</g>
			</g>
			<g>
				<path class="st6" d="M450.93,369.15h-29.34c0.03,0.34,0.08,0.69,0.12,1.03h29.1C450.85,369.84,450.89,369.49,450.93,369.15z"/>
			</g>
			<g>
				<path class="st5" d="M453.92,358.65l-0.25-0.88c-1.82-6.26-2.82-14.57-2.82-23.38c0-0.96,0.01-1.95,0.04-2.93l0.01-0.06
					l4.45-10.47l0.02,0.82c0.06,2.43,0.09,4.84,0.09,7.15c0,9.9-0.48,19.6-1.44,28.83L453.92,358.65z M451.24,331.51
					c-0.02,0.96-0.04,1.93-0.04,2.88c0,8.36,0.9,16.26,2.55,22.37c0.89-8.94,1.34-18.31,1.34-27.86c0-2.05-0.02-4.17-0.07-6.32
					L451.24,331.51z"/>
			</g>
			<g>
				<path class="st5" d="M418.6,358.65l-0.09-0.91c-0.96-9.23-1.44-18.93-1.44-28.83c0-2.3,0.03-4.7,0.09-7.15l0.02-0.82l4.46,10.54
					c0.03,0.98,0.04,1.96,0.04,2.93c0,8.81-1,17.11-2.82,23.38L418.6,358.65z M417.49,322.59c-0.05,2.16-0.07,4.29-0.07,6.32
					c0,9.55,0.45,18.92,1.34,27.86c1.65-6.12,2.55-14.01,2.55-22.37c0-0.95-0.01-1.92-0.04-2.88L417.49,322.59z"/>
			</g>
			<g>
				<path class="st0" d="M455.03,318.92v-15.4c0-9.04-7.39-16.44-16.42-16.44h-4.72c-9.03,0-16.42,7.4-16.42,16.44v15.4
					c6.14-1.41,12.46-2.14,18.78-2.12C442.57,316.78,448.89,317.51,455.03,318.92z"/>
				<path d="M455.21,319.14l-0.22-0.05c-6.19-1.42-12.49-2.15-18.74-2.11c-0.08,0-0.16,0-0.25,0c-6.16,0-12.38,0.71-18.49,2.11
					l-0.22,0.05v-15.62c0-9.16,7.44-16.62,16.6-16.62h4.72c9.15,0,16.6,7.45,16.6,16.62V319.14z M433.9,287.26
					c-8.95,0-16.24,7.29-16.24,16.26v15.18c6.07-1.38,12.24-2.07,18.35-2.07c0.17,0,0.33,0,0.5,0c6.11,0,12.28,0.7,18.35,2.07
					v-15.18c0-8.97-7.28-16.26-16.24-16.26H433.9z"/>
			</g>
			<g>
				<path class="st0" d="M449.82,354.98c-9.04-1.37-18.09-1.37-27.13,0c-1.25,4.73-1.64,9.45-1.16,14.18h29.45
					C451.46,364.43,451.08,359.71,449.82,354.98z"/>
				<path d="M451.14,369.34h-29.77l-0.02-0.16c-0.48-4.73-0.09-9.52,1.16-14.24l0.03-0.11l0.12-0.02c9.02-1.36,18.17-1.36,27.19,0
					l0.12,0.02l0.03,0.11c1.25,4.72,1.64,9.51,1.16,14.24L451.14,369.34z M421.7,368.98h29.12c0.45-4.6,0.06-9.25-1.14-13.84
					c-8.91-1.33-17.94-1.33-26.85,0C421.63,359.73,421.25,364.39,421.7,368.98z"/>
			</g>
			<g>
				<path class="st6" d="M450.98,369.16h-29.45c0.03,0.34,0.08,0.69,0.12,1.03h29.21C450.91,369.85,450.95,369.5,450.98,369.16z"/>
			</g>
			<g>
				<path class="st0" d="M421.65,370.19v7.39c3.59,1.94,8.81,3.16,14.6,3.16c5.8,0,11.01-1.22,14.6-3.16v-7.39H421.65z"/>
				<path d="M436.26,380.92c-5.59,0-10.94-1.16-14.69-3.18l-0.09-0.05v-7.68h29.56v7.68l-0.09,0.05
					C447.2,379.76,441.85,380.92,436.26,380.92z M421.83,377.48c3.69,1.96,8.94,3.09,14.43,3.09c5.48,0,10.73-1.12,14.43-3.09v-7.11
					h-28.85V377.48z"/>
			</g>
			<g>
				<path class="st6" d="M454.91,318.83l0.36-0.99c-12.42-3.43-25.61-3.43-38.04,0l0.36,0.99
					C429.8,315.52,442.72,315.52,454.91,318.83z"/>
			</g>
			<g>
				<path class="st0" d="M418.13,318.78l4.56,12.49h27.13l4.56-12.49C442.53,315.57,429.98,315.57,418.13,318.78z"/>
				<path d="M449.95,331.44h-27.38l-4.67-12.79l0.19-0.05c11.89-3.22,24.46-3.22,36.35,0l0.19,0.05L449.95,331.44z M422.82,331.09
					h26.88l4.45-12.19c-11.71-3.13-24.08-3.13-35.79,0L422.82,331.09z"/>
			</g>
			<g>
				<g>
					<path class="st5" d="M450.81,377.57h0.19c2.21,0,4.02-1.81,4.02-4.02v-0.3C454.09,375.12,452.61,376.64,450.81,377.57z"/>
				</g>
				<g>
					<path class="st5" d="M421.71,377.57h-0.19c-2.21,0-4.02-1.81-4.02-4.02v-0.3C418.43,375.12,419.9,376.64,421.71,377.57z"/>
				</g>
			</g>
			<g>
				<g>
					<path class="st0" d="M460.03,328.69c0.13-0.55,0-1.19-0.28-1.44l-3.28-2.83c-0.06-0.05-0.11-0.08-0.17-0.09v2.64l3.65,2.05
						L460.03,328.69z"/>
					<path class="st5" d="M460.07,329.29l-3.95-2.22v-2.96l0.21,0.04c0.09,0.02,0.17,0.06,0.25,0.13l3.28,2.83
						c0.34,0.29,0.49,1,0.34,1.62L460.07,329.29z M456.47,326.86l3.36,1.88l0.02-0.1c0.12-0.52-0.02-1.09-0.23-1.26l-3.15-2.72
						V326.86z"/>
				</g>
				<g>
					<path class="st0" d="M412.49,328.69c-0.13-0.55,0-1.19,0.28-1.44l3.28-2.83c0.06-0.05,0.11-0.08,0.17-0.09v2.64l-3.65,2.05
						L412.49,328.69z"/>
					<path class="st5" d="M412.45,329.29l-0.13-0.56c-0.15-0.62,0-1.32,0.34-1.62l3.28-2.83c0.08-0.07,0.16-0.11,0.25-0.13
						l0.21-0.04v2.96L412.45,329.29z M416.04,324.66l-3.15,2.72c-0.21,0.18-0.35,0.74-0.23,1.26l0.02,0.1l3.36-1.88V324.66z"/>
				</g>
			</g>
			<g>
				<g>
					<path class="st5" d="M445.92,309.41c0-5.91-1.05-11.11-2.63-14.11c1.18,3.08,1.91,7.54,1.91,12.5c0,2.4-0.17,4.68-0.48,6.74
						h0.93C445.83,312.93,445.92,311.21,445.92,309.41z"/>
				</g>
				<g>
					<path class="st5" d="M426.59,309.41c0-5.91,1.05-11.11,2.63-14.11c-1.18,3.08-1.91,7.54-1.91,12.5c0,2.4,0.17,4.68,0.48,6.74
						h-0.93C426.69,312.93,426.59,311.21,426.59,309.41z"/>
				</g>
			</g>
			<g>
				<rect x="422.69" y="331.26" class="st0" width="27.13" height="23.72"/>
				<path d="M450,355.17h-27.49v-24.08H450V355.17z M422.87,354.81h26.78v-23.37h-26.78V354.81z"/>
			</g>
		</g>
		<line class="グラフィックスタイル" x1="181.83" y1="50.63" x2="584.94" y2="50.63"/>
		<line class="st8" x1="587.17" y1="155.97" x2="199.61" y2="155.97"/>
		<polygon class="グラフィックスタイル_x0020_3" points="263.17,228.13 263.17,382.72 312.5,382.72 312.5,424.5 
			401.39,424.5 401.39,184.05 308.94,184.05 308.94,227.61 		"/>
		<g>
			<rect x="263.17" y="187.54" class="グラフィックスタイル_x0020_4" width="44.82" height="9.63"/>
			<rect x="263.17" y="197.16" class="グラフィックスタイル_x0020_4" width="44.82" height="9.63"/>
			<rect x="263.17" y="206.79" class="グラフィックスタイル_x0020_4" width="44.82" height="20.99"/>
			<polygon points="285.58,222.93 292.34,214.4 278.81,214.4 			"/>
		</g>
		<polyline class="グラフィックスタイル_x0020_7" points="243.79,59.09 236.41,50.63 236.42,155.92 229.66,147.08 		"/>
		<polyline class="グラフィックスタイル_x0020_7" points="480.61,59.09 473.23,50.63 473.24,155.92 466.48,147.08 		"/>
		<g>
			<path d="M333.92,272.42c-1.63,0.73-4.83,1.71-7.05,2.18l-0.8-2.72c3.34-0.69,7.08-2.07,8.79-3.23h2.43v29.97h-3.38V272.42z"/>
			<path d="M308.2,322.36c-0.36,1.31-0.8,2.54-1.2,3.56h20.42c-0.29,4.43-1.02,8.39-1.93,10.39c-0.91,2.04-2.07,2.62-5.34,2.62
				c-1.93,0-4.5-0.11-6.29-0.25l-0.65-2.76c2.51,0.22,4.94,0.36,6.69,0.36c1.82,0,2.36-0.29,2.87-1.45
				c0.44-1.13,1.02-3.67,1.38-6.43h-18.13c-0.47,1.02-0.98,2.07-1.53,3.09l-2.94-0.83c1.31-2.33,2.51-5.09,3.6-8.28h-8.1v-2.47
				h34.51v2.47H308.2z M326.15,316.58h-23.72v-10.32h23.72V316.58z M305.36,314.26h17.84v-5.59h-17.84V314.26z"/>
			<path d="M343.11,321.16c-1.16,3.71-2.65,7.05-4.4,9.85l-1.34-2.91c2.36-3.52,4.21-7.92,5.49-13.12h-4.98v-2.54h5.23v-7.78h2.69
				v7.78h3.78v2.54h-3.78v3.38c1.63,1.34,3.16,2.8,4.47,4.25l-1.53,2.43c-0.65-0.98-1.85-2.51-2.94-3.74v17.88h-2.69V321.16z
				 M363.38,326.21c2.33,3.34,5.38,6.03,9.26,8.21l-1.71,2.54c-3.81-2.4-7.19-5.74-9.37-9.3v11.52h-2.58v-11.3
				c-2.29,3.89-5.38,7.08-9.34,9.59l-1.82-2.22c3.96-2.22,7.12-5.2,9.52-9.05h-6.72v-12.93h8.36v-2.69h-10.25v-2.36h10.25v-3.56
				h2.58v3.56h10.46v2.36h-10.46v2.69h8.61v12.93H363.38z M353.2,315.49v3.09h5.78v-3.09H353.2z M353.2,320.8v3.16h5.78v-3.16H353.2
				z M361.56,318.58h6.07v-3.09h-6.07V318.58z M361.56,323.96h6.07v-3.16h-6.07V323.96z"/>
		</g>
		<g>
			<path d="M344.83,82.1h9.68v1.53h-3.93v13.92c0,1.32-0.48,1.76-1.91,1.76c-0.67,0-1.95-0.06-2.92-0.13l-0.36-1.6
				c0.94,0.1,2.06,0.17,2.86,0.17c0.54,0,0.69-0.15,0.69-0.74v-13.4h-4.12v11.02h-7.87v1.8h-1.49V80.19h9.36V82.1z M336.96,86.4
				h2.39v-4.81h-2.39V86.4z M336.96,93.23h2.39v-5.46h-2.39V93.23z M343.36,81.59h-2.52v4.81h2.52V81.59z M343.36,87.77h-2.52v5.46
				h2.52V87.77z"/>
			<path d="M361.53,94.95c1.7,1.7,3.65,2.35,7.18,2.37h8.25c-0.21,0.46-0.38,0.95-0.5,1.49h-7.98c-3.67-0.04-5.71-0.73-7.52-2.56
				c-0.94,1.11-2.14,2.25-3.28,3.09l-0.92-1.49c0.99-0.59,2.1-1.43,3.17-2.42V89.8h-3.11v-1.43h4.7V94.95z M360.62,84.47
				c-0.99-1.41-2.06-2.67-3.07-3.57l1.15-0.97c1.22,1.07,2.29,2.23,3.15,3.42L360.62,84.47z M362.68,83.36v-1.32h3.72
				c-0.36-0.67-0.82-1.37-1.34-2.02l1.47-0.57c0.67,0.95,1.09,1.68,1.51,2.58h2.73c0.4-0.74,0.88-1.85,1.15-2.63l1.66,0.42
				c-0.34,0.74-0.78,1.58-1.2,2.21h3.93v1.32h-6.07c-0.11,0.36-0.44,1.24-0.65,1.74h5.27v10.71h-10.69V85.1h3.86
				c0.25-0.69,0.44-1.26,0.55-1.74H362.68z M365.73,88.23h7.56V86.3h-7.56V88.23z M365.73,91.27h7.56v-1.91h-7.56V91.27z
				 M365.73,94.57h7.56v-2.1h-7.56V94.57z"/>
			<path d="M261.53,118.29c-1.03-1.22-2.18-2.35-3.28-3.23l1.11-1.15c1.2,0.88,2.39,2.02,3.34,3.15L261.53,118.29z M258.75,126.84
				c1.24-1.64,2.56-4.09,3.7-6.89l1.32,1.03c-1.03,2.62-2.35,5.21-3.67,7.1L258.75,126.84z M262.28,112.94
				c-0.8-1.05-2.06-2.33-3.19-3.28l1.09-1.09c1.13,0.84,2.37,2.02,3.28,3.13L262.28,112.94z M270.6,118.9l-0.02,0.04
				c-0.61,1.78-1.91,4.6-2.98,6.51l-0.08,0.19l1.55-0.13c1.55-0.13,3.93-0.38,5.79-0.63c-0.65-1.09-1.41-2.23-2.21-3.34l1.32-0.74
				c1.7,2.16,3.13,4.35,4.14,6.36l-1.49,0.94c-0.48-0.99-0.69-1.41-1.05-2.04l-0.21,0.04c-2.33,0.46-7.29,1.11-10.73,1.41
				l-0.55-1.66l0.84-0.04l0.25-0.02c0.04,0,0.29-0.02,0.57-0.04c1.11-2.02,2.29-4.62,3.11-6.97h-5.29v-1.41h6.4v-4.24h-5.27v-1.45
				h5.27v-3.38h1.64v3.38h5.58v1.45h-5.58v4.24h6.68v1.41h-7.64L270.6,118.9z"/>
			<path d="M291.36,109.68v11.36h3.25v1.62h-3.25v4.14h-1.85v-4.14h-8.65v-1.6l8.19-11.38H291.36z M289.52,115
				c0-0.97,0.04-2.6,0.1-3.63h-0.08c-0.57,1.11-1.11,2.08-1.53,2.67l-5,7.01h6.51V115z"/>
			<path d="M299.24,125.14c0.55-2.25,2.39-4.49,5.23-6.38l0.55-0.36c2.94-1.91,3.72-2.83,3.72-4.37c0-1.72-1.43-2.88-3.59-2.88
				c-1.76,0-3,0.65-4.35,2.25l-1.32-1.11c1.6-1.97,3.3-2.81,5.75-2.81c3.28,0,5.67,1.93,5.67,4.6c0,2.12-0.82,3.11-4.58,5.5
				l-0.76,0.48c-2.5,1.64-4.07,3.44-4.26,4.96h9.85v1.78h-11.91V125.14z"/>
			<path d="M325.74,128.27h-1.62v-6.72c-1.91,2.39-4.85,4.54-8.17,5.88l-0.96-1.34c3.15-1.18,5.75-2.83,7.77-4.93h-7.68v-1.41h9.05
				v-2.29h1.62v2.29h9.2v1.41h-7.77c1.93,1.81,4.54,3.28,7.89,4.45l-1.03,1.47c-3.59-1.49-6.28-3.3-8.29-5.65V128.27z
				 M331.43,110.29c-1.13,1.53-2.86,3.09-4.83,4.39c1.91,1.01,4.26,1.74,7.98,2.48l-0.86,1.43c-3-0.61-6.24-1.74-8.55-3
				c-2.48,1.45-5.63,2.58-8.8,3.21l-0.84-1.3c3.19-0.57,6.26-1.57,8.34-2.75c-0.82-0.59-2.02-1.66-2.98-2.65
				c-1.18,0.92-2.29,1.62-3.65,2.25l-1.03-1.09c2.54-1.05,5-3.02,6.28-5.02l1.6,0.32c-0.32,0.48-0.4,0.57-0.69,0.97h7.18
				L331.43,110.29z M322.28,110.82c-0.15,0.17-0.21,0.21-0.34,0.34c0.88,0.99,2.08,1.97,3.3,2.75c1.78-1.2,2.98-2.18,3.76-3.09
				H322.28z"/>
			<path d="M343.19,111.62c-0.99,0.42-2.69,0.92-4.12,1.24l-0.42-1.51c1.93-0.46,4.09-1.26,5.06-1.87h1.37v17.32h-1.89V111.62z"/>
			<path d="M356.32,121.61l0.13-0.04l0.08-0.04c0.78-0.25,1.76-0.63,2.37-0.9l0.17,1.49c-1.76,0.8-4.6,1.85-6.78,2.48l-0.59-1.62
				c1.18-0.32,1.34-0.36,2.48-0.69l0.5-0.15v-9.87h-2.73v-1.49h6.66v1.49h-2.29V121.61z M357.81,127.11c1.66-0.65,3.3-1.72,4.41-2.9
				l1.28,0.86c-1.3,1.34-2.98,2.56-4.54,3.25L357.81,127.11z M370.01,112.77v11.19h-10.08v-11.19h3.28
				c0.23-0.69,0.42-1.43,0.57-2.14h-5.25v-1.39h12.98v1.39h-6.09c-0.23,0.86-0.5,1.64-0.71,2.14H370.01z M361.48,114.05v2.04h6.95
				v-2.04H361.48z M361.48,119.28h6.95v-1.95h-6.95V119.28z M361.48,122.66h6.95v-2.16h-6.95V122.66z M370.34,128.24
				c-1.24-1.13-2.75-2.27-4.2-3.15l1.16-0.92c1.81,1.03,3.04,1.87,4.28,2.9L370.34,128.24z"/>
			<path d="M379.94,111.62c-0.99,0.42-2.69,0.92-4.12,1.24l-0.42-1.51c1.93-0.46,4.09-1.26,5.06-1.87h1.37v17.32h-1.89V111.62z"/>
			<path d="M394.98,118.54c-0.21,0.76-0.46,1.47-0.69,2.06h11.8c-0.17,2.56-0.59,4.85-1.11,6c-0.52,1.18-1.2,1.51-3.09,1.51
				c-1.11,0-2.6-0.06-3.63-0.15l-0.38-1.6c1.45,0.13,2.86,0.21,3.86,0.21c1.05,0,1.37-0.17,1.66-0.84c0.25-0.65,0.59-2.12,0.8-3.72
				h-10.48c-0.27,0.59-0.57,1.2-0.88,1.79l-1.7-0.48c0.76-1.34,1.45-2.94,2.08-4.79h-4.68v-1.43h19.95v1.43H394.98z M405.35,115.21
				h-13.71v-5.96h13.71V115.21z M393.34,113.86h10.31v-3.23h-10.31V113.86z"/>
			<path d="M415.5,123.9c1.7,1.7,3.65,2.35,7.18,2.37h8.25c-0.21,0.46-0.38,0.94-0.5,1.49h-7.98c-3.67-0.04-5.71-0.74-7.52-2.56
				c-0.94,1.11-2.14,2.25-3.28,3.09l-0.92-1.49c0.99-0.59,2.1-1.43,3.17-2.41v-5.63h-3.11v-1.43h4.7V123.9z M414.6,113.42
				c-0.99-1.41-2.06-2.67-3.07-3.57l1.15-0.97c1.22,1.07,2.29,2.23,3.15,3.42L414.6,113.42z M416.65,112.31v-1.32h3.72
				c-0.36-0.67-0.82-1.36-1.34-2.02l1.47-0.57c0.67,0.95,1.09,1.68,1.51,2.58h2.73c0.4-0.74,0.88-1.85,1.15-2.62l1.66,0.42
				c-0.34,0.73-0.78,1.57-1.2,2.2h3.93v1.32h-6.07c-0.11,0.36-0.44,1.24-0.65,1.74h5.27v10.71h-10.69v-10.71h3.86
				c0.25-0.69,0.44-1.26,0.55-1.74H416.65z M419.7,117.18h7.56v-1.93h-7.56V117.18z M419.7,120.22h7.56v-1.91h-7.56V120.22z
				 M419.7,123.52h7.56v-2.1h-7.56V123.52z"/>
			<path d="M441.16,116h-2.71v3.32h2.73v1.39h-2.73v4.39c0.57-0.15,2.16-0.61,3.21-0.94l0.15,1.36c-2.5,0.88-5.52,1.74-8.27,2.35
				l-0.55-1.49l1.11-0.23v-8.19h1.43v7.87l0.53-0.13l0.5-0.13l0.44-0.11V116h-3.07v-6.82h7.22V116z M435.43,114.64h4.24v-4.05h-4.24
				V114.64z M451.49,110.52c-0.8,1.95-1.83,3.63-3.09,5.06c1.32,1.15,2.96,2.16,4.81,2.92l-0.8,1.39c-1.89-0.84-3.65-2-5.02-3.28
				c-1.53,1.45-3.34,2.6-5.44,3.46l-0.84-1.3c1.89-0.61,3.72-1.74,5.25-3.21c-0.69-0.78-1.41-1.76-1.89-2.67l-0.08,0.1l-0.04,0.06
				c-0.54,0.69-1.2,1.36-1.85,1.91l-1.03-1.11c1.58-1.2,3.11-3.42,3.84-5.56l1.55,0.25c-0.23,0.55-0.29,0.71-0.46,1.07h4.07
				L451.49,110.52z M451.4,128.27h-1.53v-1.24h-5.35v1.24h-1.53v-8.27h8.42V128.27z M444.52,125.64h5.35v-4.24h-5.35V125.64z
				 M445.25,111.76c0.59,1.05,1.16,1.83,2.08,2.81c0.94-1.09,1.66-2.21,2.27-3.55h-3.91c-0.08,0.15-0.17,0.29-0.36,0.61
				L445.25,111.76z"/>
		</g>
	</g>
</g>
</svg>
