<?xml version="1.0" encoding="utf-8"?>
<!-- Generator: Adobe Illustrator 23.0.3, SVG Export Plug-In . SVG Version: 6.00 Build 0)  -->
<svg version="1.1" xmlns="http://www.w3.org/2000/svg" xmlns:xlink="http://www.w3.org/1999/xlink" x="0px" y="0px"
	 viewBox="0 0 700 500" style="enable-background:new 0 0 700 500;" xml:space="preserve">
<style type="text/css">
	.グラフィックスタイル{fill:none;stroke:#000000;stroke-width:2;stroke-miterlimit:10;}
	.グラフィックスタイル_x0020_2{fill:#D8EACC;stroke:#000000;stroke-width:2;}
	.グラフィックスタイル_x0020_3{fill:#FFFFFF;stroke:#000000;stroke-width:2;stroke-miterlimit:10;}
	.グラフィックスタイル_x0020_4{fill:#FFFFFF;stroke:#000000;stroke-width:1.2664;stroke-miterlimit:10;}
	.グラフィックスタイル_x0020_7{fill:none;stroke:#000000;stroke-width:1.5;stroke-linejoin:bevel;stroke-miterlimit:10;}
	.st0{fill:#FFFFFF;}
	.st1{fill:#D8EACC;stroke:#000000;stroke-width:2;}
	.st2{fill:none;stroke:#000000;stroke-width:1.4318;stroke-linecap:round;stroke-linejoin:round;}
	.st3{fill:none;stroke:#000000;stroke-width:1.8264;stroke-linecap:round;stroke-linejoin:round;}
	.st4{fill:#FFFFFF;stroke:#000000;stroke-width:1.2664;stroke-miterlimit:10;}
	.st5{fill:#030201;}
	.st6{fill:#242323;}
	.st7{fill:none;stroke:#000000;stroke-width:2;stroke-linejoin:round;stroke-miterlimit:10;}
	.st8{fill:none;stroke:#000000;stroke-width:2;stroke-miterlimit:10;}
	.st9{fill:none;stroke:#000000;stroke-width:2;stroke-linejoin:bevel;stroke-miterlimit:10;}
	.st10{fill:#E83589;}
	.st11{fill:none;stroke:#000000;stroke-width:2;stroke-miterlimit:10;stroke-dasharray:5.901,5.901;}
	.st12{fill:none;stroke:#000000;stroke-width:1.5;stroke-linejoin:bevel;stroke-miterlimit:10;}
	.st13{fill:#D8EACC;stroke:#000000;stroke-width:1.5;}
	.st14{fill:none;stroke:#000000;stroke-width:1.5;stroke-miterlimit:10;}
	.st15{fill:none;stroke:#000000;stroke-linejoin:bevel;stroke-miterlimit:10;}
	.st16{fill:#FFFFFF;stroke:#000000;stroke-width:1.5;stroke-miterlimit:10;}
	.st17{fill:#FFFFFF;stroke:#DE0000;stroke-width:2;stroke-miterlimit:10;}
	.st18{fill:#DE0000;}
	.st19{fill:none;stroke:#000000;stroke-miterlimit:10;}
	.st20{fill:none;stroke:#000000;stroke-miterlimit:10;stroke-dasharray:3.0312,3.0312;}
	.st21{fill:url(#);stroke:#000000;stroke-width:1.1494;}
	.st22{fill:#FFFFFF;stroke:#000000;stroke-miterlimit:10;}
	.st23{fill:none;stroke:#000000;stroke-width:3;stroke-miterlimit:10;stroke-dasharray:5;}
	.st24{fill:none;stroke:#FFFFFF;stroke-width:0.75;stroke-linejoin:round;}
	.st25{fill:none;stroke:#000000;stroke-miterlimit:10;stroke-dasharray:5;}
	.st26{fill:none;stroke:#FFFFFF;stroke-width:3;stroke-linejoin:round;}
	.st27{fill:none;stroke:#000000;stroke-width:1.3;stroke-linejoin:bevel;stroke-miterlimit:10;}
	.st28{fill:none;stroke:#000000;stroke-width:1.5;stroke-miterlimit:10;stroke-dasharray:5;}
	.st29{fill:none;stroke:#47738A;stroke-linejoin:bevel;stroke-miterlimit:10;}
	.st30{fill:none;}
	.st31{fill:none;stroke:#FFFFFF;stroke-width:5;stroke-linejoin:round;}
	.st32{fill:#D8EACC;}
	.st33{fill:#D8EACC;stroke:#000000;stroke-width:0.25;}
	.st34{fill:none;stroke:#000000;stroke-width:2;}
	.st35{fill:none;stroke:#FFFFFF;stroke-linejoin:round;}
	.st36{fill:none;stroke:#000000;stroke-width:1.9773;stroke-linecap:round;stroke-linejoin:round;}
	.st37{fill:none;stroke:#000000;stroke-width:2.5222;stroke-linecap:round;stroke-linejoin:round;}
	.st38{fill:#FFFFFF;stroke:#000000;stroke-width:2;stroke-miterlimit:10;}
	.st39{fill:#FFFFFF;stroke:#000000;stroke-width:1.0238;stroke-miterlimit:10;}
	.st40{fill:#FFFFFF;stroke:#000000;stroke-width:1.089;stroke-miterlimit:10;}
	.st41{fill:#FFFFFF;stroke:#000000;stroke-width:1.2553;stroke-miterlimit:10;}
	.st42{fill:url(#);}
	.st43{fill:none;stroke:#000000;stroke-width:1.7765;stroke-linejoin:bevel;stroke-miterlimit:10;}
	.st44{fill:none;stroke:#000000;stroke-width:2.3687;stroke-miterlimit:10;}
	.st45{fill:#D8EACC;stroke:#000000;stroke-width:2.0455;}
	.st46{fill:none;stroke:#000000;stroke-width:2.0455;stroke-linecap:round;stroke-miterlimit:10;stroke-dasharray:0,6.1366;}
	.st47{fill:#FFFFFF;stroke:#000000;stroke-width:2.3687;stroke-miterlimit:10;}
	.st48{fill:#FFFFFF;stroke:#000000;stroke-width:1.4998;stroke-miterlimit:10;}
	.st49{fill:#FFFFFF;stroke:#000000;stroke-width:0.6137;stroke-miterlimit:10;}
	.st50{fill:url(#);stroke:#000000;stroke-width:1.0228;}
	.st51{fill:none;stroke:#FFFFFF;stroke-width:4.0911;stroke-linejoin:round;}
	.st52{fill:none;stroke:#000000;stroke-width:2.4559;stroke-linecap:round;stroke-linejoin:round;}
	.st53{fill:none;stroke:#000000;stroke-width:3.1327;stroke-linecap:round;stroke-linejoin:round;}
	.st54{fill:none;stroke:#FFFFFF;stroke-width:4;stroke-linejoin:round;}
</style>
<g id="レイヤー_5">
	<rect x="-1164.06" y="-2032.14" class="st0" width="5667.56" height="5248"/>
</g>
<g id="レイヤー_1">
</g>
<g id="レイヤー_3">
</g>
<g id="レイヤー_4">
</g>
<g id="レイヤー_2">
	<g>
		<rect class="st0" width="700" height="500"/>
		<polyline class="st2" points="203.56,225.12 203.56,213.38 210.46,225.12 210.46,213.38 		"/>
		<g>
			<circle class="st3" cx="200.29" cy="254.78" r="24.35"/>
			<polygon points="197.39,268.13 207.01,277.41 205.34,231.57 184.78,272.58 			"/>
		</g>
		<g>
			
				<rect x="182.53" y="119.92" transform="matrix(6.123234e-17 -1 1 6.123234e-17 34.4975 369.8612)" class="st10" width="39.3" height="95.53"/>
			<g>
				<path class="st0" d="M171.65,173.52h15.55v2.09h-15.55v1.41h-2.32v-18.56h17.34v2.01h-15.01V173.52z M172.33,171.18
					c2.12-1.08,3.67-2.24,5.41-4.02c-1.33-1.12-3.09-2.38-4.83-3.52l1.41-1.58c1.72,1.08,3.21,2.14,4.85,3.4
					c1.02-1.35,1.85-2.72,2.7-4.44l2.09,1.02c-0.93,1.84-1.97,3.5-3.01,4.85c1.16,0.95,2.7,2.32,4.25,3.79l-1.64,1.72
					c-1.35-1.35-2.86-2.74-4.08-3.79c-1.74,1.85-3.55,3.19-5.76,4.35L172.33,171.18z"/>
				<path class="st0" d="M200.81,160.3h-8.69v-1.87h19.7v1.87h-8.81v1.99h4.44v10.35h-10.97v-10.35h4.33V160.3z M209.02,173.98
					v-11.7h2.12v14.74h-2.12v-1.14H194.9v1.14h-2.09v-14.74h2.09v11.7H209.02z M198.44,163.99v2.51h2.45v-2.51H198.44z
					 M198.44,168.09v2.8h2.45v-2.8H198.44z M202.92,166.5h2.55v-2.51h-2.55V166.5z M202.92,170.89h2.55v-2.8h-2.55V170.89z"/>
				<path class="st0" d="M235.01,177.03h-2.26v-1.06h-13.44v1.06h-2.24v-18.75h17.94V177.03z M219.31,174.02h13.44v-13.85h-13.44
					V174.02z M230.82,173.13c-1.31-0.81-2.84-1.68-4.23-2.38c-1.51,1.26-3.34,2.28-5.37,3.01l-1.29-1.56
					c1.89-0.6,3.23-1.31,4.67-2.45l-0.54-0.25c-1.35-0.66-2.34-1.1-4.11-1.83l0.93-1.53c2.09,0.77,3.3,1.24,5.29,2.18
					c1.68-1.78,3.09-4.33,3.86-7.03l2.01,0.62c-0.85,2.63-2.38,5.5-3.94,7.34c0.1,0.06,0.1,0.06,0.19,0.1
					c1.04,0.52,2.18,1.14,3.75,2.07L230.82,173.13z M222.09,166.35c-0.48-1.62-1.04-2.99-1.66-4.06l1.91-0.77
					c0.66,1.16,1.22,2.49,1.72,4.04L222.09,166.35z M225.66,165.54c-0.5-1.58-1.06-2.92-1.68-4.08l1.82-0.73
					c0.75,1.33,1.39,2.8,1.72,4L225.66,165.54z"/>
			</g>
		</g>
		<g>
			<line class="グラフィックスタイル" x1="210.55" y1="386.04" x2="611.59" y2="386.04"/>
			<line class="グラフィックスタイル" x1="210.55" y1="466.76" x2="611.59" y2="466.76"/>
			<polyline class="グラフィックスタイル_x0020_7" points="320.58,454.01 332.63,466.76 332.63,386.25 343.51,396.86 			
				"/>
			<g>
				<g>
					<path d="M338.07,453.35h10.47v-3h1.49v3h3.81v1.7h-3.81v7.97h-1.47l-10.49-7.55V453.35z M342.97,455.05
						c-0.89,0-2.4-0.04-3.35-0.1v0.08c1.03,0.52,1.92,1.03,2.46,1.41l6.46,4.6v-6H342.97z"/>
					<path d="M351.07,445.52h2.77v2.77h-2.77V445.52z"/>
					<path d="M346.01,432.79c1.64,0.79,2.65,2.42,2.65,4.22c0,2.92-2.17,5.05-5.15,5.05c-1.47,0-2.92-0.58-3.99-1.59
						c-1.1-1.04-1.64-2.32-1.64-3.87c0-3.46,2.75-5.65,7.1-5.65c6.06,0,8.82,2.57,9.4,8.73l-1.43,0.79
						c-0.21-4.97-2.38-7.39-6.95-7.76V432.79z M343.36,440.22c2.26,0,3.83-1.39,3.83-3.44c0-1.03-0.52-2.09-1.35-2.75
						c-0.77-0.62-1.68-0.97-2.46-0.97c-1.01,0-2.15,0.43-2.92,1.08c-0.74,0.64-1.08,1.43-1.08,2.48
						C339.37,438.61,341.15,440.22,343.36,440.22z"/>
					<path d="M345.85,424.41c-0.83,2.09-2.15,3.19-3.83,3.19c-2.4,0-4.14-2.23-4.14-5.28c0-3.02,1.7-5.22,4-5.22
						c1.1,0,2.09,0.48,2.73,1.33c0.58,0.75,0.87,1.35,1.06,2.13h0.06c0.77-2.51,2.26-3.95,4.16-3.95c2.51,0,4.24,2.32,4.24,5.73
						c0,3.44-1.65,5.71-4.16,5.71c-1.88,0-3.33-1.3-4.06-3.64H345.85z M342.04,418.92c-1.61,0-2.79,1.43-2.79,3.39
						c0,2.01,1.14,3.41,2.79,3.41c0.81,0,1.37-0.25,1.82-0.79c0.27-0.35,0.54-0.79,0.77-1.26c0.17-0.41,0.46-1.28,0.44-1.35
						C344.61,420.23,343.43,418.92,342.04,418.92z M347.88,425.26c0.45,0.54,1.16,0.87,1.92,0.87c1.74,0,2.84-1.47,2.84-3.81
						c0-2.22-1.2-3.75-2.92-3.75c-0.74,0-1.39,0.33-1.93,0.97c-0.45,0.52-0.81,1.2-1.08,1.97c-0.1,0.27-0.27,0.91-0.27,0.95
						C346.72,423.6,347.09,424.29,347.88,425.26z"/>
					<path d="M346.01,402.37c5.03,0,8.13,2.23,8.13,5.8c0,3.58-3.12,5.8-8.13,5.8c-5.03,0-8.13-2.22-8.13-5.82
						C337.88,404.6,340.99,402.37,346.01,402.37z M346.01,412.09c4.06,0,6.58-1.49,6.58-3.93c0-2.4-2.51-3.89-6.58-3.89
						c-4.1,0-6.6,1.49-6.6,3.93C339.41,410.6,341.94,412.09,346.01,412.09z"/>
				</g>
			</g>
			<polyline class="グラフィックスタイル_x0020_7" points="476.63,454.01 488.67,466.76 488.67,386.25 499.56,396.86 			
				"/>
			<g>
				<g>
					<path d="M494.12,453.35h10.47v-3h1.49v3h3.81v1.7h-3.81v7.97h-1.47l-10.49-7.55V453.35z M499.01,455.05
						c-0.89,0-2.4-0.04-3.35-0.1v0.08c1.03,0.52,1.92,1.03,2.46,1.41l6.46,4.6v-6H499.01z"/>
					<path d="M507.12,445.52h2.77v2.77h-2.77V445.52z"/>
					<path d="M502.05,432.79c1.64,0.79,2.65,2.42,2.65,4.22c0,2.92-2.17,5.05-5.15,5.05c-1.47,0-2.92-0.58-3.99-1.59
						c-1.1-1.04-1.64-2.32-1.64-3.87c0-3.46,2.75-5.65,7.1-5.65c6.06,0,8.82,2.57,9.4,8.73l-1.43,0.79
						c-0.21-4.97-2.38-7.39-6.95-7.76V432.79z M499.4,440.22c2.26,0,3.83-1.39,3.83-3.44c0-1.03-0.52-2.09-1.35-2.75
						c-0.77-0.62-1.68-0.97-2.46-0.97c-1.01,0-2.15,0.43-2.92,1.08c-0.74,0.64-1.08,1.43-1.08,2.48
						C495.41,438.61,497.19,440.22,499.4,440.22z"/>
					<path d="M501.9,424.41c-0.83,2.09-2.15,3.19-3.83,3.19c-2.4,0-4.14-2.23-4.14-5.28c0-3.02,1.7-5.22,4-5.22
						c1.1,0,2.09,0.48,2.73,1.33c0.58,0.75,0.87,1.35,1.06,2.13h0.06c0.77-2.51,2.26-3.95,4.16-3.95c2.51,0,4.24,2.32,4.24,5.73
						c0,3.44-1.64,5.71-4.16,5.71c-1.88,0-3.33-1.3-4.06-3.64H501.9z M498.08,418.92c-1.61,0-2.79,1.43-2.79,3.39
						c0,2.01,1.14,3.41,2.79,3.41c0.81,0,1.37-0.25,1.82-0.79c0.27-0.35,0.54-0.79,0.77-1.26c0.17-0.41,0.46-1.28,0.44-1.35
						C500.66,420.23,499.48,418.92,498.08,418.92z M503.93,425.26c0.45,0.54,1.16,0.87,1.92,0.87c1.74,0,2.84-1.47,2.84-3.81
						c0-2.22-1.2-3.75-2.92-3.75c-0.74,0-1.39,0.33-1.93,0.97c-0.45,0.52-0.81,1.2-1.08,1.97c-0.1,0.27-0.27,0.91-0.27,0.95
						C502.77,423.6,503.13,424.29,503.93,425.26z"/>
					<path d="M502.05,402.37c5.03,0,8.13,2.23,8.13,5.8c0,3.58-3.11,5.8-8.13,5.8c-5.03,0-8.13-2.22-8.13-5.82
						C493.92,404.6,497.04,402.37,502.05,402.37z M502.05,412.09c4.06,0,6.58-1.49,6.58-3.93c0-2.4-2.52-3.89-6.58-3.89
						c-4.1,0-6.6,1.49-6.6,3.93C495.45,410.6,497.99,412.09,502.05,412.09z"/>
				</g>
			</g>
			<g>
				<g>
					<path d="M165.82,405.6h9.68v1.53h-3.93v13.92c0,1.32-0.48,1.76-1.91,1.76c-0.67,0-1.95-0.06-2.92-0.13l-0.36-1.6
						c0.94,0.11,2.06,0.17,2.86,0.17c0.54,0,0.69-0.15,0.69-0.73v-13.4h-4.12v11.02h-7.87v1.81h-1.49v-16.27h9.36V405.6z
						 M157.95,409.9h2.39v-4.81h-2.39V409.9z M157.95,416.73h2.39v-5.46h-2.39V416.73z M164.35,405.09h-2.52v4.81h2.52V405.09z
						 M164.35,411.27h-2.52v5.46h2.52V411.27z"/>
					<path d="M182.52,418.45c1.7,1.7,3.65,2.35,7.18,2.37h8.25c-0.21,0.46-0.38,0.94-0.5,1.49h-7.98c-3.67-0.04-5.71-0.74-7.52-2.56
						c-0.94,1.11-2.14,2.25-3.28,3.09l-0.92-1.49c0.99-0.59,2.1-1.43,3.17-2.41v-5.63h-3.11v-1.43h4.7V418.45z M181.61,407.97
						c-0.99-1.41-2.06-2.67-3.07-3.57l1.15-0.97c1.22,1.07,2.29,2.23,3.15,3.42L181.61,407.97z M183.67,406.86v-1.32h3.72
						c-0.36-0.67-0.82-1.36-1.34-2.02l1.47-0.57c0.67,0.95,1.09,1.68,1.51,2.58h2.73c0.4-0.74,0.88-1.85,1.15-2.62l1.66,0.42
						c-0.34,0.73-0.78,1.57-1.2,2.2h3.93v1.32h-6.07c-0.11,0.36-0.44,1.24-0.65,1.74h5.27v10.71h-10.69V408.6h3.86
						c0.25-0.69,0.44-1.26,0.55-1.74H183.67z M186.72,411.73h7.56v-1.93h-7.56V411.73z M186.72,414.77h7.56v-1.91h-7.56V414.77z
						 M186.72,418.07h7.56v-2.1h-7.56V418.07z"/>
					<path d="M79.78,437.84c-1.03-1.22-2.18-2.35-3.28-3.23l1.11-1.15c1.2,0.88,2.39,2.02,3.34,3.15L79.78,437.84z M77.01,446.39
						c1.24-1.64,2.56-4.09,3.7-6.89l1.32,1.03c-1.03,2.62-2.35,5.21-3.67,7.1L77.01,446.39z M80.54,432.49
						c-0.8-1.05-2.06-2.33-3.19-3.28l1.09-1.09c1.13,0.84,2.37,2.02,3.28,3.13L80.54,432.49z M88.86,438.45l-0.02,0.04
						c-0.61,1.78-1.91,4.6-2.98,6.51l-0.08,0.19l1.55-0.13c1.55-0.13,3.93-0.38,5.79-0.63c-0.65-1.09-1.41-2.23-2.2-3.34l1.32-0.74
						c1.7,2.16,3.13,4.35,4.14,6.36l-1.49,0.94c-0.48-0.99-0.69-1.41-1.05-2.04l-0.21,0.04c-2.33,0.46-7.29,1.11-10.73,1.41
						l-0.54-1.66l0.84-0.04l0.25-0.02c0.04,0,0.29-0.02,0.57-0.04c1.11-2.02,2.29-4.62,3.11-6.97h-5.29v-1.41h6.4v-4.24h-5.27v-1.45
						h5.27v-3.38h1.64v3.38h5.59v1.45h-5.59v4.24h6.68v1.41H88.9L88.86,438.45z"/>
					<path d="M109.62,429.23v11.36h3.25v1.62h-3.25v4.14h-1.85v-4.14h-8.65v-1.6l8.19-11.38H109.62z M107.78,434.55
						c0-0.97,0.04-2.6,0.11-3.63h-0.08c-0.57,1.11-1.11,2.08-1.53,2.67l-5,7.01h6.51V434.55z"/>
					<path d="M117.5,444.69c0.54-2.25,2.39-4.49,5.23-6.38l0.55-0.36c2.94-1.91,3.72-2.83,3.72-4.37c0-1.72-1.43-2.88-3.59-2.88
						c-1.76,0-3,0.65-4.35,2.25l-1.32-1.11c1.6-1.97,3.3-2.81,5.75-2.81c3.28,0,5.67,1.93,5.67,4.6c0,2.12-0.82,3.11-4.58,5.5
						l-0.76,0.48c-2.5,1.64-4.07,3.44-4.26,4.96h9.85v1.78h-11.9V444.69z"/>
					<path d="M144,447.81h-1.62v-6.72c-1.91,2.39-4.85,4.54-8.17,5.88l-0.97-1.34c3.15-1.18,5.75-2.83,7.77-4.93h-7.69v-1.41h9.05
						V437H144v2.29h9.2v1.41h-7.77c1.93,1.81,4.54,3.28,7.89,4.45l-1.03,1.47c-3.59-1.49-6.28-3.3-8.29-5.65V447.81z M149.69,429.84
						c-1.13,1.53-2.86,3.09-4.83,4.39c1.91,1.01,4.26,1.74,7.98,2.48l-0.86,1.43c-3-0.61-6.24-1.74-8.54-3
						c-2.48,1.45-5.63,2.58-8.8,3.21l-0.84-1.3c3.19-0.57,6.26-1.57,8.33-2.75c-0.82-0.59-2.02-1.66-2.98-2.65
						c-1.18,0.92-2.29,1.62-3.65,2.25l-1.03-1.09c2.54-1.05,5-3.02,6.28-5.02l1.6,0.32c-0.31,0.48-0.4,0.57-0.69,0.97h7.18
						L149.69,429.84z M140.54,430.37c-0.15,0.17-0.21,0.21-0.34,0.34c0.88,0.99,2.08,1.97,3.3,2.75c1.79-1.2,2.98-2.18,3.76-3.09
						H140.54z"/>
					<path d="M162.59,431.21c-0.95,0.42-2.79,0.99-4.07,1.26l-0.46-1.58c1.93-0.4,4.09-1.2,5.08-1.87h1.41v17.32h-1.95V431.21z"/>
					<path d="M177.31,441.16l0.13-0.04l0.08-0.04c0.78-0.25,1.76-0.63,2.37-0.9l0.17,1.49c-1.76,0.8-4.6,1.85-6.78,2.48l-0.59-1.62
						c1.18-0.32,1.34-0.36,2.48-0.69l0.5-0.15v-9.87h-2.73v-1.49h6.66v1.49h-2.29V441.16z M178.8,446.66
						c1.66-0.65,3.3-1.72,4.41-2.9l1.28,0.86c-1.3,1.34-2.98,2.56-4.54,3.25L178.8,446.66z M191,432.32v11.19h-10.08v-11.19h3.28
						c0.23-0.69,0.42-1.43,0.57-2.14h-5.25v-1.39h12.98v1.39h-6.09c-0.23,0.86-0.5,1.64-0.71,2.14H191z M182.47,433.6v2.04h6.95
						v-2.04H182.47z M182.47,438.83h6.95v-1.95h-6.95V438.83z M182.47,442.21h6.95v-2.16h-6.95V442.21z M191.33,447.79
						c-1.24-1.13-2.75-2.27-4.2-3.15l1.16-0.92c1.81,1.03,3.04,1.87,4.28,2.9L191.33,447.79z"/>
					<path d="M202.07,431.21c-0.94,0.42-2.79,0.99-4.07,1.26l-0.46-1.58c1.93-0.4,4.09-1.2,5.08-1.87h1.41v17.32h-1.95V431.21z"/>
					<path d="M218.7,438.09c-0.21,0.76-0.46,1.47-0.69,2.06h11.8c-0.17,2.56-0.59,4.85-1.11,6c-0.52,1.18-1.2,1.51-3.09,1.51
						c-1.11,0-2.6-0.06-3.63-0.15l-0.38-1.6c1.45,0.13,2.86,0.21,3.86,0.21c1.05,0,1.37-0.17,1.66-0.84
						c0.25-0.65,0.59-2.12,0.8-3.72h-10.48c-0.27,0.59-0.57,1.2-0.88,1.79l-1.7-0.48c0.76-1.34,1.45-2.94,2.08-4.79h-4.68v-1.43
						h19.95v1.43H218.7z M229.07,434.75h-13.71v-5.96h13.71V434.75z M217.06,433.41h10.31v-3.23h-10.31V433.41z"/>
					<path d="M239.22,443.45c1.7,1.7,3.65,2.35,7.18,2.37h8.25c-0.21,0.46-0.38,0.94-0.5,1.49h-7.98c-3.67-0.04-5.71-0.74-7.52-2.56
						c-0.95,1.11-2.14,2.25-3.28,3.09l-0.92-1.49c0.99-0.59,2.1-1.43,3.17-2.41v-5.63h-3.11v-1.43h4.7V443.45z M238.31,432.97
						c-0.99-1.41-2.06-2.67-3.07-3.57l1.16-0.97c1.22,1.07,2.29,2.23,3.15,3.42L238.31,432.97z M240.37,431.86v-1.32h3.72
						c-0.36-0.67-0.82-1.36-1.34-2.02l1.47-0.57c0.67,0.95,1.09,1.68,1.51,2.58h2.73c0.4-0.74,0.88-1.85,1.16-2.62l1.66,0.42
						c-0.34,0.73-0.78,1.57-1.2,2.2H254v1.32h-6.07c-0.1,0.36-0.44,1.24-0.65,1.74h5.27v10.71h-10.69V433.6h3.86
						c0.25-0.69,0.44-1.26,0.54-1.74H240.37z M243.42,436.73h7.56v-1.93h-7.56V436.73z M243.42,439.77h7.56v-1.91h-7.56V439.77z
						 M243.42,443.07h7.56v-2.1h-7.56V443.07z"/>
					<path d="M264.88,435.55h-2.71v3.32h2.73v1.39h-2.73v4.39c0.57-0.15,2.16-0.61,3.21-0.94l0.15,1.36
						c-2.5,0.88-5.52,1.74-8.27,2.35l-0.55-1.49l1.11-0.23v-8.19h1.43v7.87l0.52-0.13l0.5-0.13l0.44-0.11v-9.47h-3.06v-6.82h7.22
						V435.55z M259.15,434.19h4.24v-4.05h-4.24V434.19z M275.21,430.07c-0.8,1.95-1.83,3.63-3.09,5.06
						c1.32,1.15,2.96,2.16,4.81,2.92l-0.8,1.39c-1.89-0.84-3.65-2-5.02-3.28c-1.53,1.45-3.34,2.6-5.44,3.46l-0.84-1.3
						c1.89-0.61,3.72-1.74,5.25-3.21c-0.69-0.78-1.41-1.76-1.89-2.67l-0.08,0.1l-0.04,0.06c-0.55,0.69-1.2,1.36-1.85,1.91
						l-1.03-1.11c1.57-1.2,3.11-3.42,3.84-5.56l1.55,0.25c-0.23,0.55-0.29,0.71-0.46,1.07h4.07L275.21,430.07z M275.12,447.81h-1.53
						v-1.24h-5.35v1.24h-1.53v-8.27h8.42V447.81z M268.24,445.19h5.35v-4.24h-5.35V445.19z M268.97,431.31
						c0.59,1.05,1.15,1.83,2.08,2.81c0.95-1.09,1.66-2.21,2.27-3.55h-3.9c-0.08,0.15-0.17,0.29-0.36,0.61L268.97,431.31z"/>
				</g>
			</g>
			<rect x="333.19" y="30.71" class="グラフィックスタイル_x0020_2" width="155.75" height="355.33"/>
			<g>
				<polygon class="グラフィックスタイル_x0020_3" points="396.98,262.15 396.98,238.65 352.04,238.65 352.04,43.75 
					470.1,43.75 470.1,262.15 				"/>
				<g>
					<rect x="352.04" y="260.98" class="グラフィックスタイル_x0020_4" width="44.69" height="7"/>
					<rect x="352.04" y="253.98" class="グラフィックスタイル_x0020_4" width="44.69" height="7"/>
					<rect x="352.04" y="238.72" class="グラフィックスタイル_x0020_4" width="44.69" height="15.26"/>
					<polygon points="374.39,240.41 380.8,249.36 367.97,249.36 					"/>
				</g>
			</g>
			<g>
				<g>
					<g>
						<path class="st0" d="M432.89,275.54c6.43-0.76,12.85-0.76,19.28,0c7.4,0.93,12.94,8.44,12.54,15.29
							c-1.14,22.44-1.13,44.87,0.03,67.31c0.38,6.51-4.87,13.62-11.9,14.56c-6.88,0.87-13.75,0.87-20.63,0
							c-7.02-0.94-12.28-8.05-11.9-14.56c1.16-22.44,1.17-44.87,0.03-67.31C419.95,283.98,425.49,276.48,432.89,275.54z"/>
						<path class="st5" d="M442.53,274.73c3.23,0,6.46,0.19,9.67,0.57c7.23,0.91,13.19,8.17,12.76,15.55
							c-1.13,22.32-1.12,44.96,0.03,67.28c0.41,6.98-5.25,13.91-12.11,14.82c-6.87,0.87-13.83,0.87-20.69,0
							c-6.87-0.92-12.53-7.85-12.12-14.83c1.15-22.32,1.16-44.96,0.03-67.28c-0.43-7.37,5.53-14.64,12.76-15.55h0
							C436.07,274.92,439.3,274.73,442.53,274.73z M442.53,373.11c3.44,0,6.87-0.22,10.28-0.65c6.62-0.89,12.08-7.57,11.68-14.3
							c-1.15-22.35-1.16-45-0.03-67.34c0.41-7.13-5.34-14.15-12.32-15.03c-6.37-0.75-12.84-0.75-19.22,0
							c-6.98,0.88-12.74,7.9-12.32,15.03c1.13,22.34,1.12,44.99-0.03,67.34c-0.4,6.74,5.06,13.42,11.68,14.31
							C435.66,372.89,439.09,373.11,442.53,373.11z"/>
					</g>
				</g>
				<g>
					<path class="st6" d="M427.15,288.17h30.75c-0.04-0.36-0.08-0.72-0.12-1.08h-30.5C427.23,287.45,427.19,287.81,427.15,288.17z"
						/>
				</g>
				<g>
					<path class="st5" d="M424.02,299.18l0.27,0.92c1.91,6.56,2.96,15.26,2.96,24.5c0,1.01-0.01,2.04-0.04,3.07l-0.02,0.07
						l-4.66,10.97l-0.02-0.86c-0.06-2.55-0.09-5.07-0.09-7.5c0-10.37,0.51-20.54,1.51-30.21L424.02,299.18z M426.83,327.61
						c0.03-1.01,0.04-2.03,0.04-3.02c0-8.76-0.95-17.04-2.68-23.45c-0.93,9.37-1.41,19.18-1.41,29.19c0,2.15,0.02,4.37,0.07,6.62
						L426.83,327.61z"/>
				</g>
				<g>
					<path class="st5" d="M461.04,299.18l0.1,0.95c1,9.68,1.51,19.84,1.51,30.21c0,2.41-0.03,4.93-0.09,7.5l-0.02,0.86l-4.68-11.04
						c-0.03-1.02-0.04-2.06-0.04-3.07c0-9.23,1.05-17.93,2.96-24.5L461.04,299.18z M462.2,336.96c0.05-2.27,0.07-4.49,0.07-6.62
						c0-10.01-0.47-19.82-1.41-29.19c-1.73,6.41-2.68,14.68-2.68,23.45c0,0.99,0.01,2.01,0.04,3.02L462.2,336.96z"/>
				</g>
				<g>
					<path class="st0" d="M422.85,340.81v16.14c0,9.47,7.74,17.23,17.2,17.23H445c9.46,0,17.2-7.75,17.2-17.23v-16.14
						c-6.44,1.48-13.06,2.24-19.68,2.22C435.91,343.05,429.29,342.28,422.85,340.81z"/>
					<path d="M422.67,340.57l0.23,0.05c6.49,1.49,13.08,2.25,19.63,2.22c0.09,0,0.17,0,0.26,0c6.46,0,12.97-0.75,19.38-2.22
						l0.23-0.05v16.37c0,9.6-7.8,17.41-17.39,17.41h-4.94c-9.59,0-17.39-7.81-17.39-17.41V340.57z M445,373.99
						c9.38,0,17.02-7.64,17.02-17.04v-15.9c-6.36,1.44-12.82,2.17-19.23,2.17c-0.17,0-0.35,0-0.52,0c-6.41,0-12.87-0.73-19.23-2.17
						v15.9c0,9.4,7.63,17.04,17.02,17.04H445z"/>
				</g>
				<g>
					<path class="st0" d="M428.31,303.02c9.48,1.43,18.96,1.43,28.43,0c1.31-4.95,1.71-9.91,1.21-14.86H427.1
						C426.6,293.11,427,298.06,428.31,303.02z"/>
					<path d="M426.93,287.97h31.19l0.02,0.17c0.5,4.95,0.09,9.97-1.22,14.93l-0.03,0.12l-0.12,0.02c-9.45,1.43-19.04,1.43-28.49,0
						l-0.12-0.02l-0.03-0.12c-1.31-4.95-1.72-9.97-1.22-14.93L426.93,287.97z M457.79,288.34h-30.52
						c-0.47,4.82-0.07,9.69,1.19,14.51c9.34,1.4,18.8,1.4,28.14,0C457.86,298.04,458.26,293.16,457.79,288.34z"/>
				</g>
				<g>
					<path class="st6" d="M427.1,288.16h30.86c-0.04-0.36-0.08-0.72-0.13-1.08h-30.61C427.18,287.44,427.14,287.8,427.1,288.16z"/>
				</g>
				<g>
					<path class="st0" d="M457.83,287.08v-7.75c-3.77-2.03-9.23-3.31-15.3-3.31s-11.54,1.28-15.3,3.31v7.75H457.83z"/>
					<path d="M442.53,275.84c5.86,0,11.47,1.21,15.39,3.33l0.1,0.05v8.04h-30.98v-8.04l0.1-0.05
						C431.06,277.05,436.67,275.84,442.53,275.84z M457.65,279.44c-3.87-2.06-9.37-3.24-15.12-3.24s-11.25,1.18-15.12,3.24v7.45
						h30.23V279.44z"/>
				</g>
				<g>
					<path class="st6" d="M422.98,340.91l-0.38,1.04c13.02,3.6,26.84,3.6,39.86,0l-0.38-1.04
						C449.3,344.36,435.76,344.36,422.98,340.91z"/>
				</g>
				<g>
					<path class="st0" d="M461.53,340.96l-4.78-13.09h-28.43l-4.78,13.09C435.95,344.32,449.11,344.32,461.53,340.96z"/>
					<path d="M428.18,327.68h28.69l4.9,13.4l-0.2,0.05c-12.46,3.37-25.63,3.37-38.1,0l-0.2-0.05L428.18,327.68z M456.61,328.06
						h-28.17l-4.67,12.77c12.27,3.28,25.23,3.28,37.51,0L456.61,328.06z"/>
				</g>
				<g>
					<g>
						<path class="st5" d="M427.28,279.34h-0.2c-2.32,0-4.21,1.89-4.21,4.21v0.31C423.84,281.91,425.39,280.33,427.28,279.34z"/>
					</g>
					<g>
						<path class="st5" d="M457.78,279.34h0.2c2.32,0,4.21,1.89,4.21,4.21v0.31C461.22,281.91,459.67,280.33,457.78,279.34z"/>
					</g>
				</g>
				<g>
					<g>
						<path class="st0" d="M417.62,330.57c-0.13,0.57,0,1.25,0.3,1.51l3.43,2.97c0.06,0.05,0.12,0.08,0.18,0.09v-2.77l-3.83-2.15
							L417.62,330.57z"/>
						<path class="st5" d="M417.58,329.94l4.14,2.32v3.1l-0.22-0.04c-0.09-0.02-0.18-0.06-0.27-0.14l-3.43-2.97
							c-0.35-0.3-0.51-1.05-0.36-1.69L417.58,329.94z M421.34,332.48l-3.52-1.97l-0.02,0.1c-0.13,0.55,0.02,1.14,0.24,1.32l3.3,2.85
							V332.48z"/>
					</g>
					<g>
						<path class="st0" d="M467.44,330.57c0.13,0.57,0,1.25-0.3,1.51l-3.43,2.97c-0.06,0.05-0.12,0.08-0.18,0.09v-2.77l3.83-2.15
							L467.44,330.57z"/>
						<path class="st5" d="M467.48,329.94l0.14,0.59c0.15,0.64,0,1.39-0.36,1.69l-3.43,2.97c-0.08,0.07-0.17,0.12-0.27,0.14
							l-0.22,0.04v-3.1L467.48,329.94z M463.71,334.79l3.3-2.85c0.22-0.19,0.37-0.78,0.24-1.32l-0.02-0.1l-3.52,1.97V334.79z"/>
					</g>
				</g>
				<g>
					<g>
						<path class="st5" d="M432.4,350.77c0,6.19,1.1,11.64,2.76,14.79c-1.23-3.23-2.01-7.9-2.01-13.1c0-2.51,0.18-4.9,0.51-7.07
							h-0.97C432.5,347.08,432.4,348.89,432.4,350.77z"/>
					</g>
					<g>
						<path class="st5" d="M452.66,350.77c0,6.19-1.1,11.64-2.76,14.79c1.23-3.23,2.01-7.9,2.01-13.1c0-2.51-0.18-4.9-0.51-7.07
							h0.97C452.55,347.08,452.66,348.89,452.66,350.77z"/>
					</g>
				</g>
				<g>
					
						<rect x="428.31" y="303.01" transform="matrix(-1 -1.224647e-16 1.224647e-16 -1 885.0564 630.8805)" class="st0" width="28.43" height="24.86"/>
					<path d="M428.12,302.82h28.81v25.23h-28.81V302.82z M456.56,303.2H428.5v24.49h28.06V303.2z"/>
				</g>
			</g>
			<g>
				<g>
					<g>
						<path class="st0" d="M366.7,275.54c6.43-0.76,12.85-0.76,19.28,0c7.4,0.93,12.94,8.44,12.54,15.29
							c-1.14,22.44-1.13,44.87,0.03,67.31c0.38,6.51-4.87,13.62-11.9,14.56c-6.88,0.87-13.75,0.87-20.63,0
							c-7.02-0.94-12.28-8.05-11.9-14.56c1.16-22.44,1.17-44.87,0.03-67.31C353.76,283.98,359.3,276.48,366.7,275.54z"/>
						<path class="st5" d="M376.34,274.73c3.23,0,6.46,0.19,9.67,0.57c7.23,0.91,13.19,8.17,12.76,15.55
							c-1.13,22.32-1.12,44.96,0.03,67.28c0.41,6.98-5.25,13.91-12.11,14.82c-6.87,0.87-13.83,0.87-20.69,0
							c-6.87-0.92-12.53-7.85-12.12-14.83c1.15-22.32,1.16-44.96,0.03-67.28c-0.43-7.37,5.53-14.64,12.76-15.55h0
							C369.88,274.92,373.11,274.73,376.34,274.73z M376.34,373.11c3.44,0,6.87-0.22,10.28-0.65c6.62-0.89,12.08-7.57,11.68-14.3
							c-1.15-22.35-1.16-45-0.03-67.34c0.41-7.13-5.34-14.15-12.32-15.03c-6.37-0.75-12.84-0.75-19.22,0
							c-6.98,0.88-12.74,7.9-12.32,15.03c1.13,22.34,1.12,44.99-0.03,67.34c-0.4,6.74,5.06,13.42,11.68,14.31
							C369.47,372.89,372.91,373.11,376.34,373.11z"/>
					</g>
				</g>
				<g>
					<path class="st6" d="M360.97,288.17h30.75c-0.04-0.36-0.08-0.72-0.12-1.08h-30.5C361.05,287.45,361.01,287.81,360.97,288.17z"
						/>
				</g>
				<g>
					<path class="st5" d="M357.83,299.18l0.27,0.92c1.91,6.56,2.96,15.26,2.96,24.5c0,1.01-0.01,2.04-0.04,3.07l-0.02,0.07
						l-4.66,10.97l-0.02-0.86c-0.06-2.55-0.09-5.07-0.09-7.5c0-10.37,0.51-20.54,1.51-30.21L357.83,299.18z M360.65,327.61
						c0.03-1.01,0.04-2.03,0.04-3.02c0-8.76-0.95-17.04-2.68-23.45c-0.93,9.37-1.41,19.18-1.41,29.19c0,2.15,0.02,4.37,0.07,6.62
						L360.65,327.61z"/>
				</g>
				<g>
					<path class="st5" d="M394.85,299.18l0.1,0.95c1,9.68,1.51,19.84,1.51,30.21c0,2.41-0.03,4.93-0.09,7.5l-0.02,0.86l-4.68-11.04
						c-0.03-1.02-0.04-2.06-0.04-3.07c0-9.23,1.05-17.93,2.96-24.5L394.85,299.18z M396.01,336.96c0.05-2.27,0.07-4.49,0.07-6.62
						c0-10.01-0.47-19.82-1.41-29.19c-1.73,6.41-2.68,14.68-2.68,23.45c0,0.99,0.01,2.01,0.04,3.02L396.01,336.96z"/>
				</g>
				<g>
					<path class="st0" d="M356.67,340.81v16.14c0,9.47,7.74,17.23,17.2,17.23h4.94c9.46,0,17.2-7.75,17.2-17.23v-16.14
						c-6.44,1.48-13.06,2.24-19.68,2.22C369.72,343.05,363.1,342.28,356.67,340.81z"/>
					<path d="M356.48,340.57l0.23,0.05c6.49,1.49,13.08,2.25,19.63,2.22c0.09,0,0.17,0,0.26,0c6.46,0,12.97-0.75,19.38-2.22
						l0.23-0.05v16.37c0,9.6-7.8,17.41-17.39,17.41h-4.94c-9.59,0-17.39-7.81-17.39-17.41V340.57z M378.81,373.99
						c9.38,0,17.02-7.64,17.02-17.04v-15.9c-6.36,1.44-12.82,2.17-19.23,2.17c-0.17,0-0.35,0-0.52,0c-6.41,0-12.87-0.73-19.23-2.17
						v15.9c0,9.4,7.63,17.04,17.02,17.04H378.81z"/>
				</g>
				<g>
					<path class="st0" d="M362.13,303.02c9.48,1.43,18.96,1.43,28.43,0c1.31-4.95,1.71-9.91,1.21-14.86h-30.86
						C360.41,293.11,360.81,298.06,362.13,303.02z"/>
					<path d="M360.75,287.97h31.19l0.02,0.17c0.5,4.95,0.09,9.97-1.22,14.93l-0.03,0.12l-0.12,0.02c-9.45,1.43-19.04,1.43-28.49,0
						l-0.12-0.02l-0.03-0.12c-1.31-4.95-1.72-9.97-1.22-14.93L360.75,287.97z M391.6,288.34h-30.52c-0.47,4.82-0.07,9.69,1.19,14.51
						c9.34,1.4,18.8,1.4,28.14,0C391.67,298.04,392.07,293.16,391.6,288.34z"/>
				</g>
				<g>
					<path class="st6" d="M360.91,288.16h30.86c-0.04-0.36-0.08-0.72-0.13-1.08h-30.61C360.99,287.44,360.95,287.8,360.91,288.16z"
						/>
				</g>
				<g>
					<path class="st0" d="M391.65,287.08v-7.75c-3.77-2.03-9.23-3.31-15.3-3.31s-11.54,1.28-15.3,3.31v7.75H391.65z"/>
					<path d="M376.34,275.84c5.86,0,11.47,1.21,15.39,3.33l0.1,0.05v8.04h-30.98v-8.04l0.1-0.05
						C364.88,277.05,370.49,275.84,376.34,275.84z M391.46,279.44c-3.87-2.06-9.37-3.24-15.12-3.24s-11.25,1.18-15.12,3.24v7.45
						h30.23V279.44z"/>
				</g>
				<g>
					<path class="st6" d="M356.79,340.91l-0.38,1.04c13.02,3.6,26.84,3.6,39.86,0l-0.38-1.04
						C383.11,344.36,369.57,344.36,356.79,340.91z"/>
				</g>
				<g>
					<path class="st0" d="M395.34,340.96l-4.78-13.09h-28.43l-4.78,13.09C369.76,344.32,382.92,344.32,395.34,340.96z"/>
					<path d="M362,327.68h28.69l4.9,13.4l-0.2,0.05c-12.46,3.37-25.63,3.37-38.1,0l-0.2-0.05L362,327.68z M390.43,328.06h-28.17
						l-4.67,12.77c12.27,3.28,25.23,3.28,37.51,0L390.43,328.06z"/>
				</g>
				<g>
					<g>
						<path class="st5" d="M361.1,279.34h-0.2c-2.32,0-4.21,1.89-4.21,4.21v0.31C357.66,281.91,359.2,280.33,361.1,279.34z"/>
					</g>
					<g>
						<path class="st5" d="M391.59,279.34h0.2c2.32,0,4.21,1.89,4.21,4.21v0.31C395.03,281.91,393.48,280.33,391.59,279.34z"/>
					</g>
				</g>
				<g>
					<g>
						<path class="st0" d="M351.43,330.57c-0.13,0.57,0,1.25,0.3,1.51l3.43,2.97c0.06,0.05,0.12,0.08,0.18,0.09v-2.77l-3.83-2.15
							L351.43,330.57z"/>
						<path class="st5" d="M351.39,329.94l4.14,2.32v3.1l-0.22-0.04c-0.09-0.02-0.18-0.06-0.27-0.14l-3.43-2.97
							c-0.35-0.3-0.51-1.05-0.36-1.69L351.39,329.94z M355.16,332.48l-3.52-1.97l-0.02,0.1c-0.13,0.55,0.02,1.14,0.24,1.32l3.3,2.85
							V332.48z"/>
					</g>
					<g>
						<path class="st0" d="M401.25,330.57c0.13,0.57,0,1.25-0.3,1.51l-3.43,2.97c-0.06,0.05-0.12,0.08-0.18,0.09v-2.77l3.83-2.15
							L401.25,330.57z"/>
						<path class="st5" d="M401.29,329.94l0.14,0.59c0.15,0.64,0,1.39-0.36,1.69l-3.43,2.97c-0.08,0.07-0.17,0.12-0.27,0.14
							l-0.22,0.04v-3.1L401.29,329.94z M397.53,334.79l3.3-2.85c0.22-0.19,0.37-0.78,0.24-1.32l-0.02-0.1l-3.52,1.97V334.79z"/>
					</g>
				</g>
				<g>
					<g>
						<path class="st5" d="M366.22,350.77c0,6.19,1.1,11.64,2.76,14.79c-1.23-3.23-2.01-7.9-2.01-13.1c0-2.51,0.18-4.9,0.51-7.07
							h-0.97C366.32,347.08,366.22,348.89,366.22,350.77z"/>
					</g>
					<g>
						<path class="st5" d="M386.47,350.77c0,6.19-1.1,11.64-2.76,14.79c1.23-3.23,2.01-7.9,2.01-13.1c0-2.51-0.18-4.9-0.51-7.07
							h0.97C386.37,347.08,386.47,348.89,386.47,350.77z"/>
					</g>
				</g>
				<g>
					
						<rect x="362.13" y="303.01" transform="matrix(-1 -1.224647e-16 1.224647e-16 -1 752.6855 630.8805)" class="st0" width="28.43" height="24.86"/>
					<path d="M361.94,302.82h28.81v25.23h-28.81V302.82z M390.37,303.2h-28.06v24.49h28.06V303.2z"/>
				</g>
			</g>
			<g>
				<path d="M373.1,151.52c-1.52,0.68-4.5,1.59-6.57,2.03l-0.75-2.54c3.12-0.64,6.6-1.93,8.19-3.01h2.27v27.93h-3.15V151.52z"/>
				<path d="M396.53,162.62c-0.34,1.22-0.75,2.37-1.12,3.32h19.03c-0.27,4.13-0.95,7.82-1.79,9.68c-0.85,1.9-1.93,2.44-4.98,2.44
					c-1.79,0-4.2-0.1-5.86-0.24l-0.61-2.57c2.34,0.2,4.6,0.34,6.23,0.34c1.69,0,2.2-0.27,2.67-1.35c0.41-1.05,0.95-3.42,1.29-5.99
					h-16.9c-0.44,0.95-0.91,1.93-1.42,2.88l-2.74-0.78c1.22-2.17,2.34-4.74,3.35-7.72h-7.55v-2.3h32.17v2.3H396.53z M413.26,157.24
					h-22.11v-9.62h22.11V157.24z M393.89,155.07h16.63v-5.21h-16.63V155.07z"/>
				<path d="M427.03,161.51c-1.08,3.45-2.47,6.57-4.1,9.18l-1.25-2.71c2.2-3.28,3.93-7.38,5.11-12.22h-4.64v-2.37h4.88v-7.25h2.51
					v7.25h3.52v2.37h-3.52v3.15c1.52,1.25,2.95,2.61,4.17,3.96l-1.42,2.27c-0.61-0.91-1.73-2.34-2.74-3.49v16.66h-2.51V161.51z
					 M445.93,166.21c2.17,3.12,5.01,5.62,8.63,7.65l-1.59,2.37c-3.56-2.23-6.7-5.35-8.74-8.67v10.73h-2.4v-10.53
					c-2.13,3.62-5.01,6.6-8.7,8.94l-1.69-2.07c3.69-2.07,6.64-4.84,8.87-8.43h-6.26v-12.05h7.79v-2.51h-9.55v-2.2h9.55v-3.32h2.4
					v3.32h9.75v2.2h-9.75v2.51h8.02v12.05H445.93z M436.45,156.22v2.88h5.38v-2.88H436.45z M436.45,161.17v2.95h5.38v-2.95H436.45z
					 M444.23,159.1h5.65v-2.88h-5.65V159.1z M444.23,164.11h5.65v-2.95h-5.65V164.11z"/>
			</g>
		</g>
	</g>
</g>
</svg>
