<?xml version="1.0" encoding="utf-8"?>
<!-- Generator: Adobe Illustrator 23.0.3, SVG Export Plug-In . SVG Version: 6.00 Build 0)  -->
<svg version="1.1" xmlns="http://www.w3.org/2000/svg" xmlns:xlink="http://www.w3.org/1999/xlink" x="0px" y="0px"
	 viewBox="0 0 700 500" style="enable-background:new 0 0 700 500;" xml:space="preserve">
<style type="text/css">
	.グラフィックスタイル{fill:none;stroke:#000000;stroke-width:2;stroke-miterlimit:10;}
	.グラフィックスタイル_x0020_2{fill:#D8EACC;stroke:#000000;stroke-width:2;}
	.グラフィックスタイル_x0020_3{fill:#FFFFFF;stroke:#000000;stroke-width:2;stroke-miterlimit:10;}
	.グラフィックスタイル_x0020_4{fill:#FFFFFF;stroke:#000000;stroke-width:1.2664;stroke-miterlimit:10;}
	.グラフィックスタイル_x0020_7{fill:none;stroke:#000000;stroke-width:1.5;stroke-linejoin:bevel;stroke-miterlimit:10;}
	.グラフィックスタイル_x0020_8{fill:#FFFFFF;stroke:#000000;stroke-width:1.5;stroke-miterlimit:10;}
	.st0{fill:#FFFFFF;}
	.st1{fill:#D8EACC;stroke:#000000;stroke-width:2;}
	.st2{fill:none;stroke:#000000;stroke-width:1.4318;stroke-linecap:round;stroke-linejoin:round;}
	.st3{fill:none;stroke:#000000;stroke-width:1.8264;stroke-linecap:round;stroke-linejoin:round;}
	.st4{fill:#FFFFFF;stroke:#000000;stroke-width:1.2664;stroke-miterlimit:10;}
	.st5{fill:#030201;}
	.st6{fill:#242323;}
	.st7{fill:none;stroke:#000000;stroke-width:2;stroke-linejoin:round;stroke-miterlimit:10;}
	.st8{fill:none;stroke:#000000;stroke-width:2;stroke-miterlimit:10;}
	.st9{fill:none;stroke:#000000;stroke-width:2;stroke-linejoin:bevel;stroke-miterlimit:10;}
	.st10{fill:#E83589;}
	.st11{fill:none;stroke:#000000;stroke-width:2;stroke-miterlimit:10;stroke-dasharray:5.901,5.901;}
	.st12{fill:none;stroke:#000000;stroke-width:1.5;stroke-linejoin:bevel;stroke-miterlimit:10;}
	.st13{fill:#D8EACC;stroke:#000000;stroke-width:1.5;}
	.st14{fill:none;stroke:#000000;stroke-width:1.5;stroke-miterlimit:10;}
	.st15{fill:none;stroke:#000000;stroke-linejoin:bevel;stroke-miterlimit:10;}
	.st16{fill:#FFFFFF;stroke:#000000;stroke-width:1.5;stroke-miterlimit:10;}
	.st17{fill:#FFFFFF;stroke:#DE0000;stroke-width:2;stroke-miterlimit:10;}
	.st18{fill:#DE0000;}
	.st19{fill:none;stroke:#000000;stroke-miterlimit:10;}
	.st20{fill:none;stroke:#000000;stroke-miterlimit:10;stroke-dasharray:3.0312,3.0312;}
	.st21{fill:url(#);stroke:#000000;stroke-width:1.1494;}
	.st22{fill:#FFFFFF;stroke:#000000;stroke-miterlimit:10;}
	.st23{fill:none;stroke:#000000;stroke-width:3;stroke-miterlimit:10;stroke-dasharray:5;}
	.st24{fill:none;stroke:#FFFFFF;stroke-width:0.75;stroke-linejoin:round;}
	.st25{fill:none;stroke:#000000;stroke-miterlimit:10;stroke-dasharray:5;}
	.st26{fill:none;stroke:#FFFFFF;stroke-width:3;stroke-linejoin:round;}
	.st27{fill:none;stroke:#000000;stroke-width:1.3;stroke-linejoin:bevel;stroke-miterlimit:10;}
	.st28{fill:none;stroke:#000000;stroke-width:1.5;stroke-miterlimit:10;stroke-dasharray:5;}
	.st29{fill:none;stroke:#47738A;stroke-linejoin:bevel;stroke-miterlimit:10;}
	.st30{fill:none;}
	.st31{fill:none;stroke:#FFFFFF;stroke-width:5;stroke-linejoin:round;}
	.st32{fill:#D8EACC;}
	.st33{fill:#D8EACC;stroke:#000000;stroke-width:0.25;}
	.st34{fill:none;stroke:#000000;stroke-width:2;}
	.st35{fill:none;stroke:#FFFFFF;stroke-linejoin:round;}
	.st36{fill:none;stroke:#000000;stroke-width:1.9773;stroke-linecap:round;stroke-linejoin:round;}
	.st37{fill:none;stroke:#000000;stroke-width:2.5222;stroke-linecap:round;stroke-linejoin:round;}
	.st38{fill:#FFFFFF;stroke:#000000;stroke-width:2;stroke-miterlimit:10;}
	.st39{fill:#FFFFFF;stroke:#000000;stroke-width:1.0238;stroke-miterlimit:10;}
	.st40{fill:#FFFFFF;stroke:#000000;stroke-width:1.089;stroke-miterlimit:10;}
	.st41{fill:#FFFFFF;stroke:#000000;stroke-width:1.2553;stroke-miterlimit:10;}
	.st42{fill:url(#);}
	.st43{fill:none;stroke:#000000;stroke-width:1.7765;stroke-linejoin:bevel;stroke-miterlimit:10;}
	.st44{fill:none;stroke:#000000;stroke-width:2.3687;stroke-miterlimit:10;}
	.st45{fill:#D8EACC;stroke:#000000;stroke-width:2.0455;}
	.st46{fill:none;stroke:#000000;stroke-width:2.0455;stroke-linecap:round;stroke-miterlimit:10;stroke-dasharray:0,6.1366;}
	.st47{fill:#FFFFFF;stroke:#000000;stroke-width:2.3687;stroke-miterlimit:10;}
	.st48{fill:#FFFFFF;stroke:#000000;stroke-width:1.4998;stroke-miterlimit:10;}
	.st49{fill:#FFFFFF;stroke:#000000;stroke-width:0.6137;stroke-miterlimit:10;}
	.st50{fill:url(#);stroke:#000000;stroke-width:1.0228;}
	.st51{fill:none;stroke:#FFFFFF;stroke-width:4.0911;stroke-linejoin:round;}
	.st52{fill:none;stroke:#000000;stroke-width:2.4559;stroke-linecap:round;stroke-linejoin:round;}
	.st53{fill:none;stroke:#000000;stroke-width:3.1327;stroke-linecap:round;stroke-linejoin:round;}
	.st54{fill:none;stroke:#FFFFFF;stroke-width:4;stroke-linejoin:round;}
</style>
<g id="レイヤー_5">
	<rect x="-1164.06" y="-2687.14" class="st0" width="5667.56" height="5248"/>
</g>
<g id="レイヤー_1">
</g>
<g id="レイヤー_3">
</g>
<g id="レイヤー_4">
</g>
<g id="レイヤー_2">
	<g>
		<rect class="st0" width="700" height="500"/>
		<polyline class="st2" points="88.87,314.8 88.87,303.06 95.77,314.8 95.77,303.06 		"/>
		<g>
			<circle class="st3" cx="101.3" cy="344.46" r="24.35"/>
			<polygon points="105.03,357.6 117.89,361.25 94.81,321.61 96.01,367.47 			"/>
		</g>
		<g>
			
				<rect x="83.54" y="209.6" transform="matrix(6.123234e-17 -1 1 6.123234e-17 -154.1727 360.5523)" class="st10" width="39.3" height="95.53"/>
			<g>
				<path class="st0" d="M72.66,263.21h15.55v2.09H72.66v1.41h-2.32v-18.56h17.34v2.01H72.66V263.21z M73.34,260.86
					c2.12-1.08,3.67-2.24,5.41-4.02c-1.33-1.12-3.09-2.38-4.83-3.52l1.41-1.58c1.72,1.08,3.21,2.14,4.85,3.4
					c1.02-1.35,1.85-2.72,2.7-4.44l2.09,1.02c-0.93,1.85-1.97,3.5-3.01,4.85c1.16,0.96,2.7,2.32,4.25,3.79l-1.64,1.72
					c-1.35-1.35-2.86-2.74-4.08-3.79c-1.74,1.85-3.55,3.19-5.76,4.35L73.34,260.86z"/>
				<path class="st0" d="M101.82,249.98h-8.69v-1.87h19.7v1.87h-8.81v1.99h4.44v10.35H97.48v-10.35h4.33V249.98z M110.03,263.66
					v-11.7h2.12v14.74h-2.12v-1.14H95.91v1.14h-2.09v-14.74h2.09v11.7H110.03z M99.45,253.67v2.51h2.45v-2.51H99.45z M99.45,257.77
					v2.8h2.45v-2.8H99.45z M103.93,256.18h2.55v-2.51h-2.55V256.18z M103.93,260.57h2.55v-2.8h-2.55V260.57z"/>
				<path class="st0" d="M136.02,266.71h-2.26v-1.06h-13.44v1.06h-2.24v-18.75h17.94V266.71z M120.32,263.7h13.44v-13.85h-13.44
					V263.7z M131.83,262.81c-1.31-0.81-2.84-1.68-4.23-2.38c-1.51,1.27-3.34,2.28-5.37,3.01l-1.29-1.56
					c1.89-0.6,3.23-1.31,4.67-2.45l-0.54-0.25c-1.35-0.66-2.34-1.1-4.11-1.82l0.93-1.54c2.09,0.77,3.3,1.24,5.29,2.18
					c1.68-1.78,3.09-4.33,3.86-7.03l2.01,0.62c-0.85,2.63-2.38,5.5-3.94,7.34c0.1,0.06,0.1,0.06,0.19,0.1
					c1.04,0.52,2.18,1.14,3.75,2.07L131.83,262.81z M123.1,256.03c-0.48-1.62-1.04-2.99-1.66-4.06l1.91-0.77
					c0.66,1.16,1.22,2.49,1.72,4.04L123.1,256.03z M126.67,255.22c-0.5-1.58-1.06-2.92-1.68-4.08l1.82-0.73
					c0.75,1.33,1.39,2.8,1.72,4L126.67,255.22z"/>
			</g>
		</g>
		<g>
			<g>
				<g>
					<path d="M584,259.4v1.58h-9.65v2.81h7.43v8.75c0,1.27-0.57,1.73-2.13,1.73c-0.9,0-1.8-0.04-2.7-0.13l-0.29-1.67
						c1.1,0.15,1.93,0.22,2.65,0.22c0.57,0,0.7-0.11,0.7-0.64v-6.73h-5.68v11.91h-1.73v-11.91h-5.39v9.19h-1.73v-10.72h7.13v-2.81
						h-9.45v-1.58h9.45v-3h1.73v3H584z"/>
					<path d="M568.08,295.9c1.78,1.78,3.81,2.46,7.5,2.48h8.62c-0.22,0.48-0.4,0.99-0.53,1.56h-8.33c-3.84-0.04-5.96-0.77-7.85-2.67
						c-0.99,1.16-2.24,2.35-3.42,3.22l-0.96-1.56c1.03-0.61,2.19-1.49,3.31-2.52v-5.88h-3.25v-1.49h4.91V295.9z M567.14,284.96
						c-1.03-1.47-2.15-2.79-3.2-3.73l1.21-1.01c1.27,1.12,2.39,2.32,3.29,3.57L567.14,284.96z M569.29,283.8v-1.38h3.88
						c-0.37-0.7-0.85-1.42-1.4-2.1l1.53-0.59c0.7,0.99,1.14,1.75,1.58,2.7h2.85c0.42-0.77,0.92-1.93,1.21-2.74l1.73,0.44
						c-0.35,0.77-0.81,1.64-1.25,2.3h4.1v1.38h-6.34c-0.11,0.37-0.46,1.29-0.68,1.82h5.5v11.18h-11.16v-11.18h4.03
						c0.26-0.72,0.46-1.32,0.57-1.82H569.29z M572.47,288.89h7.89v-2.02h-7.89V288.89z M572.47,292.07h7.89v-2h-7.89V292.07z
						 M572.47,295.51h7.89v-2.19h-7.89V295.51z"/>
					<path d="M540.07,208.69c-1.07-1.27-2.28-2.46-3.42-3.38l1.16-1.21c1.25,0.92,2.5,2.11,3.49,3.29L540.07,208.69z M537.17,217.62
						c1.29-1.71,2.67-4.28,3.86-7.19l1.38,1.07c-1.07,2.74-2.46,5.44-3.84,7.41L537.17,217.62z M540.86,203.1
						c-0.83-1.1-2.15-2.43-3.33-3.42l1.14-1.14c1.18,0.88,2.48,2.11,3.42,3.27L540.86,203.1z M549.54,209.33l-0.02,0.04
						c-0.64,1.86-2,4.8-3.11,6.8l-0.09,0.2l1.62-0.13c1.62-0.13,4.1-0.39,6.05-0.66c-0.68-1.14-1.47-2.32-2.3-3.49l1.38-0.77
						c1.78,2.26,3.27,4.54,4.32,6.64l-1.56,0.99c-0.5-1.03-0.72-1.47-1.1-2.13l-0.22,0.04c-2.43,0.48-7.61,1.16-11.2,1.47
						l-0.57-1.73l0.88-0.04l0.26-0.02c0.04,0,0.31-0.02,0.59-0.04c1.16-2.1,2.39-4.82,3.25-7.28h-5.53v-1.47h6.69v-4.43h-5.5v-1.51
						h5.5v-3.53h1.71v3.53h5.83v1.51h-5.83v4.43h6.97v1.47h-7.98L549.54,209.33z"/>
					<path d="M547.92,265.6h-1.69v-7.02c-2,2.5-5.06,4.74-8.53,6.14l-1.01-1.4c3.29-1.23,6.01-2.96,8.11-5.15h-8.03v-1.47h9.45
						v-2.39h1.69v2.39h9.6v1.47h-8.11c2.02,1.89,4.74,3.42,8.24,4.65l-1.07,1.53c-3.75-1.56-6.56-3.44-8.66-5.9V265.6z
						 M553.86,246.83c-1.18,1.6-2.98,3.22-5.04,4.58c2,1.05,4.45,1.82,8.33,2.59l-0.9,1.49c-3.14-0.64-6.51-1.82-8.92-3.14
						c-2.59,1.51-5.88,2.7-9.19,3.36l-0.88-1.36c3.33-0.59,6.53-1.64,8.71-2.87c-0.85-0.61-2.1-1.73-3.11-2.76
						c-1.23,0.96-2.39,1.69-3.82,2.35l-1.07-1.14c2.65-1.1,5.22-3.16,6.56-5.24l1.67,0.33c-0.33,0.5-0.42,0.59-0.72,1.01h7.5
						L553.86,246.83z M544.3,247.38c-0.15,0.18-0.22,0.22-0.35,0.35c0.92,1.03,2.17,2.06,3.44,2.87c1.86-1.25,3.11-2.28,3.92-3.22
						H544.3z"/>
					<path d="M540.86,285.85c0.57-2.35,2.5-4.69,5.46-6.67l0.57-0.37c3.07-2,3.88-2.96,3.88-4.56c0-1.8-1.49-3-3.75-3
						c-1.84,0-3.14,0.68-4.54,2.35l-1.38-1.16c1.67-2.06,3.44-2.94,6.01-2.94c3.42,0,5.92,2.02,5.92,4.8c0,2.21-0.85,3.25-4.78,5.74
						l-0.79,0.5c-2.61,1.71-4.25,3.6-4.45,5.17h10.28v1.86h-12.43V285.85z"/>
					<path d="M541.47,305.14l0.13-0.04l0.09-0.04c0.81-0.26,1.84-0.66,2.48-0.94l0.18,1.56c-1.84,0.83-4.8,1.93-7.08,2.59
						l-0.61-1.69c1.23-0.33,1.4-0.37,2.59-0.72l0.53-0.15v-10.31h-2.85v-1.56h6.95v1.56h-2.39V305.14z M543.03,310.88
						c1.73-0.68,3.44-1.8,4.6-3.03l1.34,0.9c-1.36,1.4-3.11,2.67-4.74,3.4L543.03,310.88z M555.77,295.91v11.69h-10.52v-11.69h3.42
						c0.24-0.72,0.44-1.49,0.59-2.24h-5.48v-1.45h13.55v1.45h-6.36c-0.24,0.9-0.53,1.71-0.75,2.24H555.77z M546.86,297.24v2.13h7.26
						v-2.13H546.86z M546.86,302.7h7.26v-2.04h-7.26V302.7z M546.86,306.23h7.26v-2.26h-7.26V306.23z M556.12,312.07
						c-1.29-1.18-2.87-2.37-4.39-3.29l1.21-0.96c1.89,1.07,3.18,1.95,4.47,3.03L556.12,312.07z"/>
					<path d="M541.65,330.77c1.78,1.78,3.81,2.46,7.5,2.48h8.62c-0.22,0.48-0.4,0.99-0.53,1.56h-8.33
						c-3.84-0.04-5.96-0.77-7.85-2.67c-0.99,1.16-2.24,2.35-3.42,3.22l-0.96-1.56c1.03-0.61,2.19-1.49,3.31-2.52v-5.88h-3.25v-1.49
						h4.91V330.77z M540.7,319.83c-1.03-1.47-2.15-2.79-3.2-3.73l1.21-1.01c1.27,1.12,2.39,2.32,3.29,3.57L540.7,319.83z
						 M542.85,318.67v-1.38h3.88c-0.37-0.7-0.85-1.42-1.4-2.1l1.53-0.59c0.7,0.99,1.14,1.75,1.58,2.7h2.85
						c0.42-0.77,0.92-1.93,1.21-2.74l1.73,0.44c-0.35,0.77-0.81,1.64-1.25,2.3h4.1v1.38h-6.34c-0.11,0.37-0.46,1.29-0.68,1.82h5.5
						v11.18h-11.16v-11.18h4.03c0.26-0.72,0.46-1.32,0.57-1.82H542.85z M546.03,323.76h7.89v-2.02h-7.89V323.76z M546.03,326.94
						h7.89v-2h-7.89V326.94z M546.03,330.38h7.89v-2.19h-7.89V330.38z"/>
					<path d="M545.2,345.77h-2.83v3.46h2.85v1.45h-2.85v4.58c0.59-0.15,2.26-0.64,3.35-0.99l0.15,1.43
						c-2.61,0.92-5.77,1.82-8.64,2.46l-0.57-1.56l1.16-0.24v-8.55h1.49v8.22l0.55-0.13l0.53-0.13l0.46-0.11v-9.89h-3.2v-7.13h7.54
						V345.77z M539.21,344.35h4.43v-4.23h-4.43V344.35z M555.99,340.05c-0.83,2.04-1.91,3.79-3.22,5.28
						c1.38,1.21,3.09,2.26,5.02,3.05l-0.83,1.45c-1.97-0.88-3.81-2.08-5.24-3.42c-1.6,1.51-3.49,2.72-5.68,3.62l-0.88-1.36
						c1.97-0.64,3.88-1.82,5.48-3.35c-0.72-0.81-1.47-1.84-1.97-2.79l-0.09,0.11l-0.04,0.07c-0.57,0.72-1.25,1.42-1.93,2l-1.07-1.16
						c1.64-1.25,3.25-3.57,4.01-5.81l1.62,0.26c-0.24,0.57-0.31,0.75-0.48,1.12h4.25L555.99,340.05z M555.9,358.58h-1.6v-1.29h-5.59
						v1.29h-1.6v-8.64h8.79V358.58z M548.71,355.84h5.59v-4.43h-5.59V355.84z M549.47,341.34c0.61,1.1,1.21,1.91,2.17,2.94
						c0.99-1.14,1.73-2.3,2.37-3.71h-4.08c-0.09,0.15-0.18,0.31-0.37,0.64L549.47,341.34z"/>
				</g>
				<g>
					<path d="M541.6,223.68v11.86h3.4v1.69h-3.4v4.32h-1.93v-4.32h-9.03v-1.67l8.55-11.88H541.6z M539.67,229.23
						c0-1.01,0.04-2.72,0.11-3.79h-0.09c-0.59,1.16-1.16,2.17-1.6,2.79l-5.22,7.32h6.8V229.23z"/>
					<path d="M546.97,239.82c0.57-2.35,2.5-4.69,5.46-6.67l0.57-0.37c3.07-2,3.88-2.96,3.88-4.56c0-1.8-1.49-3-3.75-3
						c-1.84,0-3.14,0.68-4.54,2.35l-1.38-1.16c1.67-2.06,3.44-2.94,6.01-2.94c3.42,0,5.92,2.02,5.92,4.8c0,2.21-0.85,3.25-4.78,5.74
						l-0.79,0.5c-2.61,1.71-4.25,3.6-4.45,5.17h10.28v1.86h-12.43V239.82z"/>
				</g>
			</g>
			<g id="アートワーク_5_2_">
				<g>
					<polyline class="グラフィックスタイル_x0020_7" points="586.9,110.54 595.52,118.12 519.63,118.21 528.66,125.16 
											"/>
					<polyline class="グラフィックスタイル_x0020_7" points="458.01,111.69 454.95,120.95 424.59,50.2 422.15,59.56 					
						"/>
					<polyline class="グラフィックスタイル_x0020_7" points="586.9,457.87 595.52,465.44 519.63,465.54 528.66,472.48 
											"/>
					<polygon class="グラフィックスタイル_x0020_2" points="386.86,143.76 201.56,202.84 201.56,465.18 363.46,465.18 
						363.46,179.6 386.86,179.6 					"/>
					<polygon class="グラフィックスタイル_x0020_2" points="498.38,106.38 386.86,143.76 386.86,179.6 363.46,179.6 
						363.46,465.18 519.83,465.18 519.83,118.77 					"/>
					<polygon class="グラフィックスタイル_x0020_8" points="319.94,286.01 319.94,250.02 279.7,250.02 279.7,286.58 
						217.22,286.58 217.22,452.87 347.81,452.87 347.81,286.01 					"/>
					<g>
						
							<rect x="326.16" y="264.73" transform="matrix(-1.836970e-16 1 -1 -1.836970e-16 612.2085 -76.1369)" class="グラフィックスタイル_x0020_4" width="36.03" height="6.62"/>
						
							<rect x="319.54" y="264.73" transform="matrix(-1.836970e-16 1 -1 -1.836970e-16 605.5873 -69.5157)" class="グラフィックスタイル_x0020_8" width="36.03" height="6.62"/>
						
							<rect x="309.01" y="260.82" transform="matrix(-1.836970e-16 1 -1 -1.836970e-16 595.059 -58.9874)" class="グラフィックスタイル_x0020_4" width="36.03" height="14.44"/>
						<polygon points="321.4,268.04 329.87,274.61 329.87,261.46 						"/>
					</g>
					<rect x="378.65" y="226.41" class="グラフィックスタイル_x0020_8" width="125.99" height="212.18"/>
					<g>
						<rect x="378.65" y="226.41" class="グラフィックスタイル_x0020_4" width="36.03" height="6.62"/>
						<rect x="378.65" y="233.03" class="グラフィックスタイル_x0020_4" width="36.03" height="6.62"/>
						<rect x="378.65" y="239.66" class="グラフィックスタイル_x0020_4" width="36.03" height="14.44"/>
						<polygon points="396.67,252.49 403.24,244.02 390.09,244.02 						"/>
					</g>
					<g>
						<g>
							<g>
								<path class="st0" d="M257.15,280.35c-4.62,0.54-9.23,0.54-13.85,0c-5.32-0.67-9.3-6.06-9.01-10.99
									c0.82-16.12,0.81-32.24-0.02-48.37c-0.28-4.68,3.5-9.79,8.55-10.47c4.94-0.62,9.88-0.62,14.82,0
									c5.05,0.68,8.82,5.79,8.55,10.47c-0.83,16.12-0.84,32.24-0.02,48.37C266.45,274.29,262.47,279.68,257.15,280.35z"/>
								<path class="st5" d="M250.22,280.94c-2.32,0-4.64-0.14-6.95-0.41c-5.19-0.65-9.48-5.87-9.17-11.17
									c0.81-16.04,0.8-32.3-0.02-48.35c-0.3-5.01,3.77-9.99,8.7-10.65c4.93-0.62,9.94-0.62,14.87,0c4.93,0.66,9,5.64,8.71,10.65
									c-0.83,16.04-0.84,32.31-0.02,48.35c0.31,5.3-3.97,10.52-9.17,11.17h0C254.87,280.8,252.54,280.94,250.22,280.94z
									 M250.22,210.25c-2.47,0-4.94,0.15-7.39,0.46c-4.76,0.64-8.68,5.44-8.39,10.28c0.83,16.06,0.84,32.34,0.02,48.39
									c-0.3,5.12,3.84,10.17,8.85,10.8c4.58,0.54,9.23,0.54,13.81,0c5.02-0.63,9.15-5.68,8.85-10.8
									c-0.81-16.05-0.81-32.33,0.02-48.39c0.28-4.84-3.64-9.64-8.39-10.28C255.16,210.4,252.69,210.25,250.22,210.25z"/>
							</g>
						</g>
						<g>
							<path class="st6" d="M261.27,271.28h-22.09c0.03,0.26,0.06,0.52,0.09,0.77h21.91C261.21,271.8,261.24,271.54,261.27,271.28z"
								/>
						</g>
						<g>
							<path class="st5" d="M263.52,263.37l-0.19-0.66c-1.37-4.72-2.12-10.97-2.12-17.6c0-0.73,0.01-1.47,0.03-2.2l0.01-0.05
								l3.35-7.88l0.01,0.62c0.04,1.83,0.07,3.64,0.07,5.39c0,7.45-0.36,14.76-1.08,21.71L263.52,263.37z M261.5,242.94
								c-0.02,0.73-0.03,1.46-0.03,2.17c0,6.3,0.68,12.24,1.92,16.85c0.67-6.73,1.01-13.79,1.01-20.98c0-1.54-0.02-3.14-0.05-4.76
								L261.5,242.94z"/>
						</g>
						<g>
							<path class="st5" d="M236.92,263.37l-0.07-0.68c-0.72-6.95-1.08-14.26-1.08-21.71c0-1.73,0.02-3.54,0.07-5.39l0.02-0.62
								l3.36,7.93c0.02,0.74,0.03,1.48,0.03,2.2c0,6.64-0.75,12.89-2.12,17.6L236.92,263.37z M236.09,236.22
								c-0.03,1.63-0.05,3.23-0.05,4.76c0,7.19,0.34,14.24,1.01,20.98c1.24-4.61,1.92-10.55,1.92-16.85c0-0.71-0.01-1.44-0.03-2.17
								L236.09,236.22z"/>
						</g>
						<g>
							<path class="st0" d="M264.36,233.46v-11.6c0-6.81-5.56-12.38-12.36-12.38h-3.55c-6.8,0-12.36,5.57-12.36,12.38v11.6
								c4.62-1.06,9.38-1.61,14.14-1.6C254.98,231.85,259.74,232.4,264.36,233.46z"/>
							<path d="M264.5,233.63l-0.16-0.04c-4.66-1.07-9.4-1.62-14.11-1.59c-0.06,0-0.12,0-0.19,0c-4.64,0-9.32,0.54-13.92,1.59
								l-0.16,0.04v-11.77c0-6.9,5.61-12.51,12.5-12.51H252c6.89,0,12.5,5.61,12.5,12.51V233.63z M248.45,209.62
								c-6.74,0-12.23,5.49-12.23,12.24v11.43c4.57-1.04,9.21-1.56,13.82-1.56c0.12,0,0.25,0,0.37,0c4.6,0,9.25,0.53,13.82,1.56
								v-11.43c0-6.75-5.49-12.24-12.23-12.24H248.45z"/>
						</g>
						<g>
							<path class="st0" d="M260.44,260.61c-6.81-1.03-13.62-1.03-20.43,0c-0.94,3.56-1.23,7.12-0.87,10.68h22.17
								C261.67,267.73,261.38,264.17,260.44,260.61z"/>
							<path d="M261.43,271.42h-22.42L239,271.3c-0.36-3.56-0.07-7.17,0.87-10.72l0.02-0.09l0.09-0.01c6.79-1.03,13.68-1.03,20.47,0
								l0.09,0.01l0.02,0.09c0.94,3.56,1.24,7.16,0.87,10.72L261.43,271.42z M239.26,271.16h21.93c0.34-3.46,0.05-6.97-0.86-10.42
								c-6.71-1-13.51-1-20.22,0C239.21,264.19,238.92,267.7,239.26,271.16z"/>
						</g>
						<g>
							<path class="st6" d="M261.31,271.29h-22.17c0.03,0.26,0.06,0.52,0.09,0.77h21.99C261.25,271.81,261.28,271.55,261.31,271.29z
								"/>
						</g>
						<g>
							<path class="st0" d="M239.23,272.06v5.57c2.71,1.46,6.63,2.38,11,2.38s8.29-0.92,11-2.38v-5.57H239.23z"/>
							<path d="M250.22,280.14c-4.21,0-8.24-0.87-11.06-2.39l-0.07-0.04v-5.78h22.26v5.78l-0.07,0.04
								C258.46,279.27,254.43,280.14,250.22,280.14z M239.36,277.55c2.78,1.48,6.73,2.32,10.86,2.32s8.08-0.85,10.86-2.32v-5.35
								h-21.72V277.55z"/>
						</g>
						<g>
							<path class="st6" d="M264.27,233.39l0.27-0.75c-9.35-2.59-19.29-2.59-28.64,0l0.27,0.75
								C245.36,230.9,255.09,230.9,264.27,233.39z"/>
						</g>
						<g>
							<path class="st0" d="M236.57,233.35l3.44,9.4h20.43l3.44-9.4C254.95,230.93,245.5,230.93,236.57,233.35z"/>
							<path d="M260.53,242.89h-20.62l-3.52-9.63l0.14-0.04c8.95-2.42,18.42-2.42,27.37,0l0.14,0.04L260.53,242.89z M240.1,242.62
								h20.24l3.35-9.18c-8.82-2.36-18.13-2.36-26.95,0L240.1,242.62z"/>
						</g>
						<g>
							<g>
								<path class="st5" d="M261.18,277.62h0.14c1.66,0,3.03-1.36,3.03-3.03v-0.22C263.65,275.78,262.54,276.92,261.18,277.62z"/>
							</g>
							<g>
								<path class="st5" d="M239.27,277.62h-0.14c-1.66,0-3.03-1.36-3.03-3.03v-0.22C236.8,275.78,237.91,276.92,239.27,277.62z"/>
							</g>
						</g>
						<g>
							<g>
								<path class="st0" d="M268.12,240.81c0.1-0.41,0-0.9-0.21-1.08l-2.47-2.13c-0.04-0.04-0.09-0.06-0.13-0.07v1.99l2.75,1.54
									L268.12,240.81z"/>
								<path class="st5" d="M268.15,241.26l-2.98-1.67v-2.23l0.16,0.03c0.07,0.01,0.13,0.05,0.19,0.1l2.47,2.13
									c0.25,0.22,0.37,0.75,0.26,1.22L268.15,241.26z M265.45,239.44l2.53,1.42l0.02-0.07c0.09-0.39-0.02-0.82-0.17-0.95
									l-2.37-2.05V239.44z"/>
							</g>
							<g>
								<path class="st0" d="M232.33,240.81c-0.1-0.41,0-0.9,0.21-1.08l2.47-2.13c0.04-0.04,0.09-0.06,0.13-0.07v1.99l-2.75,1.54
									L232.33,240.81z"/>
								<path class="st5" d="M232.29,241.26l-0.1-0.42c-0.11-0.46,0-1,0.26-1.22l2.47-2.13c0.06-0.05,0.12-0.08,0.19-0.1l0.16-0.03
									v2.23L232.29,241.26z M235,237.78l-2.37,2.05c-0.16,0.13-0.26,0.56-0.17,0.95l0.02,0.07l2.53-1.42V237.78z"/>
							</g>
						</g>
						<g>
							<g>
								<path class="st5" d="M257.5,226.3c0-4.45-0.79-8.36-1.98-10.63c0.88,2.32,1.44,5.68,1.44,9.42c0,1.81-0.13,3.52-0.36,5.08
									h0.7C257.43,228.95,257.5,227.65,257.5,226.3z"/>
							</g>
							<g>
								<path class="st5" d="M242.95,226.3c0-4.45,0.79-8.36,1.98-10.63c-0.88,2.32-1.44,5.68-1.44,9.42c0,1.81,0.13,3.52,0.36,5.08
									h-0.7C243.02,228.95,242.95,227.65,242.95,226.3z"/>
							</g>
						</g>
						<g>
							<rect x="240.01" y="242.75" class="st0" width="20.43" height="17.86"/>
							<path d="M260.57,260.75h-20.7v-18.13h20.7V260.75z M240.14,260.48h20.16v-17.6h-20.16V260.48z"/>
						</g>
					</g>
					<g>
						<g>
							<g>
								<path class="st0" d="M284.5,215.76c-2.02-4.19-3.53-8.55-4.53-13.09c-1.11-5.25,2.69-10.77,7.44-12.11
									c15.5-4.5,30.74-9.77,45.7-15.83c4.33-1.79,10.4,0.11,12.68,4.66c2.2,4.47,3.82,9.14,4.84,14.01
									c1.01,4.99-2.59,10.23-7.1,11.5c-15.51,4.48-30.75,9.74-45.72,15.78C293.26,222.57,286.87,220.57,284.5,215.76z"/>
								<path class="st5" d="M281.68,209.41c-0.76-2.19-1.39-4.43-1.88-6.7c-1.08-5.12,2.45-10.88,7.56-12.32
									c15.42-4.47,30.79-9.8,45.68-15.82c4.64-1.92,10.68,0.3,12.91,4.75c2.2,4.46,3.83,9.19,4.86,14.05
									c0.99,4.88-2.39,10.35-7.22,11.71c-15.43,4.46-30.81,9.77-45.7,15.78c-4.91,2.02-11.24-0.32-13.55-5.01l0,0
									C283.33,213.75,282.44,211.6,281.68,209.41z M348.49,186.31c-0.81-2.33-1.76-4.62-2.85-6.83
									c-2.16-4.29-7.98-6.42-12.46-4.57c-14.9,6.03-30.29,11.36-45.72,15.83c-4.94,1.39-8.35,6.95-7.31,11.9
									c0.99,4.51,2.5,8.9,4.51,13.05c2.24,4.53,8.36,6.8,13.1,4.84c14.9-6.01,30.29-11.33,45.74-15.79
									c4.67-1.31,7.92-6.59,6.97-11.29C349.95,191.03,349.29,188.64,348.49,186.31z"/>
							</g>
						</g>
						<g>
							<path class="st6" d="M294.42,216.69l-7.22-20.88c-0.24,0.11-0.47,0.22-0.7,0.34l7.16,20.71
								C293.91,216.81,294.16,216.75,294.42,216.69z"/>
						</g>
						<g>
							<path class="st5" d="M302.63,216.24l0.56-0.4c4.01-2.84,9.67-5.59,15.94-7.76c0.69-0.24,1.39-0.47,2.09-0.69l0.05-0.01
								l8.55,0.59l-0.58,0.22c-1.72,0.64-3.42,1.25-5.07,1.82c-7.04,2.44-14.06,4.48-20.87,6.07L302.63,216.24z M321.28,207.65
								c-0.69,0.22-1.38,0.45-2.06,0.68c-5.95,2.06-11.35,4.64-15.29,7.32c6.58-1.57,13.36-3.55,20.16-5.9
								c1.46-0.5,2.96-1.04,4.48-1.6L321.28,207.65z"/>
						</g>
						<g>
							<path class="st5" d="M293.94,191.1l0.62-0.29c6.34-2.95,13.12-5.68,20.16-8.12c1.63-0.57,3.35-1.14,5.11-1.7l0.59-0.19
								l-6.4,5.77c-0.69,0.26-1.39,0.51-2.07,0.75c-6.27,2.17-12.43,3.5-17.33,3.74L293.94,191.1z M319.32,181.44
								c-1.55,0.5-3.07,1.01-4.52,1.51c-6.8,2.35-13.35,4.98-19.49,7.81c4.76-0.33,10.6-1.63,16.55-3.69
								c0.68-0.23,1.36-0.48,2.04-0.74L319.32,181.44z"/>
						</g>
						<g>
							<path class="st0" d="M331.17,207.26l10.96-3.79c6.43-2.22,9.88-9.3,7.66-15.73l-1.16-3.36c-2.22-6.43-9.3-9.86-15.74-7.64
								l-10.96,3.79c2.52,4.02,4.59,8.34,6.13,12.84C329.63,197.86,330.67,202.54,331.17,207.26z"/>
							<path d="M331.06,207.44l-0.02-0.17c-0.51-4.76-1.54-9.42-3.11-13.85c-0.02-0.06-0.04-0.12-0.06-0.18
								c-1.52-4.38-3.55-8.63-6.05-12.64l-0.09-0.14l11.12-3.84c6.52-2.25,13.66,1.21,15.91,7.72l1.16,3.36
								c2.25,6.51-1.22,13.64-7.74,15.9L331.06,207.44z M348.51,184.42c-2.2-6.37-9.19-9.76-15.57-7.56l-10.8,3.73
								c2.47,3.98,4.49,8.2,5.99,12.55c0.04,0.12,0.08,0.24,0.12,0.35c1.5,4.35,2.53,8.91,3.04,13.57l10.8-3.73
								c6.38-2.21,9.78-9.19,7.58-15.56L348.51,184.42z"/>
						</g>
						<g>
							<path class="st0" d="M304.23,212.42c-1.25-6.77-3.48-13.21-6.68-19.31c-3.67,0.27-7.13,1.16-10.38,2.67l7.25,20.96
								C297.9,215.91,301.17,214.48,304.23,212.42z"/>
							<path d="M294.33,216.89l-7.32-21.18l0.11-0.05c3.25-1.5,6.75-2.41,10.42-2.68l0.09-0.01l0.04,0.08
								c3.19,6.08,5.44,12.59,6.69,19.35l0.02,0.09l-0.07,0.05c-3.05,2.05-6.37,3.51-9.85,4.33L294.33,216.89z M287.34,195.85
								l7.17,20.73c3.38-0.81,6.6-2.23,9.57-4.22c-1.24-6.67-3.46-13.1-6.61-19.11C293.91,193.53,290.5,194.4,287.34,195.85z"/>
						</g>
						<g>
							<path class="st6" d="M294.42,216.73l-7.25-20.96c-0.24,0.11-0.47,0.22-0.7,0.34l7.19,20.79
								C293.92,216.85,294.17,216.79,294.42,216.73z"/>
						</g>
						<g>
							<path class="st0" d="M286.47,196.12l-5.26,1.82c-0.5,3.04-0.08,7.04,1.35,11.17c1.43,4.13,3.58,7.53,5.84,9.62l5.26-1.82
								L286.47,196.12z"/>
							<path d="M282.43,209.15c-1.37-3.98-1.87-8.07-1.35-11.24l0.01-0.08l5.46-1.89l7.27,21.04l-5.46,1.89l-0.06-0.05
								C285.95,216.65,283.81,213.13,282.43,209.15z M281.33,198.04c-0.49,3.11,0,7.12,1.35,11.03c1.35,3.9,3.44,7.36,5.75,9.51
								l5.06-1.75l-7.1-20.53L281.33,198.04z"/>
						</g>
						<g>
							<path class="st6" d="M331.21,207.15l0.8,0.01c-0.61-9.69-3.86-19.07-9.36-27.07l-0.62,0.5
								C327.38,188.46,330.56,197.65,331.21,207.15z"/>
						</g>
						<g>
							<path class="st0" d="M322.19,180.96l-7.76,6.32l6.68,19.31l10.01,0.17C330.48,197.54,327.39,188.6,322.19,180.96z"/>
							<path d="M321.01,206.72l-6.74-19.49l7.95-6.47l0.08,0.12c5.22,7.67,8.31,16.62,8.95,25.87l0.01,0.15L321.01,206.72z
								 M314.59,187.32l6.62,19.13l9.77,0.17c-0.65-9.11-3.69-17.91-8.81-25.47L314.59,187.32z"/>
						</g>
						<g>
							<g>
								<path class="st5" d="M288.39,218.68l0.05,0.13c0.54,1.57,2.28,2.41,3.85,1.87l0.21-0.07
									C290.95,220.41,289.5,219.74,288.39,218.68z"/>
							</g>
							<g>
								<path class="st5" d="M281.23,197.97l-0.05-0.13c-0.54-1.57,0.3-3.3,1.87-3.85l0.21-0.07
									C282.17,195.03,281.46,196.46,281.23,197.97z"/>
							</g>
						</g>
						<g>
							<g>
								<path class="st0" d="M325.45,213.21c0.42-0.04,0.85-0.29,0.95-0.56l1.21-3.03c0.02-0.05,0.03-0.1,0.02-0.14l-1.88,0.65
									l-0.56,3.1L325.45,213.21z"/>
								<path class="st5" d="M325.04,213.39l0.6-3.36l2.11-0.73l0.02,0.16c0.01,0.07,0,0.14-0.03,0.21l-1.21,3.03
									c-0.12,0.31-0.59,0.59-1.07,0.64L325.04,213.39z M325.88,210.23l-0.51,2.85l0.08-0.01c0.4-0.04,0.77-0.28,0.84-0.47
									l1.16-2.91L325.88,210.23z"/>
							</g>
							<g>
								<path class="st0" d="M313.75,179.38c0.36-0.23,0.85-0.29,1.09-0.15l2.82,1.63c0.05,0.03,0.08,0.06,0.11,0.1l-1.88,0.65
									l-2.36-2.1L313.75,179.38z"/>
								<path class="st5" d="M313.32,179.5l0.37-0.23c0.4-0.25,0.94-0.32,1.23-0.15l2.82,1.63c0.07,0.04,0.12,0.09,0.15,0.15
									l0.08,0.14l-2.11,0.73L313.32,179.5z M317.5,180.92l-2.71-1.57c-0.18-0.1-0.61-0.07-0.96,0.15l-0.06,0.04l2.17,1.93
									L317.5,180.92z"/>
							</g>
						</g>
						<g>
							<g>
								<path class="st5" d="M335.7,198.43c4.21-1.45,7.65-3.48,9.39-5.35c-1.9,1.59-4.9,3.22-8.43,4.44
									c-1.71,0.59-3.37,1.03-4.92,1.32l0.23,0.66C333.17,199.23,334.42,198.87,335.7,198.43z"/>
							</g>
							<g>
								<path class="st5" d="M330.94,184.68c4.21-1.45,8.16-1.99,10.69-1.6c-2.48-0.08-5.84,0.49-9.37,1.71
									c-1.71,0.59-3.29,1.27-4.68,2l-0.23-0.66C328.46,185.61,329.66,185.12,330.94,184.68z"/>
							</g>
						</g>
						<g>
							
								<rect x="299.11" y="190.92" transform="matrix(0.3268 0.9451 -0.9451 0.3268 397.124 -157.8017)" class="st0" width="20.43" height="17.86"/>
							<path d="M304.14,212.59l-6.76-19.56l17.14-5.92l6.76,19.56L304.14,212.59z M297.72,193.2l6.59,19.06l16.63-5.75l-6.59-19.06
								L297.72,193.2z"/>
						</g>
					</g>
					<g>
						<g>
							<g>
								<path class="st0" d="M439.71,218.55c-4.62,0.54-9.23,0.54-13.85,0c-5.32-0.67-9.3-6.06-9.01-10.99
									c0.82-16.12,0.81-32.24-0.02-48.37c-0.28-4.68,3.5-9.79,8.55-10.47c4.94-0.62,9.88-0.62,14.82,0
									c5.05,0.68,8.82,5.79,8.55,10.47c-0.83,16.12-0.84,32.24-0.02,48.37C449,212.49,445.02,217.88,439.71,218.55z"/>
								<path class="st5" d="M432.78,219.14c-2.32,0-4.64-0.14-6.95-0.41c-5.19-0.65-9.48-5.87-9.17-11.17
									c0.81-16.04,0.8-32.3-0.02-48.35c-0.3-5.01,3.77-9.99,8.7-10.65c4.93-0.62,9.94-0.62,14.87,0c4.93,0.66,9,5.64,8.71,10.65
									c-0.83,16.04-0.84,32.31-0.02,48.35c0.31,5.3-3.97,10.52-9.17,11.17h0C437.42,219,435.1,219.14,432.78,219.14z
									 M432.78,148.45c-2.47,0-4.94,0.15-7.39,0.46c-4.76,0.64-8.68,5.44-8.39,10.28c0.83,16.06,0.84,32.34,0.02,48.39
									c-0.3,5.12,3.84,10.17,8.85,10.8c4.58,0.54,9.23,0.54,13.81,0c5.02-0.63,9.15-5.68,8.85-10.8
									c-0.81-16.05-0.81-32.33,0.02-48.39c0.28-4.84-3.64-9.64-8.39-10.28C437.72,148.61,435.25,148.45,432.78,148.45z"/>
							</g>
						</g>
						<g>
							<path class="st6" d="M443.83,209.48h-22.09c0.03,0.26,0.06,0.52,0.09,0.77h21.91C443.77,210,443.8,209.74,443.83,209.48z"/>
						</g>
						<g>
							<path class="st5" d="M446.08,201.57l-0.19-0.66c-1.37-4.72-2.12-10.97-2.12-17.6c0-0.73,0.01-1.47,0.03-2.2l0.01-0.05
								l3.35-7.88l0.02,0.62c0.04,1.83,0.07,3.64,0.07,5.39c0,7.45-0.36,14.76-1.08,21.71L446.08,201.57z M444.06,181.14
								c-0.02,0.73-0.03,1.46-0.03,2.17c0,6.3,0.68,12.24,1.92,16.85c0.67-6.73,1.01-13.79,1.01-20.98c0-1.54-0.02-3.14-0.05-4.76
								L444.06,181.14z"/>
						</g>
						<g>
							<path class="st5" d="M419.48,201.57l-0.07-0.68c-0.72-6.95-1.08-14.26-1.08-21.71c0-1.73,0.02-3.54,0.07-5.39l0.02-0.62
								l3.36,7.93c0.02,0.74,0.03,1.48,0.03,2.2c0,6.64-0.75,12.89-2.12,17.6L419.48,201.57z M418.65,174.42
								c-0.03,1.63-0.05,3.23-0.05,4.76c0,7.19,0.34,14.24,1.01,20.98c1.24-4.61,1.92-10.55,1.92-16.85c0-0.71-0.01-1.44-0.03-2.17
								L418.65,174.42z"/>
						</g>
						<g>
							<path class="st0" d="M446.92,171.66v-11.6c0-6.81-5.56-12.38-12.36-12.38H431c-6.8,0-12.36,5.57-12.36,12.38v11.6
								c4.62-1.06,9.38-1.61,14.14-1.6C437.54,170.05,442.29,170.6,446.92,171.66z"/>
							<path d="M447.05,171.83l-0.16-0.04c-4.66-1.07-9.4-1.62-14.11-1.59c-0.06,0-0.12,0-0.19,0c-4.64,0-9.32,0.54-13.92,1.59
								l-0.16,0.04v-11.77c0-6.9,5.61-12.51,12.5-12.51h3.55c6.89,0,12.5,5.61,12.5,12.51V171.83z M431,147.82
								c-6.74,0-12.23,5.49-12.23,12.24v11.43c4.57-1.04,9.21-1.56,13.82-1.56c0.12,0,0.25,0,0.37,0c4.6,0,9.25,0.53,13.82,1.56
								v-11.43c0-6.75-5.49-12.24-12.23-12.24H431z"/>
						</g>
						<g>
							<path class="st0" d="M443,198.81c-6.81-1.03-13.62-1.03-20.43,0c-0.94,3.56-1.23,7.12-0.87,10.68h22.17
								C444.23,205.93,443.94,202.37,443,198.81z"/>
							<path d="M443.99,209.63h-22.42l-0.01-0.12c-0.36-3.56-0.07-7.17,0.87-10.72l0.02-0.09l0.09-0.01
								c6.79-1.03,13.68-1.03,20.47,0l0.09,0.01l0.02,0.09c0.94,3.56,1.24,7.16,0.87,10.72L443.99,209.63z M421.81,209.36h21.93
								c0.34-3.46,0.05-6.97-0.86-10.42c-6.71-1-13.51-1-20.22,0C421.77,202.39,421.48,205.9,421.81,209.36z"/>
						</g>
						<g>
							<path class="st6" d="M443.87,209.49h-22.17c0.03,0.26,0.06,0.52,0.09,0.77h21.99C443.81,210.01,443.84,209.75,443.87,209.49z
								"/>
						</g>
						<g>
							<path class="st0" d="M421.78,210.27v5.57c2.71,1.46,6.63,2.38,11,2.38s8.29-0.92,11-2.38v-5.57H421.78z"/>
							<path d="M432.78,218.34c-4.21,0-8.24-0.87-11.06-2.39l-0.07-0.04v-5.78h22.26v5.78l-0.07,0.04
								C441.02,217.47,436.99,218.34,432.78,218.34z M421.92,215.75c2.78,1.48,6.73,2.32,10.86,2.32s8.08-0.85,10.86-2.32v-5.35
								h-21.72V215.75z"/>
						</g>
						<g>
							<path class="st6" d="M446.83,171.59l0.27-0.75c-9.35-2.59-19.29-2.59-28.64,0l0.27,0.75
								C427.92,169.1,437.64,169.1,446.83,171.59z"/>
						</g>
						<g>
							<path class="st0" d="M419.13,171.55l3.44,9.4h20.43l3.44-9.4C437.51,169.14,428.05,169.14,419.13,171.55z"/>
							<path d="M443.09,181.09h-20.62l-3.52-9.63l0.14-0.04c8.95-2.42,18.42-2.42,27.37,0l0.14,0.04L443.09,181.09z M422.66,180.82
								h20.24l3.35-9.18c-8.82-2.36-18.13-2.36-26.95,0L422.66,180.82z"/>
						</g>
						<g>
							<g>
								<path class="st5" d="M443.74,215.83h0.14c1.66,0,3.03-1.36,3.03-3.03v-0.22C446.21,213.98,445.1,215.12,443.74,215.83z"/>
							</g>
							<g>
								<path class="st5" d="M421.82,215.83h-0.14c-1.66,0-3.03-1.36-3.03-3.03v-0.22C419.35,213.98,420.46,215.12,421.82,215.83z"
									/>
							</g>
						</g>
						<g>
							<g>
								<path class="st0" d="M450.68,179.01c0.1-0.41,0-0.9-0.21-1.08L448,175.8c-0.04-0.04-0.09-0.06-0.13-0.07v1.99l2.75,1.54
									L450.68,179.01z"/>
								<path class="st5" d="M450.71,179.46l-2.98-1.67v-2.23l0.16,0.03c0.07,0.01,0.13,0.05,0.19,0.1l2.47,2.13
									c0.25,0.22,0.37,0.75,0.26,1.22L450.71,179.46z M448,177.64l2.53,1.42l0.02-0.07c0.09-0.39-0.02-0.82-0.17-0.95l-2.37-2.05
									V177.64z"/>
							</g>
							<g>
								<path class="st0" d="M414.88,179.01c-0.1-0.41,0-0.9,0.21-1.08l2.47-2.13c0.04-0.04,0.09-0.06,0.13-0.07v1.99l-2.75,1.54
									L414.88,179.01z"/>
								<path class="st5" d="M414.85,179.46l-0.1-0.42c-0.11-0.46,0-1,0.26-1.22l2.47-2.13c0.06-0.05,0.12-0.08,0.19-0.1l0.16-0.03
									v2.23L414.85,179.46z M417.56,175.98l-2.37,2.05c-0.16,0.13-0.26,0.56-0.17,0.95l0.02,0.07l2.53-1.42V175.98z"/>
							</g>
						</g>
						<g>
							<g>
								<path class="st5" d="M440.06,164.5c0-4.45-0.79-8.36-1.98-10.63c0.88,2.32,1.44,5.68,1.44,9.42c0,1.81-0.13,3.52-0.36,5.08
									h0.7C439.98,167.15,440.06,165.85,440.06,164.5z"/>
							</g>
							<g>
								<path class="st5" d="M425.5,164.5c0-4.45,0.79-8.36,1.98-10.63c-0.88,2.32-1.44,5.68-1.44,9.42c0,1.81,0.13,3.52,0.36,5.08
									h-0.7C425.57,167.15,425.5,165.85,425.5,164.5z"/>
							</g>
						</g>
						<g>
							<rect x="422.56" y="180.95" class="st0" width="20.43" height="17.86"/>
							<path d="M443.13,198.95h-20.7v-18.13h20.7V198.95z M422.7,198.68h20.16v-17.6H422.7V198.68z"/>
						</g>
					</g>
					<g>
						<g>
							<g>
								<path class="st0" d="M489.65,218.55c-4.62,0.54-9.23,0.54-13.85,0c-5.32-0.67-9.3-6.06-9.01-10.99
									c0.82-16.12,0.81-32.24-0.02-48.37c-0.28-4.68,3.5-9.79,8.55-10.47c4.94-0.62,9.88-0.62,14.82,0
									c5.05,0.68,8.82,5.79,8.55,10.47c-0.83,16.12-0.84,32.24-0.02,48.37C498.95,212.49,494.97,217.88,489.65,218.55z"/>
								<path class="st5" d="M482.72,219.14c-2.32,0-4.64-0.14-6.95-0.41c-5.19-0.65-9.48-5.87-9.17-11.17
									c0.81-16.04,0.8-32.3-0.02-48.35c-0.3-5.01,3.77-9.99,8.7-10.65c4.93-0.62,9.94-0.62,14.87,0c4.93,0.66,9,5.64,8.71,10.65
									c-0.83,16.04-0.84,32.31-0.02,48.35c0.31,5.3-3.97,10.52-9.17,11.17h0C487.36,219,485.04,219.14,482.72,219.14z
									 M482.72,148.45c-2.47,0-4.94,0.15-7.39,0.46c-4.76,0.64-8.68,5.44-8.39,10.28c0.83,16.06,0.84,32.34,0.02,48.39
									c-0.3,5.12,3.84,10.17,8.85,10.8c4.58,0.54,9.23,0.54,13.81,0c5.02-0.63,9.15-5.68,8.85-10.8
									c-0.81-16.05-0.81-32.33,0.02-48.39c0.28-4.84-3.64-9.64-8.39-10.28C487.66,148.61,485.19,148.45,482.72,148.45z"/>
							</g>
						</g>
						<g>
							<path class="st6" d="M493.77,209.48h-22.09c0.03,0.26,0.06,0.52,0.09,0.77h21.91C493.71,210,493.74,209.74,493.77,209.48z"/>
						</g>
						<g>
							<path class="st5" d="M496.02,201.57l-0.19-0.66c-1.37-4.72-2.12-10.97-2.12-17.6c0-0.73,0.01-1.47,0.03-2.2l0.01-0.05
								l3.35-7.88l0.01,0.62c0.04,1.83,0.07,3.64,0.07,5.39c0,7.45-0.36,14.76-1.08,21.71L496.02,201.57z M494,181.14
								c-0.02,0.73-0.03,1.46-0.03,2.17c0,6.3,0.68,12.24,1.92,16.85c0.67-6.73,1.01-13.79,1.01-20.98c0-1.54-0.02-3.14-0.05-4.76
								L494,181.14z"/>
						</g>
						<g>
							<path class="st5" d="M469.42,201.57l-0.07-0.68c-0.72-6.95-1.08-14.26-1.08-21.71c0-1.73,0.02-3.54,0.07-5.39l0.02-0.62
								l3.36,7.93c0.02,0.74,0.03,1.48,0.03,2.2c0,6.64-0.75,12.89-2.12,17.6L469.42,201.57z M468.59,174.42
								c-0.03,1.63-0.05,3.23-0.05,4.76c0,7.19,0.34,14.24,1.01,20.98c1.24-4.61,1.92-10.55,1.92-16.85c0-0.71-0.01-1.44-0.03-2.17
								L468.59,174.42z"/>
						</g>
						<g>
							<path class="st0" d="M496.86,171.66v-11.6c0-6.81-5.56-12.38-12.36-12.38h-3.55c-6.8,0-12.36,5.57-12.36,12.38v11.6
								c4.62-1.06,9.38-1.61,14.14-1.6C487.48,170.05,492.23,170.6,496.86,171.66z"/>
							<path d="M496.99,171.83l-0.16-0.04c-4.66-1.07-9.4-1.62-14.11-1.59c-0.06,0-0.12,0-0.19,0c-4.64,0-9.32,0.54-13.92,1.59
								l-0.16,0.04v-11.77c0-6.9,5.61-12.51,12.5-12.51h3.55c6.89,0,12.5,5.61,12.5,12.51V171.83z M480.95,147.82
								c-6.74,0-12.23,5.49-12.23,12.24v11.43c4.57-1.04,9.21-1.56,13.82-1.56c0.12,0,0.25,0,0.37,0c4.6,0,9.25,0.53,13.82,1.56
								v-11.43c0-6.75-5.49-12.24-12.23-12.24H480.95z"/>
						</g>
						<g>
							<path class="st0" d="M492.94,198.81c-6.81-1.03-13.62-1.03-20.43,0c-0.94,3.56-1.23,7.12-0.87,10.68h22.17
								C494.17,205.93,493.88,202.37,492.94,198.81z"/>
							<path d="M493.93,209.63h-22.42l-0.01-0.12c-0.36-3.56-0.07-7.17,0.87-10.72l0.02-0.09l0.09-0.01
								c6.79-1.03,13.68-1.03,20.47,0l0.09,0.01l0.02,0.09c0.94,3.56,1.24,7.16,0.87,10.72L493.93,209.63z M471.76,209.36h21.93
								c0.34-3.46,0.05-6.97-0.86-10.42c-6.71-1-13.51-1-20.22,0C471.71,202.39,471.42,205.9,471.76,209.36z"/>
						</g>
						<g>
							<path class="st6" d="M493.81,209.49h-22.17c0.03,0.26,0.06,0.52,0.09,0.77h21.99C493.75,210.01,493.78,209.75,493.81,209.49z
								"/>
						</g>
						<g>
							<path class="st0" d="M471.73,210.27v5.57c2.71,1.46,6.63,2.38,11,2.38s8.29-0.92,11-2.38v-5.57H471.73z"/>
							<path d="M482.72,218.34c-4.21,0-8.24-0.87-11.06-2.39l-0.07-0.04v-5.78h22.26v5.78l-0.07,0.04
								C490.96,217.47,486.93,218.34,482.72,218.34z M471.86,215.75c2.78,1.48,6.73,2.32,10.86,2.32s8.08-0.85,10.86-2.32v-5.35
								h-21.72V215.75z"/>
						</g>
						<g>
							<path class="st6" d="M496.77,171.59l0.27-0.75c-9.35-2.59-19.29-2.59-28.64,0l0.27,0.75
								C477.86,169.1,487.58,169.1,496.77,171.59z"/>
						</g>
						<g>
							<path class="st0" d="M469.07,171.55l3.44,9.4h20.43l3.44-9.4C487.45,169.14,478,169.14,469.07,171.55z"/>
							<path d="M493.03,181.09h-20.62l-3.52-9.63l0.14-0.04c8.95-2.42,18.42-2.42,27.37,0l0.14,0.04L493.03,181.09z M472.6,180.82
								h20.24l3.35-9.18c-8.82-2.36-18.13-2.36-26.95,0L472.6,180.82z"/>
						</g>
						<g>
							<g>
								<path class="st5" d="M493.68,215.83h0.14c1.66,0,3.03-1.36,3.03-3.03v-0.22C496.15,213.98,495.04,215.12,493.68,215.83z"/>
							</g>
							<g>
								<path class="st5" d="M471.77,215.83h-0.14c-1.66,0-3.03-1.36-3.03-3.03v-0.22C469.29,213.98,470.41,215.12,471.77,215.83z"
									/>
							</g>
						</g>
						<g>
							<g>
								<path class="st0" d="M500.62,179.01c0.1-0.41,0-0.9-0.21-1.08l-2.47-2.13c-0.04-0.04-0.09-0.06-0.13-0.07v1.99l2.75,1.54
									L500.62,179.01z"/>
								<path class="st5" d="M500.65,179.46l-2.98-1.67v-2.23l0.16,0.03c0.07,0.01,0.13,0.05,0.19,0.1l2.47,2.13
									c0.25,0.22,0.37,0.75,0.26,1.22L500.65,179.46z M497.94,177.64l2.53,1.42l0.02-0.07c0.09-0.39-0.02-0.82-0.17-0.95
									l-2.37-2.05V177.64z"/>
							</g>
							<g>
								<path class="st0" d="M464.82,179.01c-0.1-0.41,0-0.9,0.21-1.08l2.47-2.13c0.04-0.04,0.09-0.06,0.13-0.07v1.99l-2.75,1.54
									L464.82,179.01z"/>
								<path class="st5" d="M464.79,179.46l-0.1-0.42c-0.11-0.46,0-1,0.26-1.22l2.47-2.13c0.06-0.05,0.12-0.08,0.19-0.1l0.16-0.03
									v2.23L464.79,179.46z M467.5,175.98l-2.37,2.05c-0.16,0.13-0.26,0.56-0.17,0.95l0.02,0.07l2.53-1.42V175.98z"/>
							</g>
						</g>
						<g>
							<g>
								<path class="st5" d="M490,164.5c0-4.45-0.79-8.36-1.98-10.63c0.88,2.32,1.44,5.68,1.44,9.42c0,1.81-0.13,3.52-0.36,5.08h0.7
									C489.93,167.15,490,165.85,490,164.5z"/>
							</g>
							<g>
								<path class="st5" d="M475.44,164.5c0-4.45,0.79-8.36,1.98-10.63c-0.88,2.32-1.44,5.68-1.44,9.42c0,1.81,0.13,3.52,0.36,5.08
									h-0.7C475.52,167.15,475.44,165.85,475.44,164.5z"/>
							</g>
						</g>
						<g>
							<rect x="472.51" y="180.95" class="st0" width="20.43" height="17.86"/>
							<path d="M493.07,198.95h-20.7v-18.13h20.7V198.95z M472.64,198.68h20.16v-17.6h-20.16V198.68z"/>
						</g>
					</g>
					<line class="グラフィックスタイル" x1="151.74" y1="219.76" x2="201.56" y2="202.84"/>
					<line class="グラフィックスタイル" x1="142.92" y1="142.79" x2="471.9" y2="32.44"/>
					<line class="グラフィックスタイル_x0020_3" x1="595.52" y1="94.68" x2="595.52" y2="474.36"/>
					<g>
						<g>
							<path class="st24" d="M539.15,128.73v10.29h2.95v1.47h-2.95v3.75h-1.67v-3.75h-7.84v-1.45l7.42-10.31H539.15z M537.47,133.54
								c0-0.88,0.04-2.36,0.1-3.29h-0.08c-0.51,1.01-1.01,1.88-1.39,2.42l-4.53,6.35h5.9V133.54z"/>
							<path class="st24" d="M545.71,141.52v2.72h-2.72v-2.72H545.71z"/>
							<path class="st24" d="M558.08,128.82v1.54h-7.23l-0.59,5.4h0.08c0.89-0.84,2.13-1.29,3.56-1.29c3.03,0,5.1,2,5.1,4.87
								c0,3.03-2.3,5.17-5.56,5.17c-2.11,0-3.82-0.59-5.27-1.83l1.05-1.22c1.08,0.93,2.68,1.5,4.21,1.5c2.11,0,3.67-1.56,3.67-3.63
								c0-2.09-1.39-3.44-3.52-3.44c-1.39,0-2.85,0.68-3.5,1.64l-1.6-0.27l0.84-8.45H558.08z"/>
							<path class="st24" d="M569.84,136.53c-0.78,1.62-2.38,2.61-4.15,2.61c-2.87,0-4.97-2.13-4.97-5.06
								c0-1.45,0.57-2.87,1.56-3.92c1.03-1.08,2.28-1.62,3.81-1.62c3.41,0,5.56,2.7,5.56,6.98c0,5.96-2.53,8.68-8.58,9.25
								l-0.78-1.41c4.89-0.21,7.27-2.34,7.63-6.83H569.84z M562.54,133.92c0,2.23,1.37,3.77,3.39,3.77c1.01,0,2.05-0.51,2.7-1.33
								c0.61-0.76,0.95-1.66,0.95-2.42c0-0.99-0.42-2.11-1.07-2.87c-0.63-0.72-1.41-1.07-2.44-1.07
								C564.12,130,562.54,131.75,562.54,133.92z"/>
							<path class="st24" d="M584.72,136.53c0,4.95-2.19,7.99-5.71,7.99s-5.71-3.06-5.71-7.99c0-4.95,2.19-7.99,5.73-7.99
								C582.54,128.54,584.72,131.6,584.72,136.53z M575.17,136.53c0,4,1.47,6.47,3.86,6.47c2.36,0,3.82-2.47,3.82-6.47
								c0-4.03-1.47-6.49-3.86-6.49C576.64,130.04,575.17,132.53,575.17,136.53z"/>
						</g>
						<g>
							<path d="M539.15,128.73v10.29h2.95v1.47h-2.95v3.75h-1.67v-3.75h-7.84v-1.45l7.42-10.31H539.15z M537.47,133.54
								c0-0.88,0.04-2.36,0.1-3.29h-0.08c-0.51,1.01-1.01,1.88-1.39,2.42l-4.53,6.35h5.9V133.54z"/>
							<path d="M545.71,141.52v2.72h-2.72v-2.72H545.71z"/>
							<path d="M558.08,128.82v1.54h-7.23l-0.59,5.4h0.08c0.89-0.84,2.13-1.29,3.56-1.29c3.03,0,5.1,2,5.1,4.87
								c0,3.03-2.3,5.17-5.56,5.17c-2.11,0-3.82-0.59-5.27-1.83l1.05-1.22c1.08,0.93,2.68,1.5,4.21,1.5c2.11,0,3.67-1.56,3.67-3.63
								c0-2.09-1.39-3.44-3.52-3.44c-1.39,0-2.85,0.68-3.5,1.64l-1.6-0.27l0.84-8.45H558.08z"/>
							<path d="M569.84,136.53c-0.78,1.62-2.38,2.61-4.15,2.61c-2.87,0-4.97-2.13-4.97-5.06c0-1.45,0.57-2.87,1.56-3.92
								c1.03-1.08,2.28-1.62,3.81-1.62c3.41,0,5.56,2.7,5.56,6.98c0,5.96-2.53,8.68-8.58,9.25l-0.78-1.41
								c4.89-0.21,7.27-2.34,7.63-6.83H569.84z M562.54,133.92c0,2.23,1.37,3.77,3.39,3.77c1.01,0,2.05-0.51,2.7-1.33
								c0.61-0.76,0.95-1.66,0.95-2.42c0-0.99-0.42-2.11-1.07-2.87c-0.63-0.72-1.41-1.07-2.44-1.07
								C564.12,130,562.54,131.75,562.54,133.92z"/>
							<path d="M584.72,136.53c0,4.95-2.19,7.99-5.71,7.99s-5.71-3.06-5.71-7.99c0-4.95,2.19-7.99,5.73-7.99
								C582.54,128.54,584.72,131.6,584.72,136.53z M575.17,136.53c0,4,1.47,6.47,3.86,6.47c2.36,0,3.82-2.47,3.82-6.47
								c0-4.03-1.47-6.49-3.86-6.49C576.64,130.04,575.17,132.53,575.17,136.53z"/>
						</g>
					</g>
					<g>
						<g>
							<path class="st24" d="M443.93,54.91c1.64,0.24,2.95,1.29,3.61,2.93c1.04,2.57-0.09,5.38-2.63,6.41
								c-2.87,1.17-5.71,0-6.85-2.8c-0.72-1.76-0.56-3.45,0.47-5.02c0.89-1.35,1.98-2.2,3.81-2.95c1.78-0.72,4.26-0.74,6.36-0.06
								c2.03,0.65,3.8,1.93,5.41,3.86l-0.99,1.14c-2.75-3.07-6.05-4.36-9.22-3.59L443.93,54.91z M441.55,56.08
								c-1.87,0.76-2.85,2.94-2.12,4.74c0.74,1.82,2.73,2.57,4.68,1.77c1.96-0.79,2.77-2.63,2.01-4.51
								C445.42,56.35,443.24,55.39,441.55,56.08z"/>
							<path class="st24" d="M444.36,68.97l-2.52,1.02l-1.02-2.52l2.52-1.02L444.36,68.97z"/>
							<path class="st24" d="M454.07,79.6c-4.58,1.86-8.23,0.98-9.55-2.28c-1.33-3.26,0.69-6.44,5.26-8.3
								c4.58-1.86,8.23-0.98,9.56,2.3C460.65,74.57,458.63,77.75,454.07,79.6z M450.47,70.76c-3.7,1.5-5.44,3.79-4.54,6.01
								c0.89,2.19,3.73,2.61,7.43,1.11c3.74-1.52,5.46-3.8,4.56-6.02C457.03,69.67,454.17,69.25,450.47,70.76z"/>
							<path class="st24" d="M457.28,84.48c1.02,2.52,2.51,3.54,4.16,2.87c1.46-0.59,1.9-2.15,1.13-4.05
								c-0.58-1.43-1.39-2.21-2.94-2.83l0.56-1.44c1.66,0.6,3.07,2,3.78,3.74c1.15,2.84,0.46,5.42-1.69,6.29
								c-1.78,0.72-3.53-0.09-4.67-2.15l-0.07,0.03c0.86,2.63,0.09,4.67-2.08,5.55c-2.52,1.02-4.97-0.4-6.32-3.72
								c-0.87-2.15-0.9-4.03-0.05-5.83l1.46,0.62c-0.63,1.49-0.62,3.02,0.02,4.61c0.92,2.26,2.53,3.18,4.27,2.47
								c1.97-0.8,2.32-2.59,1.07-5.65l-0.47-1.15l1.34-0.54L457.28,84.48z"/>
							<path class="st24" d="M463.67,103.23c-4.58,1.86-8.23,0.98-9.55-2.28c-1.33-3.26,0.69-6.44,5.25-8.3
								c4.58-1.86,8.23-0.98,9.56,2.3C470.25,98.19,468.23,101.37,463.67,103.23z M460.07,94.38c-3.7,1.5-5.44,3.79-4.54,6.01
								c0.89,2.19,3.73,2.61,7.43,1.11c3.74-1.52,5.46-3.8,4.56-6.02C466.63,93.3,463.77,92.88,460.07,94.38z"/>
						</g>
						<g>
							<path d="M443.93,54.91c1.64,0.24,2.95,1.29,3.61,2.93c1.04,2.57-0.09,5.38-2.63,6.41c-2.87,1.17-5.71,0-6.85-2.8
								c-0.72-1.76-0.56-3.45,0.47-5.02c0.89-1.35,1.98-2.2,3.81-2.95c1.78-0.72,4.26-0.74,6.36-0.06c2.03,0.65,3.8,1.93,5.41,3.86
								l-0.99,1.14c-2.75-3.07-6.05-4.36-9.22-3.59L443.93,54.91z M441.55,56.08c-1.87,0.76-2.85,2.94-2.12,4.74
								c0.74,1.82,2.73,2.57,4.68,1.77c1.96-0.79,2.77-2.63,2.01-4.51C445.42,56.35,443.24,55.39,441.55,56.08z"/>
							<path d="M444.36,68.97l-2.52,1.02l-1.02-2.52l2.52-1.02L444.36,68.97z"/>
							<path d="M454.07,79.6c-4.58,1.86-8.23,0.98-9.55-2.28c-1.33-3.26,0.69-6.44,5.26-8.3c4.58-1.86,8.23-0.98,9.56,2.3
								C460.65,74.57,458.63,77.75,454.07,79.6z M450.47,70.76c-3.7,1.5-5.44,3.79-4.54,6.01c0.89,2.19,3.73,2.61,7.43,1.11
								c3.74-1.52,5.46-3.8,4.56-6.02C457.03,69.67,454.17,69.25,450.47,70.76z"/>
							<path d="M457.28,84.48c1.02,2.52,2.51,3.54,4.16,2.87c1.46-0.59,1.9-2.15,1.13-4.05c-0.58-1.43-1.39-2.21-2.94-2.83
								l0.56-1.44c1.66,0.6,3.07,2,3.78,3.74c1.15,2.84,0.46,5.42-1.69,6.29c-1.78,0.72-3.53-0.09-4.67-2.15l-0.07,0.03
								c0.86,2.63,0.09,4.67-2.08,5.55c-2.52,1.02-4.97-0.4-6.32-3.72c-0.87-2.15-0.9-4.03-0.05-5.83l1.46,0.62
								c-0.63,1.49-0.62,3.02,0.02,4.61c0.92,2.26,2.53,3.18,4.27,2.47c1.97-0.8,2.32-2.59,1.07-5.65l-0.47-1.15l1.34-0.54
								L457.28,84.48z"/>
							<path d="M463.67,103.23c-4.58,1.86-8.23,0.98-9.55-2.28c-1.33-3.26,0.69-6.44,5.25-8.3c4.58-1.86,8.23-0.98,9.56,2.3
								C470.25,98.19,468.23,101.37,463.67,103.23z M460.07,94.38c-3.7,1.5-5.44,3.79-4.54,6.01c0.89,2.19,3.73,2.61,7.43,1.11
								c3.74-1.52,5.46-3.8,4.56-6.02C466.63,93.3,463.77,92.88,460.07,94.38z"/>
						</g>
					</g>
					<polyline class="グラフィックスタイル_x0020_7" points="205.27,194.48 202.21,203.74 171.85,133 169.41,142.36 					
						"/>
					<g>
						<g>
							<path class="st24" d="M194.21,138.21c1.64,0.24,2.95,1.29,3.61,2.93c1.05,2.57-0.09,5.38-2.63,6.41
								c-2.87,1.17-5.71,0-6.85-2.8c-0.72-1.76-0.56-3.45,0.47-5.02c0.89-1.35,1.98-2.2,3.81-2.95c1.78-0.72,4.26-0.75,6.36-0.06
								c2.03,0.65,3.8,1.93,5.41,3.86l-0.99,1.14c-2.75-3.07-6.04-4.36-9.22-3.59L194.21,138.21z M191.84,139.39
								c-1.87,0.76-2.85,2.95-2.12,4.74c0.74,1.82,2.73,2.57,4.68,1.77c1.96-0.79,2.77-2.63,2.01-4.51
								C195.71,139.66,193.53,138.7,191.84,139.39z"/>
							<path class="st24" d="M194.65,152.27l-2.52,1.02l-1.02-2.52l2.52-1.02L194.65,152.27z"/>
							<path class="st24" d="M204.35,162.91c-4.58,1.86-8.23,0.98-9.55-2.28c-1.33-3.26,0.69-6.44,5.25-8.3
								c4.58-1.86,8.23-0.98,9.56,2.3C210.93,157.88,208.92,161.06,204.35,162.91z M200.76,154.06c-3.7,1.5-5.44,3.79-4.54,6.01
								c0.89,2.19,3.73,2.61,7.43,1.11c3.74-1.52,5.46-3.8,4.56-6.02C207.32,152.98,204.46,152.56,200.76,154.06z"/>
							<path class="st24" d="M199.2,166.71c2.07-0.31,4.59,0.48,7.14,2.21l0.49,0.34c2.61,1.82,3.65,2.15,4.94,1.63
								c1.45-0.59,1.93-2.18,1.19-4c-0.6-1.48-1.57-2.3-3.37-2.88l0.48-1.49c2.2,0.67,3.49,1.81,4.33,3.87
								c1.12,2.75,0.31,5.42-1.93,6.33c-1.78,0.72-2.89,0.37-6.18-1.97l-0.66-0.47c-2.23-1.54-4.28-2.25-5.61-1.89l3.36,8.27
								l-1.5,0.61l-4.06-10L199.2,166.71z"/>
							<path class="st24" d="M213.95,186.54c-4.58,1.86-8.23,0.98-9.55-2.28s0.69-6.44,5.25-8.3c4.58-1.86,8.23-0.98,9.56,2.3
								C220.53,181.5,218.52,184.68,213.95,186.54z M210.36,177.69c-3.7,1.5-5.44,3.79-4.54,6.01c0.89,2.19,3.73,2.61,7.43,1.11
								c3.74-1.52,5.46-3.8,4.56-6.02C216.92,176.6,214.06,176.18,210.36,177.69z"/>
						</g>
						<g>
							<path d="M194.21,138.21c1.64,0.24,2.95,1.29,3.61,2.93c1.05,2.57-0.09,5.38-2.63,6.41c-2.87,1.17-5.71,0-6.85-2.8
								c-0.72-1.76-0.56-3.45,0.47-5.02c0.89-1.35,1.98-2.2,3.81-2.95c1.78-0.72,4.26-0.75,6.36-0.06c2.03,0.65,3.8,1.93,5.41,3.86
								l-0.99,1.14c-2.75-3.07-6.04-4.36-9.22-3.59L194.21,138.21z M191.84,139.39c-1.87,0.76-2.85,2.95-2.12,4.74
								c0.74,1.82,2.73,2.57,4.68,1.77c1.96-0.79,2.77-2.63,2.01-4.51C195.71,139.66,193.53,138.7,191.84,139.39z"/>
							<path d="M194.65,152.27l-2.52,1.02l-1.02-2.52l2.52-1.02L194.65,152.27z"/>
							<path d="M204.35,162.91c-4.58,1.86-8.23,0.98-9.55-2.28c-1.33-3.26,0.69-6.44,5.25-8.3c4.58-1.86,8.23-0.98,9.56,2.3
								C210.93,157.88,208.92,161.06,204.35,162.91z M200.76,154.06c-3.7,1.5-5.44,3.79-4.54,6.01c0.89,2.19,3.73,2.61,7.43,1.11
								c3.74-1.52,5.46-3.8,4.56-6.02C207.32,152.98,204.46,152.56,200.76,154.06z"/>
							<path d="M199.2,166.71c2.07-0.31,4.59,0.48,7.14,2.21l0.49,0.34c2.61,1.82,3.65,2.15,4.94,1.63c1.45-0.59,1.93-2.18,1.19-4
								c-0.6-1.48-1.57-2.3-3.37-2.88l0.48-1.49c2.2,0.67,3.49,1.81,4.33,3.87c1.12,2.75,0.31,5.42-1.93,6.33
								c-1.78,0.72-2.89,0.37-6.18-1.97l-0.66-0.47c-2.23-1.54-4.28-2.25-5.61-1.89l3.36,8.27l-1.5,0.61l-4.06-10L199.2,166.71z"/>
							<path d="M213.95,186.54c-4.58,1.86-8.23,0.98-9.55-2.28s0.69-6.44,5.25-8.3c4.58-1.86,8.23-0.98,9.56,2.3
								C220.53,181.5,218.52,184.68,213.95,186.54z M210.36,177.69c-3.7,1.5-5.44,3.79-4.54,6.01c0.89,2.19,3.73,2.61,7.43,1.11
								c3.74-1.52,5.46-3.8,4.56-6.02C216.92,176.6,214.06,176.18,210.36,177.69z"/>
						</g>
					</g>
					<g>
						<g>
							<path class="st24" d="M539.15,437.83v10.29h2.95v1.47h-2.95v3.75h-1.67v-3.75h-7.84v-1.45l7.42-10.31H539.15z M537.47,442.65
								c0-0.88,0.04-2.36,0.1-3.29h-0.08c-0.51,1.01-1.01,1.88-1.39,2.42l-4.53,6.35h5.9V442.65z"/>
							<path class="st24" d="M545.71,450.62v2.72h-2.72v-2.72H545.71z"/>
							<path class="st24" d="M558.08,437.93v1.54h-7.23l-0.59,5.4h0.08c0.89-0.84,2.13-1.29,3.56-1.29c3.03,0,5.1,2,5.1,4.87
								c0,3.03-2.3,5.17-5.56,5.17c-2.11,0-3.82-0.59-5.27-1.83l1.05-1.22c1.08,0.93,2.68,1.5,4.21,1.5c2.11,0,3.67-1.56,3.67-3.63
								c0-2.09-1.39-3.44-3.52-3.44c-1.39,0-2.85,0.68-3.5,1.64l-1.6-0.27l0.84-8.45H558.08z"/>
							<path class="st24" d="M564.19,445.48c-2.06-0.82-3.14-2.11-3.14-3.77c0-2.36,2.19-4.07,5.19-4.07c2.97,0,5.14,1.67,5.14,3.94
								c0,1.08-0.48,2.05-1.31,2.68c-0.74,0.57-1.33,0.86-2.09,1.05v0.06c2.47,0.76,3.88,2.23,3.88,4.09c0,2.47-2.28,4.17-5.63,4.17
								c-3.39,0-5.61-1.62-5.61-4.09c0-1.85,1.27-3.27,3.58-4V445.48z M563.35,447.48c-0.53,0.44-0.86,1.14-0.86,1.88
								c0,1.71,1.45,2.8,3.75,2.8c2.19,0,3.69-1.18,3.69-2.87c0-0.72-0.32-1.37-0.95-1.9c-0.51-0.44-1.18-0.8-1.94-1.07
								c-0.27-0.09-0.89-0.27-0.93-0.27C564.99,446.34,564.31,446.7,563.35,447.48z M569.6,441.73c0-1.58-1.41-2.74-3.33-2.74
								c-1.98,0-3.35,1.12-3.35,2.74c0,0.8,0.25,1.35,0.78,1.79c0.34,0.27,0.78,0.53,1.24,0.76c0.4,0.17,1.26,0.46,1.33,0.44
								C568.3,444.26,569.6,443.1,569.6,441.73z"/>
							<path class="st24" d="M584.72,445.63c0,4.95-2.19,7.99-5.71,7.99s-5.71-3.06-5.71-7.99c0-4.95,2.19-7.99,5.73-7.99
								C582.54,437.64,584.72,440.71,584.72,445.63z M575.17,445.63c0,4,1.47,6.47,3.86,6.47c2.36,0,3.82-2.47,3.82-6.47
								c0-4.03-1.47-6.49-3.86-6.49C576.64,439.15,575.17,441.64,575.17,445.63z"/>
						</g>
						<g>
							<path d="M539.15,437.83v10.29h2.95v1.47h-2.95v3.75h-1.67v-3.75h-7.84v-1.45l7.42-10.31H539.15z M537.47,442.65
								c0-0.88,0.04-2.36,0.1-3.29h-0.08c-0.51,1.01-1.01,1.88-1.39,2.42l-4.53,6.35h5.9V442.65z"/>
							<path d="M545.71,450.62v2.72h-2.72v-2.72H545.71z"/>
							<path d="M558.08,437.93v1.54h-7.23l-0.59,5.4h0.08c0.89-0.84,2.13-1.29,3.56-1.29c3.03,0,5.1,2,5.1,4.87
								c0,3.03-2.3,5.17-5.56,5.17c-2.11,0-3.82-0.59-5.27-1.83l1.05-1.22c1.08,0.93,2.68,1.5,4.21,1.5c2.11,0,3.67-1.56,3.67-3.63
								c0-2.09-1.39-3.44-3.52-3.44c-1.39,0-2.85,0.68-3.5,1.64l-1.6-0.27l0.84-8.45H558.08z"/>
							<path d="M564.19,445.48c-2.06-0.82-3.14-2.11-3.14-3.77c0-2.36,2.19-4.07,5.19-4.07c2.97,0,5.14,1.67,5.14,3.94
								c0,1.08-0.48,2.05-1.31,2.68c-0.74,0.57-1.33,0.86-2.09,1.05v0.06c2.47,0.76,3.88,2.23,3.88,4.09c0,2.47-2.28,4.17-5.63,4.17
								c-3.39,0-5.61-1.62-5.61-4.09c0-1.85,1.27-3.27,3.58-4V445.48z M563.35,447.48c-0.53,0.44-0.86,1.14-0.86,1.88
								c0,1.71,1.45,2.8,3.75,2.8c2.19,0,3.69-1.18,3.69-2.87c0-0.72-0.32-1.37-0.95-1.9c-0.51-0.44-1.18-0.8-1.94-1.07
								c-0.27-0.09-0.89-0.27-0.93-0.27C564.99,446.34,564.31,446.7,563.35,447.48z M569.6,441.73c0-1.58-1.41-2.74-3.33-2.74
								c-1.98,0-3.35,1.12-3.35,2.74c0,0.8,0.25,1.35,0.78,1.79c0.34,0.27,0.78,0.53,1.24,0.76c0.4,0.17,1.26,0.46,1.33,0.44
								C568.3,444.26,569.6,443.1,569.6,441.73z"/>
							<path d="M584.72,445.63c0,4.95-2.19,7.99-5.71,7.99s-5.71-3.06-5.71-7.99c0-4.95,2.19-7.99,5.73-7.99
								C582.54,437.64,584.72,440.71,584.72,445.63z M575.17,445.63c0,4,1.47,6.47,3.86,6.47c2.36,0,3.82-2.47,3.82-6.47
								c0-4.03-1.47-6.49-3.86-6.49C576.64,439.15,575.17,441.64,575.17,445.63z"/>
						</g>
					</g>
					<g>
						<path d="M243.12,353.36c-1.77,0.79-5.24,1.85-7.65,2.36l-0.87-2.96c3.63-0.75,7.69-2.25,9.54-3.51h2.64v32.52h-3.67V353.36z"
							/>
						<path d="M266.45,366.29c-0.39,1.42-0.87,2.76-1.3,3.86h22.15c-0.32,4.81-1.1,9.1-2.09,11.27c-0.99,2.21-2.25,2.84-5.79,2.84
							c-2.09,0-4.89-0.12-6.82-0.28l-0.71-3c2.72,0.24,5.36,0.39,7.25,0.39c1.97,0,2.56-0.31,3.11-1.58c0.47-1.22,1.1-3.98,1.5-6.98
							h-19.67c-0.51,1.1-1.06,2.25-1.66,3.35l-3.19-0.91c1.42-2.52,2.72-5.52,3.9-8.99h-8.79v-2.68h37.44v2.68H266.45z
							 M285.92,360.03h-25.74v-11.19h25.74V360.03z M263.38,357.5h19.35v-6.07h-19.35V357.5z"/>
						<path d="M301.96,364.99c-1.26,4.02-2.88,7.65-4.77,10.68l-1.46-3.15c2.56-3.82,4.57-8.59,5.95-14.23h-5.4v-2.76h5.68v-8.43
							h2.92v8.43h4.1v2.76h-4.1v3.67c1.77,1.46,3.43,3.04,4.85,4.61l-1.66,2.64c-0.71-1.06-2.01-2.72-3.19-4.06v19.39h-2.92V364.99z
							 M323.95,370.47c2.52,3.63,5.83,6.54,10.05,8.91l-1.85,2.76c-4.14-2.6-7.8-6.23-10.17-10.09v12.49h-2.8v-12.26
							c-2.48,4.22-5.83,7.69-10.13,10.41l-1.97-2.4c4.3-2.4,7.73-5.64,10.33-9.81h-7.29v-14.03h9.06v-2.92h-11.11v-2.56h11.11v-3.86
							h2.8v3.86h11.35v2.56h-11.35v2.92h9.34v14.03H323.95z M312.92,358.84v3.35h6.27v-3.35H312.92z M312.92,364.6v3.43h6.27v-3.43
							H312.92z M321.98,362.19h6.58v-3.35h-6.58V362.19z M321.98,368.03h6.58v-3.43h-6.58V368.03z"/>
					</g>
					<g>
						<path d="M389.58,346.13c1.02-4.22,4.49-8.43,9.81-11.98l1.02-0.67c5.52-3.59,6.98-5.32,6.98-8.2c0-3.23-2.68-5.4-6.74-5.4
							c-3.31,0-5.64,1.22-8.16,4.22l-2.48-2.09c3-3.71,6.19-5.28,10.8-5.28c6.15,0,10.64,3.63,10.64,8.63
							c0,3.98-1.54,5.83-8.59,10.33l-1.42,0.91c-4.69,3.07-7.65,6.46-8,9.3h18.48v3.35h-22.35V346.13z"/>
						<path d="M427.38,333.75c-0.39,1.42-0.87,2.76-1.3,3.86h22.15c-0.32,4.81-1.1,9.1-2.09,11.27c-0.99,2.21-2.25,2.84-5.79,2.84
							c-2.09,0-4.89-0.12-6.82-0.28l-0.71-3c2.72,0.24,5.36,0.39,7.25,0.39c1.97,0,2.56-0.31,3.11-1.58c0.47-1.22,1.1-3.98,1.5-6.98
							h-19.67c-0.51,1.1-1.06,2.25-1.66,3.35l-3.19-0.91c1.42-2.52,2.72-5.52,3.9-8.99h-8.79v-2.68h37.44v2.68H427.38z
							 M446.85,327.49h-25.74v-11.19h25.74V327.49z M424.31,324.96h19.35v-6.07h-19.35V324.96z"/>
						<path d="M462.89,332.45c-1.26,4.02-2.88,7.65-4.77,10.68l-1.46-3.15c2.56-3.82,4.57-8.59,5.95-14.23h-5.4v-2.76h5.68v-8.43
							h2.92v8.43h4.1v2.76h-4.1v3.67c1.77,1.46,3.43,3.04,4.85,4.61l-1.66,2.64c-0.71-1.06-2.01-2.72-3.19-4.06V352h-2.92V332.45z
							 M484.89,337.93c2.52,3.63,5.83,6.54,10.05,8.91l-1.85,2.76c-4.14-2.6-7.8-6.23-10.17-10.09V352h-2.8v-12.26
							c-2.48,4.22-5.83,7.69-10.13,10.41l-1.97-2.4c4.3-2.4,7.73-5.64,10.33-9.81h-7.29V323.9h9.06v-2.92H469v-2.56h11.11v-3.86h2.8
							v3.86h11.35v2.56h-11.35v2.92h9.34v14.03H484.89z M473.85,326.3v3.35h6.27v-3.35H473.85z M473.85,332.06v3.43h6.27v-3.43
							H473.85z M482.92,329.65h6.58v-3.35h-6.58V329.65z M482.92,335.49h6.58v-3.43h-6.58V335.49z"/>
					</g>
				</g>
			</g>
			<g>
				<path d="M307.8,101.48l0.53,1.57l-9.57,3.23l0.94,2.79l7.38-2.49l2.93,8.68c0.43,1.26,0.01,1.91-1.53,2.43
					c-0.89,0.3-1.8,0.56-2.72,0.77l-0.84-1.56c1.14-0.21,1.99-0.43,2.71-0.67c0.57-0.19,0.66-0.34,0.48-0.87l-2.25-6.68l-5.64,1.9
					l3.99,11.82l-1.72,0.58l-3.98-11.82l-5.35,1.81l3.07,9.12l-1.72,0.58l-3.59-10.64l7.07-2.39l-0.94-2.79l-9.38,3.16l-0.53-1.57
					l9.38-3.16l-1.01-2.98l1.72-0.58l1.01,2.98L307.8,101.48z"/>
				<path d="M314.91,101.65c-1.51-1.11-3.06-2.04-4.42-2.63l0.86-1.4c1.64,0.68,3.15,1.51,4.46,2.45L314.91,101.65z M319.51,112.19
					c2.36,1.17,4.61,1.16,8.27-0.05l8.55-2.88c-0.06,0.55-0.06,1.11,0,1.72l-8.27,2.79c-3.82,1.24-6.18,1.23-8.69-0.03
					c-0.59,1.48-1.43,3.08-2.32,4.34l-1.48-1.22c0.82-0.96,1.68-2.21,2.44-3.61l-1.97-5.83l-3.22,1.09l-0.5-1.48l4.87-1.64
					L319.51,112.19z M316.65,99.78l-0.46-1.37l3.85-1.3c-0.6-0.57-1.33-1.13-2.1-1.62l1.33-1.1c1.03,0.74,1.72,1.36,2.47,2.15
					l2.83-0.95c0.16-0.9,0.27-2.22,0.28-3.13l1.87-0.14c-0.09,0.88-0.25,1.9-0.47,2.7l4.07-1.37l0.46,1.37l-6.29,2.12
					c0.02,0.41-0.02,1.44-0.06,2.03l5.46-1.84l3.74,11.1l-11.08,3.74l-3.74-11.1l4-1.35c0.02-0.81,0.02-1.46-0.04-2L316.65,99.78z
					 M321.51,103.76l7.83-2.64l-0.68-2l-7.83,2.64L321.51,103.76z M322.58,106.92l7.83-2.64l-0.67-1.98l-7.83,2.64L322.58,106.92z
					 M323.73,110.34l7.83-2.64l-0.73-2.18l-7.83,2.64L323.73,110.34z"/>
				<path d="M239.25,155.7c-1.19-0.81-2.95-1.7-4.45-2.28l0.75-1.51c1.47,0.48,3.16,1.26,4.49,2.1L239.25,155.7z M240.34,161.52
					c-1.49-0.9-3.09-1.67-4.52-2.21l0.75-1.59c1.55,0.5,3.19,1.25,4.56,2.1L240.34,161.52z M240.46,171.34
					c0.71-2.13,1.22-5.14,1.42-8.43l1.73,0.6c-0.15,3.08-0.62,6.22-1.33,8.64L240.46,171.34z M249.96,158.98l-0.01,0.05
					c-0.01,2.06-0.37,5.43-0.81,7.79l-0.02,0.23l1.57-0.67c1.57-0.67,3.94-1.76,5.79-2.68c-1.06-0.9-2.24-1.82-3.45-2.69l1.11-1.22
					c2.52,1.65,4.76,3.41,6.51,5.15l-1.21,1.5c-0.85-0.85-1.21-1.22-1.8-1.74l-0.2,0.12c-2.25,1.29-7.16,3.7-10.63,5.21l-1.15-1.53
					l0.86-0.34l0.25-0.11c0.04-0.01,0.3-0.12,0.57-0.24c0.45-2.48,0.76-5.59,0.78-8.31l-5.48,1.85l-0.49-1.46l6.64-2.24l-1.48-4.4
					l-5.46,1.84l-0.51-1.5l5.46-1.84l-1.18-3.5l1.7-0.57l1.18,3.5l5.79-1.95l0.51,1.5l-5.79,1.95l1.48,4.4l6.92-2.33l0.49,1.46
					l-7.92,2.67L249.96,158.98z"/>
				<path d="M268.26,142.16l3.97,11.77l3.37-1.14l0.56,1.67l-3.37,1.14l1.45,4.29l-1.92,0.65l-1.45-4.29l-8.97,3.02l-0.56-1.65
					l4.51-14.66L268.26,142.16z M268.2,148.31c-0.34-1-0.87-2.71-1.16-3.8l-0.09,0.03c-0.2,1.35-0.43,2.54-0.66,3.3l-2.73,9.01
					l6.75-2.28L268.2,148.31z"/>
				<path d="M281.83,155.42c-0.22-2.52,0.91-5.49,3.19-8.44l0.44-0.56c2.38-3.01,2.86-4.24,2.32-5.83c-0.6-1.78-2.48-2.48-4.73-1.72
					c-1.83,0.62-2.88,1.72-3.72,3.85l-1.76-0.69c0.96-2.6,2.43-4.07,4.98-4.93c3.4-1.14,6.55,0.02,7.48,2.78
					c0.74,2.2,0.24,3.51-2.82,7.3l-0.61,0.76c-2.02,2.57-3.02,4.99-2.69,6.63l10.21-3.44l0.62,1.85l-12.34,4.16L281.83,155.42z"/>
				<path d="M310,128.79c-0.64,1.98-1.88,4.2-3.47,6.23c2.33,0.38,5.03,0.32,9.14-0.22l-0.39,1.78c-3.32,0.42-7.07,0.37-9.91-0.13
					c-2.06,2.37-4.93,4.64-7.99,6.4l-1.33-1.05c3.11-1.7,5.93-3.82,7.68-5.76c-1.05-0.32-2.67-1.01-4.01-1.7
					c-0.9,1.37-1.81,2.48-3,3.61l-1.45-0.77c2.27-1.97,4.12-4.88,4.75-7.39l1.76-0.23c-0.16,0.61-0.21,0.73-0.38,1.24l7.44-2.51
					L310,128.79z M310.38,149.4l-1.68,0.56l-2.35-6.96c-1.14,3.15-3.44,6.39-6.41,8.95l-1.47-1.06c2.85-2.32,4.97-4.95,6.33-7.83
					l-7.96,2.69l-0.49-1.46l9.38-3.16l-0.8-2.37l1.68-0.56l0.8,2.37l9.53-3.21l0.49,1.46l-8.05,2.71c2.63,1.2,5.85,1.81,9.74,1.85
					l-0.55,1.88c-4.24-0.29-7.66-1.22-10.57-2.95L310.38,149.4z M300.7,132.53c-0.09,0.22-0.14,0.29-0.23,0.46
					c1.26,0.71,2.84,1.32,4.38,1.7c1.43-1.86,2.33-3.3,2.82-4.51L300.7,132.53z"/>
				<path d="M322.74,141.62c-0.22-2.52,0.91-5.49,3.19-8.44l0.44-0.56c2.38-3.01,2.86-4.24,2.33-5.83c-0.6-1.78-2.49-2.48-4.73-1.73
					c-1.83,0.62-2.88,1.72-3.72,3.85l-1.76-0.69c0.96-2.6,2.43-4.07,4.98-4.93c3.39-1.14,6.55,0.02,7.48,2.78
					c0.74,2.2,0.24,3.51-2.82,7.3l-0.61,0.76c-2.02,2.57-3.02,4.99-2.69,6.63l10.21-3.44l0.62,1.85l-12.34,4.16L322.74,141.62z"/>
				<path d="M342.58,130.86l0.12-0.09l0.07-0.07c0.72-0.53,1.61-1.27,2.14-1.76l0.7,1.49c-1.55,1.44-4.12,3.52-6.16,4.94l-1.17-1.47
					c1.11-0.74,1.27-0.84,2.33-1.58l0.47-0.33l-3.45-10.23l-2.83,0.95l-0.52-1.55l6.9-2.33l0.52,1.55l-2.37,0.8L342.58,130.86z
					 M353.68,116.92l3.91,11.6l-10.45,3.52l-3.91-11.6l3.4-1.14c0-0.8-0.06-1.63-0.16-2.42l-5.44,1.83l-0.48-1.44l13.45-4.54
					l0.48,1.44l-6.31,2.13c0.06,0.97,0.05,1.87,0.01,2.47L353.68,116.92z M345.29,121.22l0.71,2.11l7.2-2.43l-0.71-2.11
					L345.29,121.22z M346.05,136.04c1.49-1.25,2.81-2.94,3.56-4.54l1.63,0.45c-0.88,1.85-2.19,3.7-3.56,4.96L346.05,136.04z
					 M347.12,126.64l7.2-2.43l-0.68-2.02l-7.2,2.43L347.12,126.64z M348.3,130.14l7.2-2.43l-0.76-2.24l-7.2,2.43L348.3,130.14z
					 M359.43,132.84c-1.68-0.74-3.64-1.39-5.45-1.8l0.87-1.36c2.23,0.44,3.81,0.87,5.45,1.51L359.43,132.84z"/>
				<path d="M362.03,114.85c-1.51-1.11-3.06-2.04-4.42-2.63l0.86-1.41c1.64,0.69,3.15,1.51,4.46,2.45L362.03,114.85z M366.63,125.39
					c2.36,1.17,4.61,1.16,8.27-0.05l8.55-2.88c-0.06,0.55-0.06,1.11,0,1.72l-8.27,2.79c-3.82,1.24-6.18,1.23-8.69-0.03
					c-0.59,1.48-1.43,3.08-2.32,4.34l-1.48-1.22c0.82-0.96,1.68-2.21,2.44-3.61l-1.97-5.83l-3.22,1.09l-0.5-1.48l4.87-1.64
					L366.63,125.39z M363.77,112.98l-0.46-1.37l3.85-1.3c-0.6-0.57-1.33-1.13-2.1-1.62l1.32-1.1c1.03,0.74,1.72,1.36,2.47,2.15
					l2.83-0.95c0.16-0.9,0.27-2.22,0.28-3.13l1.87-0.14c-0.09,0.88-0.25,1.9-0.47,2.7l4.07-1.37l0.46,1.37l-6.29,2.12
					c0.02,0.41-0.02,1.44-0.06,2.03l5.46-1.84l3.74,11.1l-11.08,3.74l-3.74-11.1l4-1.35c0.02-0.81,0.02-1.46-0.04-2L363.77,112.98z
					 M368.63,116.96l7.83-2.64l-0.68-2l-7.83,2.64L368.63,116.96z M369.69,120.12l7.83-2.64l-0.67-1.98l-7.83,2.64L369.69,120.12z
					 M370.85,123.53l7.83-2.64l-0.73-2.18l-7.83,2.64L370.85,123.53z"/>
				<path d="M390.46,108.24l-2.81,0.95l1.16,3.44l2.83-0.95l0.48,1.44l-2.83,0.95l1.53,4.55c0.54-0.35,2.03-1.39,3-2.1l0.63,1.36
					c-2.28,1.79-5.11,3.74-7.75,5.33l-1.09-1.35l1.07-0.63l-2.86-8.49l1.48-0.5l2.75,8.16l0.5-0.31l0.48-0.31l0.42-0.26l-3.31-9.81
					l-3.18,1.07l-2.39-7.07l7.49-2.52L390.46,108.24z M384.05,108.83l4.4-1.48l-1.42-4.2l-4.4,1.48L384.05,108.83z M399.25,98.95
					c-0.14,2.3-0.62,4.4-1.43,6.32c1.77,0.73,3.82,1.21,6,1.34l-0.34,1.71c-2.25-0.21-4.48-0.79-6.35-1.64
					c-1.08,2.04-2.55,3.87-4.42,5.49l-1.33-1.05c1.75-1.29,3.24-3.11,4.32-5.17c-0.99-0.56-2.07-1.34-2.89-2.1l-0.05,0.14
					l-0.02,0.08c-0.32,0.91-0.76,1.83-1.25,2.63l-1.46-0.79c1.21-1.79,2.02-4.63,2.04-7.11l1.7-0.28c-0.05,0.65-0.06,0.84-0.1,1.27
					l4.22-1.42L399.25,98.95z M393.22,102.41c0.98,0.88,1.84,1.49,3.14,2.19c0.6-1.46,0.95-2.86,1.11-4.47l-4.05,1.37
					c-0.04,0.18-0.07,0.36-0.16,0.76L393.22,102.41z M405.37,117.37l-1.59,0.54l-0.43-1.28l-5.55,1.87l0.43,1.28l-1.59,0.54
					l-2.89-8.57l8.73-2.94L405.37,117.37z M397.31,117.06l5.55-1.87l-1.48-4.4l-5.55,1.87L397.31,117.06z"/>
			</g>
		</g>
	</g>
</g>
</svg>
