<?xml version="1.0" encoding="utf-8"?>
<!-- Generator: Adobe Illustrator 23.0.3, SVG Export Plug-In . SVG Version: 6.00 Build 0)  -->
<svg version="1.1" xmlns="http://www.w3.org/2000/svg" xmlns:xlink="http://www.w3.org/1999/xlink" x="0px" y="0px"
	 viewBox="0 0 700 500" style="enable-background:new 0 0 700 500;" xml:space="preserve">
<style type="text/css">
	.グラフィックスタイル{fill:none;stroke:#000000;stroke-width:2;stroke-miterlimit:10;}
	.グラフィックスタイル_x0020_2{fill:#D8EACC;stroke:#000000;stroke-width:2;}
	.グラフィックスタイル_x0020_4{fill:#FFFFFF;stroke:#000000;stroke-width:1.2664;stroke-miterlimit:10;}
	.グラフィックスタイル_x0020_7{fill:none;stroke:#000000;stroke-width:1.5;stroke-linejoin:bevel;stroke-miterlimit:10;}
	.グラフィックスタイル_x0020_8{fill:#FFFFFF;stroke:#000000;stroke-width:1.5;stroke-miterlimit:10;}
	.st0{fill:#FFFFFF;}
	.st1{fill:#D8EACC;stroke:#000000;stroke-width:2;}
	.st2{fill:none;stroke:#000000;stroke-width:1.4318;stroke-linecap:round;stroke-linejoin:round;}
	.st3{fill:none;stroke:#000000;stroke-width:1.8264;stroke-linecap:round;stroke-linejoin:round;}
	.st4{fill:#FFFFFF;stroke:#000000;stroke-width:2;stroke-miterlimit:10;}
	.st5{fill:#FFFFFF;stroke:#000000;stroke-width:1.2664;stroke-miterlimit:10;}
	.st6{fill:#030201;}
	.st7{fill:#242323;}
	.st8{fill:none;stroke:#000000;stroke-width:2;stroke-linejoin:round;stroke-miterlimit:10;}
	.st9{fill:none;stroke:#000000;stroke-width:2;stroke-miterlimit:10;}
	.st10{fill:none;stroke:#000000;stroke-width:2;stroke-linejoin:bevel;stroke-miterlimit:10;}
	.st11{fill:#E83589;}
	.st12{fill:none;stroke:#000000;stroke-width:2;stroke-miterlimit:10;stroke-dasharray:5.901,5.901;}
	.st13{fill:none;stroke:#000000;stroke-width:1.5;stroke-linejoin:bevel;stroke-miterlimit:10;}
	.st14{fill:#D8EACC;stroke:#000000;stroke-width:1.5;}
	.st15{fill:none;stroke:#000000;stroke-width:1.5;stroke-miterlimit:10;}
	.st16{fill:none;stroke:#000000;stroke-linejoin:bevel;stroke-miterlimit:10;}
	.st17{fill:#FFFFFF;stroke:#000000;stroke-width:1.5;stroke-miterlimit:10;}
	.st18{fill:#FFFFFF;stroke:#DE0000;stroke-width:2;stroke-miterlimit:10;}
	.st19{fill:#DE0000;}
	.st20{fill:none;stroke:#000000;stroke-miterlimit:10;}
	.st21{fill:none;stroke:#000000;stroke-miterlimit:10;stroke-dasharray:3.0312,3.0312;}
	.st22{fill:url(#);stroke:#000000;stroke-width:1.1494;}
	.st23{fill:#FFFFFF;stroke:#000000;stroke-miterlimit:10;}
	.st24{fill:none;stroke:#000000;stroke-width:3;stroke-miterlimit:10;stroke-dasharray:5;}
	.st25{fill:none;stroke:#FFFFFF;stroke-width:0.75;stroke-linejoin:round;}
	.st26{fill:none;stroke:#000000;stroke-miterlimit:10;stroke-dasharray:5;}
	.st27{fill:none;stroke:#FFFFFF;stroke-width:3;stroke-linejoin:round;}
	.st28{fill:none;stroke:#000000;stroke-width:1.3;stroke-linejoin:bevel;stroke-miterlimit:10;}
	.st29{fill:none;stroke:#000000;stroke-width:1.5;stroke-miterlimit:10;stroke-dasharray:5;}
	.st30{fill:none;stroke:#47738A;stroke-linejoin:bevel;stroke-miterlimit:10;}
	.st31{fill:none;}
	.st32{fill:none;stroke:#FFFFFF;stroke-width:5;stroke-linejoin:round;}
	.st33{fill:#D8EACC;}
	.st34{fill:#D8EACC;stroke:#000000;stroke-width:0.25;}
	.st35{fill:none;stroke:#000000;stroke-width:2;}
	.st36{fill:none;stroke:#FFFFFF;stroke-linejoin:round;}
	.st37{fill:none;stroke:#000000;stroke-width:1.9773;stroke-linecap:round;stroke-linejoin:round;}
	.st38{fill:none;stroke:#000000;stroke-width:2.5222;stroke-linecap:round;stroke-linejoin:round;}
	.st39{fill:#FFFFFF;stroke:#000000;stroke-width:1.0238;stroke-miterlimit:10;}
	.st40{fill:#FFFFFF;stroke:#000000;stroke-width:1.089;stroke-miterlimit:10;}
	.st41{fill:#FFFFFF;stroke:#000000;stroke-width:1.2553;stroke-miterlimit:10;}
	.st42{fill:url(#);}
	.st43{fill:none;stroke:#000000;stroke-width:1.7765;stroke-linejoin:bevel;stroke-miterlimit:10;}
	.st44{fill:none;stroke:#000000;stroke-width:2.3687;stroke-miterlimit:10;}
	.st45{fill:#D8EACC;stroke:#000000;stroke-width:2.0455;}
	.st46{fill:none;stroke:#000000;stroke-width:2.0455;stroke-linecap:round;stroke-miterlimit:10;stroke-dasharray:0,6.1366;}
	.st47{fill:#FFFFFF;stroke:#000000;stroke-width:2.3687;stroke-miterlimit:10;}
	.st48{fill:#FFFFFF;stroke:#000000;stroke-width:1.4998;stroke-miterlimit:10;}
	.st49{fill:#FFFFFF;stroke:#000000;stroke-width:0.6137;stroke-miterlimit:10;}
	.st50{fill:url(#);stroke:#000000;stroke-width:1.0228;}
	.st51{fill:none;stroke:#FFFFFF;stroke-width:4.0911;stroke-linejoin:round;}
	.st52{fill:none;stroke:#000000;stroke-width:2.4559;stroke-linecap:round;stroke-linejoin:round;}
	.st53{fill:none;stroke:#000000;stroke-width:3.1327;stroke-linecap:round;stroke-linejoin:round;}
	.st54{fill:none;stroke:#FFFFFF;stroke-width:4;stroke-linejoin:round;}
</style>
<g id="レイヤー_5">
	<rect x="-2806.06" y="-2032.14" class="st0" width="5667.56" height="5248"/>
</g>
<g id="レイヤー_1">
</g>
<g id="レイヤー_3">
</g>
<g id="レイヤー_4">
</g>
<g id="レイヤー_2">
	<g>
		<rect class="st0" width="700" height="500"/>
		<g>
			
				<rect x="115.24" y="88.5" transform="matrix(6.123234e-17 -1 1 6.123234e-17 -1.3707 271.1587)" class="st11" width="39.3" height="95.53"/>
			<g>
				<path class="st0" d="M104.36,142.11h15.55v2.09h-15.55v1.41h-2.32v-18.56h17.34v2.01h-15.01V142.11z M105.04,139.77
					c2.12-1.08,3.67-2.24,5.41-4.02c-1.33-1.12-3.09-2.38-4.83-3.53l1.41-1.58c1.72,1.08,3.21,2.14,4.85,3.4
					c1.02-1.35,1.85-2.72,2.7-4.44l2.09,1.02c-0.93,1.85-1.97,3.5-3.01,4.85c1.16,0.95,2.7,2.32,4.25,3.79l-1.64,1.72
					c-1.35-1.35-2.86-2.74-4.08-3.79c-1.74,1.85-3.55,3.19-5.76,4.36L105.04,139.77z"/>
				<path class="st0" d="M133.52,128.88h-8.69v-1.87h19.7v1.87h-8.81v1.99h4.44v10.35h-10.97v-10.35h4.33V128.88z M141.73,142.56
					v-11.7h2.12v14.74h-2.12v-1.14h-14.12v1.14h-2.09v-14.74h2.09v11.7H141.73z M131.16,132.57v2.51h2.45v-2.51H131.16z
					 M131.16,136.68v2.8h2.45v-2.8H131.16z M135.64,135.08h2.55v-2.51h-2.55V135.08z M135.64,139.48h2.55v-2.8h-2.55V139.48z"/>
				<path class="st0" d="M167.72,145.61h-2.26v-1.06h-13.44v1.06h-2.24v-18.75h17.94V145.61z M152.03,142.61h13.44v-13.85h-13.44
					V142.61z M163.53,141.71c-1.31-0.81-2.84-1.68-4.23-2.38c-1.51,1.27-3.34,2.28-5.37,3.01l-1.29-1.55
					c1.89-0.6,3.24-1.31,4.67-2.45l-0.54-0.25c-1.35-0.66-2.34-1.1-4.11-1.82l0.93-1.54c2.09,0.77,3.3,1.25,5.29,2.18
					c1.68-1.78,3.09-4.33,3.86-7.03l2.01,0.62c-0.85,2.63-2.38,5.5-3.94,7.34c0.1,0.06,0.1,0.06,0.19,0.1
					c1.04,0.52,2.18,1.14,3.75,2.07L163.53,141.71z M154.8,134.93c-0.48-1.62-1.04-2.99-1.66-4.06l1.91-0.77
					c0.66,1.16,1.22,2.49,1.72,4.04L154.8,134.93z M158.37,134.13c-0.5-1.58-1.06-2.92-1.68-4.09l1.82-0.73
					c0.75,1.33,1.39,2.8,1.72,4L158.37,134.13z"/>
			</g>
		</g>
		<polyline class="st2" points="120.43,193.48 120.43,181.74 127.34,193.48 127.34,181.74 		"/>
		<g>
			<circle class="st3" cx="132.87" cy="223.14" r="24.35"/>
			<polygon points="136.6,236.28 149.46,239.93 126.37,200.29 127.58,246.15 			"/>
		</g>
		<g>
			<g>
				<g>
					<path d="M281.54,393.08v1.43h-8.73v2.54h6.72v7.92c0,1.15-0.52,1.57-1.92,1.57c-0.81,0-1.63-0.04-2.44-0.12l-0.26-1.51
						c0.99,0.14,1.75,0.2,2.4,0.2c0.52,0,0.63-0.1,0.63-0.58v-6.09h-5.14v10.77h-1.57v-10.77h-4.88v8.31h-1.57v-9.7h6.45v-2.54
						h-8.55v-1.43h8.55v-2.72h1.57v2.72H281.54z"/>
					<path d="M288.16,405.09c1.61,1.61,3.45,2.22,6.78,2.24h7.8c-0.2,0.44-0.36,0.89-0.48,1.41h-7.54c-3.47-0.04-5.4-0.69-7.1-2.42
						c-0.89,1.05-2.02,2.12-3.09,2.92l-0.87-1.41c0.93-0.56,1.98-1.35,3-2.28v-5.32h-2.94v-1.35h4.44V405.09z M287.31,395.19
						c-0.93-1.33-1.94-2.52-2.9-3.37l1.09-0.91c1.15,1.01,2.16,2.1,2.98,3.23L287.31,395.19z M289.25,394.14v-1.25h3.51
						c-0.34-0.63-0.77-1.29-1.27-1.9l1.39-0.54c0.63,0.89,1.03,1.59,1.43,2.44h2.58c0.38-0.69,0.83-1.75,1.09-2.48l1.57,0.4
						c-0.32,0.69-0.73,1.49-1.13,2.08h3.71v1.25h-5.73c-0.1,0.34-0.42,1.17-0.61,1.65h4.98v10.12h-10.1v-10.12h3.65
						c0.24-0.65,0.42-1.19,0.52-1.65H289.25z M292.13,398.74h7.14v-1.83h-7.14V398.74z M292.13,401.61h7.14v-1.8h-7.14V401.61z
						 M292.13,404.73h7.14v-1.98h-7.14V404.73z"/>
					<path d="M212.17,423.7c-0.97-1.15-2.06-2.22-3.09-3.05l1.05-1.09c1.13,0.83,2.26,1.9,3.15,2.98L212.17,423.7z M209.55,431.77
						c1.17-1.55,2.42-3.87,3.49-6.51l1.25,0.97c-0.97,2.48-2.22,4.92-3.47,6.71L209.55,431.77z M212.88,418.64
						c-0.75-0.99-1.94-2.2-3.01-3.09l1.03-1.03c1.07,0.79,2.24,1.9,3.09,2.96L212.88,418.64z M220.74,424.27l-0.02,0.04
						c-0.58,1.69-1.81,4.34-2.82,6.15l-0.08,0.18l1.47-0.12c1.47-0.12,3.71-0.36,5.47-0.6c-0.61-1.03-1.33-2.1-2.08-3.15l1.25-0.69
						c1.61,2.04,2.96,4.11,3.91,6.01l-1.41,0.89c-0.46-0.93-0.66-1.33-0.99-1.92l-0.2,0.04c-2.2,0.44-6.88,1.05-10.14,1.33
						l-0.52-1.57l0.79-0.04l0.24-0.02c0.04,0,0.28-0.02,0.54-0.04c1.05-1.9,2.16-4.36,2.94-6.58h-5v-1.33h6.05v-4.01h-4.98v-1.37
						h4.98v-3.19h1.55v3.19h5.28v1.37h-5.28v4.01H228v1.33h-7.22L220.74,424.27z"/>
					<path d="M240.35,415.56v10.73h3.07v1.53h-3.07v3.91h-1.75v-3.91h-8.17v-1.51l7.74-10.75H240.35z M238.61,420.58
						c0-0.91,0.04-2.46,0.1-3.43h-0.08c-0.54,1.05-1.05,1.96-1.45,2.52l-4.72,6.63h6.15V420.58z"/>
					<path d="M247.79,430.16c0.52-2.12,2.26-4.25,4.94-6.03l0.52-0.34c2.78-1.81,3.51-2.68,3.51-4.13c0-1.63-1.35-2.72-3.39-2.72
						c-1.67,0-2.84,0.62-4.11,2.12l-1.25-1.05c1.51-1.87,3.11-2.66,5.44-2.66c3.09,0,5.36,1.83,5.36,4.34c0,2-0.77,2.94-4.32,5.2
						l-0.71,0.46c-2.36,1.55-3.85,3.25-4.03,4.68h9.3v1.69h-11.25V430.16z"/>
					<path d="M272.82,433.12h-1.53v-6.35c-1.81,2.26-4.58,4.28-7.72,5.55l-0.91-1.27c2.98-1.11,5.44-2.68,7.34-4.66h-7.26v-1.33
						h8.55v-2.16h1.53v2.16h8.69v1.33h-7.34c1.83,1.71,4.29,3.09,7.46,4.21l-0.97,1.39c-3.39-1.41-5.93-3.11-7.83-5.34V433.12z
						 M278.19,416.14c-1.07,1.45-2.7,2.92-4.56,4.15c1.8,0.95,4.03,1.65,7.54,2.34l-0.81,1.35c-2.84-0.58-5.89-1.65-8.07-2.84
						c-2.34,1.37-5.32,2.44-8.31,3.04l-0.79-1.23c3.02-0.54,5.91-1.49,7.88-2.6c-0.77-0.55-1.9-1.57-2.82-2.5
						c-1.11,0.87-2.16,1.53-3.45,2.12l-0.97-1.03c2.4-0.99,4.72-2.86,5.93-4.74l1.51,0.3c-0.3,0.46-0.38,0.54-0.65,0.91h6.78
						L278.19,416.14z M269.54,416.64c-0.14,0.16-0.2,0.2-0.32,0.32c0.83,0.93,1.96,1.86,3.11,2.6c1.69-1.13,2.82-2.06,3.55-2.92
						H269.54z"/>
					<path d="M290.36,417.43c-0.89,0.4-2.64,0.93-3.85,1.19l-0.44-1.49c1.82-0.38,3.87-1.13,4.8-1.77h1.33v16.37h-1.84V417.43z"/>
					<path d="M304.27,426.83l0.12-0.04l0.08-0.04c0.73-0.24,1.67-0.59,2.24-0.85l0.16,1.41c-1.67,0.75-4.34,1.75-6.41,2.34
						l-0.56-1.53c1.11-0.3,1.27-0.34,2.34-0.65l0.48-0.14V418h-2.58v-1.41h6.29V418h-2.16V426.83z M305.67,432.03
						c1.57-0.61,3.11-1.63,4.17-2.74l1.21,0.81c-1.23,1.27-2.82,2.42-4.28,3.08L305.67,432.03z M317.2,418.48v10.57h-9.52v-10.57
						h3.09c0.22-0.65,0.4-1.35,0.54-2.02h-4.96v-1.31h12.26v1.31h-5.75c-0.22,0.81-0.48,1.55-0.67,2.02H317.2z M309.15,419.69v1.92
						h6.57v-1.92H309.15z M309.15,424.63h6.57v-1.84h-6.57V424.63z M309.15,427.82h6.57v-2.04h-6.57V427.82z M317.52,433.1
						c-1.17-1.07-2.6-2.14-3.97-2.98l1.09-0.87c1.71,0.97,2.88,1.77,4.05,2.74L317.52,433.1z"/>
					<path d="M327.65,417.43c-0.89,0.4-2.64,0.93-3.85,1.19l-0.44-1.49c1.83-0.38,3.87-1.13,4.8-1.77h1.33v16.37h-1.84V417.43z"/>
					<path d="M343.35,423.94c-0.2,0.71-0.44,1.39-0.65,1.94h11.15c-0.16,2.42-0.55,4.58-1.05,5.67c-0.5,1.11-1.13,1.43-2.92,1.43
						c-1.05,0-2.46-0.06-3.43-0.14l-0.36-1.51c1.37,0.12,2.7,0.2,3.65,0.2c0.99,0,1.29-0.16,1.57-0.79c0.24-0.62,0.56-2,0.75-3.51
						h-9.9c-0.26,0.56-0.54,1.13-0.83,1.69l-1.61-0.46c0.71-1.27,1.37-2.78,1.96-4.52h-4.42v-1.35h18.84v1.35H343.35z
						 M353.15,420.78H340.2v-5.63h12.95V420.78z M341.81,419.51h9.74v-3.05h-9.74V419.51z"/>
				</g>
			</g>
			<line class="グラフィックスタイル" x1="568.77" y1="29.58" x2="568.77" y2="463.97"/>
			<polyline class="グラフィックスタイル" points="486.68,29.58 486.68,320.09 443.51,381.97 			"/>
			<line class="グラフィックスタイル" x1="167.81" y1="381.97" x2="443.51" y2="381.97"/>
			<polyline class="グラフィックスタイル" points="167.81,447.31 443.51,447.31 486.68,478.93 			"/>
			<g>
				<g>
					<path d="M548.15,204.36v1.43h-8.73v2.54h6.72v7.92c0,1.15-0.52,1.57-1.92,1.57c-0.81,0-1.63-0.04-2.44-0.12l-0.26-1.51
						c0.99,0.14,1.75,0.2,2.4,0.2c0.52,0,0.63-0.1,0.63-0.58v-6.09h-5.14v10.77h-1.57v-10.77h-4.88v8.31h-1.57v-9.7h6.45v-2.54
						h-8.55v-1.43h8.55v-2.72h1.57v2.72H548.15z"/>
					<path d="M533.75,237.38c1.61,1.61,3.45,2.22,6.78,2.24h7.8c-0.2,0.44-0.36,0.89-0.48,1.41h-7.54c-3.47-0.04-5.4-0.69-7.1-2.42
						c-0.89,1.05-2.02,2.12-3.09,2.92l-0.87-1.41c0.93-0.56,1.98-1.35,3-2.28v-5.32h-2.94v-1.35h4.44V237.38z M532.9,227.49
						c-0.93-1.33-1.94-2.52-2.9-3.37l1.09-0.91c1.15,1.01,2.16,2.1,2.98,3.23L532.9,227.49z M534.85,226.43v-1.25h3.51
						c-0.34-0.63-0.77-1.29-1.27-1.9l1.39-0.54c0.63,0.89,1.03,1.59,1.43,2.44h2.58c0.38-0.69,0.83-1.75,1.09-2.48l1.57,0.4
						c-0.32,0.69-0.73,1.49-1.13,2.08h3.71v1.25h-5.73c-0.1,0.34-0.42,1.17-0.61,1.65h4.98v10.12h-10.1v-10.12h3.65
						c0.24-0.65,0.42-1.19,0.52-1.65H534.85z M537.72,231.04h7.14v-1.83h-7.14V231.04z M537.72,233.91h7.14v-1.8h-7.14V233.91z
						 M537.72,237.03h7.14v-1.98h-7.14V237.03z"/>
					<path d="M508.42,159.9c-0.97-1.15-2.06-2.22-3.09-3.05l1.05-1.09c1.13,0.83,2.26,1.9,3.15,2.98L508.42,159.9z M505.8,167.98
						c1.17-1.55,2.42-3.87,3.49-6.51l1.25,0.97c-0.97,2.48-2.22,4.92-3.47,6.71L505.8,167.98z M509.13,154.84
						c-0.75-0.99-1.94-2.2-3.02-3.09l1.03-1.03c1.07,0.79,2.24,1.9,3.09,2.96L509.13,154.84z M516.99,160.48l-0.02,0.04
						c-0.58,1.69-1.8,4.34-2.82,6.15l-0.08,0.18l1.47-0.12c1.47-0.12,3.71-0.36,5.47-0.6c-0.62-1.03-1.33-2.1-2.08-3.15l1.25-0.69
						c1.61,2.04,2.96,4.11,3.91,6.01l-1.41,0.89c-0.46-0.93-0.65-1.33-0.99-1.92l-0.2,0.04c-2.2,0.44-6.88,1.05-10.14,1.33
						l-0.52-1.57l0.79-0.04l0.24-0.02c0.04,0,0.28-0.02,0.54-0.04c1.05-1.9,2.16-4.36,2.94-6.58h-5v-1.33h6.05v-4.01h-4.98v-1.37
						h4.98v-3.19h1.55v3.19h5.28v1.37h-5.28v4.01h6.31v1.33h-7.22L516.99,160.48z"/>
					<path d="M515.52,211.37h-1.53v-6.35c-1.8,2.26-4.58,4.28-7.72,5.55l-0.91-1.27c2.98-1.11,5.44-2.68,7.34-4.66h-7.26v-1.33h8.55
						v-2.16h1.53v2.16h8.69v1.33h-7.34c1.82,1.71,4.28,3.09,7.46,4.21l-0.97,1.39c-3.39-1.41-5.93-3.11-7.84-5.34V211.37z
						 M520.89,194.39c-1.07,1.45-2.7,2.92-4.56,4.15c1.81,0.95,4.03,1.65,7.54,2.34l-0.81,1.35c-2.84-0.58-5.89-1.65-8.07-2.84
						c-2.34,1.37-5.32,2.44-8.31,3.04l-0.79-1.23c3.01-0.54,5.91-1.49,7.88-2.6c-0.77-0.55-1.9-1.57-2.82-2.5
						c-1.11,0.87-2.16,1.53-3.45,2.12l-0.97-1.03c2.4-0.99,4.72-2.86,5.93-4.74l1.51,0.3c-0.3,0.46-0.38,0.54-0.66,0.91h6.78
						L520.89,194.39z M512.25,194.88c-0.14,0.16-0.2,0.2-0.32,0.32c0.83,0.93,1.96,1.86,3.11,2.6c1.69-1.13,2.82-2.06,3.55-2.92
						H512.25z"/>
					<path d="M514.35,216.2c-0.93,0.4-2.54,0.87-3.89,1.17l-0.4-1.43c1.83-0.44,3.87-1.19,4.78-1.77h1.29v16.37h-1.79V216.2z"/>
					<path d="M509.69,245.73l0.12-0.04l0.08-0.04c0.73-0.24,1.67-0.59,2.24-0.85l0.16,1.41c-1.67,0.75-4.34,1.75-6.41,2.34
						l-0.56-1.53c1.11-0.3,1.27-0.34,2.34-0.65l0.48-0.14v-9.32h-2.58v-1.41h6.29v1.41h-2.16V245.73z M511.1,250.93
						c1.57-0.62,3.11-1.63,4.17-2.74l1.21,0.81c-1.23,1.27-2.82,2.42-4.28,3.08L511.1,250.93z M522.62,237.38v10.57h-9.52v-10.57
						h3.09c0.22-0.65,0.4-1.35,0.54-2.02h-4.96v-1.31h12.26v1.31h-5.75c-0.22,0.81-0.48,1.55-0.67,2.02H522.62z M514.57,238.59v1.92
						h6.57v-1.92H514.57z M514.57,243.53h6.57v-1.84h-6.57V243.53z M514.57,246.72h6.57v-2.04h-6.57V246.72z M522.94,252
						c-1.17-1.07-2.6-2.14-3.97-2.97l1.09-0.87c1.71,0.97,2.88,1.77,4.05,2.74L522.94,252z"/>
					<path d="M514.35,256.85c-0.93,0.4-2.54,0.87-3.89,1.17l-0.4-1.43c1.83-0.44,3.87-1.19,4.78-1.77h1.29v16.37h-1.79V256.85z"/>
					<path d="M511.49,283.49c-0.2,0.71-0.44,1.39-0.65,1.94h11.15c-0.16,2.42-0.55,4.58-1.05,5.67c-0.5,1.11-1.13,1.43-2.92,1.43
						c-1.05,0-2.46-0.06-3.43-0.14l-0.36-1.51c1.37,0.12,2.7,0.2,3.65,0.2c0.99,0,1.29-0.16,1.57-0.79c0.24-0.62,0.56-2,0.75-3.51
						h-9.9c-0.26,0.56-0.54,1.13-0.83,1.69l-1.61-0.46c0.71-1.27,1.37-2.78,1.96-4.52h-4.42v-1.35h18.84v1.35H511.49z
						 M521.29,280.34h-12.95v-5.63h12.95V280.34z M509.94,279.07h9.74v-3.05h-9.74V279.07z"/>
				</g>
				<g>
					<path d="M511.18,172.94v10.73h3.08v1.53h-3.08v3.91h-1.75v-3.91h-8.17v-1.51l7.74-10.75H511.18z M509.43,177.96
						c0-0.91,0.04-2.46,0.1-3.43h-0.08c-0.54,1.05-1.05,1.96-1.45,2.52l-4.72,6.63h6.15V177.96z"/>
					<path d="M516.03,187.54c0.52-2.12,2.26-4.25,4.94-6.03l0.52-0.34c2.78-1.81,3.51-2.68,3.51-4.13c0-1.63-1.35-2.72-3.39-2.72
						c-1.67,0-2.84,0.62-4.11,2.12l-1.25-1.05c1.51-1.87,3.11-2.66,5.43-2.66c3.09,0,5.36,1.83,5.36,4.34c0,2-0.77,2.94-4.32,5.2
						l-0.71,0.46c-2.36,1.55-3.85,3.25-4.03,4.68h9.3v1.69h-11.25V187.54z"/>
				</g>
			</g>
			<polyline class="グラフィックスタイル_x0020_7" points="561.92,55.72 568.77,49.75 486.21,49.76 495.05,43 			"/>
			<g>
				<path d="M505.9,36.24c0.79-1.35,2.18-2.13,3.85-2.13c2.63,0,4.68,2,4.68,4.59c0,2.93-2.03,5.01-4.9,5.01
					c-1.8,0-3.22-0.74-4.23-2.2c-0.86-1.26-1.22-2.52-1.22-4.39c0-1.82,0.86-4,2.21-5.6c1.3-1.55,3.04-2.65,5.31-3.37l0.65,1.28
					c-3.67,1.31-5.98,3.75-6.43,6.81H505.9z M506.08,38.75c0,1.91,1.57,3.55,3.4,3.55c1.85,0,3.22-1.48,3.22-3.48
					c0-2-1.31-3.37-3.24-3.37C507.7,35.45,506.08,37.02,506.08,38.75z"/>
				<path d="M518.38,40.87v2.58h-2.58v-2.58H518.38z"/>
				<path d="M525.4,30.46c-0.81,0.36-2.39,0.85-3.49,1.08l-0.4-1.35c1.66-0.34,3.51-1.03,4.36-1.6h1.21v14.85h-1.67V30.46z"/>
				<path d="M543.36,28.86v1.21c-2.39,4.46-3.98,8.8-4.88,13.38h-1.69c0.61-3.44,2.52-8.77,4.68-13.14h-7.02v3.37h-1.57v-4.81
					H543.36z"/>
				<path d="M555.28,36.15c0,4.68-2.07,7.56-5.4,7.56s-5.4-2.9-5.4-7.56c0-4.68,2.07-7.56,5.42-7.56
					C553.21,28.59,555.28,31.49,555.28,36.15z M546.24,36.15c0,3.78,1.39,6.12,3.65,6.12c2.23,0,3.62-2.34,3.62-6.12
					c0-3.82-1.39-6.14-3.65-6.14C547.62,30.01,546.24,32.37,546.24,36.15z"/>
			</g>
			<polyline class="グラフィックスタイル_x0020_7" points="444.91,390.43 437.53,381.97 437.54,447.31 430.78,438.46 			
				"/>
			<g>
				<path d="M453.02,436.28h9.74v-2.79h1.39v2.79h3.55v1.58h-3.55v7.42h-1.37l-9.76-7.02V436.28z M457.57,437.87
					c-0.83,0-2.23-0.04-3.11-0.09v0.07c0.95,0.49,1.78,0.95,2.29,1.31l6.01,4.29v-5.58H457.57z"/>
				<path d="M465.12,430.08h2.57v2.57h-2.57V430.08z"/>
				<path d="M454.71,423.06c0.36,0.81,0.85,2.4,1.08,3.49l-1.35,0.4c-0.34-1.66-1.03-3.51-1.6-4.36v-1.21h14.85v1.67H454.71z"/>
				<path d="M453.02,407.79h9.74V405h1.39v2.79h3.55v1.58h-3.55v7.42h-1.37l-9.76-7.02V407.79z M457.57,409.38
					c-0.83,0-2.23-0.04-3.11-0.09v0.07c0.95,0.49,1.78,0.95,2.29,1.31l6.01,4.29v-5.58H457.57z"/>
				<path d="M460.4,393.17c4.68,0,7.56,2.07,7.56,5.4s-2.9,5.4-7.56,5.4c-4.68,0-7.56-2.07-7.56-5.42
					C452.84,395.25,455.74,393.17,460.4,393.17z M460.4,402.21c3.78,0,6.12-1.39,6.12-3.66c0-2.23-2.34-3.62-6.12-3.62
					c-3.82,0-6.14,1.39-6.14,3.66C454.26,400.83,456.62,402.21,460.4,402.21z"/>
			</g>
			<rect x="220.44" y="45.45" class="グラフィックスタイル_x0020_2" width="266.24" height="150.95"/>
			<polygon class="グラフィックスタイル_x0020_2" points="459.07,365.57 443.51,381.97 220.44,381.97 220.44,196.41 
				486.68,196.41 486.68,334.84 			"/>
			<polygon class="グラフィックスタイル_x0020_8" points="375.1,81.01 375.1,55.75 240.84,55.75 240.84,138.88 
				399.25,138.88 399.25,81.01 			"/>
			<g>
				<g>
					<g>
						<path class="st0" d="M456.09,145.6c-5.04,0.59-10.07,0.59-15.11,0c-5.8-0.73-10.14-6.61-9.83-11.98
							c0.89-17.59,0.88-35.17-0.03-52.76c-0.3-5.1,3.82-10.68,9.33-11.42c5.39-0.68,10.78-0.68,16.17,0
							c5.51,0.74,9.63,6.31,9.33,11.42c-0.91,17.59-0.92,35.17-0.03,52.76C466.23,138.99,461.89,144.87,456.09,145.6z"/>
						<path class="st6" d="M448.54,146.24c-2.53,0-5.06-0.15-7.58-0.44c-5.66-0.71-10.34-6.41-10-12.19
							c0.89-17.49,0.88-35.24-0.03-52.74c-0.32-5.47,4.11-10.9,9.49-11.62c5.38-0.68,10.84-0.68,16.22,0
							c5.38,0.72,9.82,6.15,9.5,11.62c-0.9,17.5-0.91,35.24-0.03,52.74c0.34,5.78-4.34,11.47-10,12.19h0
							C453.6,146.09,451.07,146.24,448.54,146.24z M448.54,69.13c-2.69,0-5.39,0.17-8.06,0.51c-5.19,0.69-9.47,5.93-9.16,11.21
							c0.9,17.51,0.91,35.27,0.03,52.78c-0.33,5.59,4.19,11.09,9.66,11.78c5,0.59,10.06,0.59,15.06,0
							c5.47-0.69,9.98-6.19,9.66-11.78c-0.89-17.51-0.88-35.27,0.03-52.78c0.31-5.28-3.97-10.52-9.16-11.21
							C453.92,69.3,451.23,69.13,448.54,69.13z"/>
					</g>
				</g>
				<g>
					<path class="st7" d="M460.59,135.7h-24.1c0.03,0.28,0.06,0.56,0.1,0.85h23.9C460.52,136.27,460.56,135.98,460.59,135.7z"/>
				</g>
				<g>
					<path class="st6" d="M463.04,127.08l-0.21-0.72c-1.49-5.14-2.32-11.96-2.32-19.2c0-0.79,0.01-1.6,0.03-2.4l0.01-0.05l3.65-8.6
						l0.02,0.68c0.05,2,0.07,3.97,0.07,5.88c0,8.13-0.4,16.1-1.18,23.68L463.04,127.08z M460.84,104.79
						c-0.02,0.79-0.03,1.59-0.03,2.37c0,6.87,0.74,13.35,2.1,18.38c0.73-7.34,1.1-15.04,1.1-22.88c0-1.68-0.02-3.43-0.06-5.19
						L460.84,104.79z"/>
				</g>
				<g>
					<path class="st6" d="M434.03,127.08l-0.08-0.74c-0.79-7.58-1.18-15.55-1.18-23.68c0-1.89,0.02-3.86,0.07-5.88l0.02-0.68
						l3.67,8.65c0.02,0.8,0.03,1.61,0.03,2.4c0,7.24-0.82,14.06-2.32,19.2L434.03,127.08z M433.12,97.46
						c-0.04,1.78-0.06,3.52-0.06,5.19c0,7.84,0.37,15.54,1.1,22.88c1.36-5.02,2.1-11.51,2.1-18.38c0-0.78-0.01-1.58-0.03-2.37
						L433.12,97.46z"/>
				</g>
				<g>
					<path class="st0" d="M463.96,94.45V81.8c0-7.43-6.07-13.5-13.48-13.5h-3.87c-7.42,0-13.48,6.08-13.48,13.5v12.65
						c5.04-1.16,10.23-1.76,15.42-1.74C453.72,92.69,458.91,93.29,463.96,94.45z"/>
					<path d="M464.1,94.63l-0.18-0.04c-5.09-1.17-10.26-1.77-15.39-1.74c-0.07,0-0.14,0-0.2,0c-5.06,0-10.17,0.58-15.19,1.74
						l-0.18,0.04V81.8c0-7.53,6.11-13.65,13.63-13.65h3.87c7.52,0,13.63,6.12,13.63,13.65V94.63z M446.6,68.44
						c-7.35,0-13.34,5.99-13.34,13.36v12.47c4.98-1.13,10.05-1.7,15.07-1.7c0.14,0,0.27,0,0.41,0c5.02,0,10.09,0.57,15.07,1.7V81.8
						c0-7.36-5.98-13.36-13.34-13.36H446.6z"/>
				</g>
				<g>
					<path class="st0" d="M459.68,124.07c-7.43-1.12-14.86-1.12-22.29,0c-1.03,3.88-1.34,7.76-0.95,11.65h24.19
						C461.02,131.83,460.71,127.95,459.68,124.07z"/>
					<path d="M460.76,135.86h-24.45l-0.01-0.13c-0.39-3.88-0.07-7.82,0.95-11.7l0.02-0.09l0.1-0.01c7.41-1.12,14.92-1.12,22.33,0
						l0.1,0.01l0.02,0.09c1.03,3.88,1.35,7.82,0.95,11.7L460.76,135.86z M436.57,135.57h23.92c0.37-3.77,0.05-7.6-0.93-11.37
						c-7.32-1.1-14.74-1.1-22.05,0C436.52,127.97,436.21,131.79,436.57,135.57z"/>
				</g>
				<g>
					<path class="st7" d="M460.63,135.71h-24.19c0.03,0.28,0.06,0.56,0.1,0.84h23.99C460.57,136.28,460.6,135.99,460.63,135.71z"/>
				</g>
				<g>
					<path class="st0" d="M436.54,136.56v6.07c2.95,1.59,7.23,2.59,12,2.59c4.76,0,9.04-1,12-2.59v-6.07H436.54z"/>
					<path d="M448.54,145.37c-4.59,0-8.99-0.95-12.06-2.61l-0.08-0.04v-6.31h24.28v6.31l-0.08,0.04
						C457.52,144.42,453.12,145.37,448.54,145.37z M436.69,142.54c3.03,1.61,7.34,2.54,11.85,2.54s8.82-0.92,11.85-2.54v-5.84h-23.7
						V142.54z"/>
				</g>
				<g>
					<path class="st7" d="M463.86,94.37l0.3-0.82c-10.2-2.82-21.04-2.82-31.24,0l0.3,0.82C443.23,91.66,453.84,91.66,463.86,94.37z"
						/>
				</g>
				<g>
					<path class="st0" d="M433.64,94.33l3.75,10.26h22.29l3.75-10.26C453.69,91.69,443.38,91.69,433.64,94.33z"/>
					<path d="M459.78,104.73h-22.49l-3.84-10.5l0.15-0.04c9.77-2.64,20.09-2.64,29.86,0l0.15,0.04L459.78,104.73z M437.49,104.44
						h22.08l3.66-10.01c-9.62-2.57-19.78-2.57-29.4,0L437.49,104.44z"/>
				</g>
				<g>
					<g>
						<path class="st6" d="M460.49,142.62h0.15c1.82,0,3.3-1.49,3.3-3.3v-0.24C463.18,140.61,461.97,141.85,460.49,142.62z"/>
					</g>
					<g>
						<path class="st6" d="M436.58,142.62h-0.15c-1.82,0-3.3-1.49-3.3-3.3v-0.24C433.89,140.61,435.1,141.85,436.58,142.62z"/>
					</g>
				</g>
				<g>
					<g>
						<path class="st0" d="M468.06,102.47c0.11-0.45,0-0.98-0.23-1.18l-2.69-2.32c-0.05-0.04-0.09-0.06-0.14-0.07v2.17l3,1.68
							L468.06,102.47z"/>
						<path class="st6" d="M468.09,102.96l-3.25-1.82v-2.43l0.17,0.03c0.07,0.01,0.14,0.05,0.21,0.11l2.69,2.32
							c0.28,0.24,0.4,0.82,0.28,1.33L468.09,102.96z M465.14,100.97l2.76,1.55l0.02-0.08c0.1-0.43-0.02-0.89-0.19-1.04l-2.59-2.24
							V100.97z"/>
					</g>
					<g>
						<path class="st0" d="M429.01,102.47c-0.11-0.45,0-0.98,0.23-1.18l2.69-2.32c0.05-0.04,0.09-0.06,0.14-0.07v2.17l-3,1.68
							L429.01,102.47z"/>
						<path class="st6" d="M428.98,102.96l-0.11-0.46c-0.12-0.51,0-1.09,0.28-1.33l2.69-2.32c0.06-0.06,0.13-0.09,0.21-0.11
							l0.17-0.03v2.43L428.98,102.96z M431.93,99.16l-2.59,2.24c-0.17,0.15-0.29,0.61-0.19,1.04l0.02,0.08l2.76-1.55V99.16z"/>
					</g>
				</g>
				<g>
					<g>
						<path class="st6" d="M456.47,86.64c0-4.85-0.86-9.12-2.16-11.59c0.97,2.53,1.57,6.19,1.57,10.27c0,1.97-0.14,3.84-0.4,5.54
							h0.76C456.39,89.53,456.47,88.11,456.47,86.64z"/>
					</g>
					<g>
						<path class="st6" d="M440.6,86.64c0-4.85,0.86-9.12,2.16-11.59c-0.97,2.53-1.57,6.19-1.57,10.27c0,1.97,0.14,3.84,0.4,5.54
							h-0.76C440.68,89.53,440.6,88.11,440.6,86.64z"/>
					</g>
				</g>
				<g>
					<rect x="437.39" y="104.59" class="st0" width="22.29" height="19.49"/>
					<path d="M459.83,124.22h-22.58v-19.78h22.58V124.22z M437.54,123.93h21.99v-19.19h-21.99V123.93z"/>
				</g>
			</g>
			<g>
				<g>
					<g>
						<path class="st0" d="M343.35,297.04c5.04-0.59,10.07-0.59,15.11,0c5.8,0.73,10.14,6.61,9.83,11.98
							c-0.89,17.59-0.88,35.17,0.03,52.76c0.3,5.1-3.82,10.68-9.33,11.42c-5.39,0.68-10.78,0.68-16.17,0
							c-5.51-0.74-9.63-6.31-9.33-11.42c0.91-17.59,0.92-35.17,0.03-52.76C333.21,303.65,337.55,297.77,343.35,297.04z"/>
						<path class="st6" d="M350.9,296.4c2.53,0,5.06,0.15,7.58,0.44c5.66,0.71,10.34,6.41,10,12.19
							c-0.89,17.49-0.88,35.24,0.03,52.74c0.32,5.47-4.11,10.9-9.49,11.62c-5.38,0.68-10.84,0.68-16.22,0
							c-5.38-0.72-9.82-6.15-9.5-11.62c0.9-17.5,0.91-35.24,0.03-52.74c-0.34-5.78,4.34-11.47,10-12.19h0
							C345.84,296.55,348.37,296.4,350.9,296.4z M350.9,373.51c2.69,0,5.39-0.17,8.06-0.51c5.19-0.69,9.47-5.93,9.16-11.21
							c-0.9-17.51-0.91-35.27-0.03-52.78c0.33-5.59-4.19-11.09-9.66-11.78c-5-0.59-10.06-0.59-15.06,0
							c-5.47,0.69-9.98,6.19-9.66,11.78c0.89,17.51,0.88,35.27-0.03,52.78c-0.31,5.28,3.97,10.52,9.16,11.21
							C345.52,373.34,348.21,373.51,350.9,373.51z"/>
					</g>
				</g>
				<g>
					<path class="st7" d="M338.85,306.93h24.1c-0.03-0.28-0.06-0.56-0.1-0.85h-23.9C338.92,306.37,338.88,306.65,338.85,306.93z"/>
				</g>
				<g>
					<path class="st6" d="M336.4,315.56l0.21,0.72c1.49,5.14,2.32,11.96,2.32,19.2c0,0.79-0.01,1.6-0.03,2.4l-0.01,0.05l-3.65,8.6
						l-0.02-0.68c-0.05-2-0.07-3.97-0.07-5.88c0-8.13,0.4-16.1,1.18-23.68L336.4,315.56z M338.6,337.85
						c0.02-0.79,0.03-1.59,0.03-2.37c0-6.87-0.74-13.35-2.1-18.38c-0.73,7.34-1.1,15.04-1.1,22.88c0,1.68,0.02,3.43,0.06,5.19
						L338.6,337.85z"/>
				</g>
				<g>
					<path class="st6" d="M365.41,315.56l0.08,0.74c0.79,7.58,1.18,15.55,1.18,23.68c0,1.89-0.02,3.86-0.07,5.88l-0.02,0.68
						l-3.67-8.65c-0.02-0.8-0.03-1.61-0.03-2.4c0-7.24,0.82-14.06,2.32-19.2L365.41,315.56z M366.32,345.18
						c0.04-1.78,0.06-3.52,0.06-5.19c0-7.84-0.37-15.54-1.1-22.88c-1.36,5.02-2.1,11.51-2.1,18.38c0,0.78,0.01,1.58,0.03,2.37
						L366.32,345.18z"/>
				</g>
				<g>
					<path class="st0" d="M335.48,348.19v12.65c0,7.43,6.07,13.5,13.48,13.5h3.87c7.42,0,13.48-6.08,13.48-13.5v-12.65
						c-5.04,1.16-10.23,1.76-15.42,1.74C345.72,349.95,340.53,349.35,335.48,348.19z"/>
					<path d="M335.34,348.01l0.18,0.04c5.09,1.17,10.26,1.77,15.39,1.74c0.07,0,0.14,0,0.2,0c5.06,0,10.17-0.58,15.19-1.74
						l0.18-0.04v12.83c0,7.53-6.11,13.65-13.63,13.65h-3.87c-7.52,0-13.63-6.12-13.63-13.65V348.01z M352.84,374.2
						c7.35,0,13.34-5.99,13.34-13.36v-12.47c-4.98,1.13-10.05,1.7-15.07,1.7c-0.14,0-0.27,0-0.41,0c-5.02,0-10.09-0.57-15.07-1.7
						v12.47c0,7.36,5.98,13.36,13.34,13.36H352.84z"/>
				</g>
				<g>
					<path class="st0" d="M339.76,318.57c7.43,1.12,14.86,1.12,22.29,0c1.03-3.88,1.34-7.76,0.95-11.65h-24.19
						C338.42,310.81,338.73,314.69,339.76,318.57z"/>
					<path d="M338.68,306.78h24.45l0.01,0.13c0.39,3.88,0.07,7.82-0.95,11.7l-0.02,0.09l-0.1,0.01c-7.41,1.12-14.92,1.12-22.33,0
						l-0.1-0.01l-0.02-0.09c-1.03-3.88-1.35-7.82-0.95-11.7L338.68,306.78z M362.87,307.07h-23.92c-0.37,3.77-0.05,7.6,0.93,11.37
						c7.32,1.1,14.74,1.1,22.05,0C362.92,314.67,363.23,310.84,362.87,307.07z"/>
				</g>
				<g>
					<path class="st7" d="M338.81,306.92H363c-0.03-0.28-0.06-0.56-0.1-0.84h-23.99C338.87,306.36,338.84,306.64,338.81,306.92z"/>
				</g>
				<g>
					<path class="st0" d="M362.9,306.08v-6.07c-2.95-1.59-7.23-2.59-12-2.59c-4.76,0-9.04,1-12,2.59v6.07H362.9z"/>
					<path d="M350.9,297.27c4.59,0,8.99,0.95,12.06,2.61l0.08,0.04v6.31h-24.28v-6.31l0.08-0.04
						C341.92,298.22,346.32,297.27,350.9,297.27z M362.75,300.1c-3.03-1.61-7.34-2.54-11.85-2.54c-4.5,0-8.82,0.92-11.85,2.54v5.84
						h23.7V300.1z"/>
				</g>
				<g>
					<path class="st7" d="M335.58,348.27l-0.3,0.82c10.2,2.82,21.04,2.82,31.24,0l-0.3-0.82
						C356.21,350.98,345.6,350.98,335.58,348.27z"/>
				</g>
				<g>
					<path class="st0" d="M365.8,348.31l-3.75-10.26h-22.29l-3.75,10.26C345.75,350.94,356.06,350.94,365.8,348.31z"/>
					<path d="M339.66,337.91h22.49l3.84,10.5l-0.15,0.04c-9.77,2.64-20.09,2.64-29.86,0l-0.15-0.04L339.66,337.91z M361.95,338.2
						h-22.08l-3.66,10.01c9.62,2.57,19.78,2.57,29.4,0L361.95,338.2z"/>
				</g>
				<g>
					<g>
						<path class="st6" d="M338.95,300.01h-0.15c-1.81,0-3.3,1.48-3.3,3.3v0.24C336.26,302.03,337.47,300.79,338.95,300.01z"/>
					</g>
					<g>
						<path class="st6" d="M362.86,300.01h0.15c1.81,0,3.3,1.48,3.3,3.3v0.24C365.55,302.03,364.34,300.79,362.86,300.01z"/>
					</g>
				</g>
				<g>
					<g>
						<path class="st0" d="M331.38,340.17c-0.11,0.45,0,0.98,0.23,1.18l2.69,2.32c0.05,0.04,0.09,0.06,0.14,0.07v-2.17l-3-1.68
							L331.38,340.17z"/>
						<path class="st6" d="M331.35,339.68l3.25,1.82v2.43l-0.17-0.03c-0.07-0.01-0.14-0.05-0.21-0.11l-2.69-2.32
							c-0.28-0.24-0.4-0.82-0.28-1.33L331.35,339.68z M334.3,341.67l-2.76-1.55l-0.02,0.08c-0.1,0.43,0.02,0.89,0.19,1.04l2.59,2.24
							V341.67z"/>
					</g>
					<g>
						<path class="st0" d="M370.43,340.17c0.11,0.45,0,0.98-0.23,1.18l-2.69,2.32c-0.05,0.04-0.09,0.06-0.14,0.07v-2.17l3-1.68
							L370.43,340.17z"/>
						<path class="st6" d="M370.46,339.68l0.11,0.46c0.12,0.51,0,1.09-0.28,1.33l-2.69,2.32c-0.06,0.06-0.13,0.09-0.21,0.11
							l-0.17,0.03v-2.43L370.46,339.68z M367.51,343.48l2.59-2.24c0.17-0.15,0.29-0.61,0.19-1.04l-0.02-0.08l-2.76,1.55V343.48z"/>
					</g>
				</g>
				<g>
					<g>
						<path class="st6" d="M342.97,356c0,4.85,0.86,9.12,2.16,11.59c-0.97-2.53-1.57-6.19-1.57-10.27c0-1.97,0.14-3.84,0.4-5.54
							h-0.76C343.05,353.11,342.97,354.53,342.97,356z"/>
					</g>
					<g>
						<path class="st6" d="M358.84,356c0,4.85-0.86,9.12-2.16,11.59c0.97-2.53,1.57-6.19,1.57-10.27c0-1.97-0.14-3.84-0.4-5.54h0.76
							C358.76,353.11,358.84,354.53,358.84,356z"/>
					</g>
				</g>
				<g>
					
						<rect x="339.76" y="318.57" transform="matrix(-1 -1.224647e-16 1.224647e-16 -1 701.8092 656.6175)" class="st0" width="22.29" height="19.49"/>
					<path d="M339.62,318.42h22.58v19.78h-22.58V318.42z M361.9,318.71h-21.99v19.19h21.99V318.71z"/>
				</g>
			</g>
			<g>
				<g>
					<g>
						<path class="st0" d="M392.48,297.04c5.04-0.59,10.07-0.59,15.11,0c5.8,0.73,10.14,6.61,9.83,11.98
							c-0.89,17.59-0.88,35.17,0.03,52.76c0.3,5.1-3.82,10.68-9.33,11.42c-5.39,0.68-10.78,0.68-16.17,0
							c-5.51-0.74-9.63-6.31-9.33-11.42c0.91-17.59,0.92-35.17,0.03-52.76C382.34,303.65,386.68,297.77,392.48,297.04z"/>
						<path class="st6" d="M400.03,296.4c2.53,0,5.06,0.15,7.58,0.44c5.66,0.71,10.34,6.41,10,12.19
							c-0.89,17.49-0.88,35.24,0.03,52.74c0.32,5.47-4.11,10.9-9.49,11.62c-5.38,0.68-10.84,0.68-16.22,0
							c-5.38-0.72-9.82-6.15-9.5-11.62c0.9-17.5,0.91-35.24,0.03-52.74c-0.34-5.78,4.34-11.47,10-12.19h0
							C394.97,296.55,397.5,296.4,400.03,296.4z M400.03,373.51c2.69,0,5.39-0.17,8.06-0.51c5.19-0.69,9.47-5.93,9.16-11.21
							c-0.9-17.51-0.91-35.27-0.03-52.78c0.33-5.59-4.19-11.09-9.66-11.78c-5-0.59-10.06-0.59-15.06,0
							c-5.47,0.69-9.98,6.19-9.66,11.78c0.89,17.51,0.88,35.27-0.03,52.78c-0.31,5.28,3.97,10.52,9.16,11.21
							C394.65,373.34,397.34,373.51,400.03,373.51z"/>
					</g>
				</g>
				<g>
					<path class="st7" d="M387.98,306.93h24.1c-0.03-0.28-0.06-0.56-0.1-0.85h-23.9C388.05,306.37,388.01,306.65,387.98,306.93z"/>
				</g>
				<g>
					<path class="st6" d="M385.53,315.56l0.21,0.72c1.49,5.14,2.32,11.96,2.32,19.2c0,0.79-0.01,1.6-0.03,2.4l-0.01,0.05l-3.65,8.6
						l-0.02-0.68c-0.05-2-0.07-3.97-0.07-5.88c0-8.13,0.4-16.1,1.18-23.68L385.53,315.56z M387.73,337.85
						c0.02-0.79,0.03-1.59,0.03-2.37c0-6.87-0.74-13.35-2.1-18.38c-0.73,7.34-1.1,15.04-1.1,22.88c0,1.68,0.02,3.43,0.06,5.19
						L387.73,337.85z"/>
				</g>
				<g>
					<path class="st6" d="M414.54,315.56l0.08,0.74c0.79,7.58,1.18,15.55,1.18,23.68c0,1.89-0.02,3.86-0.07,5.88l-0.02,0.68
						l-3.67-8.65c-0.02-0.8-0.03-1.61-0.03-2.4c0-7.24,0.82-14.06,2.32-19.2L414.54,315.56z M415.45,345.18
						c0.04-1.78,0.06-3.52,0.06-5.19c0-7.84-0.37-15.54-1.1-22.88c-1.36,5.02-2.1,11.51-2.1,18.38c0,0.78,0.01,1.58,0.03,2.37
						L415.45,345.18z"/>
				</g>
				<g>
					<path class="st0" d="M384.61,348.19v12.65c0,7.43,6.07,13.5,13.48,13.5h3.87c7.42,0,13.48-6.08,13.48-13.5v-12.65
						c-5.04,1.16-10.23,1.76-15.42,1.74C394.85,349.95,389.66,349.35,384.61,348.19z"/>
					<path d="M384.47,348.01l0.18,0.04c5.09,1.17,10.26,1.77,15.39,1.74c0.07,0,0.14,0,0.2,0c5.06,0,10.17-0.58,15.19-1.74
						l0.18-0.04v12.83c0,7.53-6.11,13.65-13.63,13.65h-3.87c-7.52,0-13.63-6.12-13.63-13.65V348.01z M401.97,374.2
						c7.35,0,13.34-5.99,13.34-13.36v-12.47c-4.98,1.13-10.05,1.7-15.07,1.7c-0.14,0-0.27,0-0.41,0c-5.02,0-10.09-0.57-15.07-1.7
						v12.47c0,7.36,5.98,13.36,13.34,13.36H401.97z"/>
				</g>
				<g>
					<path class="st0" d="M388.89,318.57c7.43,1.12,14.86,1.12,22.29,0c1.03-3.88,1.34-7.76,0.95-11.65h-24.19
						C387.55,310.81,387.86,314.69,388.89,318.57z"/>
					<path d="M387.81,306.78h24.45l0.01,0.13c0.39,3.88,0.07,7.82-0.95,11.7l-0.02,0.09l-0.1,0.01c-7.41,1.12-14.92,1.12-22.33,0
						l-0.1-0.01l-0.02-0.09c-1.03-3.88-1.35-7.82-0.95-11.7L387.81,306.78z M411.99,307.07h-23.92c-0.37,3.77-0.05,7.6,0.93,11.37
						c7.32,1.1,14.74,1.1,22.05,0C412.05,314.67,412.36,310.84,411.99,307.07z"/>
				</g>
				<g>
					<path class="st7" d="M387.94,306.92h24.19c-0.03-0.28-0.06-0.56-0.1-0.84h-23.99C388,306.36,387.97,306.64,387.94,306.92z"/>
				</g>
				<g>
					<path class="st0" d="M412.03,306.08v-6.07c-2.95-1.59-7.23-2.59-12-2.59c-4.76,0-9.04,1-12,2.59v6.07H412.03z"/>
					<path d="M400.03,297.27c4.59,0,8.99,0.95,12.06,2.61l0.08,0.04v6.31h-24.28v-6.31l0.08-0.04
						C391.05,298.22,395.44,297.27,400.03,297.27z M411.88,300.1c-3.03-1.61-7.34-2.54-11.85-2.54s-8.82,0.92-11.85,2.54v5.84h23.7
						V300.1z"/>
				</g>
				<g>
					<path class="st7" d="M384.71,348.27l-0.3,0.82c10.2,2.82,21.04,2.82,31.24,0l-0.3-0.82
						C405.34,350.98,394.73,350.98,384.71,348.27z"/>
				</g>
				<g>
					<path class="st0" d="M414.93,348.31l-3.75-10.26h-22.29l-3.75,10.26C394.88,350.94,405.19,350.94,414.93,348.31z"/>
					<path d="M388.79,337.91h22.49l3.84,10.5l-0.15,0.04c-9.77,2.64-20.09,2.64-29.86,0l-0.15-0.04L388.79,337.91z M411.07,338.2
						h-22.08l-3.66,10.01c9.62,2.57,19.78,2.57,29.4,0L411.07,338.2z"/>
				</g>
				<g>
					<g>
						<path class="st6" d="M388.08,300.01h-0.15c-1.82,0-3.3,1.48-3.3,3.3v0.24C385.39,302.03,386.6,300.79,388.08,300.01z"/>
					</g>
					<g>
						<path class="st6" d="M411.98,300.01h0.15c1.82,0,3.3,1.48,3.3,3.3v0.24C414.68,302.03,413.47,300.79,411.98,300.01z"/>
					</g>
				</g>
				<g>
					<g>
						<path class="st0" d="M380.51,340.17c-0.11,0.45,0,0.98,0.23,1.18l2.69,2.32c0.05,0.04,0.09,0.06,0.14,0.07v-2.17l-3-1.68
							L380.51,340.17z"/>
						<path class="st6" d="M380.48,339.68l3.25,1.82v2.43l-0.17-0.03c-0.07-0.01-0.14-0.05-0.21-0.11l-2.69-2.32
							c-0.28-0.24-0.4-0.82-0.28-1.33L380.48,339.68z M383.43,341.67l-2.76-1.55l-0.02,0.08c-0.1,0.43,0.02,0.89,0.19,1.04
							l2.59,2.24V341.67z"/>
					</g>
					<g>
						<path class="st0" d="M419.56,340.17c0.11,0.45,0,0.98-0.23,1.18l-2.69,2.32c-0.05,0.04-0.09,0.06-0.14,0.07v-2.17l3-1.68
							L419.56,340.17z"/>
						<path class="st6" d="M419.59,339.68l0.11,0.46c0.12,0.51,0,1.09-0.28,1.33l-2.69,2.32c-0.06,0.06-0.13,0.09-0.21,0.11
							l-0.17,0.03v-2.43L419.59,339.68z M416.64,343.48l2.59-2.24c0.17-0.15,0.29-0.61,0.19-1.04l-0.02-0.08l-2.76,1.55V343.48z"/>
					</g>
				</g>
				<g>
					<g>
						<path class="st6" d="M392.1,356c0,4.85,0.86,9.12,2.16,11.59c-0.97-2.53-1.57-6.19-1.57-10.27c0-1.97,0.14-3.84,0.4-5.54
							h-0.76C392.18,353.11,392.1,354.53,392.1,356z"/>
					</g>
					<g>
						<path class="st6" d="M407.97,356c0,4.85-0.86,9.12-2.16,11.59c0.97-2.53,1.57-6.19,1.57-10.27c0-1.97-0.14-3.84-0.4-5.54h0.76
							C407.89,353.11,407.97,354.53,407.97,356z"/>
					</g>
				</g>
				<g>
					
						<rect x="388.89" y="318.57" transform="matrix(-1 -1.224647e-16 1.224647e-16 -1 800.0677 656.6175)" class="st0" width="22.29" height="19.49"/>
					<path d="M388.74,318.42h22.58v19.78h-22.58V318.42z M411.03,318.71h-21.99v19.19h21.99V318.71z"/>
				</g>
			</g>
			<g>
				<g>
					<g>
						<path class="st0" d="M341.74,175.85c-0.59-5.04-0.59-10.07,0-15.11c0.73-5.8,6.61-10.14,11.98-9.83
							c17.59,0.89,35.17,0.88,52.76-0.03c5.1-0.3,10.68,3.82,11.42,9.33c0.68,5.39,0.68,10.78,0,16.17
							c-0.74,5.51-6.31,9.63-11.42,9.33c-17.59-0.91-35.17-0.92-52.76-0.03C348.35,185.99,342.47,181.65,341.74,175.85z"/>
						<path class="st6" d="M341.1,168.3c0-2.53,0.15-5.06,0.44-7.58c0.71-5.66,6.41-10.34,12.19-10
							c17.49,0.89,35.24,0.88,52.74-0.03c5.47-0.32,10.9,4.11,11.62,9.49c0.68,5.38,0.68,10.84,0,16.22
							c-0.72,5.38-6.15,9.82-11.62,9.5c-17.5-0.9-35.24-0.91-52.74-0.03c-5.78,0.34-11.47-4.34-12.19-10v0
							C341.25,173.36,341.1,170.83,341.1,168.3z M418.21,168.3c0-2.69-0.17-5.39-0.51-8.06c-0.69-5.19-5.93-9.47-11.21-9.16
							c-17.51,0.9-35.27,0.91-52.78,0.03c-5.59-0.33-11.09,4.19-11.78,9.66c-0.59,5-0.59,10.06,0,15.06
							c0.69,5.47,6.19,9.98,11.78,9.66c17.51-0.89,35.27-0.88,52.78,0.03c5.28,0.31,10.52-3.97,11.21-9.16
							C418.04,173.68,418.21,170.99,418.21,168.3z"/>
					</g>
				</g>
				<g>
					<path class="st7" d="M351.64,180.35v-24.1c-0.28,0.03-0.56,0.06-0.85,0.1v23.9C351.07,180.29,351.35,180.32,351.64,180.35z"/>
				</g>
				<g>
					<path class="st6" d="M360.26,182.8l0.72-0.21c5.14-1.49,11.96-2.32,19.2-2.32c0.79,0,1.6,0.01,2.4,0.03l0.05,0.01l8.6,3.65
						l-0.68,0.02c-2,0.05-3.97,0.07-5.88,0.07c-8.13,0-16.1-0.4-23.68-1.18L360.26,182.8z M382.55,180.6
						c-0.79-0.02-1.59-0.03-2.37-0.03c-6.87,0-13.35,0.74-18.38,2.1c7.34,0.73,15.04,1.1,22.88,1.1c1.68,0,3.43-0.02,5.19-0.06
						L382.55,180.6z"/>
				</g>
				<g>
					<path class="st6" d="M360.26,153.79l0.74-0.08c7.58-0.79,15.55-1.18,23.68-1.18c1.89,0,3.86,0.02,5.88,0.07l0.68,0.02
						l-8.65,3.67c-0.8,0.02-1.61,0.03-2.4,0.03c-7.24,0-14.06-0.82-19.2-2.32L360.26,153.79z M389.88,152.88
						c-1.78-0.04-3.52-0.06-5.19-0.06c-7.84,0-15.54,0.37-22.88,1.1c5.02,1.36,11.51,2.1,18.38,2.1c0.78,0,1.58-0.01,2.37-0.03
						L389.88,152.88z"/>
				</g>
				<g>
					<path class="st0" d="M392.89,183.72h12.65c7.43,0,13.5-6.07,13.5-13.48v-3.87c0-7.42-6.08-13.48-13.5-13.48h-12.65
						c1.16,5.04,1.76,10.23,1.74,15.42C394.65,173.49,394.05,178.67,392.89,183.72z"/>
					<path d="M392.71,183.87l0.04-0.18c1.17-5.09,1.77-10.26,1.74-15.39c0-0.07,0-0.14,0-0.2c0-5.06-0.58-10.17-1.74-15.19
						l-0.04-0.18h12.83c7.53,0,13.65,6.11,13.65,13.63v3.87c0,7.52-6.12,13.63-13.65,13.63H392.71z M418.9,166.36
						c0-7.35-5.99-13.34-13.36-13.34h-12.47c1.13,4.98,1.7,10.05,1.7,15.07c0,0.14,0,0.27,0,0.41c0,5.02-0.57,10.09-1.7,15.07h12.47
						c7.36,0,13.36-5.98,13.36-13.34V166.36z"/>
				</g>
				<g>
					<path class="st0" d="M363.27,179.44c1.12-7.43,1.12-14.86,0-22.29c-3.88-1.03-7.76-1.34-11.65-0.95v24.19
						C355.51,180.78,359.39,180.47,363.27,179.44z"/>
					<path d="M351.48,180.52v-24.45l0.13-0.01c3.88-0.39,7.82-0.07,11.7,0.95l0.09,0.02l0.01,0.1c1.12,7.41,1.12,14.92,0,22.33
						l-0.01,0.1l-0.09,0.02c-3.88,1.03-7.82,1.35-11.7,0.95L351.48,180.52z M351.77,156.34v23.92c3.77,0.37,7.6,0.05,11.37-0.93
						c1.1-7.32,1.1-14.74,0-22.05C359.37,156.28,355.55,155.97,351.77,156.34z"/>
				</g>
				<g>
					<path class="st7" d="M351.63,180.39V156.2c-0.28,0.03-0.56,0.06-0.84,0.1v23.99C351.06,180.33,351.35,180.36,351.63,180.39z"/>
				</g>
				<g>
					<path class="st0" d="M350.78,156.3h-6.07c-1.59,2.95-2.59,7.23-2.59,12s1,9.04,2.59,12h6.07V156.3z"/>
					<path d="M341.97,168.3c0-4.59,0.95-8.99,2.61-12.06l0.04-0.08h6.31v24.28h-6.31l-0.04-0.08
						C342.92,177.28,341.97,172.89,341.97,168.3z M344.8,156.45c-1.61,3.03-2.54,7.34-2.54,11.85c0,4.5,0.92,8.82,2.54,11.85h5.84
						v-23.7H344.8z"/>
				</g>
				<g>
					<path class="st7" d="M392.97,183.62l0.82,0.3c2.82-10.2,2.82-21.04,0-31.24l-0.82,0.3
						C395.68,162.99,395.68,173.6,392.97,183.62z"/>
				</g>
				<g>
					<path class="st0" d="M393.01,153.41l-10.26,3.75v22.29l10.26,3.75C395.65,173.45,395.65,163.14,393.01,153.41z"/>
					<path d="M382.61,179.54v-22.49l10.5-3.84l0.04,0.15c2.64,9.77,2.64,20.09,0,29.86l-0.04,0.15L382.61,179.54z M382.9,157.26
						v22.08l10.01,3.66c2.57-9.62,2.57-19.78,0-29.4L382.9,157.26z"/>
				</g>
				<g>
					<g>
						<path class="st6" d="M344.72,180.25v0.15c0,1.81,1.48,3.3,3.3,3.3h0.24C346.73,182.94,345.49,181.73,344.72,180.25z"/>
					</g>
					<g>
						<path class="st6" d="M344.72,156.35v-0.15c0-1.81,1.48-3.3,3.3-3.3h0.24C346.73,153.65,345.49,154.86,344.72,156.35z"/>
					</g>
				</g>
				<g>
					<g>
						<path class="st0" d="M384.87,187.82c0.45,0.11,0.98,0,1.18-0.23l2.32-2.69c0.04-0.05,0.06-0.09,0.07-0.14h-2.17l-1.68,3
							L384.87,187.82z"/>
						<path class="st6" d="M384.38,187.85l1.82-3.25h2.43l-0.03,0.17c-0.01,0.07-0.05,0.14-0.11,0.21l-2.32,2.69
							c-0.24,0.28-0.82,0.4-1.33,0.28L384.38,187.85z M386.37,184.9l-1.55,2.76l0.08,0.02c0.43,0.1,0.89-0.02,1.04-0.19l2.24-2.59
							H386.37z"/>
					</g>
					<g>
						<path class="st0" d="M384.87,148.77c0.45-0.11,0.98,0,1.18,0.23l2.32,2.69c0.04,0.05,0.06,0.09,0.07,0.14h-2.17l-1.68-3
							L384.87,148.77z"/>
						<path class="st6" d="M384.38,148.74l0.46-0.11c0.51-0.12,1.09,0,1.33,0.28l2.32,2.69c0.06,0.06,0.09,0.13,0.11,0.21l0.03,0.17
							h-2.43L384.38,148.74z M388.18,151.69l-2.24-2.59c-0.15-0.17-0.61-0.29-1.04-0.19l-0.08,0.02l1.55,2.76H388.18z"/>
					</g>
				</g>
				<g>
					<g>
						<path class="st6" d="M400.7,176.24c4.85,0,9.12-0.86,11.59-2.16c-2.53,0.97-6.19,1.57-10.27,1.57c-1.97,0-3.84-0.14-5.54-0.4
							v0.76C397.81,176.16,399.23,176.24,400.7,176.24z"/>
					</g>
					<g>
						<path class="st6" d="M400.7,160.36c4.85,0,9.12,0.86,11.59,2.16c-2.53-0.97-6.19-1.57-10.27-1.57c-1.97,0-3.84,0.14-5.54,0.4
							v-0.76C397.81,160.44,399.23,160.36,400.7,160.36z"/>
					</g>
				</g>
				<g>
					
						<rect x="361.87" y="158.55" transform="matrix(-1.836970e-16 1 -1 -1.836970e-16 541.3088 -204.714)" class="st0" width="22.29" height="19.49"/>
					<path d="M363.12,179.59v-22.58h19.78v22.58H363.12z M363.41,157.3v21.99h19.19V157.3H363.41z"/>
				</g>
			</g>
			<polygon class="グラフィックスタイル_x0020_8" points="386.18,241.16 404.39,241.16 404.39,213.54 240.84,213.54 
				240.84,323.7 306.41,323.7 306.41,285.19 375.45,285.19 375.45,267.72 386.18,267.72 			"/>
			<g>
				
					<rect x="394.61" y="251.55" transform="matrix(-1.836970e-16 1 -1 -1.836970e-16 662.5117 -153.4535)" class="グラフィックスタイル_x0020_4" width="26.74" height="5.95"/>
				
					<rect x="400.47" y="251.55" transform="matrix(-1.836970e-16 1 -1 -1.836970e-16 668.3759 -159.3177)" class="グラフィックスタイル_x0020_4" width="26.74" height="5.95"/>
				
					<rect x="388.66" y="251.55" transform="matrix(-1.836970e-16 1 -1 -1.836970e-16 656.5625 -147.5043)" class="グラフィックスタイル_x0020_4" width="26.74" height="5.95"/>
				
					<rect x="379.2" y="248.04" transform="matrix(-1.836970e-16 1 -1 -1.836970e-16 647.1027 -138.0444)" class="グラフィックスタイル_x0020_4" width="26.74" height="12.97"/>
				<polygon points="388.92,254.53 394.44,258.49 394.44,250.57 				"/>
			</g>
			<g>
				
					<rect x="384.7" y="65.29" transform="matrix(-1.836970e-16 1 -1 -1.836970e-16 465.4698 -328.9469)" class="グラフィックスタイル_x0020_4" width="25.02" height="5.95"/>
				
					<rect x="390.56" y="65.29" transform="matrix(-1.836970e-16 1 -1 -1.836970e-16 471.334 -334.8111)" class="グラフィックスタイル_x0020_4" width="25.02" height="5.95"/>
				
					<rect x="378.75" y="65.29" transform="matrix(-1.836970e-16 1 -1 -1.836970e-16 459.5206 -322.9977)" class="グラフィックスタイル_x0020_4" width="25.02" height="5.95"/>
				
					<rect x="369.29" y="61.78" transform="matrix(-1.836970e-16 1 -1 -1.836970e-16 450.0608 -313.5379)" class="グラフィックスタイル_x0020_4" width="25.02" height="12.97"/>
				<polygon points="378.31,68.26 383.58,72.04 383.58,64.48 				"/>
			</g>
			<g>
				<path d="M271.6,260.31c0.83-3.44,3.66-6.87,8-9.76l0.83-0.55c4.5-2.92,5.69-4.34,5.69-6.68c0-2.63-2.18-4.4-5.49-4.4
					c-2.7,0-4.59,1-6.65,3.44l-2.02-1.7c2.44-3.02,5.04-4.3,8.8-4.3c5.01,0,8.67,2.95,8.67,7.03c0,3.24-1.25,4.75-7,8.42l-1.16,0.74
					c-3.82,2.51-6.23,5.27-6.52,7.58h15.06v2.73H271.6V260.31z"/>
				<path d="M304.65,250.22c-0.32,1.16-0.71,2.25-1.06,3.15h18.05c-0.26,3.92-0.9,7.42-1.7,9.19c-0.8,1.8-1.83,2.31-4.72,2.31
					c-1.7,0-3.98-0.1-5.56-0.22l-0.58-2.44c2.22,0.19,4.37,0.32,5.91,0.32c1.61,0,2.09-0.26,2.54-1.28c0.38-1,0.9-3.24,1.22-5.69
					h-16.03c-0.42,0.9-0.87,1.83-1.35,2.73l-2.6-0.74c1.16-2.06,2.22-4.5,3.18-7.32h-7.16v-2.18h30.51v2.18H304.65z M320.52,245.11
					h-20.97v-9.12h20.97V245.11z M302.15,243.06h15.77v-4.95h-15.77V243.06z"/>
				<path d="M333.6,249.16c-1.03,3.28-2.34,6.23-3.89,8.7l-1.19-2.57c2.09-3.12,3.73-7,4.85-11.6h-4.4v-2.25h4.63v-6.87h2.38v6.87
					h3.34v2.25h-3.34v2.99c1.45,1.19,2.79,2.47,3.95,3.76l-1.35,2.15c-0.58-0.87-1.64-2.22-2.6-3.31v15.8h-2.38V249.16z
					 M351.52,253.62c2.06,2.96,4.75,5.33,8.19,7.26l-1.51,2.25c-3.37-2.12-6.36-5.07-8.29-8.22v10.18h-2.28v-9.99
					c-2.02,3.44-4.75,6.26-8.25,8.48l-1.61-1.96c3.5-1.96,6.29-4.59,8.42-8h-5.94v-11.43h7.39v-2.38h-9.06v-2.09h9.06v-3.15h2.28
					v3.15h9.25v2.09h-9.25v2.38h7.61v11.43H351.52z M342.53,244.15v2.73h5.11v-2.73H342.53z M342.53,248.84v2.79h5.11v-2.79H342.53z
					 M349.91,246.88h5.36v-2.73h-5.36V246.88z M349.91,251.63h5.36v-2.79h-5.36V251.63z"/>
			</g>
			<g>
				<path d="M281.03,91.92c-1.45,0.64-4.27,1.51-6.23,1.93l-0.71-2.41c2.96-0.61,6.26-1.83,7.77-2.86h2.15v26.5h-2.99V91.92z"/>
				<path d="M306.47,102.46c-0.32,1.16-0.71,2.25-1.06,3.15h18.05c-0.26,3.92-0.9,7.42-1.7,9.19c-0.8,1.8-1.83,2.31-4.72,2.31
					c-1.7,0-3.98-0.1-5.56-0.22l-0.58-2.44c2.22,0.19,4.37,0.32,5.91,0.32c1.61,0,2.09-0.26,2.54-1.28c0.38-1,0.9-3.24,1.22-5.69
					h-16.03c-0.42,0.9-0.87,1.83-1.35,2.73l-2.6-0.74c1.16-2.06,2.22-4.5,3.18-7.32h-7.16v-2.18h30.51v2.18H306.47z M322.34,97.35
					h-20.97v-9.12h20.97V97.35z M303.96,95.3h15.77v-4.95h-15.77V95.3z"/>
				<path d="M335.42,101.4c-1.03,3.28-2.34,6.23-3.89,8.7l-1.19-2.57c2.09-3.12,3.73-7,4.85-11.6h-4.4v-2.25h4.63v-6.87h2.38v6.87
					h3.34v2.25h-3.34v2.99c1.45,1.19,2.79,2.47,3.95,3.76l-1.35,2.15c-0.58-0.87-1.64-2.22-2.6-3.31v15.8h-2.38V101.4z
					 M353.34,105.86c2.06,2.96,4.75,5.33,8.19,7.26l-1.51,2.25c-3.37-2.12-6.36-5.07-8.29-8.22v10.18h-2.28v-9.99
					c-2.02,3.44-4.75,6.26-8.25,8.48l-1.61-1.96c3.5-1.96,6.29-4.59,8.42-8h-5.94V94.43h7.39v-2.38h-9.06v-2.09h9.06v-3.15h2.28
					v3.15h9.25v2.09h-9.25v2.38h7.61v11.43H353.34z M344.34,96.39v2.73h5.11v-2.73H344.34z M344.34,101.08v2.79h5.11v-2.79H344.34z
					 M351.73,99.12h5.36v-2.73h-5.36V99.12z M351.73,103.87h5.36v-2.79h-5.36V103.87z"/>
			</g>
		</g>
	</g>
</g>
</svg>
