<?xml version="1.0" encoding="utf-8"?>
<!-- Generator: Adobe Illustrator 23.0.3, SVG Export Plug-In . SVG Version: 6.00 Build 0)  -->
<svg version="1.1" xmlns="http://www.w3.org/2000/svg" xmlns:xlink="http://www.w3.org/1999/xlink" x="0px" y="0px"
	 viewBox="0 0 700 500" style="enable-background:new 0 0 700 500;" xml:space="preserve">
<style type="text/css">
	.グラフィックスタイル{fill:none;stroke:#000000;stroke-width:2;stroke-miterlimit:10;}
	.グラフィックスタイル_x0020_2{fill:#D8EACC;stroke:#000000;stroke-width:2;}
	.グラフィックスタイル_x0020_3{fill:#FFFFFF;stroke:#000000;stroke-width:2;stroke-miterlimit:10;}
	.グラフィックスタイル_x0020_4{fill:#FFFFFF;stroke:#000000;stroke-width:1.2664;stroke-miterlimit:10;}
	.グラフィックスタイル_x0020_7{fill:none;stroke:#000000;stroke-width:1.5;stroke-linejoin:bevel;stroke-miterlimit:10;}
	.グラフィックスタイル_x0020_9{fill:none;stroke:#000000;stroke-miterlimit:10;stroke-dasharray:5;}
	.st0{fill:#FFFFFF;}
	.st1{fill:#D8EACC;stroke:#000000;stroke-width:2;}
	.st2{fill:none;stroke:#000000;stroke-width:1.4318;stroke-linecap:round;stroke-linejoin:round;}
	.st3{fill:none;stroke:#000000;stroke-width:1.8264;stroke-linecap:round;stroke-linejoin:round;}
	.st4{fill:#FFFFFF;stroke:#000000;stroke-width:1.2664;stroke-miterlimit:10;}
	.st5{fill:#030201;}
	.st6{fill:#242323;}
	.st7{fill:none;stroke:#000000;stroke-width:2;stroke-linejoin:round;stroke-miterlimit:10;}
	.st8{fill:none;stroke:#000000;stroke-width:2;stroke-miterlimit:10;}
	.st9{fill:none;stroke:#000000;stroke-width:2;stroke-linejoin:bevel;stroke-miterlimit:10;}
	.st10{fill:#E83589;}
	.st11{fill:none;stroke:#000000;stroke-width:2;stroke-miterlimit:10;stroke-dasharray:5.901,5.901;}
	.st12{fill:none;stroke:#000000;stroke-width:1.5;stroke-linejoin:bevel;stroke-miterlimit:10;}
	.st13{fill:#D8EACC;stroke:#000000;stroke-width:1.5;}
	.st14{fill:none;stroke:#000000;stroke-width:1.5;stroke-miterlimit:10;}
	.st15{fill:none;stroke:#000000;stroke-linejoin:bevel;stroke-miterlimit:10;}
	.st16{fill:#FFFFFF;stroke:#000000;stroke-width:1.5;stroke-miterlimit:10;}
	.st17{fill:#FFFFFF;stroke:#DE0000;stroke-width:2;stroke-miterlimit:10;}
	.st18{fill:#DE0000;}
	.st19{fill:none;stroke:#000000;stroke-miterlimit:10;}
	.st20{fill:none;stroke:#000000;stroke-miterlimit:10;stroke-dasharray:3.0312,3.0312;}
	.st21{fill:url(#);stroke:#000000;stroke-width:1.1494;}
	.st22{fill:#FFFFFF;stroke:#000000;stroke-miterlimit:10;}
	.st23{fill:none;stroke:#000000;stroke-width:3;stroke-miterlimit:10;stroke-dasharray:5;}
	.st24{fill:none;stroke:#FFFFFF;stroke-width:0.75;stroke-linejoin:round;}
	.st25{fill:none;stroke:#000000;stroke-miterlimit:10;stroke-dasharray:5;}
	.st26{fill:none;stroke:#FFFFFF;stroke-width:3;stroke-linejoin:round;}
	.st27{fill:none;stroke:#000000;stroke-width:1.3;stroke-linejoin:bevel;stroke-miterlimit:10;}
	.st28{fill:none;stroke:#000000;stroke-width:1.5;stroke-miterlimit:10;stroke-dasharray:5;}
	.st29{fill:none;stroke:#47738A;stroke-linejoin:bevel;stroke-miterlimit:10;}
	.st30{fill:none;}
	.st31{fill:none;stroke:#FFFFFF;stroke-width:5;stroke-linejoin:round;}
	.st32{fill:#D8EACC;}
	.st33{fill:#D8EACC;stroke:#000000;stroke-width:0.25;}
	.st34{fill:none;stroke:#000000;stroke-width:2;}
	.st35{fill:none;stroke:#FFFFFF;stroke-linejoin:round;}
	.st36{fill:none;stroke:#000000;stroke-width:1.9773;stroke-linecap:round;stroke-linejoin:round;}
	.st37{fill:none;stroke:#000000;stroke-width:2.5222;stroke-linecap:round;stroke-linejoin:round;}
	.st38{fill:#FFFFFF;stroke:#000000;stroke-width:2;stroke-miterlimit:10;}
	.st39{fill:#FFFFFF;stroke:#000000;stroke-width:1.0238;stroke-miterlimit:10;}
	.st40{fill:#FFFFFF;stroke:#000000;stroke-width:1.089;stroke-miterlimit:10;}
	.st41{fill:#FFFFFF;stroke:#000000;stroke-width:1.2553;stroke-miterlimit:10;}
	.st42{fill:url(#);}
	.st43{fill:none;stroke:#000000;stroke-width:1.7765;stroke-linejoin:bevel;stroke-miterlimit:10;}
	.st44{fill:none;stroke:#000000;stroke-width:2.3687;stroke-miterlimit:10;}
	.st45{fill:#D8EACC;stroke:#000000;stroke-width:2.0455;}
	.st46{fill:none;stroke:#000000;stroke-width:2.0455;stroke-linecap:round;stroke-miterlimit:10;stroke-dasharray:0,6.1366;}
	.st47{fill:#FFFFFF;stroke:#000000;stroke-width:2.3687;stroke-miterlimit:10;}
	.st48{fill:#FFFFFF;stroke:#000000;stroke-width:1.4998;stroke-miterlimit:10;}
	.st49{fill:#FFFFFF;stroke:#000000;stroke-width:0.6137;stroke-miterlimit:10;}
	.st50{fill:url(#);stroke:#000000;stroke-width:1.0228;}
	.st51{fill:none;stroke:#FFFFFF;stroke-width:4.0911;stroke-linejoin:round;}
	.st52{fill:none;stroke:#000000;stroke-width:2.4559;stroke-linecap:round;stroke-linejoin:round;}
	.st53{fill:none;stroke:#000000;stroke-width:3.1327;stroke-linecap:round;stroke-linejoin:round;}
	.st54{fill:none;stroke:#FFFFFF;stroke-width:4;stroke-linejoin:round;}
</style>
<g id="レイヤー_5">
	<rect x="-1985.06" y="-2032.14" class="st0" width="5667.56" height="5248"/>
</g>
<g id="レイヤー_1">
</g>
<g id="レイヤー_3">
</g>
<g id="レイヤー_4">
</g>
<g id="レイヤー_2">
	<g>
		<rect class="st0" width="700" height="500"/>
		<polyline class="st2" points="276.29,84.48 276.29,72.74 283.19,84.48 283.19,72.74 		"/>
		<g>
			<circle class="st3" cx="247.27" cy="85.74" r="24.35"/>
			<polygon points="233.87,88.4 229.19,100.92 270.57,81.12 224.76,78.61 			"/>
		</g>
		<g>
			
				<rect x="109.72" y="36.18" transform="matrix(6.123234e-17 -1 1 6.123234e-17 45.4164 213.3161)" class="st10" width="39.3" height="95.53"/>
			<g>
				<path class="st0" d="M98.83,89.79h15.55v2.09H98.83v1.41h-2.32V74.74h17.34v2.01H98.83V89.79z M99.52,87.45
					c2.12-1.08,3.67-2.24,5.41-4.02c-1.33-1.12-3.09-2.38-4.83-3.52l1.41-1.58c1.72,1.08,3.21,2.14,4.85,3.4
					c1.02-1.35,1.85-2.72,2.7-4.44l2.09,1.02c-0.93,1.84-1.97,3.5-3.01,4.85c1.16,0.95,2.7,2.32,4.25,3.79l-1.64,1.72
					c-1.35-1.35-2.86-2.74-4.08-3.79c-1.74,1.85-3.55,3.19-5.76,4.35L99.52,87.45z"/>
				<path class="st0" d="M128,76.56h-8.69V74.7h19.7v1.87h-8.81v1.99h4.44V88.9h-10.97V78.55H128V76.56z M136.21,90.25v-11.7h2.12
					V93.3h-2.12v-1.14h-14.12v1.14h-2.09V78.55h2.09v11.7H136.21z M125.63,80.25v2.51h2.45v-2.51H125.63z M125.63,84.36v2.8h2.45
					v-2.8H125.63z M130.11,82.76h2.55v-2.51h-2.55V82.76z M130.11,87.16h2.55v-2.8h-2.55V87.16z"/>
				<path class="st0" d="M162.2,93.3h-2.26v-1.06H146.5v1.06h-2.24V74.55h17.94V93.3z M146.5,90.29h13.44V76.44H146.5V90.29z
					 M158.01,89.4c-1.31-0.81-2.84-1.68-4.23-2.38c-1.51,1.26-3.34,2.28-5.37,3.01l-1.29-1.56c1.89-0.6,3.24-1.31,4.67-2.45
					l-0.54-0.25c-1.35-0.66-2.34-1.1-4.11-1.83l0.93-1.53c2.09,0.77,3.3,1.24,5.29,2.18c1.68-1.78,3.09-4.33,3.86-7.03l2.01,0.62
					c-0.85,2.63-2.38,5.5-3.94,7.34c0.1,0.06,0.1,0.06,0.19,0.1c1.04,0.52,2.18,1.14,3.75,2.07L158.01,89.4z M149.28,82.62
					c-0.48-1.62-1.04-2.99-1.66-4.06l1.91-0.77c0.66,1.16,1.22,2.49,1.72,4.04L149.28,82.62z M152.84,81.81
					c-0.5-1.58-1.06-2.92-1.68-4.08l1.82-0.73c0.75,1.33,1.39,2.8,1.72,4L152.84,81.81z"/>
			</g>
		</g>
		<g>
			<polyline class="グラフィックスタイル_x0020_7" points="214.23,195.67 222.43,186.19 81.6,193.86 92.37,182.91 			"/>
			<polyline class="グラフィックスタイル_x0020_7" points="226.16,408.36 234.36,398.88 53.69,398.92 64.46,387.98 			"/>
			<g>
				<path d="M115.87,210.72c-0.87,0.46-2.59,1.11-3.8,1.45l-0.54-1.47c1.81-0.5,3.82-1.39,4.71-2.09l1.34-0.09l1.07,16.47
					l-1.86,0.12L115.87,210.72z"/>
				<path d="M134.84,215.82c0.34,5.19-1.75,8.53-5.44,8.77c-3.69,0.24-6.2-2.83-6.53-8c-0.34-5.19,1.75-8.53,5.46-8.77
					C132,207.59,134.5,210.65,134.84,215.82z M124.82,216.47c0.27,4.19,1.98,6.69,4.49,6.53c2.48-0.16,3.84-2.86,3.57-7.05
					c-0.27-4.23-1.98-6.71-4.49-6.54C125.91,209.57,124.55,212.28,124.82,216.47z"/>
				<path d="M140.83,220.69l0.19,2.85l-2.85,0.19l-0.19-2.85L140.83,220.69z"/>
				<path d="M154.29,206.44l0.09,1.34c-2.33,5.12-3.78,10.05-4.45,15.18l-1.88,0.12c0.43-3.86,2.16-9.9,4.24-14.91l-7.79,0.51
					l0.24,3.73l-1.74,0.11l-0.35-5.33L154.29,206.44z"/>
				<path d="M166.59,213.76c-0.71,1.75-2.32,2.9-4.17,3.02c-3.02,0.2-5.36-1.9-5.56-4.97c-0.1-1.52,0.4-3.05,1.37-4.22
					c1-1.21,2.29-1.85,3.88-1.96c3.57-0.23,6.01,2.45,6.3,6.95c0.41,6.25-2.06,9.28-8.37,10.29l-0.91-1.42
					c5.12-0.55,7.47-2.95,7.54-7.69L166.59,213.76z M158.75,211.52c0.15,2.33,1.69,3.86,3.81,3.72c1.06-0.07,2.12-0.68,2.74-1.58
					c0.59-0.84,0.89-1.8,0.83-2.6c-0.07-1.04-0.58-2.19-1.31-2.94c-0.71-0.72-1.55-1.02-2.63-0.95
					C160.14,207.3,158.6,209.25,158.75,211.52z"/>
				<path d="M183.4,212.67c0.34,5.19-1.75,8.53-5.44,8.77s-6.2-2.83-6.53-8c-0.34-5.19,1.75-8.53,5.46-8.77
					C180.56,204.43,183.06,207.5,183.4,212.67z M173.38,213.32c0.27,4.19,1.98,6.69,4.49,6.53c2.47-0.16,3.84-2.86,3.57-7.05
					c-0.27-4.23-1.98-6.71-4.49-6.54C174.47,206.41,173.11,209.13,173.38,213.32z"/>
			</g>
			<g>
				<path d="M111.83,418.56c-0.9,0.41-2.65,0.96-3.87,1.24l-0.45-1.5c1.84-0.4,3.89-1.18,4.82-1.83l1.34-0.01l0.15,16.5l-1.86,0.02
					L111.83,418.56z"/>
				<path d="M118.41,431.34c0.5-2.14,2.24-4.3,4.92-6.13l0.52-0.35c2.78-1.85,3.51-2.73,3.5-4.19c-0.02-1.64-1.39-2.73-3.45-2.71
					c-1.68,0.02-2.85,0.65-4.12,2.18l-1.27-1.05c1.5-1.89,3.12-2.71,5.46-2.73c3.12-0.03,5.42,1.79,5.44,4.33
					c0.02,2.02-0.75,2.97-4.31,5.28l-0.71,0.47c-2.37,1.58-3.85,3.32-4.02,4.76l9.38-0.09l0.02,1.7l-11.34,0.11L118.41,431.34z"/>
				<path d="M135.8,429.9l0.03,2.86l-2.86,0.03l-0.03-2.86L135.8,429.9z"/>
				<path d="M148.67,416.44l0.02,1.62l-7.6,0.07l-0.57,5.69l0.08,0c0.93-0.89,2.23-1.38,3.73-1.4c3.18-0.03,5.38,2.05,5.41,5.07
					c0.03,3.18-2.37,5.46-5.79,5.49c-2.22,0.02-4.03-0.58-5.56-1.87l1.09-1.29c1.15,0.97,2.83,1.55,4.44,1.54
					c2.22-0.02,3.84-1.68,3.82-3.86c-0.02-2.2-1.49-3.61-3.73-3.59c-1.46,0.01-2.99,0.75-3.67,1.75l-1.68-0.26l0.8-8.89
					L148.67,416.44z"/>
				<path d="M162.43,416.21l0.1,10.82l3.1-0.03l0.01,1.54l-3.1,0.03l0.04,3.94l-1.76,0.02l-0.04-3.94l-8.24,0.08l-0.01-1.52
					l7.7-10.92L162.43,416.21z M160.72,421.29c-0.01-0.92,0.02-2.48,0.07-3.46h-0.08c-0.53,1.07-1.04,1.99-1.44,2.55l-4.7,6.72
					l6.2-0.06L160.72,421.29z"/>
				<path d="M180.35,424.25c0.05,5.2-2.22,8.42-5.92,8.46c-3.7,0.04-6.03-3.16-6.08-8.34c-0.05-5.2,2.22-8.42,5.94-8.46
					C177.97,415.87,180.3,419.06,180.35,424.25z M170.31,424.34c0.04,4.2,1.6,6.79,4.12,6.76c2.48-0.02,4-2.64,3.96-6.84
					c-0.04-4.24-1.6-6.81-4.12-6.78C171.78,417.5,170.27,420.14,170.31,424.34z"/>
			</g>
			<g>
				<path d="M144.95,278.3v1.44h-8.8v2.56h6.78v7.98c0,1.16-0.52,1.58-1.94,1.58c-0.82,0-1.64-0.04-2.46-0.12l-0.26-1.52
					c1,0.14,1.76,0.2,2.42,0.2c0.52,0,0.64-0.1,0.64-0.58v-6.14h-5.18v10.86h-1.58V283.7h-4.92v8.38h-1.58v-9.78h6.5v-2.56h-8.62
					v-1.44h8.62v-2.74h1.58v2.74H144.95z"/>
				<path d="M151.63,290.4c1.62,1.62,3.48,2.24,6.84,2.26h7.86c-0.2,0.44-0.36,0.9-0.48,1.42h-7.6c-3.5-0.04-5.44-0.7-7.16-2.44
					c-0.9,1.06-2.04,2.14-3.12,2.94l-0.88-1.42c0.94-0.56,2-1.36,3.02-2.3v-5.36h-2.96v-1.36h4.48V290.4z M150.77,280.42
					c-0.94-1.34-1.96-2.54-2.92-3.4l1.1-0.92c1.16,1.02,2.18,2.12,3,3.26L150.77,280.42z M152.73,279.36v-1.26h3.54
					c-0.34-0.64-0.78-1.3-1.28-1.92l1.4-0.54c0.64,0.9,1.04,1.6,1.44,2.46h2.6c0.38-0.7,0.84-1.76,1.1-2.5l1.58,0.4
					c-0.32,0.7-0.74,1.5-1.14,2.1h3.74v1.26h-5.78c-0.1,0.34-0.42,1.18-0.62,1.66h5.02v10.2h-10.18v-10.2h3.68
					c0.24-0.66,0.42-1.2,0.52-1.66H152.73z M155.63,284h7.2v-1.84h-7.2V284z M155.63,286.9h7.2v-1.82h-7.2V286.9z M155.63,290.04
					h7.2v-2h-7.2V290.04z"/>
				<path d="M93.79,309.06c-0.98-1.16-2.08-2.24-3.12-3.08l1.06-1.1c1.14,0.84,2.28,1.92,3.18,3L93.79,309.06z M91.15,317.2
					c1.18-1.56,2.44-3.9,3.52-6.56l1.26,0.98c-0.98,2.5-2.24,4.96-3.5,6.76L91.15,317.2z M94.51,303.96c-0.76-1-1.96-2.22-3.04-3.12
					l1.04-1.04c1.08,0.8,2.26,1.92,3.12,2.98L94.51,303.96z M102.43,309.64l-0.02,0.04c-0.58,1.7-1.82,4.38-2.84,6.2l-0.08,0.18
					l1.48-0.12c1.48-0.12,3.74-0.36,5.52-0.6c-0.62-1.04-1.34-2.12-2.1-3.18l1.26-0.7c1.62,2.06,2.98,4.14,3.94,6.06l-1.42,0.9
					c-0.46-0.94-0.66-1.34-1-1.94l-0.2,0.04c-2.22,0.44-6.94,1.06-10.22,1.34l-0.52-1.58l0.8-0.04l0.24-0.02
					c0.04,0,0.28-0.02,0.54-0.04c1.06-1.92,2.18-4.4,2.96-6.64h-5.04v-1.34h6.1v-4.04h-5.02v-1.38h5.02v-3.22h1.56v3.22h5.32v1.38
					h-5.32v4.04h6.36v1.34h-7.28L102.43,309.64z"/>
				<path d="M122.21,300.86v10.82h3.1v1.54h-3.1v3.94h-1.76v-3.94h-8.24v-1.52l7.8-10.84H122.21z M120.45,305.92
					c0-0.92,0.04-2.48,0.1-3.46h-0.08c-0.54,1.06-1.06,1.98-1.46,2.54l-4.76,6.68h6.2V305.92z"/>
				<path d="M129.71,315.58c0.52-2.14,2.28-4.28,4.98-6.08l0.52-0.34c2.8-1.82,3.54-2.7,3.54-4.16c0-1.64-1.36-2.74-3.42-2.74
					c-1.68,0-2.86,0.62-4.14,2.14l-1.26-1.06c1.52-1.88,3.14-2.68,5.48-2.68c3.12,0,5.4,1.84,5.4,4.38c0,2.02-0.78,2.96-4.36,5.24
					l-0.72,0.46c-2.38,1.56-3.88,3.28-4.06,4.72h9.38v1.7h-11.34V315.58z"/>
				<path d="M154.95,318.56h-1.54v-6.4c-1.82,2.28-4.62,4.32-7.78,5.6l-0.92-1.28c3-1.12,5.48-2.7,7.4-4.7h-7.32v-1.34h8.62v-2.18
					h1.54v2.18h8.76v1.34h-7.4c1.84,1.72,4.32,3.12,7.52,4.24l-0.98,1.4c-3.42-1.42-5.98-3.14-7.9-5.38V318.56z M160.37,301.44
					c-1.08,1.46-2.72,2.94-4.6,4.18c1.82,0.96,4.06,1.66,7.6,2.36l-0.82,1.36c-2.86-0.58-5.94-1.66-8.14-2.86
					c-2.36,1.38-5.36,2.46-8.38,3.06l-0.8-1.24c3.04-0.54,5.96-1.5,7.94-2.62c-0.78-0.56-1.92-1.58-2.84-2.52
					c-1.12,0.88-2.18,1.54-3.48,2.14l-0.98-1.04c2.42-1,4.76-2.88,5.98-4.78l1.52,0.3c-0.3,0.46-0.38,0.54-0.66,0.92h6.84
					L160.37,301.44z M151.65,301.94c-0.14,0.16-0.2,0.2-0.32,0.32c0.84,0.94,1.98,1.88,3.14,2.62c1.7-1.14,2.84-2.08,3.58-2.94
					H151.65z"/>
				<path d="M167.31,315.58c0.52-2.14,2.28-4.28,4.98-6.08l0.52-0.34c2.8-1.82,3.54-2.7,3.54-4.16c0-1.64-1.36-2.74-3.42-2.74
					c-1.68,0-2.86,0.62-4.14,2.14l-1.26-1.06c1.52-1.88,3.14-2.68,5.48-2.68c3.12,0,5.4,1.84,5.4,4.38c0,2.02-0.78,2.96-4.36,5.24
					l-0.72,0.46c-2.38,1.56-3.88,3.28-4.06,4.72h9.38v1.7h-11.34V315.58z"/>
				<path d="M186.67,312.22l0.12-0.04l0.08-0.04c0.74-0.24,1.68-0.6,2.26-0.86l0.16,1.42c-1.68,0.76-4.38,1.76-6.46,2.36l-0.56-1.54
					c1.12-0.3,1.28-0.34,2.36-0.66l0.48-0.14v-9.4h-2.6v-1.42h6.34v1.42h-2.18V312.22z M188.09,317.46c1.58-0.62,3.14-1.64,4.2-2.76
					l1.22,0.82c-1.24,1.28-2.84,2.44-4.32,3.1L188.09,317.46z M199.71,303.8v10.66h-9.6V303.8h3.12c0.22-0.66,0.4-1.36,0.54-2.04h-5
					v-1.32h12.36v1.32h-5.8c-0.22,0.82-0.48,1.56-0.68,2.04H199.71z M191.59,305.02v1.94h6.62v-1.94H191.59z M191.59,310h6.62v-1.86
					h-6.62V310z M191.59,313.22h6.62v-2.06h-6.62V313.22z M200.03,318.54c-1.18-1.08-2.62-2.16-4-3l1.1-0.88
					c1.72,0.98,2.9,1.78,4.08,2.76L200.03,318.54z"/>
				<path d="M130.43,338.4c1.62,1.62,3.48,2.24,6.84,2.26h7.86c-0.2,0.44-0.36,0.9-0.48,1.42h-7.6c-3.5-0.04-5.44-0.7-7.16-2.44
					c-0.9,1.06-2.04,2.14-3.12,2.94l-0.88-1.42c0.94-0.56,2-1.36,3.02-2.3v-5.36h-2.96v-1.36h4.48V338.4z M129.57,328.42
					c-0.94-1.34-1.96-2.54-2.92-3.4l1.1-0.92c1.16,1.02,2.18,2.12,3,3.26L129.57,328.42z M131.53,327.36v-1.26h3.54
					c-0.34-0.64-0.78-1.3-1.28-1.92l1.4-0.54c0.64,0.9,1.04,1.6,1.44,2.46h2.6c0.38-0.7,0.84-1.76,1.1-2.5l1.58,0.4
					c-0.32,0.7-0.74,1.5-1.14,2.1h3.74v1.26h-5.78c-0.1,0.34-0.42,1.18-0.62,1.66h5.02v10.2h-10.18v-10.2h3.68
					c0.24-0.66,0.42-1.2,0.52-1.66H131.53z M134.43,332h7.2v-1.84h-7.2V332z M134.43,334.9h7.2v-1.82h-7.2V334.9z M134.43,338.04
					h7.2v-2h-7.2V338.04z"/>
				<path d="M154.87,330.88h-2.58v3.16h2.6v1.32h-2.6v4.18c0.54-0.14,2.06-0.58,3.06-0.9l0.14,1.3c-2.38,0.84-5.26,1.66-7.88,2.24
					l-0.52-1.42l1.06-0.22v-7.8h1.36v7.5l0.5-0.12l0.48-0.12l0.42-0.1v-9.02h-2.92v-6.5h6.88V330.88z M149.41,329.58h4.04v-3.86
					h-4.04V329.58z M164.71,325.66c-0.76,1.86-1.74,3.46-2.94,4.82c1.26,1.1,2.82,2.06,4.58,2.78l-0.76,1.32
					c-1.8-0.8-3.48-1.9-4.78-3.12c-1.46,1.38-3.18,2.48-5.18,3.3l-0.8-1.24c1.8-0.58,3.54-1.66,5-3.06
					c-0.66-0.74-1.34-1.68-1.8-2.54l-0.08,0.1l-0.04,0.06c-0.52,0.66-1.14,1.3-1.76,1.82l-0.98-1.06c1.5-1.14,2.96-3.26,3.66-5.3
					l1.48,0.24c-0.22,0.52-0.28,0.68-0.44,1.02h3.88L164.71,325.66z M164.63,342.56h-1.46v-1.18h-5.1v1.18h-1.46v-7.88h8.02V342.56z
					 M158.07,340.06h5.1v-4.04h-5.1V340.06z M158.77,326.84c0.56,1,1.1,1.74,1.98,2.68c0.9-1.04,1.58-2.1,2.16-3.38h-3.72
					c-0.08,0.14-0.16,0.28-0.34,0.58L158.77,326.84z"/>
			</g>
			<polygon class="グラフィックスタイル_x0020_2" points="661.39,177.98 483.14,177.98 222.43,186.19 233.74,398.92 
				650.74,398.92 661.39,371.92 			"/>
			<polygon class="グラフィックスタイル_x0020_2" points="495.8,352.65 437.98,355.93 437.98,340.05 252.72,337.47 
				229.15,320.36 222.43,186.19 495.8,177.98 			"/>
			<polyline class="グラフィックスタイル" points="219.98,136.5 222.43,186.19 232.63,386.44 237.49,441.08 			"/>
			<polyline class="グラフィックスタイル" points="72.83,140.43 81.6,193.86 47.95,441.08 			"/>
			<polygon class="グラフィックスタイル_x0020_3" points="484.55,199.55 484.55,334.36 452.9,334.36 452.9,324.68 
				333.09,324.68 333.09,270.83 342.79,270.83 342.79,199.55 			"/>
			<polygon class="グラフィックスタイル_x0020_3" points="645.57,195.84 555.77,195.84 555.77,250.1 529.56,250.1 
				529.56,381.06 555.77,381.06 619.36,381.06 645.57,381.06 			"/>
			<g>
				
					<rect x="294.46" y="301.97" transform="matrix(6.123234e-17 -1 1 6.123234e-17 7.454 618.8407)" class="グラフィックスタイル_x0020_4" width="37.38" height="7.44"/>
				
					<rect x="306.29" y="297.58" transform="matrix(6.123234e-17 -1 1 6.123234e-17 19.2874 630.6741)" class="グラフィックスタイル_x0020_4" width="37.38" height="16.22"/>
				<polygon points="331.3,305.69 321.78,298.88 321.78,312.51 				"/>
			</g>
			<g>
				
					<rect x="491.15" y="358.65" transform="matrix(6.123234e-17 -1 1 6.123234e-17 147.4756 872.2114)" class="グラフィックスタイル_x0020_4" width="37.38" height="7.44"/>
				
					<rect x="502.99" y="354.26" transform="matrix(6.123234e-17 -1 1 6.123234e-17 159.309 884.0448)" class="グラフィックスタイル_x0020_4" width="37.38" height="16.22"/>
				<polygon points="527.99,362.37 518.47,355.55 518.47,369.19 				"/>
			</g>
			<g>
				<g>
					<g>
						<path class="st0" d="M419.25,360.81c0.66,5.58,0.66,11.17,0,16.75c-0.81,6.43-7.33,11.24-13.28,10.9
							c-19.49-0.99-38.99-0.98-58.48,0.03c-5.66,0.33-11.84-4.23-12.65-10.34c-0.75-5.97-0.75-11.95,0-17.92
							c0.82-6.1,7-10.67,12.65-10.34c19.49,1.01,38.99,1.02,58.48,0.03C411.92,349.57,418.44,354.38,419.25,360.81z"/>
						<path class="st5" d="M419.96,369.19c0,2.81-0.16,5.61-0.49,8.4c-0.79,6.28-7.1,11.46-13.51,11.09
							c-19.39-0.98-39.06-0.97-58.46,0.03c-6.06,0.36-12.08-4.56-12.88-10.52c-0.75-5.97-0.75-12.01,0-17.98
							c0.8-5.97,6.82-10.88,12.88-10.53c19.4,1,39.07,1.01,58.46,0.03c6.41-0.37,12.72,4.81,13.51,11.08v0
							C419.8,363.57,419.96,366.38,419.96,369.19z M334.48,369.19c0,2.99,0.19,5.97,0.56,8.93c0.77,5.75,6.58,10.49,12.43,10.15
							c19.42-1,39.1-1.01,58.51-0.03c6.19,0.36,12.29-4.64,13.06-10.71c0.65-5.54,0.65-11.16,0-16.7
							c-0.76-6.06-6.86-11.07-13.06-10.71c-19.41,0.98-39.09,0.97-58.51-0.03c-5.85-0.34-11.66,4.4-12.43,10.15
							C334.67,363.22,334.48,366.2,334.48,369.19z"/>
					</g>
				</g>
				<g>
					<path class="st6" d="M408.28,355.83v26.72c0.31-0.03,0.62-0.07,0.94-0.11v-26.5C408.91,355.9,408.59,355.86,408.28,355.83z"/>
				</g>
				<g>
					<path class="st5" d="M398.72,353.1l-0.8,0.23c-5.7,1.66-13.26,2.57-21.29,2.57c-0.88,0-1.77-0.01-2.66-0.03l-0.06-0.01
						l-9.53-4.05l0.75-0.02c2.21-0.05,4.41-0.08,6.51-0.08c9.01,0,17.84,0.44,26.25,1.31L398.72,353.1z M374.01,355.55
						c0.88,0.02,1.76,0.03,2.62,0.03c7.61,0,14.8-0.82,20.37-2.33c-8.14-0.81-16.67-1.22-25.36-1.22c-1.87,0-3.8,0.02-5.76,0.06
						L374.01,355.55z"/>
				</g>
				<g>
					<path class="st5" d="M398.72,385.27l-0.83,0.09c-8.41,0.87-17.24,1.31-26.25,1.31c-2.09,0-4.28-0.03-6.51-0.08l-0.75-0.02
						l9.59-4.06c0.89-0.02,1.79-0.03,2.66-0.03c8.02,0,15.58,0.91,21.29,2.57L398.72,385.27z M365.89,386.28
						c1.97,0.04,3.9,0.06,5.76,0.06c8.7,0,17.22-0.41,25.36-1.22c-5.57-1.5-12.76-2.33-20.37-2.33c-0.86,0-1.75,0.01-2.62,0.03
						L365.89,386.28z"/>
				</g>
				<g>
					<path class="st0" d="M362.55,352.09h-14.02c-8.23,0-14.97,6.73-14.97,14.95v4.29c0,8.22,6.74,14.95,14.97,14.95h14.02
						c-1.29-5.59-1.95-11.34-1.93-17.1C360.6,363.43,361.26,357.68,362.55,352.09z"/>
					<path d="M362.75,351.93l-0.05,0.2c-1.29,5.64-1.96,11.37-1.93,17.06c0,0.07,0,0.15,0,0.22c0,5.61,0.65,11.27,1.93,16.83
						l0.05,0.2h-14.23c-8.34,0-15.13-6.78-15.13-15.11v-4.29c0-8.33,6.79-15.11,15.13-15.11H362.75z M333.72,371.33
						c0,8.15,6.64,14.79,14.81,14.79h13.82c-1.25-5.52-1.89-11.14-1.89-16.71c0-0.15,0-0.3,0-0.45c0-5.57,0.64-11.18,1.89-16.71
						h-13.82c-8.16,0-14.81,6.63-14.81,14.79V371.33z"/>
				</g>
				<g>
					<path class="st0" d="M395.38,356.83c-1.24,8.24-1.24,16.47,0,24.71c4.3,1.14,8.61,1.49,12.91,1.05v-26.81
						C403.99,355.34,399.69,355.69,395.38,356.83z"/>
					<path d="M408.46,355.63v27.1l-0.15,0.01c-4.3,0.44-8.67,0.08-12.97-1.06l-0.1-0.03l-0.02-0.11c-1.24-8.21-1.24-16.54,0-24.75
						l0.02-0.11l0.1-0.03c4.3-1.14,8.66-1.49,12.97-1.06L408.46,355.63z M408.13,382.44v-26.52c-4.18-0.41-8.42-0.06-12.6,1.04
						c-1.21,8.11-1.21,16.33,0,24.45C399.71,382.5,403.95,382.85,408.13,382.44z"/>
				</g>
				<g>
					<path class="st6" d="M408.29,355.78v26.81c0.31-0.03,0.62-0.07,0.94-0.11v-26.59C408.92,355.85,408.61,355.81,408.29,355.78z"
						/>
				</g>
				<g>
					<path class="st0" d="M409.23,382.48h6.73c1.77-3.27,2.88-8.02,2.88-13.3c0-5.28-1.11-10.02-2.88-13.3h-6.73V382.48z"/>
					<path d="M419,369.19c0,5.09-1.06,9.96-2.9,13.37l-0.05,0.09h-6.99v-26.92h6.99l0.05,0.09C417.94,359.22,419,364.1,419,369.19z
						 M415.86,382.32c1.79-3.36,2.81-8.14,2.81-13.13c0-4.99-1.02-9.77-2.81-13.13h-6.47v26.27H415.86z"/>
				</g>
				<g>
					<path class="st6" d="M362.46,352.2l-0.91-0.33c-3.13,11.31-3.13,23.32,0,34.63l0.91-0.33
						C359.46,375.07,359.46,363.31,362.46,352.2z"/>
				</g>
				<g>
					<path class="st0" d="M362.42,385.69l11.37-4.16v-24.7l-11.37-4.16C359.5,363.47,359.5,374.9,362.42,385.69z"/>
					<path d="M373.95,356.72v24.93l-11.64,4.25l-0.05-0.17c-2.93-10.83-2.93-22.27,0-33.1l0.05-0.17L373.95,356.72z M373.63,381.42
						v-24.48l-11.1-4.06c-2.85,10.66-2.85,21.92,0,32.59L373.63,381.42z"/>
				</g>
				<g>
					<g>
						<path class="st5" d="M415.95,355.94v-0.17c0-2.01-1.65-3.66-3.66-3.66h-0.27C413.72,352.95,415.1,354.29,415.95,355.94z"/>
					</g>
					<g>
						<path class="st5" d="M415.95,382.43v0.17c0,2.01-1.65,3.66-3.66,3.66h-0.27C413.72,385.42,415.1,384.08,415.95,382.43z"/>
					</g>
				</g>
				<g>
					<g>
						<path class="st0" d="M371.44,347.54c-0.5-0.12-1.09,0-1.31,0.26l-2.58,2.98c-0.04,0.05-0.07,0.1-0.08,0.16h2.4l1.87-3.33
							L371.44,347.54z"/>
						<path class="st5" d="M371.99,347.51l-2.02,3.6h-2.69l0.04-0.19c0.02-0.08,0.06-0.16,0.12-0.23l2.58-2.98
							c0.26-0.31,0.91-0.44,1.47-0.31L371.99,347.51z M369.78,350.78l1.71-3.06l-0.09-0.02c-0.48-0.11-0.99,0.02-1.15,0.21
							l-2.48,2.87H369.78z"/>
					</g>
					<g>
						<path class="st0" d="M371.44,390.83c-0.5,0.12-1.09,0-1.31-0.26l-2.58-2.98c-0.04-0.05-0.07-0.1-0.08-0.16h2.4l1.87,3.33
							L371.44,390.83z"/>
						<path class="st5" d="M371.99,390.87l-0.51,0.12c-0.56,0.13-1.21,0-1.47-0.31l-2.58-2.98c-0.06-0.07-0.1-0.15-0.12-0.23
							l-0.04-0.19h2.69L371.99,390.87z M367.77,387.59l2.48,2.87c0.16,0.19,0.67,0.32,1.15,0.21l0.09-0.02l-1.71-3.06H367.77z"/>
					</g>
				</g>
				<g>
					<g>
						<path class="st5" d="M353.89,360.39c-5.38,0-10.11,0.95-12.85,2.4c2.81-1.07,6.87-1.74,11.38-1.74c2.18,0,4.26,0.16,6.14,0.44
							v-0.84C357.1,360.47,355.52,360.39,353.89,360.39z"/>
					</g>
					<g>
						<path class="st5" d="M353.89,377.99c-5.38,0-10.11-0.95-12.85-2.4c2.81,1.07,6.87,1.74,11.38,1.74c2.18,0,4.26-0.16,6.14-0.44
							v0.84C357.1,377.9,355.52,377.99,353.89,377.99z"/>
					</g>
				</g>
				<g>
					
						<rect x="372.24" y="358.39" transform="matrix(6.123234e-17 -1 1 6.123234e-17 15.4021 753.7734)" class="st0" width="24.71" height="21.6"/>
					<path d="M395.55,356.67v25.03h-21.92v-25.03H395.55z M395.23,381.38V357h-21.28v24.38H395.23z"/>
				</g>
			</g>
			<g>
				<g>
					<g>
						<path class="st0" d="M324.27,360.81c0.66,5.58,0.66,11.17,0,16.75c-0.81,6.43-7.33,11.24-13.28,10.9
							c-19.49-0.99-38.99-0.98-58.48,0.03c-5.66,0.33-11.84-4.23-12.65-10.34c-0.75-5.97-0.75-11.95,0-17.92
							c0.82-6.1,7-10.67,12.65-10.34c19.49,1.01,38.99,1.02,58.48,0.03C316.94,349.57,323.46,354.38,324.27,360.81z"/>
						<path class="st5" d="M324.98,369.19c0,2.81-0.16,5.61-0.49,8.4c-0.79,6.28-7.1,11.46-13.51,11.09
							c-19.39-0.98-39.06-0.97-58.46,0.03c-6.06,0.36-12.08-4.56-12.88-10.52c-0.75-5.97-0.75-12.01,0-17.98
							c0.8-5.97,6.82-10.88,12.88-10.53c19.4,1,39.07,1.01,58.46,0.03c6.41-0.37,12.72,4.81,13.51,11.08v0
							C324.82,363.57,324.98,366.38,324.98,369.19z M239.51,369.19c0,2.99,0.19,5.97,0.56,8.93c0.77,5.75,6.58,10.49,12.43,10.15
							c19.42-1,39.1-1.01,58.51-0.03c6.19,0.36,12.29-4.64,13.06-10.71c0.65-5.54,0.65-11.16,0-16.7
							c-0.76-6.06-6.86-11.07-13.06-10.71c-19.41,0.98-39.09,0.97-58.51-0.03c-5.85-0.34-11.66,4.4-12.43,10.15
							C239.69,363.22,239.51,366.2,239.51,369.19z"/>
					</g>
				</g>
				<g>
					<path class="st6" d="M313.3,355.83v26.72c0.31-0.03,0.62-0.07,0.94-0.11v-26.5C313.93,355.9,313.62,355.86,313.3,355.83z"/>
				</g>
				<g>
					<path class="st5" d="M303.74,353.1l-0.8,0.23c-5.7,1.66-13.26,2.57-21.29,2.57c-0.88,0-1.77-0.01-2.66-0.03l-0.06-0.01
						l-9.53-4.05l0.75-0.02c2.21-0.05,4.41-0.08,6.51-0.08c9.01,0,17.84,0.44,26.25,1.31L303.74,353.1z M279.03,355.55
						c0.88,0.02,1.76,0.03,2.62,0.03c7.61,0,14.8-0.82,20.37-2.33c-8.14-0.81-16.67-1.22-25.36-1.22c-1.87,0-3.8,0.02-5.76,0.06
						L279.03,355.55z"/>
				</g>
				<g>
					<path class="st5" d="M303.74,385.27l-0.83,0.09c-8.41,0.87-17.24,1.31-26.25,1.31c-2.09,0-4.28-0.03-6.51-0.08l-0.75-0.02
						l9.59-4.06c0.89-0.02,1.79-0.03,2.66-0.03c8.02,0,15.58,0.91,21.29,2.57L303.74,385.27z M270.91,386.28
						c1.97,0.04,3.9,0.06,5.76,0.06c8.7,0,17.22-0.41,25.36-1.22c-5.57-1.5-12.76-2.33-20.37-2.33c-0.86,0-1.75,0.01-2.62,0.03
						L270.91,386.28z"/>
				</g>
				<g>
					<path class="st0" d="M267.57,352.09h-14.02c-8.23,0-14.97,6.73-14.97,14.95v4.29c0,8.22,6.74,14.95,14.97,14.95h14.02
						c-1.29-5.59-1.95-11.34-1.93-17.1C265.62,363.43,266.28,357.68,267.57,352.09z"/>
					<path d="M267.77,351.93l-0.05,0.2c-1.29,5.64-1.96,11.37-1.93,17.06c0,0.07,0,0.15,0,0.22c0,5.61,0.65,11.27,1.93,16.83
						l0.05,0.2h-14.23c-8.34,0-15.13-6.78-15.13-15.11v-4.29c0-8.33,6.79-15.11,15.13-15.11H267.77z M238.74,371.33
						c0,8.15,6.64,14.79,14.81,14.79h13.82c-1.25-5.52-1.89-11.14-1.89-16.71c0-0.15,0-0.3,0-0.45c0-5.57,0.64-11.18,1.89-16.71
						h-13.82c-8.16,0-14.81,6.63-14.81,14.79V371.33z"/>
				</g>
				<g>
					<path class="st0" d="M300.4,356.83c-1.24,8.24-1.24,16.47,0,24.71c4.3,1.14,8.61,1.49,12.91,1.05v-26.81
						C309.01,355.34,304.71,355.69,300.4,356.83z"/>
					<path d="M313.48,355.63v27.1l-0.15,0.01c-4.3,0.44-8.67,0.08-12.97-1.06l-0.1-0.03l-0.02-0.11c-1.24-8.21-1.24-16.54,0-24.75
						l0.02-0.11l0.1-0.03c4.3-1.14,8.66-1.49,12.97-1.06L313.48,355.63z M313.15,382.44v-26.52c-4.18-0.41-8.42-0.06-12.6,1.04
						c-1.21,8.11-1.21,16.33,0,24.45C304.73,382.5,308.97,382.85,313.15,382.44z"/>
				</g>
				<g>
					<path class="st6" d="M313.31,355.78v26.81c0.31-0.03,0.62-0.07,0.94-0.11v-26.59C313.94,355.85,313.63,355.81,313.31,355.78z"
						/>
				</g>
				<g>
					<path class="st0" d="M314.25,382.48h6.73c1.77-3.27,2.88-8.02,2.88-13.3c0-5.28-1.11-10.02-2.88-13.3h-6.73V382.48z"/>
					<path d="M324.02,369.19c0,5.09-1.06,9.96-2.9,13.37l-0.05,0.09h-6.99v-26.92h6.99l0.05,0.09
						C322.96,359.22,324.02,364.1,324.02,369.19z M320.88,382.32c1.79-3.36,2.81-8.14,2.81-13.13c0-4.99-1.02-9.77-2.81-13.13h-6.47
						v26.27H320.88z"/>
				</g>
				<g>
					<path class="st6" d="M267.48,352.2l-0.91-0.33c-3.13,11.31-3.13,23.32,0,34.63l0.91-0.33
						C264.48,375.07,264.48,363.31,267.48,352.2z"/>
				</g>
				<g>
					<path class="st0" d="M267.44,385.69l11.37-4.16v-24.7l-11.37-4.16C264.52,363.47,264.52,374.9,267.44,385.69z"/>
					<path d="M278.97,356.72v24.93l-11.64,4.25l-0.05-0.17c-2.93-10.83-2.93-22.27,0-33.1l0.05-0.17L278.97,356.72z M278.65,381.42
						v-24.48l-11.1-4.06c-2.85,10.66-2.85,21.92,0,32.59L278.65,381.42z"/>
				</g>
				<g>
					<g>
						<path class="st5" d="M320.97,355.94v-0.17c0-2.01-1.65-3.66-3.66-3.66h-0.27C318.74,352.95,320.12,354.29,320.97,355.94z"/>
					</g>
					<g>
						<path class="st5" d="M320.97,382.43v0.17c0,2.01-1.65,3.66-3.66,3.66h-0.27C318.74,385.42,320.12,384.08,320.97,382.43z"/>
					</g>
				</g>
				<g>
					<g>
						<path class="st0" d="M276.46,347.54c-0.5-0.12-1.09,0-1.31,0.26l-2.58,2.98c-0.04,0.05-0.07,0.1-0.08,0.16h2.4l1.87-3.33
							L276.46,347.54z"/>
						<path class="st5" d="M277.01,347.51l-2.02,3.6h-2.69l0.04-0.19c0.02-0.08,0.06-0.16,0.12-0.23l2.58-2.98
							c0.26-0.31,0.91-0.44,1.47-0.31L277.01,347.51z M274.8,350.78l1.71-3.06l-0.09-0.02c-0.48-0.11-0.99,0.02-1.15,0.21
							l-2.48,2.87H274.8z"/>
					</g>
					<g>
						<path class="st0" d="M276.46,390.83c-0.5,0.12-1.09,0-1.31-0.26l-2.58-2.98c-0.04-0.05-0.07-0.1-0.08-0.16h2.4l1.87,3.33
							L276.46,390.83z"/>
						<path class="st5" d="M277.01,390.87l-0.51,0.12c-0.56,0.13-1.21,0-1.47-0.31l-2.58-2.98c-0.06-0.07-0.1-0.15-0.12-0.23
							l-0.04-0.19h2.69L277.01,390.87z M272.79,387.59l2.48,2.87c0.16,0.19,0.67,0.32,1.15,0.21l0.09-0.02l-1.71-3.06H272.79z"/>
					</g>
				</g>
				<g>
					<g>
						<path class="st5" d="M258.91,360.39c-5.38,0-10.11,0.95-12.85,2.4c2.81-1.07,6.87-1.74,11.38-1.74c2.18,0,4.26,0.16,6.14,0.44
							v-0.84C262.12,360.47,260.55,360.39,258.91,360.39z"/>
					</g>
					<g>
						<path class="st5" d="M258.91,377.99c-5.38,0-10.11-0.95-12.85-2.4c2.81,1.07,6.87,1.74,11.38,1.74c2.18,0,4.26-0.16,6.14-0.44
							v0.84C262.12,377.9,260.55,377.99,258.91,377.99z"/>
					</g>
				</g>
				<g>
					
						<rect x="277.26" y="358.39" transform="matrix(6.123234e-17 -1 1 6.123234e-17 -79.5767 658.7946)" class="st0" width="24.71" height="21.6"/>
					<path d="M300.57,356.67v25.03h-21.92v-25.03H300.57z M300.25,381.38V357h-21.28v24.38H300.25z"/>
				</g>
			</g>
			<g>
				<g>
					<g>
						<path class="st0" d="M324.27,204.56c0.66,5.58,0.66,11.17,0,16.75c-0.81,6.43-7.33,11.24-13.28,10.9
							c-19.49-0.99-38.99-0.98-58.48,0.03c-5.66,0.33-11.84-4.23-12.65-10.34c-0.75-5.97-0.75-11.95,0-17.92
							c0.82-6.1,7-10.67,12.65-10.34c19.49,1.01,38.99,1.02,58.48,0.03C316.94,193.32,323.46,198.13,324.27,204.56z"/>
						<path class="st5" d="M324.98,212.94c0,2.81-0.16,5.61-0.49,8.4c-0.79,6.28-7.1,11.46-13.51,11.09
							c-19.39-0.98-39.06-0.97-58.46,0.03c-6.06,0.36-12.08-4.56-12.88-10.52c-0.75-5.97-0.75-12.01,0-17.98
							c0.8-5.97,6.82-10.88,12.88-10.53c19.4,1,39.07,1.01,58.46,0.03c6.41-0.37,12.72,4.81,13.51,11.08v0
							C324.82,207.33,324.98,210.13,324.98,212.94z M239.51,212.94c0,2.99,0.19,5.97,0.56,8.93c0.77,5.75,6.58,10.49,12.43,10.15
							c19.42-1,39.1-1.01,58.51-0.03c6.19,0.36,12.29-4.64,13.06-10.71c0.65-5.54,0.65-11.16,0-16.7
							c-0.76-6.06-6.86-11.07-13.06-10.71c-19.41,0.98-39.09,0.97-58.51-0.03c-5.85-0.34-11.66,4.4-12.43,10.15
							C239.69,206.97,239.51,209.95,239.51,212.94z"/>
					</g>
				</g>
				<g>
					<path class="st6" d="M313.3,199.58v26.72c0.31-0.03,0.62-0.07,0.94-0.11v-26.5C313.93,199.65,313.62,199.61,313.3,199.58z"/>
				</g>
				<g>
					<path class="st5" d="M303.74,196.86l-0.8,0.23c-5.7,1.66-13.26,2.57-21.29,2.57c-0.88,0-1.77-0.01-2.66-0.03l-0.06-0.01
						l-9.53-4.05l0.75-0.02c2.21-0.05,4.41-0.08,6.51-0.08c9.01,0,17.84,0.44,26.25,1.31L303.74,196.86z M279.03,199.3
						c0.88,0.02,1.76,0.03,2.62,0.03c7.61,0,14.8-0.82,20.37-2.33c-8.14-0.81-16.67-1.22-25.36-1.22c-1.87,0-3.8,0.02-5.76,0.06
						L279.03,199.3z"/>
				</g>
				<g>
					<path class="st5" d="M303.74,229.02l-0.83,0.09c-8.41,0.87-17.24,1.31-26.25,1.31c-2.09,0-4.28-0.03-6.51-0.08l-0.75-0.02
						l9.59-4.06c0.89-0.02,1.79-0.03,2.66-0.03c8.02,0,15.58,0.91,21.29,2.57L303.74,229.02z M270.91,230.03
						c1.97,0.04,3.9,0.06,5.76,0.06c8.7,0,17.22-0.41,25.36-1.22c-5.57-1.5-12.76-2.33-20.37-2.33c-0.86,0-1.75,0.01-2.62,0.03
						L270.91,230.03z"/>
				</g>
				<g>
					<path class="st0" d="M267.57,195.84h-14.02c-8.23,0-14.97,6.73-14.97,14.95v4.29c0,8.22,6.74,14.95,14.97,14.95h14.02
						c-1.29-5.59-1.95-11.34-1.93-17.1C265.62,207.19,266.28,201.44,267.57,195.84z"/>
					<path d="M267.77,195.68l-0.05,0.2c-1.29,5.64-1.96,11.37-1.93,17.06c0,0.07,0,0.15,0,0.22c0,5.61,0.65,11.27,1.93,16.83
						l0.05,0.2h-14.23c-8.34,0-15.13-6.78-15.13-15.11v-4.29c0-8.33,6.79-15.11,15.13-15.11H267.77z M238.74,215.09
						c0,8.15,6.64,14.79,14.81,14.79h13.82c-1.25-5.52-1.89-11.14-1.89-16.71c0-0.15,0-0.3,0-0.45c0-5.57,0.64-11.18,1.89-16.71
						h-13.82c-8.16,0-14.81,6.63-14.81,14.79V215.09z"/>
				</g>
				<g>
					<path class="st0" d="M300.4,200.59c-1.24,8.24-1.24,16.47,0,24.71c4.3,1.14,8.61,1.49,12.91,1.05v-26.81
						C309.01,199.1,304.71,199.45,300.4,200.59z"/>
					<path d="M313.48,199.39v27.1l-0.15,0.01c-4.3,0.44-8.67,0.08-12.97-1.06l-0.1-0.03l-0.02-0.11c-1.24-8.21-1.24-16.54,0-24.75
						l0.02-0.11l0.1-0.03c4.3-1.14,8.66-1.49,12.97-1.06L313.48,199.39z M313.15,226.2v-26.52c-4.18-0.41-8.42-0.06-12.6,1.04
						c-1.21,8.11-1.21,16.33,0,24.45C304.73,226.26,308.97,226.6,313.15,226.2z"/>
				</g>
				<g>
					<path class="st6" d="M313.31,199.53v26.81c0.31-0.03,0.62-0.07,0.94-0.11v-26.59C313.94,199.6,313.63,199.56,313.31,199.53z"/>
				</g>
				<g>
					<path class="st0" d="M314.25,226.24h6.73c1.77-3.27,2.88-8.02,2.88-13.3c0-5.28-1.11-10.02-2.88-13.3h-6.73V226.24z"/>
					<path d="M324.02,212.94c0,5.09-1.06,9.96-2.9,13.37l-0.05,0.09h-6.99v-26.92h6.99l0.05,0.09
						C322.96,202.98,324.02,207.85,324.02,212.94z M320.88,226.07c1.79-3.36,2.81-8.14,2.81-13.13s-1.02-9.77-2.81-13.13h-6.47
						v26.27H320.88z"/>
				</g>
				<g>
					<path class="st6" d="M267.48,195.95l-0.91-0.33c-3.13,11.31-3.13,23.32,0,34.63l0.91-0.33
						C264.48,218.82,264.48,207.06,267.48,195.95z"/>
				</g>
				<g>
					<path class="st0" d="M267.44,229.45l11.37-4.16v-24.7l-11.37-4.16C264.52,207.22,264.52,218.65,267.44,229.45z"/>
					<path d="M278.97,200.47v24.93l-11.64,4.25l-0.05-0.17c-2.93-10.83-2.93-22.27,0-33.1l0.05-0.17L278.97,200.47z M278.65,225.18
						V200.7l-11.1-4.06c-2.85,10.66-2.85,21.92,0,32.59L278.65,225.18z"/>
				</g>
				<g>
					<g>
						<path class="st5" d="M320.97,199.69v-0.17c0-2.01-1.65-3.66-3.66-3.66h-0.27C318.74,196.7,320.12,198.05,320.97,199.69z"/>
					</g>
					<g>
						<path class="st5" d="M320.97,226.19v0.17c0,2.01-1.65,3.66-3.66,3.66h-0.27C318.74,229.18,320.12,227.83,320.97,226.19z"/>
					</g>
				</g>
				<g>
					<g>
						<path class="st0" d="M276.46,191.3c-0.5-0.12-1.09,0-1.31,0.26l-2.58,2.98c-0.04,0.05-0.07,0.1-0.08,0.16h2.4l1.87-3.33
							L276.46,191.3z"/>
						<path class="st5" d="M277.01,191.26l-2.02,3.6h-2.69l0.04-0.19c0.02-0.08,0.06-0.16,0.12-0.23l2.58-2.98
							c0.26-0.31,0.91-0.44,1.47-0.31L277.01,191.26z M274.8,194.53l1.71-3.06l-0.09-0.02c-0.48-0.11-0.99,0.02-1.15,0.21
							l-2.48,2.87H274.8z"/>
					</g>
					<g>
						<path class="st0" d="M276.46,234.58c-0.5,0.12-1.09,0-1.31-0.26l-2.58-2.98c-0.04-0.05-0.07-0.1-0.08-0.16h2.4l1.87,3.33
							L276.46,234.58z"/>
						<path class="st5" d="M277.01,234.62l-0.51,0.12c-0.56,0.13-1.21,0-1.47-0.31l-2.58-2.98c-0.06-0.07-0.1-0.15-0.12-0.23
							l-0.04-0.19h2.69L277.01,234.62z M272.79,231.35l2.48,2.87c0.16,0.19,0.67,0.32,1.15,0.21l0.09-0.02l-1.71-3.06H272.79z"/>
					</g>
				</g>
				<g>
					<g>
						<path class="st5" d="M258.91,204.14c-5.38,0-10.11,0.95-12.85,2.4c2.81-1.07,6.87-1.74,11.38-1.74c2.18,0,4.26,0.16,6.14,0.44
							v-0.84C262.12,204.23,260.55,204.14,258.91,204.14z"/>
					</g>
					<g>
						<path class="st5" d="M258.91,221.74c-5.38,0-10.11-0.95-12.85-2.4c2.81,1.07,6.87,1.74,11.38,1.74c2.18,0,4.26-0.16,6.14-0.44
							v0.84C262.12,221.65,260.55,221.74,258.91,221.74z"/>
					</g>
				</g>
				<g>
					
						<rect x="277.26" y="202.14" transform="matrix(6.123234e-17 -1 1 6.123234e-17 76.6702 502.5477)" class="st0" width="24.71" height="21.6"/>
					<path d="M300.57,200.42v25.03h-21.92v-25.03H300.57z M300.25,225.13v-24.38h-21.28v24.38H300.25z"/>
				</g>
			</g>
			<g>
				<g>
					<g>
						<path class="st0" d="M324.27,253.61c0.66,5.58,0.66,11.17,0,16.75c-0.81,6.43-7.33,11.24-13.28,10.9
							c-19.49-0.99-38.99-0.98-58.48,0.03c-5.66,0.33-11.84-4.23-12.65-10.34c-0.75-5.97-0.75-11.95,0-17.92
							c0.82-6.1,7-10.67,12.65-10.34c19.49,1.01,38.99,1.02,58.48,0.03C316.94,242.37,323.46,247.18,324.27,253.61z"/>
						<path class="st5" d="M324.98,261.99c0,2.81-0.16,5.61-0.49,8.4c-0.79,6.28-7.1,11.46-13.51,11.09
							c-19.39-0.98-39.06-0.97-58.46,0.03c-6.06,0.36-12.08-4.56-12.88-10.52c-0.75-5.97-0.75-12.01,0-17.98
							c0.8-5.97,6.82-10.88,12.88-10.53c19.4,1,39.07,1.01,58.46,0.03c6.41-0.37,12.72,4.81,13.51,11.08v0
							C324.82,256.38,324.98,259.18,324.98,261.99z M239.51,261.99c0,2.99,0.19,5.97,0.56,8.93c0.77,5.75,6.58,10.49,12.43,10.15
							c19.42-1,39.1-1.01,58.51-0.03c6.19,0.36,12.29-4.64,13.06-10.71c0.65-5.54,0.65-11.16,0-16.7
							c-0.76-6.06-6.86-11.07-13.06-10.71c-19.41,0.98-39.09,0.97-58.51-0.03c-5.85-0.34-11.66,4.4-12.43,10.15
							C239.69,256.02,239.51,259,239.51,261.99z"/>
					</g>
				</g>
				<g>
					<path class="st6" d="M313.3,248.63v26.72c0.31-0.03,0.62-0.07,0.94-0.11v-26.5C313.93,248.7,313.62,248.66,313.3,248.63z"/>
				</g>
				<g>
					<path class="st5" d="M303.74,245.91l-0.8,0.23c-5.7,1.66-13.26,2.57-21.29,2.57c-0.88,0-1.77-0.01-2.66-0.03l-0.06-0.01
						l-9.53-4.05l0.75-0.02c2.21-0.05,4.41-0.08,6.51-0.08c9.01,0,17.84,0.44,26.25,1.31L303.74,245.91z M279.03,248.35
						c0.88,0.02,1.76,0.03,2.62,0.03c7.61,0,14.8-0.82,20.37-2.33c-8.14-0.81-16.67-1.22-25.36-1.22c-1.87,0-3.8,0.02-5.76,0.06
						L279.03,248.35z"/>
				</g>
				<g>
					<path class="st5" d="M303.74,278.07l-0.83,0.09c-8.41,0.87-17.24,1.31-26.25,1.31c-2.09,0-4.28-0.03-6.51-0.08l-0.75-0.02
						l9.59-4.06c0.89-0.02,1.79-0.03,2.66-0.03c8.02,0,15.58,0.91,21.29,2.57L303.74,278.07z M270.91,279.08
						c1.97,0.04,3.9,0.06,5.76,0.06c8.7,0,17.22-0.41,25.36-1.22c-5.57-1.5-12.76-2.33-20.37-2.33c-0.86,0-1.75,0.01-2.62,0.03
						L270.91,279.08z"/>
				</g>
				<g>
					<path class="st0" d="M267.57,244.89h-14.02c-8.23,0-14.97,6.73-14.97,14.95v4.29c0,8.22,6.74,14.95,14.97,14.95h14.02
						c-1.29-5.59-1.95-11.34-1.93-17.1C265.62,256.24,266.28,250.49,267.57,244.89z"/>
					<path d="M267.77,244.73l-0.05,0.2c-1.29,5.64-1.96,11.37-1.93,17.06c0,0.07,0,0.15,0,0.22c0,5.61,0.65,11.27,1.93,16.83
						l0.05,0.2h-14.23c-8.34,0-15.13-6.78-15.13-15.11v-4.29c0-8.33,6.79-15.11,15.13-15.11H267.77z M238.74,264.14
						c0,8.15,6.64,14.79,14.81,14.79h13.82c-1.25-5.52-1.89-11.14-1.89-16.71c0-0.15,0-0.3,0-0.45c0-5.57,0.64-11.18,1.89-16.71
						h-13.82c-8.16,0-14.81,6.63-14.81,14.79V264.14z"/>
				</g>
				<g>
					<path class="st0" d="M300.4,249.64c-1.24,8.24-1.24,16.47,0,24.71c4.3,1.14,8.61,1.49,12.91,1.05v-26.81
						C309.01,248.15,304.71,248.5,300.4,249.64z"/>
					<path d="M313.48,248.44v27.1l-0.15,0.01c-4.3,0.44-8.67,0.08-12.97-1.06l-0.1-0.03l-0.02-0.11c-1.24-8.21-1.24-16.54,0-24.75
						l0.02-0.11l0.1-0.03c4.3-1.14,8.66-1.49,12.97-1.06L313.48,248.44z M313.15,275.25v-26.52c-4.18-0.41-8.42-0.06-12.6,1.04
						c-1.21,8.11-1.21,16.33,0,24.45C304.73,275.31,308.97,275.65,313.15,275.25z"/>
				</g>
				<g>
					<path class="st6" d="M313.31,248.58v26.81c0.31-0.03,0.62-0.07,0.94-0.11v-26.59C313.94,248.65,313.63,248.61,313.31,248.58z"
						/>
				</g>
				<g>
					<path class="st0" d="M314.25,275.29h6.73c1.77-3.27,2.88-8.02,2.88-13.3c0-5.28-1.11-10.02-2.88-13.3h-6.73V275.29z"/>
					<path d="M324.02,261.99c0,5.09-1.06,9.96-2.9,13.37l-0.05,0.09h-6.99v-26.92h6.99l0.05,0.09
						C322.96,252.03,324.02,256.9,324.02,261.99z M320.88,275.12c1.79-3.36,2.81-8.14,2.81-13.13c0-4.99-1.02-9.77-2.81-13.13h-6.47
						v26.27H320.88z"/>
				</g>
				<g>
					<path class="st6" d="M267.48,245l-0.91-0.33c-3.13,11.31-3.13,23.32,0,34.63l0.91-0.33C264.48,267.87,264.48,256.11,267.48,245
						z"/>
				</g>
				<g>
					<path class="st0" d="M267.44,278.5l11.37-4.16v-24.7l-11.37-4.16C264.52,256.27,264.52,267.7,267.44,278.5z"/>
					<path d="M278.97,249.52v24.93l-11.64,4.25l-0.05-0.17c-2.93-10.83-2.93-22.27,0-33.1l0.05-0.17L278.97,249.52z M278.65,274.23
						v-24.48l-11.1-4.06c-2.85,10.66-2.85,21.92,0,32.59L278.65,274.23z"/>
				</g>
				<g>
					<g>
						<path class="st5" d="M320.97,248.74v-0.17c0-2.01-1.65-3.66-3.66-3.66h-0.27C318.74,245.75,320.12,247.1,320.97,248.74z"/>
					</g>
					<g>
						<path class="st5" d="M320.97,275.24v0.17c0,2.01-1.65,3.66-3.66,3.66h-0.27C318.74,278.23,320.12,276.88,320.97,275.24z"/>
					</g>
				</g>
				<g>
					<g>
						<path class="st0" d="M276.46,240.35c-0.5-0.12-1.09,0-1.31,0.26l-2.58,2.98c-0.04,0.05-0.07,0.1-0.08,0.16h2.4l1.87-3.33
							L276.46,240.35z"/>
						<path class="st5" d="M277.01,240.31l-2.02,3.6h-2.69l0.04-0.19c0.02-0.08,0.06-0.16,0.12-0.23l2.58-2.98
							c0.26-0.31,0.91-0.44,1.47-0.31L277.01,240.31z M274.8,243.58l1.71-3.06l-0.09-0.02c-0.48-0.11-0.99,0.02-1.15,0.21
							l-2.48,2.87H274.8z"/>
					</g>
					<g>
						<path class="st0" d="M276.46,283.63c-0.5,0.12-1.09,0-1.31-0.26l-2.58-2.98c-0.04-0.05-0.07-0.1-0.08-0.16h2.4l1.87,3.33
							L276.46,283.63z"/>
						<path class="st5" d="M277.01,283.67l-0.51,0.12c-0.56,0.13-1.21,0-1.47-0.31l-2.58-2.98c-0.06-0.07-0.1-0.15-0.12-0.23
							l-0.04-0.19h2.69L277.01,283.67z M272.79,280.4l2.48,2.87c0.16,0.19,0.67,0.32,1.15,0.21l0.09-0.02l-1.71-3.06H272.79z"/>
					</g>
				</g>
				<g>
					<g>
						<path class="st5" d="M258.91,253.19c-5.38,0-10.11,0.95-12.85,2.4c2.81-1.07,6.87-1.74,11.38-1.74c2.18,0,4.26,0.16,6.14,0.44
							v-0.84C262.12,253.28,260.55,253.19,258.91,253.19z"/>
					</g>
					<g>
						<path class="st5" d="M258.91,270.79c-5.38,0-10.11-0.95-12.85-2.4c2.81,1.07,6.87,1.74,11.38,1.74c2.18,0,4.26-0.16,6.14-0.44
							v0.84C262.12,270.7,260.55,270.79,258.91,270.79z"/>
					</g>
				</g>
				<g>
					
						<rect x="277.26" y="251.19" transform="matrix(6.123234e-17 -1 1 6.123234e-17 27.6199 551.5979)" class="st0" width="24.71" height="21.6"/>
					<path d="M300.57,249.47v25.03h-21.92v-25.03H300.57z M300.25,274.18V249.8h-21.28v24.38H300.25z"/>
				</g>
			</g>
			<g>
				<path d="M382.29,253.64c-1.35,0.6-3.99,1.41-5.82,1.8l-0.66-2.25c2.76-0.57,5.85-1.71,7.26-2.67h2.01v24.75h-2.79V253.64z"/>
				<path d="M401.25,263.48c-0.3,1.08-0.66,2.1-0.99,2.94h16.86c-0.24,3.66-0.84,6.93-1.59,8.58c-0.75,1.68-1.71,2.16-4.41,2.16
					c-1.59,0-3.72-0.09-5.19-0.21l-0.54-2.28c2.07,0.18,4.08,0.3,5.52,0.3c1.5,0,1.95-0.24,2.37-1.2c0.36-0.93,0.84-3.03,1.14-5.31
					h-14.97c-0.39,0.84-0.81,1.71-1.26,2.55l-2.43-0.69c1.08-1.92,2.07-4.2,2.97-6.84h-6.69v-2.04h28.5v2.04H401.25z M416.07,258.71
					h-19.59v-8.52h19.59V258.71z M398.91,256.79h14.73v-4.62h-14.73V256.79z"/>
				<path d="M428.28,262.49c-0.96,3.06-2.19,5.82-3.63,8.13l-1.11-2.4c1.95-2.91,3.48-6.54,4.53-10.83h-4.11v-2.1h4.32v-6.42h2.22
					v6.42h3.12v2.1h-3.12v2.79c1.35,1.11,2.61,2.31,3.69,3.51l-1.26,2.01c-0.54-0.81-1.53-2.07-2.43-3.09v14.76h-2.22V262.49z
					 M445.02,266.66c1.92,2.76,4.44,4.98,7.65,6.78l-1.41,2.1c-3.15-1.98-5.94-4.74-7.74-7.68v9.51h-2.13v-9.33
					c-1.89,3.21-4.44,5.85-7.71,7.92l-1.5-1.83c3.27-1.83,5.88-4.29,7.86-7.47h-5.55v-10.68h6.9v-2.22h-8.46v-1.95h8.46v-2.94h2.13
					v2.94h8.64v1.95h-8.64v2.22h7.11v10.68H445.02z M436.62,257.81v2.55h4.77v-2.55H436.62z M436.62,262.19v2.61h4.77v-2.61H436.62z
					 M443.52,260.36h5.01v-2.55h-5.01V260.36z M443.52,264.8h5.01v-2.61h-5.01V264.8z"/>
			</g>
			<g>
				<path d="M549.11,310.91c0.78-3.21,3.42-6.42,7.47-9.12l0.78-0.51c4.2-2.73,5.31-4.05,5.31-6.24c0-2.46-2.04-4.11-5.13-4.11
					c-2.52,0-4.29,0.93-6.21,3.21l-1.89-1.59c2.28-2.82,4.71-4.02,8.22-4.02c4.68,0,8.1,2.76,8.1,6.57c0,3.03-1.17,4.44-6.54,7.86
					l-1.08,0.69c-3.57,2.34-5.82,4.92-6.09,7.08h14.07v2.55h-17.01V310.91z"/>
				<path d="M579.08,301.49c-0.3,1.08-0.66,2.1-0.99,2.94h16.86c-0.24,3.66-0.84,6.93-1.59,8.58c-0.75,1.68-1.71,2.16-4.41,2.16
					c-1.59,0-3.72-0.09-5.19-0.21l-0.54-2.28c2.07,0.18,4.08,0.3,5.52,0.3c1.5,0,1.95-0.24,2.37-1.2c0.36-0.93,0.84-3.03,1.14-5.31
					h-14.97c-0.39,0.84-0.81,1.71-1.26,2.55l-2.43-0.69c1.08-1.92,2.07-4.2,2.97-6.84h-6.69v-2.04h28.5v2.04H579.08z M593.9,296.72
					h-19.59v-8.52h19.59V296.72z M576.74,294.8h14.73v-4.62h-14.73V294.8z"/>
				<path d="M606.11,300.5c-0.96,3.06-2.19,5.82-3.63,8.13l-1.11-2.4c1.95-2.91,3.48-6.54,4.53-10.83h-4.11v-2.1h4.32v-6.42h2.22
					v6.42h3.12v2.1h-3.12v2.79c1.35,1.11,2.61,2.31,3.69,3.51l-1.26,2.01c-0.54-0.81-1.53-2.07-2.43-3.09v14.76h-2.22V300.5z
					 M622.85,304.67c1.92,2.76,4.44,4.98,7.65,6.78l-1.41,2.1c-3.15-1.98-5.94-4.74-7.74-7.68v9.51h-2.13v-9.33
					c-1.89,3.21-4.44,5.85-7.71,7.92l-1.5-1.83c3.27-1.83,5.88-4.29,7.86-7.47h-5.55v-10.68h6.9v-2.22h-8.46v-1.95h8.46v-2.94h2.13
					v2.94h8.64v1.95h-8.64v2.22h7.11v10.68H622.85z M614.45,295.82v2.55h4.77v-2.55H614.45z M614.45,300.2v2.61h4.77v-2.61H614.45z
					 M621.35,298.37h5.01v-2.55h-5.01V298.37z M621.35,302.81h5.01v-2.61h-5.01V302.81z"/>
			</g>
		</g>
		<polyline class="グラフィックスタイル_x0020_9" points="87.24,136.5 96.72,191.09 61.94,441.08 		"/>
		<polyline class="st25" points="204.07,136.5 219.98,398.92 224.76,441.08 		"/>
		<g>
			<g>
				<path class="st26" d="M78.36,251.19c1.21-0.59,2.39-1.57,3.27-2.77l0.9,0.55c-0.92,1.29-2.11,2.34-3.45,3.05L78.36,251.19z
					 M78.55,254.17c4.08,0.01,6.82-0.89,9.2-3.05l0.76,0.77c-2.64,2.26-5.6,3.29-9.51,3.32L78.55,254.17z M90.37,245.15l-0.13,0.93
					l-4.29-0.58l-0.26,1.93l5.93,0.8l-0.13,0.96l-5.93-0.8l-0.45,3.3c-0.1,0.72-0.47,0.94-1.4,0.82c-0.57-0.08-0.96-0.14-1.38-0.26
					l-0.02-1.01c0.49,0.14,1.07,0.26,1.35,0.29c0.29,0.04,0.39-0.03,0.43-0.37l0.4-2.93l-5.91-0.8l0.13-0.96l2.35,0.32l0.42-3.14
					l1.1,0.15l-0.42,3.14l2.46,0.33l0.63-4.71l1.08,0.15l-0.25,1.85L90.37,245.15z M90.02,253.15c-0.86-1.39-1.76-2.54-2.67-3.48
					l0.86-0.49c0.97,0.89,1.94,2.07,2.76,3.31L90.02,253.15z"/>
				<path class="st26" d="M78.9,267.47c0.97,1.28,2.21,1.88,4.54,2.21l5.46,0.74c-0.18,0.29-0.33,0.59-0.46,0.94l-5.28-0.71
					c-2.43-0.36-3.71-1-4.74-2.36c-0.72,0.65-1.62,1.29-2.44,1.75l-0.48-1.07c0.71-0.3,1.52-0.76,2.31-1.31l0.5-3.72l-2.05-0.28
					l0.13-0.94l3.11,0.42L78.9,267.47z M79.24,260.46c-0.53-1.02-1.12-1.95-1.71-2.63l0.85-0.54c0.71,0.82,1.31,1.68,1.78,2.54
					L79.24,260.46z M80.7,259.91l0.12-0.88l2.46,0.33c-0.18-0.48-0.42-0.97-0.71-1.45l1.02-0.24c0.36,0.68,0.57,1.21,0.77,1.84
					l1.8,0.24c0.33-0.45,0.75-1.14,1-1.63l1.06,0.42c-0.29,0.46-0.65,0.97-0.99,1.35l2.6,0.35l-0.12,0.88l-4.01-0.54
					c-0.1,0.23-0.4,0.78-0.59,1.09l3.48,0.47l-0.96,7.08l-7.07-0.95l0.96-7.08l2.55,0.34c0.23-0.44,0.4-0.79,0.52-1.1L80.7,259.91z
					 M81.71,267.59l5,0.68l0.19-1.39l-5-0.67L81.71,267.59z M82,265.41l5,0.67l0.17-1.26l-5-0.67L82,265.41z M82.28,263.4l5,0.67
					l0.17-1.28l-5-0.67L82.28,263.4z"/>
			</g>
			<g>
				<path d="M78.36,251.19c1.21-0.59,2.39-1.57,3.27-2.77l0.9,0.55c-0.92,1.29-2.11,2.34-3.45,3.05L78.36,251.19z M78.55,254.17
					c4.08,0.01,6.82-0.89,9.2-3.05l0.76,0.77c-2.64,2.26-5.6,3.29-9.51,3.32L78.55,254.17z M90.37,245.15l-0.13,0.93l-4.29-0.58
					l-0.26,1.93l5.93,0.8l-0.13,0.96l-5.93-0.8l-0.45,3.3c-0.1,0.72-0.47,0.94-1.4,0.82c-0.57-0.08-0.96-0.14-1.38-0.26l-0.02-1.01
					c0.49,0.14,1.07,0.26,1.35,0.29c0.29,0.04,0.39-0.03,0.43-0.37l0.4-2.93l-5.91-0.8l0.13-0.96l2.35,0.32l0.42-3.14l1.1,0.15
					l-0.42,3.14l2.46,0.33l0.63-4.71l1.08,0.15l-0.25,1.85L90.37,245.15z M90.02,253.15c-0.86-1.39-1.76-2.54-2.67-3.48l0.86-0.49
					c0.97,0.89,1.94,2.07,2.76,3.31L90.02,253.15z"/>
				<path d="M78.9,267.47c0.97,1.28,2.21,1.88,4.54,2.21l5.46,0.74c-0.18,0.29-0.33,0.59-0.46,0.94l-5.28-0.71
					c-2.43-0.36-3.71-1-4.74-2.36c-0.72,0.65-1.62,1.29-2.44,1.75l-0.48-1.07c0.71-0.3,1.52-0.76,2.31-1.31l0.5-3.72l-2.05-0.28
					l0.13-0.94l3.11,0.42L78.9,267.47z M79.24,260.46c-0.53-1.02-1.12-1.95-1.71-2.63l0.85-0.54c0.71,0.82,1.31,1.68,1.78,2.54
					L79.24,260.46z M80.7,259.91l0.12-0.88l2.46,0.33c-0.18-0.48-0.42-0.97-0.71-1.45l1.02-0.24c0.36,0.68,0.57,1.21,0.77,1.84
					l1.8,0.24c0.33-0.45,0.75-1.14,1-1.63l1.06,0.42c-0.29,0.46-0.65,0.97-0.99,1.35l2.6,0.35l-0.12,0.88l-4.01-0.54
					c-0.1,0.23-0.4,0.78-0.59,1.09l3.48,0.47l-0.96,7.08l-7.07-0.95l0.96-7.08l2.55,0.34c0.23-0.44,0.4-0.79,0.52-1.1L80.7,259.91z
					 M81.71,267.59l5,0.68l0.19-1.39l-5-0.67L81.71,267.59z M82,265.41l5,0.67l0.17-1.26l-5-0.67L82,265.41z M82.28,263.4l5,0.67
					l0.17-1.28l-5-0.67L82.28,263.4z"/>
			</g>
		</g>
		<g>
			<g>
				<path class="st26" d="M219.48,244.2l0.03,0.94l-4.33,0.13l0.06,1.95l5.98-0.18l0.03,0.97l-5.98,0.18l0.1,3.33
					c0.02,0.73-0.31,1-1.25,1.03c-0.57,0.02-0.97,0.01-1.4-0.03l-0.18-0.99c0.51,0.05,1.09,0.08,1.38,0.07
					c0.29-0.01,0.38-0.09,0.37-0.43l-0.09-2.95l-5.96,0.18l-0.03-0.97l2.37-0.07l-0.09-3.16l1.11-0.03l0.09,3.16l2.48-0.07
					l-0.14-4.75l1.09-0.03l0.06,1.86L219.48,244.2z M208.62,252.12c1.1-0.78,2.1-1.94,2.77-3.26l0.98,0.39
					c-0.7,1.42-1.7,2.66-2.91,3.58L208.62,252.12z M209.3,255.03c4.03-0.65,6.58-1.99,8.58-4.52l0.87,0.63
					c-2.23,2.66-4.99,4.16-8.84,4.83L209.3,255.03z M220.45,252.15c-1.07-1.23-2.15-2.22-3.2-3l0.77-0.63
					c1.1,0.72,2.25,1.73,3.27,2.82L220.45,252.15z"/>
				<path class="st26" d="M211.82,268.09c1.17,1.1,2.48,1.5,4.83,1.44l5.5-0.17c-0.13,0.31-0.23,0.64-0.31,1l-5.32,0.16
					c-2.45,0.04-3.82-0.38-5.06-1.56c-0.61,0.76-1.38,1.54-2.12,2.12l-0.65-0.98c0.65-0.41,1.37-0.99,2.07-1.67l-0.11-3.75
					l-2.07,0.06l-0.03-0.95l3.14-0.09L211.82,268.09z M211.01,261.12c-0.69-0.92-1.43-1.74-2.12-2.32l0.75-0.67
					c0.83,0.69,1.57,1.44,2.17,2.22L211.01,261.12z M212.36,260.34l-0.03-0.88l2.48-0.07c-0.25-0.44-0.57-0.89-0.94-1.32l0.97-0.41
					c0.47,0.62,0.76,1.1,1.06,1.69l1.82-0.05c0.25-0.5,0.55-1.25,0.72-1.77l1.11,0.25c-0.21,0.5-0.49,1.07-0.75,1.49l2.62-0.08
					l0.03,0.88l-4.05,0.12c-0.06,0.24-0.27,0.83-0.4,1.18l3.51-0.11l0.21,7.14l-7.13,0.21l-0.21-7.14l2.58-0.08
					c0.15-0.47,0.27-0.85,0.33-1.17L212.36,260.34z M214.48,263.53l5.04-0.15l-0.04-1.29l-5.04,0.15L214.48,263.53z M214.55,265.56
					l5.04-0.15l-0.04-1.27l-5.04,0.15L214.55,265.56z M214.61,267.76l5.04-0.15l-0.04-1.4l-5.04,0.15L214.61,267.76z"/>
			</g>
			<g>
				<path d="M219.48,244.2l0.03,0.94l-4.33,0.13l0.06,1.95l5.98-0.18l0.03,0.97l-5.98,0.18l0.1,3.33c0.02,0.73-0.31,1-1.25,1.03
					c-0.57,0.02-0.97,0.01-1.4-0.03l-0.18-0.99c0.51,0.05,1.09,0.08,1.38,0.07c0.29-0.01,0.38-0.09,0.37-0.43l-0.09-2.95l-5.96,0.18
					l-0.03-0.97l2.37-0.07l-0.09-3.16l1.11-0.03l0.09,3.16l2.48-0.07l-0.14-4.75l1.09-0.03l0.06,1.86L219.48,244.2z M208.62,252.12
					c1.1-0.78,2.1-1.94,2.77-3.26l0.98,0.39c-0.7,1.42-1.7,2.66-2.91,3.58L208.62,252.12z M209.3,255.03
					c4.03-0.65,6.58-1.99,8.58-4.52l0.87,0.63c-2.23,2.66-4.99,4.16-8.84,4.83L209.3,255.03z M220.45,252.15
					c-1.07-1.23-2.15-2.22-3.2-3l0.77-0.63c1.1,0.72,2.25,1.73,3.27,2.82L220.45,252.15z"/>
				<path d="M211.82,268.09c1.17,1.1,2.48,1.5,4.83,1.44l5.5-0.17c-0.13,0.31-0.23,0.64-0.31,1l-5.32,0.16
					c-2.45,0.04-3.82-0.38-5.06-1.56c-0.61,0.76-1.38,1.54-2.12,2.12l-0.65-0.98c0.65-0.41,1.37-0.99,2.07-1.67l-0.11-3.75
					l-2.07,0.06l-0.03-0.95l3.14-0.09L211.82,268.09z M211.01,261.12c-0.69-0.92-1.43-1.74-2.12-2.32l0.75-0.67
					c0.83,0.69,1.57,1.44,2.17,2.22L211.01,261.12z M212.36,260.34l-0.03-0.88l2.48-0.07c-0.25-0.44-0.57-0.89-0.94-1.32l0.97-0.41
					c0.47,0.62,0.76,1.1,1.06,1.69l1.82-0.05c0.25-0.5,0.55-1.25,0.72-1.77l1.11,0.25c-0.21,0.5-0.49,1.07-0.75,1.49l2.62-0.08
					l0.03,0.88l-4.05,0.12c-0.06,0.24-0.27,0.83-0.4,1.18l3.51-0.11l0.21,7.14l-7.13,0.21l-0.21-7.14l2.58-0.08
					c0.15-0.47,0.27-0.85,0.33-1.17L212.36,260.34z M214.48,263.53l5.04-0.15l-0.04-1.29l-5.04,0.15L214.48,263.53z M214.55,265.56
					l5.04-0.15l-0.04-1.27l-5.04,0.15L214.55,265.56z M214.61,267.76l5.04-0.15l-0.04-1.4l-5.04,0.15L214.61,267.76z"/>
			</g>
		</g>
	</g>
</g>
</svg>
