<?xml version="1.0" encoding="utf-8"?>
<!-- Generator: Adobe Illustrator 23.0.3, SVG Export Plug-In . SVG Version: 6.00 Build 0)  -->
<svg version="1.1" xmlns="http://www.w3.org/2000/svg" xmlns:xlink="http://www.w3.org/1999/xlink" x="0px" y="0px"
	 viewBox="0 0 700 500" style="enable-background:new 0 0 700 500;" xml:space="preserve">
<style type="text/css">
	.グラフィックスタイル{fill:none;stroke:#000000;stroke-width:2;stroke-miterlimit:10;}
	.グラフィックスタイル_x0020_2{fill:#D8EACC;stroke:#000000;stroke-width:2;}
	.グラフィックスタイル_x0020_4{fill:#FFFFFF;stroke:#000000;stroke-width:1.2664;stroke-miterlimit:10;}
	.グラフィックスタイル_x0020_7{fill:none;stroke:#000000;stroke-width:1.5;stroke-linejoin:bevel;stroke-miterlimit:10;}
	.グラフィックスタイル_x0020_8{fill:#FFFFFF;stroke:#000000;stroke-width:1.5;stroke-miterlimit:10;}
	.st0{fill:#FFFFFF;}
	.st1{fill:#D8EACC;stroke:#000000;stroke-width:2;}
	.st2{fill:none;stroke:#000000;stroke-width:1.4318;stroke-linecap:round;stroke-linejoin:round;}
	.st3{fill:none;stroke:#000000;stroke-width:1.8264;stroke-linecap:round;stroke-linejoin:round;}
	.st4{fill:#FFFFFF;stroke:#000000;stroke-width:2;stroke-miterlimit:10;}
	.st5{fill:#FFFFFF;stroke:#000000;stroke-width:1.2664;stroke-miterlimit:10;}
	.st6{fill:#030201;}
	.st7{fill:#242323;}
	.st8{fill:none;stroke:#000000;stroke-width:2;stroke-linejoin:round;stroke-miterlimit:10;}
	.st9{fill:none;stroke:#000000;stroke-width:2;stroke-miterlimit:10;}
	.st10{fill:none;stroke:#000000;stroke-width:2;stroke-linejoin:bevel;stroke-miterlimit:10;}
	.st11{fill:#E83589;}
	.st12{fill:none;stroke:#000000;stroke-width:2;stroke-miterlimit:10;stroke-dasharray:5.901,5.901;}
	.st13{fill:none;stroke:#000000;stroke-width:1.5;stroke-linejoin:bevel;stroke-miterlimit:10;}
	.st14{fill:#D8EACC;stroke:#000000;stroke-width:1.5;}
	.st15{fill:none;stroke:#000000;stroke-width:1.5;stroke-miterlimit:10;}
	.st16{fill:none;stroke:#000000;stroke-linejoin:bevel;stroke-miterlimit:10;}
	.st17{fill:#FFFFFF;stroke:#000000;stroke-width:1.5;stroke-miterlimit:10;}
	.st18{fill:#FFFFFF;stroke:#DE0000;stroke-width:2;stroke-miterlimit:10;}
	.st19{fill:#DE0000;}
	.st20{fill:none;stroke:#000000;stroke-miterlimit:10;}
	.st21{fill:none;stroke:#000000;stroke-miterlimit:10;stroke-dasharray:3.0312,3.0312;}
	.st22{fill:url(#);stroke:#000000;stroke-width:1.1494;}
	.st23{fill:#FFFFFF;stroke:#000000;stroke-miterlimit:10;}
	.st24{fill:none;stroke:#000000;stroke-width:3;stroke-miterlimit:10;stroke-dasharray:5;}
	.st25{fill:none;stroke:#FFFFFF;stroke-width:0.75;stroke-linejoin:round;}
	.st26{fill:none;stroke:#000000;stroke-miterlimit:10;stroke-dasharray:5;}
	.st27{fill:none;stroke:#FFFFFF;stroke-width:3;stroke-linejoin:round;}
	.st28{fill:none;stroke:#000000;stroke-width:1.3;stroke-linejoin:bevel;stroke-miterlimit:10;}
	.st29{fill:none;stroke:#000000;stroke-width:1.5;stroke-miterlimit:10;stroke-dasharray:5;}
	.st30{fill:none;stroke:#47738A;stroke-linejoin:bevel;stroke-miterlimit:10;}
	.st31{fill:none;}
	.st32{fill:none;stroke:#FFFFFF;stroke-width:5;stroke-linejoin:round;}
	.st33{fill:#D8EACC;}
	.st34{fill:#D8EACC;stroke:#000000;stroke-width:0.25;}
	.st35{fill:none;stroke:#000000;stroke-width:2;}
	.st36{fill:none;stroke:#FFFFFF;stroke-linejoin:round;}
	.st37{fill:none;stroke:#000000;stroke-width:1.9773;stroke-linecap:round;stroke-linejoin:round;}
	.st38{fill:none;stroke:#000000;stroke-width:2.5222;stroke-linecap:round;stroke-linejoin:round;}
	.st39{fill:#FFFFFF;stroke:#000000;stroke-width:1.0238;stroke-miterlimit:10;}
	.st40{fill:#FFFFFF;stroke:#000000;stroke-width:1.089;stroke-miterlimit:10;}
	.st41{fill:#FFFFFF;stroke:#000000;stroke-width:1.2553;stroke-miterlimit:10;}
	.st42{fill:url(#);}
	.st43{fill:none;stroke:#000000;stroke-width:1.7765;stroke-linejoin:bevel;stroke-miterlimit:10;}
	.st44{fill:none;stroke:#000000;stroke-width:2.3687;stroke-miterlimit:10;}
	.st45{fill:#D8EACC;stroke:#000000;stroke-width:2.0455;}
	.st46{fill:none;stroke:#000000;stroke-width:2.0455;stroke-linecap:round;stroke-miterlimit:10;stroke-dasharray:0,6.1366;}
	.st47{fill:#FFFFFF;stroke:#000000;stroke-width:2.3687;stroke-miterlimit:10;}
	.st48{fill:#FFFFFF;stroke:#000000;stroke-width:1.4998;stroke-miterlimit:10;}
	.st49{fill:#FFFFFF;stroke:#000000;stroke-width:0.6137;stroke-miterlimit:10;}
	.st50{fill:url(#);stroke:#000000;stroke-width:1.0228;}
	.st51{fill:none;stroke:#FFFFFF;stroke-width:4.0911;stroke-linejoin:round;}
	.st52{fill:none;stroke:#000000;stroke-width:2.4559;stroke-linecap:round;stroke-linejoin:round;}
	.st53{fill:none;stroke:#000000;stroke-width:3.1327;stroke-linecap:round;stroke-linejoin:round;}
	.st54{fill:none;stroke:#FFFFFF;stroke-width:4;stroke-linejoin:round;}
</style>
<g id="レイヤー_5">
	<rect x="-369.06" y="-2032.14" class="st0" width="5667.56" height="5248"/>
</g>
<g id="レイヤー_1">
</g>
<g id="レイヤー_3">
</g>
<g id="レイヤー_4">
</g>
<g id="レイヤー_2">
	<g>
		<rect class="st0" width="700" height="500"/>
		<polyline class="st2" points="144.49,288.55 144.49,276.81 151.39,288.55 151.39,276.81 		"/>
		<g>
			<circle class="st3" cx="156.92" cy="318.21" r="24.35"/>
			<polygon points="160.65,331.35 173.52,335 150.43,295.36 151.63,341.22 			"/>
		</g>
		<g>
			
				<rect x="139.16" y="183.34" transform="matrix(6.123234e-17 -1 1 6.123234e-17 -72.2972 389.9214)" class="st11" width="39.3" height="95.53"/>
			<g>
				<path class="st0" d="M128.28,236.95h15.55v2.09h-15.55v1.41h-2.32V221.9h17.34v2.01h-15.01V236.95z M128.96,234.61
					c2.12-1.08,3.67-2.24,5.41-4.02c-1.33-1.12-3.09-2.38-4.83-3.52l1.41-1.58c1.72,1.08,3.21,2.13,4.85,3.4
					c1.02-1.35,1.85-2.72,2.7-4.44l2.09,1.02c-0.93,1.85-1.97,3.5-3.01,4.85c1.16,0.95,2.7,2.32,4.25,3.79l-1.64,1.72
					c-1.35-1.35-2.86-2.74-4.08-3.79c-1.74,1.85-3.55,3.19-5.76,4.35L128.96,234.61z"/>
				<path class="st0" d="M157.44,223.72h-8.69v-1.87h19.7v1.87h-8.81v1.99h4.44v10.35h-10.97v-10.35h4.33V223.72z M165.65,237.41
					v-11.7h2.12v14.74h-2.12v-1.14h-14.12v1.14h-2.09v-14.74h2.09v11.7H165.65z M155.08,227.41v2.51h2.45v-2.51H155.08z
					 M155.08,231.52v2.8h2.45v-2.8H155.08z M159.56,229.92h2.55v-2.51h-2.55V229.92z M159.56,234.32h2.55v-2.8h-2.55V234.32z"/>
				<path class="st0" d="M191.64,240.46h-2.26v-1.06h-13.44v1.06h-2.24v-18.75h17.94V240.46z M175.94,237.45h13.44V223.6h-13.44
					V237.45z M187.45,236.56c-1.31-0.81-2.84-1.68-4.23-2.38c-1.51,1.27-3.34,2.28-5.37,3.01l-1.29-1.56
					c1.89-0.6,3.23-1.31,4.67-2.45l-0.54-0.25c-1.35-0.66-2.34-1.1-4.11-1.82l0.93-1.54c2.09,0.77,3.3,1.25,5.29,2.18
					c1.68-1.78,3.09-4.33,3.86-7.03l2.01,0.62c-0.85,2.63-2.38,5.5-3.94,7.34c0.1,0.06,0.1,0.06,0.19,0.1
					c1.04,0.52,2.18,1.14,3.75,2.07L187.45,236.56z M178.72,229.78c-0.48-1.62-1.04-2.99-1.66-4.06l1.91-0.77
					c0.66,1.16,1.22,2.49,1.72,4.04L178.72,229.78z M182.29,228.97c-0.5-1.58-1.06-2.92-1.68-4.08l1.82-0.73
					c0.75,1.33,1.39,2.8,1.72,4L182.29,228.97z"/>
			</g>
		</g>
		<g>
			<polygon class="グラフィックスタイル_x0020_2" points="242.64,111.26 399.83,111.26 399.83,427.43 356.16,432.17 
				242.64,463.82 			"/>
			<polygon class="グラフィックスタイル_x0020_2" points="399.83,111.26 557.02,111.26 557.02,413.33 399.83,427.43 			
				"/>
			<line class="グラフィックスタイル" x1="242.64" y1="463.82" x2="198.64" y2="478.94"/>
			<line class="グラフィックスタイル" x1="198.64" y1="111.26" x2="574.62" y2="111.26"/>
			<line class="グラフィックスタイル" x1="198.64" y1="35.79" x2="574.62" y2="35.79"/>
			<polyline class="グラフィックスタイル_x0020_7" points="231.35,99.31 242.64,111.26 242.64,35.79 252.85,45.74 			"/>
			<g>
				<g>
					<path d="M247.75,98.69h9.82v-2.81h1.4v2.81h3.57v1.6h-3.57v7.47h-1.38l-9.83-7.08V98.69z M252.34,100.29
						c-0.83,0-2.25-0.04-3.14-0.09v0.07c0.96,0.49,1.8,0.96,2.3,1.32l6.06,4.32v-5.62H252.34z"/>
					<path d="M259.94,91.35h2.59v2.59h-2.59V91.35z"/>
					<path d="M255.18,77.38c4.72,0,7.62,2.09,7.62,5.44s-2.92,5.44-7.62,5.44c-4.72,0-7.62-2.09-7.62-5.46
						C247.57,79.46,250.49,77.38,255.18,77.38z M255.18,86.49c3.81,0,6.17-1.4,6.17-3.68c0-2.25-2.36-3.65-6.17-3.65
						c-3.85,0-6.19,1.4-6.19,3.68C249,85.09,251.38,86.49,255.18,86.49z"/>
					<path d="M247.84,63.99h1.22c4.5,2.41,8.87,4.01,13.48,4.92v1.71c-3.46-0.62-8.83-2.54-13.24-4.72v7.08h3.39v1.58h-4.84V63.99z"
						/>
					<path d="M255.18,50.9c4.72,0,7.62,2.09,7.62,5.44s-2.92,5.44-7.62,5.44c-4.72,0-7.62-2.09-7.62-5.46
						C247.57,52.98,250.49,50.9,255.18,50.9z M255.18,60.01c3.81,0,6.17-1.4,6.17-3.68c0-2.25-2.36-3.65-6.17-3.65
						c-3.85,0-6.19,1.4-6.19,3.68C249,58.61,251.38,60.01,255.18,60.01z"/>
				</g>
			</g>
			<g>
				<path d="M416.45,52.85v1.63h-9.98v2.9h7.69v9.05c0,1.32-0.59,1.79-2.2,1.79c-0.93,0-1.86-0.04-2.79-0.14l-0.29-1.72
					c1.13,0.16,2,0.23,2.74,0.23c0.59,0,0.73-0.11,0.73-0.66v-6.96h-5.87v12.31h-1.79V58.97h-5.58v9.5h-1.79V57.39h7.37v-2.9h-9.77
					v-1.63h9.77v-3.11h1.79v3.11H416.45z"/>
				<path d="M424.02,66.57c1.84,1.84,3.95,2.54,7.75,2.56h8.91c-0.23,0.5-0.41,1.02-0.54,1.61h-8.62c-3.97-0.05-6.17-0.79-8.12-2.77
					c-1.02,1.2-2.31,2.43-3.54,3.33l-1-1.61c1.07-0.63,2.27-1.54,3.42-2.61v-6.08h-3.36v-1.54h5.08V66.57z M423.05,55.25
					c-1.07-1.52-2.22-2.88-3.31-3.85l1.25-1.04c1.32,1.16,2.47,2.4,3.4,3.7L423.05,55.25z M425.27,54.05v-1.43h4.01
					c-0.39-0.73-0.88-1.47-1.45-2.18l1.59-0.61c0.73,1.02,1.18,1.81,1.63,2.79H434c0.43-0.79,0.95-2,1.25-2.83l1.79,0.45
					c-0.36,0.79-0.84,1.7-1.29,2.38h4.24v1.43h-6.55c-0.11,0.38-0.48,1.34-0.7,1.88h5.69V67.5h-11.54V55.94h4.17
					c0.27-0.75,0.48-1.36,0.59-1.88H425.27z M428.56,59.31h8.16v-2.09h-8.16V59.31z M428.56,62.6h8.16v-2.06h-8.16V62.6z
					 M428.56,66.16h8.16v-2.27h-8.16V66.16z"/>
				<path d="M334.42,87.72c-1.11-1.32-2.36-2.54-3.54-3.49l1.2-1.25c1.29,0.95,2.58,2.18,3.61,3.4L334.42,87.72z M331.43,96.95
					c1.34-1.77,2.77-4.42,3.99-7.44l1.43,1.11c-1.11,2.83-2.54,5.62-3.97,7.66L331.43,96.95z M335.24,81.94
					c-0.86-1.13-2.22-2.52-3.45-3.54l1.18-1.18c1.22,0.91,2.56,2.18,3.54,3.38L335.24,81.94z M344.22,88.38l-0.02,0.05
					c-0.66,1.93-2.06,4.97-3.22,7.03l-0.09,0.2l1.68-0.14c1.68-0.14,4.24-0.41,6.26-0.68c-0.7-1.18-1.52-2.4-2.38-3.61l1.43-0.79
					c1.84,2.34,3.38,4.69,4.47,6.87l-1.61,1.02c-0.52-1.07-0.75-1.52-1.13-2.2l-0.23,0.04c-2.52,0.5-7.87,1.2-11.59,1.52l-0.59-1.79
					l0.91-0.05l0.27-0.02c0.04,0,0.32-0.02,0.61-0.04c1.2-2.18,2.47-4.99,3.36-7.53h-5.71v-1.52h6.92v-4.58h-5.69V80.6h5.69v-3.65
					h1.77v3.65h6.03v1.56h-6.03v4.58h7.21v1.52h-8.25L344.22,88.38z"/>
				<path d="M366.64,78.42v12.27h3.51v1.75h-3.51v4.47h-2v-4.47h-9.34v-1.72l8.84-12.29H366.64z M364.65,84.16
					c0-1.04,0.05-2.81,0.11-3.92h-0.09c-0.61,1.2-1.2,2.24-1.66,2.88l-5.4,7.57h7.03V84.16z"/>
				<path d="M375.14,95.11c0.59-2.43,2.58-4.85,5.65-6.89l0.59-0.39c3.17-2.06,4.01-3.06,4.01-4.72c0-1.86-1.54-3.11-3.88-3.11
					c-1.91,0-3.24,0.7-4.69,2.43l-1.43-1.2c1.72-2.13,3.56-3.04,6.21-3.04c3.54,0,6.12,2.09,6.12,4.97c0,2.29-0.88,3.36-4.94,5.94
					l-0.82,0.52c-2.7,1.77-4.4,3.72-4.6,5.35H388v1.93h-12.86V95.11z"/>
				<path d="M403.76,98.49h-1.75v-7.26c-2.06,2.58-5.24,4.9-8.82,6.35l-1.04-1.45c3.4-1.27,6.21-3.06,8.39-5.33h-8.3v-1.52h9.77
					v-2.47h1.75v2.47h9.93v1.52h-8.39c2.09,1.95,4.9,3.54,8.53,4.81l-1.11,1.59c-3.88-1.61-6.78-3.56-8.96-6.1V98.49z M409.9,79.08
					c-1.22,1.65-3.08,3.33-5.21,4.74c2.06,1.09,4.6,1.88,8.62,2.68l-0.93,1.54c-3.24-0.66-6.73-1.88-9.23-3.24
					c-2.68,1.56-6.08,2.79-9.5,3.47l-0.91-1.41c3.45-0.61,6.76-1.7,9-2.97c-0.88-0.63-2.18-1.79-3.22-2.86
					c-1.27,1-2.47,1.75-3.95,2.43l-1.11-1.18c2.74-1.13,5.4-3.26,6.78-5.42l1.72,0.34c-0.34,0.52-0.43,0.61-0.75,1.04h7.75
					L409.9,79.08z M400.01,79.65c-0.16,0.18-0.23,0.23-0.36,0.36c0.95,1.07,2.25,2.13,3.56,2.97c1.93-1.29,3.22-2.36,4.06-3.33
					H400.01z"/>
				<path d="M417.76,95.11c0.59-2.43,2.58-4.85,5.65-6.89l0.59-0.39c3.17-2.06,4.01-3.06,4.01-4.72c0-1.86-1.54-3.11-3.88-3.11
					c-1.91,0-3.24,0.7-4.69,2.43l-1.43-1.2c1.72-2.13,3.56-3.04,6.21-3.04c3.54,0,6.12,2.09,6.12,4.97c0,2.29-0.88,3.36-4.94,5.94
					l-0.82,0.52c-2.7,1.77-4.4,3.72-4.6,5.35h10.63v1.93h-12.86V95.11z"/>
				<path d="M439.71,91.3l0.14-0.04l0.09-0.04c0.84-0.27,1.9-0.68,2.56-0.98l0.18,1.61c-1.9,0.86-4.97,2-7.32,2.68l-0.63-1.75
					c1.27-0.34,1.45-0.39,2.67-0.75l0.54-0.16V81.21H435V79.6h7.19v1.61h-2.47V91.3z M441.32,97.24c1.79-0.7,3.56-1.86,4.76-3.13
					l1.38,0.93c-1.41,1.45-3.22,2.77-4.9,3.51L441.32,97.24z M454.5,81.76v12.09h-10.88V81.76h3.54c0.25-0.75,0.45-1.54,0.61-2.31
					h-5.67v-1.5h14.01v1.5h-6.58c-0.25,0.93-0.54,1.77-0.77,2.31H454.5z M445.29,83.14v2.2h7.5v-2.2H445.29z M445.29,88.79h7.5
					v-2.11h-7.5V88.79z M445.29,92.44h7.5V90.1h-7.5V92.44z M454.86,98.47c-1.34-1.22-2.97-2.45-4.54-3.4l1.25-1
					c1.95,1.11,3.29,2.02,4.63,3.13L454.86,98.47z"/>
				<path d="M463.92,93.77c1.84,1.84,3.95,2.54,7.75,2.56h8.91c-0.23,0.5-0.41,1.02-0.54,1.61h-8.62c-3.97-0.05-6.17-0.79-8.12-2.77
					c-1.02,1.2-2.31,2.43-3.54,3.33l-1-1.61c1.07-0.63,2.27-1.54,3.42-2.61v-6.08h-3.36v-1.54h5.08V93.77z M462.95,82.46
					c-1.07-1.52-2.22-2.88-3.31-3.85l1.25-1.04c1.32,1.16,2.47,2.4,3.4,3.7L462.95,82.46z M465.17,81.26v-1.43h4.01
					c-0.39-0.73-0.88-1.47-1.45-2.18l1.59-0.61c0.73,1.02,1.18,1.81,1.63,2.79h2.95c0.43-0.79,0.95-2,1.25-2.83l1.79,0.45
					c-0.36,0.79-0.84,1.7-1.29,2.38h4.24v1.43h-6.55c-0.11,0.38-0.48,1.34-0.7,1.88h5.69V94.7h-11.54V83.14h4.17
					c0.27-0.75,0.48-1.36,0.59-1.88H465.17z M468.46,86.52h8.16v-2.09h-8.16V86.52z M468.46,89.81h8.16v-2.06h-8.16V89.81z
					 M468.46,93.37h8.16V91.1h-8.16V93.37z"/>
				<path d="M491.63,85.25h-2.92v3.58h2.95v1.5h-2.95v4.74c0.61-0.16,2.33-0.66,3.47-1.02l0.16,1.47c-2.7,0.95-5.96,1.88-8.93,2.54
					l-0.59-1.61l1.2-0.25v-8.84h1.54v8.5l0.57-0.14l0.54-0.14l0.48-0.11V85.25h-3.31v-7.37h7.8V85.25z M485.44,83.78h4.58V79.4
					h-4.58V83.78z M502.79,79.33c-0.86,2.11-1.97,3.92-3.33,5.46c1.43,1.25,3.2,2.33,5.19,3.15l-0.86,1.5
					c-2.04-0.91-3.95-2.15-5.42-3.54c-1.66,1.56-3.61,2.81-5.87,3.74l-0.91-1.41c2.04-0.66,4.01-1.88,5.67-3.47
					c-0.75-0.84-1.52-1.9-2.04-2.88l-0.09,0.11l-0.05,0.07c-0.59,0.75-1.29,1.47-2,2.06l-1.11-1.2c1.7-1.29,3.36-3.7,4.15-6.01
					l1.68,0.27c-0.25,0.59-0.32,0.77-0.5,1.16h4.4L502.79,79.33z M502.7,98.49h-1.66v-1.34h-5.78v1.34h-1.66v-8.93h9.09V98.49z
					 M495.26,95.66h5.78v-4.58h-5.78V95.66z M496.05,80.67c0.63,1.13,1.25,1.97,2.24,3.04c1.02-1.18,1.79-2.38,2.45-3.83h-4.22
					c-0.09,0.16-0.18,0.32-0.39,0.66L496.05,80.67z"/>
			</g>
			<polygon class="グラフィックスタイル_x0020_8" points="296.07,195.11 296.07,217.14 253.94,217.14 253.94,347.24 
				364.62,347.24 364.62,195.11 			"/>
			<polygon class="グラフィックスタイル_x0020_8" points="455.02,195.11 455.02,217.14 412.89,217.14 412.89,347.24 
				523.56,347.24 523.56,195.11 			"/>
			<g>
				<g>
					<g>
						<path class="st0" d="M284.9,182.23c-4.32,0.51-8.64,0.51-12.96,0c-4.98-0.63-8.7-5.67-8.43-10.28
							c0.76-15.08,0.76-30.17-0.02-45.25c-0.26-4.38,3.28-9.16,8-9.79c4.62-0.58,9.24-0.58,13.87,0c4.72,0.63,8.26,5.41,8,9.79
							c-0.78,15.08-0.79,30.17-0.02,45.25C293.6,176.55,289.87,181.6,284.9,182.23z"/>
						<path class="st6" d="M278.42,182.77c-2.17,0-4.34-0.13-6.5-0.38c-4.86-0.61-8.87-5.5-8.58-10.45
							c0.76-15,0.75-30.22-0.02-45.23c-0.28-4.69,3.53-9.35,8.14-9.97c4.62-0.58,9.3-0.58,13.91,0c4.62,0.62,8.42,5.28,8.14,9.97
							c-0.77,15.01-0.78,30.23-0.02,45.23c0.29,4.96-3.72,9.84-8.58,10.45h0C282.76,182.65,280.59,182.77,278.42,182.77z
							 M278.42,116.64c-2.31,0-4.62,0.14-6.91,0.43c-4.45,0.6-8.12,5.09-7.85,9.62c0.78,15.02,0.78,30.25,0.02,45.27
							c-0.28,4.79,3.59,9.51,8.28,10.1c4.29,0.5,8.63,0.5,12.92,0c4.69-0.59,8.56-5.31,8.28-10.1c-0.76-15.02-0.75-30.25,0.02-45.27
							c0.27-4.53-3.4-9.02-7.85-9.62C283.04,116.78,280.73,116.64,278.42,116.64z"/>
					</g>
				</g>
				<g>
					<path class="st7" d="M288.75,173.74h-20.67c0.02,0.24,0.05,0.48,0.08,0.72h20.5C288.7,174.22,288.73,173.98,288.75,173.74z"/>
				</g>
				<g>
					<path class="st6" d="M290.86,166.34l-0.18-0.62c-1.28-4.41-1.99-10.26-1.99-16.47c0-0.68,0.01-1.37,0.03-2.06l0.01-0.05
						l3.13-7.38l0.01,0.58c0.04,1.71,0.06,3.41,0.06,5.04c0,6.97-0.34,13.81-1.01,20.31L290.86,166.34z M288.97,147.22
						c-0.02,0.68-0.03,1.36-0.03,2.03c0,5.89,0.64,11.45,1.8,15.76c0.63-6.3,0.95-12.9,0.95-19.63c0-1.45-0.02-2.94-0.05-4.45
						L288.97,147.22z"/>
				</g>
				<g>
					<path class="st6" d="M265.98,166.34l-0.07-0.64c-0.67-6.51-1.01-13.34-1.01-20.31c0-1.62,0.02-3.31,0.06-5.04l0.01-0.58
						l3.14,7.42c0.02,0.69,0.03,1.38,0.03,2.06c0,6.21-0.71,12.06-1.99,16.47L265.98,166.34z M265.19,140.94
						c-0.03,1.52-0.05,3.02-0.05,4.45c0,6.73,0.32,13.33,0.95,19.63c1.16-4.31,1.8-9.87,1.8-15.76c0-0.67-0.01-1.35-0.03-2.03
						L265.19,140.94z"/>
				</g>
				<g>
					<path class="st0" d="M291.65,138.35V127.5c0-6.37-5.2-11.58-11.57-11.58h-3.32c-6.36,0-11.57,5.21-11.57,11.58v10.85
						c4.33-0.99,8.78-1.51,13.23-1.49C282.87,136.84,287.32,137.36,291.65,138.35z"/>
					<path d="M291.77,138.51l-0.15-0.04c-4.36-1-8.8-1.52-13.2-1.49c-0.06,0-0.12,0-0.17,0c-4.34,0-8.72,0.5-13.03,1.49l-0.15,0.04
						V127.5c0-6.46,5.24-11.71,11.69-11.71h3.32c6.45,0,11.69,5.25,11.69,11.71V138.51z M276.76,116.04
						c-6.31,0-11.44,5.14-11.44,11.46v10.69c4.27-0.97,8.62-1.46,12.93-1.46c0.12,0,0.23,0,0.35,0c4.31,0,8.65,0.49,12.93,1.46
						V127.5c0-6.32-5.13-11.46-11.44-11.46H276.76z"/>
				</g>
				<g>
					<path class="st0" d="M287.98,163.76c-6.37-0.96-12.74-0.96-19.12,0c-0.88,3.33-1.15,6.66-0.81,9.99h20.75
						C289.13,170.42,288.86,167.09,287.98,163.76z"/>
					<path d="M288.9,173.87h-20.97l-0.01-0.11c-0.34-3.33-0.06-6.71,0.82-10.03l0.02-0.08l0.08-0.01c6.35-0.96,12.8-0.96,19.15,0
						l0.08,0.01l0.02,0.08c0.88,3.33,1.16,6.7,0.82,10.03L288.9,173.87z M268.16,173.62h20.52c0.32-3.24,0.05-6.52-0.8-9.75
						c-6.28-0.94-12.64-0.94-18.92,0C268.11,167.1,267.84,170.38,268.16,173.62z"/>
				</g>
				<g>
					<path class="st7" d="M288.79,173.75h-20.75c0.02,0.24,0.05,0.48,0.08,0.72h20.58C288.74,174.23,288.77,173.99,288.79,173.75z"
						/>
				</g>
				<g>
					<path class="st0" d="M268.13,174.47v5.21c2.53,1.37,6.2,2.23,10.29,2.23c4.08,0,7.76-0.86,10.29-2.23v-5.21H268.13z"/>
					<path d="M278.42,182.03c-3.94,0-7.71-0.82-10.35-2.24l-0.07-0.04v-5.41h20.83v5.41l-0.07,0.04
						C286.13,181.21,282.35,182.03,278.42,182.03z M268.26,179.6c2.6,1.38,6.3,2.18,10.16,2.18s7.56-0.79,10.16-2.18v-5.01h-20.33
						V179.6z"/>
				</g>
				<g>
					<path class="st7" d="M291.56,138.28l0.26-0.7c-8.75-2.42-18.04-2.42-26.8,0l0.26,0.7
						C273.87,135.96,282.97,135.96,291.56,138.28z"/>
				</g>
				<g>
					<path class="st0" d="M265.65,138.25l3.22,8.8h19.12l3.22-8.8C282.84,135.99,274,135.99,265.65,138.25z"/>
					<path d="M288.06,147.17h-19.29l-3.29-9.01l0.13-0.04c8.38-2.27,17.23-2.27,25.61,0l0.13,0.04L288.06,147.17z M268.95,146.92
						h18.94l3.14-8.59c-8.25-2.21-16.96-2.21-25.22,0L268.95,146.92z"/>
				</g>
				<g>
					<g>
						<path class="st6" d="M288.67,179.67h0.13c1.56,0,2.83-1.27,2.83-2.83v-0.21C290.98,177.94,289.94,179.01,288.67,179.67z"/>
					</g>
					<g>
						<path class="st6" d="M268.17,179.67h-0.13c-1.56,0-2.83-1.27-2.83-2.83v-0.21C265.86,177.94,266.9,179.01,268.17,179.67z"/>
					</g>
				</g>
				<g>
					<g>
						<path class="st0" d="M295.16,145.23c0.09-0.38,0-0.84-0.2-1.01l-2.31-1.99c-0.04-0.03-0.08-0.05-0.12-0.06v1.86l2.57,1.44
							L295.16,145.23z"/>
						<path class="st6" d="M295.19,145.65l-2.78-1.56v-2.08l0.15,0.03c0.06,0.01,0.12,0.04,0.18,0.09l2.31,1.99
							c0.24,0.2,0.34,0.7,0.24,1.14L295.19,145.65z M292.66,143.94l2.36,1.33l0.02-0.07c0.09-0.37-0.01-0.77-0.16-0.89l-2.22-1.92
							V143.94z"/>
					</g>
					<g>
						<path class="st0" d="M261.67,145.23c-0.09-0.38,0-0.84,0.2-1.01l2.31-1.99c0.04-0.03,0.08-0.05,0.12-0.06v1.86l-2.57,1.44
							L261.67,145.23z"/>
						<path class="st6" d="M261.64,145.65l-0.09-0.39c-0.1-0.43,0-0.93,0.24-1.14l2.31-1.99c0.05-0.05,0.11-0.08,0.18-0.09
							l0.15-0.03v2.08L261.64,145.65z M264.18,142.39l-2.22,1.92c-0.15,0.13-0.25,0.52-0.16,0.89l0.02,0.07l2.37-1.33V142.39z"/>
					</g>
				</g>
				<g>
					<g>
						<path class="st6" d="M285.23,131.65c0-4.16-0.74-7.82-1.85-9.94c0.83,2.17,1.35,5.31,1.35,8.81c0,1.69-0.12,3.3-0.34,4.75
							h0.65C285.16,134.13,285.23,132.92,285.23,131.65z"/>
					</g>
					<g>
						<path class="st6" d="M271.61,131.65c0-4.16,0.74-7.82,1.85-9.94c-0.83,2.17-1.35,5.31-1.35,8.81c0,1.69,0.12,3.3,0.34,4.75
							h-0.65C271.68,134.13,271.61,132.92,271.61,131.65z"/>
					</g>
				</g>
				<g>
					<rect x="268.86" y="147.05" class="st0" width="19.12" height="16.71"/>
					<path d="M288.1,163.89h-19.37v-16.96h19.37V163.89z M268.99,163.64h18.86v-16.46h-18.86V163.64z"/>
				</g>
			</g>
			<g>
				<g>
					<g>
						<path class="st0" d="M329.39,182.23c-4.32,0.51-8.64,0.51-12.96,0c-4.98-0.63-8.7-5.67-8.43-10.28
							c0.76-15.08,0.76-30.17-0.02-45.25c-0.26-4.38,3.28-9.16,8-9.79c4.62-0.58,9.24-0.58,13.87,0c4.72,0.63,8.26,5.41,8,9.79
							c-0.78,15.08-0.79,30.17-0.02,45.25C338.09,176.55,334.37,181.6,329.39,182.23z"/>
						<path class="st6" d="M322.91,182.77c-2.17,0-4.34-0.13-6.5-0.38c-4.86-0.61-8.87-5.5-8.58-10.45
							c0.76-15,0.75-30.22-0.02-45.23c-0.28-4.69,3.53-9.35,8.14-9.97c4.62-0.58,9.3-0.58,13.91,0c4.62,0.62,8.42,5.28,8.14,9.97
							c-0.77,15.01-0.78,30.23-0.02,45.23c0.29,4.96-3.72,9.84-8.58,10.45h0C327.26,182.65,325.09,182.77,322.91,182.77z
							 M322.91,116.64c-2.31,0-4.62,0.14-6.91,0.43c-4.45,0.6-8.12,5.09-7.85,9.62c0.78,15.02,0.78,30.25,0.02,45.27
							c-0.28,4.79,3.59,9.51,8.28,10.1c4.29,0.5,8.63,0.5,12.92,0c4.69-0.59,8.56-5.31,8.28-10.1c-0.76-15.02-0.75-30.25,0.02-45.27
							c0.27-4.53-3.4-9.02-7.85-9.62C327.53,116.78,325.22,116.64,322.91,116.64z"/>
					</g>
				</g>
				<g>
					<path class="st7" d="M333.25,173.74h-20.67c0.02,0.24,0.05,0.48,0.08,0.72h20.5C333.2,174.22,333.23,173.98,333.25,173.74z"/>
				</g>
				<g>
					<path class="st6" d="M335.36,166.34l-0.18-0.62c-1.28-4.41-1.99-10.26-1.99-16.47c0-0.68,0.01-1.37,0.03-2.06l0.01-0.05
						l3.13-7.38l0.01,0.58c0.04,1.71,0.06,3.41,0.06,5.04c0,6.97-0.34,13.81-1.01,20.31L335.36,166.34z M333.47,147.22
						c-0.02,0.68-0.03,1.36-0.03,2.03c0,5.89,0.64,11.45,1.8,15.76c0.63-6.3,0.95-12.9,0.95-19.63c0-1.45-0.02-2.94-0.05-4.45
						L333.47,147.22z"/>
				</g>
				<g>
					<path class="st6" d="M310.47,166.34l-0.07-0.64c-0.67-6.51-1.01-13.34-1.01-20.31c0-1.62,0.02-3.31,0.06-5.04l0.01-0.58
						l3.14,7.42c0.02,0.69,0.03,1.38,0.03,2.06c0,6.21-0.71,12.06-1.99,16.47L310.47,166.34z M309.69,140.94
						c-0.03,1.52-0.05,3.02-0.05,4.45c0,6.73,0.32,13.33,0.95,19.63c1.16-4.31,1.8-9.87,1.8-15.76c0-0.67-0.01-1.35-0.03-2.03
						L309.69,140.94z"/>
				</g>
				<g>
					<path class="st0" d="M336.14,138.35V127.5c0-6.37-5.2-11.58-11.57-11.58h-3.32c-6.36,0-11.57,5.21-11.57,11.58v10.85
						c4.33-0.99,8.78-1.51,13.23-1.49C327.36,136.84,331.81,137.36,336.14,138.35z"/>
					<path d="M336.27,138.51l-0.15-0.04c-4.36-1-8.8-1.52-13.2-1.49c-0.06,0-0.12,0-0.17,0c-4.34,0-8.72,0.5-13.03,1.49l-0.15,0.04
						V127.5c0-6.46,5.24-11.71,11.69-11.71h3.32c6.45,0,11.69,5.25,11.69,11.71V138.51z M321.25,116.04
						c-6.31,0-11.44,5.14-11.44,11.46v10.69c4.27-0.97,8.62-1.46,12.93-1.46c0.12,0,0.23,0,0.35,0c4.31,0,8.65,0.49,12.93,1.46
						V127.5c0-6.32-5.13-11.46-11.44-11.46H321.25z"/>
				</g>
				<g>
					<path class="st0" d="M332.47,163.76c-6.37-0.96-12.74-0.96-19.12,0c-0.88,3.33-1.15,6.66-0.81,9.99h20.75
						C333.63,170.42,333.35,167.09,332.47,163.76z"/>
					<path d="M333.4,173.87h-20.97l-0.01-0.11c-0.34-3.33-0.06-6.71,0.82-10.03l0.02-0.08l0.08-0.01c6.35-0.96,12.8-0.96,19.15,0
						l0.08,0.01l0.02,0.08c0.88,3.33,1.16,6.7,0.82,10.03L333.4,173.87z M312.66,173.62h20.52c0.32-3.24,0.05-6.52-0.8-9.75
						c-6.28-0.94-12.64-0.94-18.92,0C312.61,167.1,312.34,170.38,312.66,173.62z"/>
				</g>
				<g>
					<path class="st7" d="M333.29,173.75h-20.75c0.02,0.24,0.05,0.48,0.08,0.72h20.58C333.23,174.23,333.26,173.99,333.29,173.75z"
						/>
				</g>
				<g>
					<path class="st0" d="M312.63,174.47v5.21c2.53,1.37,6.2,2.23,10.29,2.23s7.76-0.86,10.29-2.23v-5.21H312.63z"/>
					<path d="M322.91,182.03c-3.94,0-7.71-0.82-10.35-2.24l-0.07-0.04v-5.41h20.83v5.41l-0.07,0.04
						C330.62,181.21,326.85,182.03,322.91,182.03z M312.75,179.6c2.6,1.38,6.3,2.18,10.16,2.18c3.86,0,7.56-0.79,10.16-2.18v-5.01
						h-20.33V179.6z"/>
				</g>
				<g>
					<path class="st7" d="M336.06,138.28l0.26-0.7c-8.75-2.42-18.04-2.42-26.8,0l0.26,0.7
						C318.36,135.96,327.46,135.96,336.06,138.28z"/>
				</g>
				<g>
					<path class="st0" d="M310.14,138.25l3.22,8.8h19.12l3.22-8.8C327.34,135.99,318.49,135.99,310.14,138.25z"/>
					<path d="M332.56,147.17h-19.29l-3.29-9.01l0.13-0.04c8.38-2.27,17.23-2.27,25.61,0l0.13,0.04L332.56,147.17z M313.44,146.92
						h18.94l3.14-8.59c-8.25-2.21-16.96-2.21-25.22,0L313.44,146.92z"/>
				</g>
				<g>
					<g>
						<path class="st6" d="M333.16,179.67h0.13c1.56,0,2.83-1.27,2.83-2.83v-0.21C335.48,177.94,334.44,179.01,333.16,179.67z"/>
					</g>
					<g>
						<path class="st6" d="M312.66,179.67h-0.13c-1.56,0-2.83-1.27-2.83-2.83v-0.21C310.35,177.94,311.39,179.01,312.66,179.67z"/>
					</g>
				</g>
				<g>
					<g>
						<path class="st0" d="M339.66,145.23c0.09-0.38,0-0.84-0.2-1.01l-2.31-1.99c-0.04-0.03-0.08-0.05-0.12-0.06v1.86l2.57,1.44
							L339.66,145.23z"/>
						<path class="st6" d="M339.69,145.65l-2.78-1.56v-2.08l0.15,0.03c0.06,0.01,0.12,0.04,0.18,0.09l2.31,1.99
							c0.24,0.2,0.34,0.7,0.24,1.14L339.69,145.65z M337.16,143.94l2.36,1.33l0.02-0.07c0.09-0.37-0.01-0.77-0.16-0.89l-2.22-1.92
							V143.94z"/>
					</g>
					<g>
						<path class="st0" d="M306.17,145.23c-0.09-0.38,0-0.84,0.2-1.01l2.31-1.99c0.04-0.03,0.08-0.05,0.12-0.06v1.86l-2.57,1.44
							L306.17,145.23z"/>
						<path class="st6" d="M306.14,145.65l-0.09-0.39c-0.1-0.43,0-0.93,0.24-1.14l2.31-1.99c0.05-0.05,0.11-0.08,0.18-0.09
							l0.15-0.03v2.08L306.14,145.65z M308.67,142.39l-2.22,1.92c-0.15,0.13-0.25,0.52-0.16,0.89l0.02,0.07l2.37-1.33V142.39z"/>
					</g>
				</g>
				<g>
					<g>
						<path class="st6" d="M329.72,131.65c0-4.16-0.74-7.82-1.85-9.94c0.83,2.17,1.35,5.31,1.35,8.81c0,1.69-0.12,3.3-0.34,4.75
							h0.65C329.65,134.13,329.72,132.92,329.72,131.65z"/>
					</g>
					<g>
						<path class="st6" d="M316.11,131.65c0-4.16,0.74-7.82,1.85-9.94c-0.83,2.17-1.35,5.31-1.35,8.81c0,1.69,0.12,3.3,0.34,4.75
							h-0.65C316.17,134.13,316.11,132.92,316.11,131.65z"/>
					</g>
				</g>
				<g>
					<rect x="313.36" y="147.05" class="st0" width="19.12" height="16.71"/>
					<path d="M332.6,163.89h-19.37v-16.96h19.37V163.89z M313.48,163.64h18.86v-16.46h-18.86V163.64z"/>
				</g>
			</g>
			<g>
				<g>
					<g>
						<path class="st0" d="M372.41,182.23c-4.32,0.51-8.64,0.51-12.96,0c-4.98-0.63-8.7-5.67-8.43-10.28
							c0.76-15.08,0.76-30.17-0.02-45.25c-0.26-4.38,3.28-9.16,8-9.79c4.62-0.58,9.24-0.58,13.87,0c4.72,0.63,8.26,5.41,8,9.79
							c-0.78,15.08-0.79,30.17-0.02,45.25C381.11,176.55,377.39,181.6,372.41,182.23z"/>
						<path class="st6" d="M365.93,182.77c-2.17,0-4.34-0.13-6.5-0.38c-4.86-0.61-8.87-5.5-8.58-10.45
							c0.76-15,0.75-30.22-0.02-45.23c-0.28-4.69,3.53-9.35,8.14-9.97c4.62-0.58,9.3-0.58,13.91,0c4.62,0.62,8.42,5.28,8.14,9.97
							c-0.77,15.01-0.78,30.23-0.02,45.23c0.29,4.96-3.72,9.84-8.58,10.45h0C370.27,182.65,368.1,182.77,365.93,182.77z
							 M365.93,116.64c-2.31,0-4.62,0.14-6.91,0.43c-4.45,0.6-8.12,5.09-7.85,9.62c0.78,15.02,0.78,30.25,0.02,45.27
							c-0.28,4.79,3.59,9.51,8.28,10.1c4.29,0.5,8.63,0.5,12.92,0c4.69-0.59,8.56-5.31,8.28-10.1c-0.76-15.02-0.75-30.25,0.02-45.27
							c0.27-4.53-3.4-9.02-7.85-9.62C370.55,116.78,368.24,116.64,365.93,116.64z"/>
					</g>
				</g>
				<g>
					<path class="st7" d="M376.26,173.74h-20.67c0.02,0.24,0.05,0.48,0.08,0.72h20.5C376.21,174.22,376.24,173.98,376.26,173.74z"/>
				</g>
				<g>
					<path class="st6" d="M378.37,166.34l-0.18-0.62c-1.28-4.41-1.99-10.26-1.99-16.47c0-0.68,0.01-1.37,0.03-2.06l0.01-0.05
						l3.13-7.38l0.01,0.58c0.04,1.71,0.06,3.41,0.06,5.04c0,6.97-0.34,13.81-1.01,20.31L378.37,166.34z M376.48,147.22
						c-0.02,0.68-0.03,1.36-0.03,2.03c0,5.89,0.64,11.45,1.8,15.76c0.63-6.3,0.95-12.9,0.95-19.63c0-1.45-0.02-2.94-0.05-4.45
						L376.48,147.22z"/>
				</g>
				<g>
					<path class="st6" d="M353.49,166.34l-0.07-0.64c-0.67-6.51-1.01-13.34-1.01-20.31c0-1.62,0.02-3.31,0.06-5.04l0.01-0.58
						l3.14,7.42c0.02,0.69,0.03,1.38,0.03,2.06c0,6.21-0.71,12.06-1.99,16.47L353.49,166.34z M352.71,140.94
						c-0.03,1.52-0.05,3.02-0.05,4.45c0,6.73,0.32,13.33,0.95,19.63c1.16-4.31,1.8-9.87,1.8-15.76c0-0.67-0.01-1.35-0.03-2.03
						L352.71,140.94z"/>
				</g>
				<g>
					<path class="st0" d="M379.16,138.35V127.5c0-6.37-5.2-11.58-11.57-11.58h-3.32c-6.36,0-11.57,5.21-11.57,11.58v10.85
						c4.33-0.99,8.78-1.51,13.23-1.49C370.38,136.84,374.83,137.36,379.16,138.35z"/>
					<path d="M379.28,138.51l-0.15-0.04c-4.36-1-8.8-1.52-13.2-1.49c-0.06,0-0.12,0-0.17,0c-4.34,0-8.72,0.5-13.03,1.49l-0.15,0.04
						V127.5c0-6.46,5.24-11.71,11.69-11.71h3.32c6.45,0,11.69,5.25,11.69,11.71V138.51z M364.27,116.04
						c-6.31,0-11.44,5.14-11.44,11.46v10.69c4.27-0.97,8.62-1.46,12.93-1.46c0.12,0,0.23,0,0.35,0c4.31,0,8.65,0.49,12.93,1.46
						V127.5c0-6.32-5.13-11.46-11.44-11.46H364.27z"/>
				</g>
				<g>
					<path class="st0" d="M375.49,163.76c-6.37-0.96-12.74-0.96-19.12,0c-0.88,3.33-1.15,6.66-0.81,9.99h20.75
						C376.64,170.42,376.37,167.09,375.49,163.76z"/>
					<path d="M376.41,173.87h-20.97l-0.01-0.11c-0.34-3.33-0.06-6.71,0.82-10.03l0.02-0.08l0.08-0.01c6.35-0.96,12.8-0.96,19.15,0
						l0.08,0.01l0.02,0.08c0.88,3.33,1.16,6.7,0.82,10.03L376.41,173.87z M355.67,173.62h20.52c0.32-3.24,0.05-6.52-0.8-9.75
						c-6.28-0.94-12.64-0.94-18.92,0C355.62,167.1,355.35,170.38,355.67,173.62z"/>
				</g>
				<g>
					<path class="st7" d="M376.3,173.75h-20.75c0.02,0.24,0.05,0.48,0.08,0.72h20.58C376.25,174.23,376.28,173.99,376.3,173.75z"/>
				</g>
				<g>
					<path class="st0" d="M355.64,174.47v5.21c2.53,1.37,6.2,2.23,10.29,2.23c4.08,0,7.76-0.86,10.29-2.23v-5.21H355.64z"/>
					<path d="M365.93,182.03c-3.94,0-7.71-0.82-10.35-2.24l-0.07-0.04v-5.41h20.83v5.41l-0.07,0.04
						C373.64,181.21,369.87,182.03,365.93,182.03z M355.77,179.6c2.6,1.38,6.3,2.18,10.16,2.18c3.86,0,7.56-0.79,10.16-2.18v-5.01
						h-20.33V179.6z"/>
				</g>
				<g>
					<path class="st7" d="M379.07,138.28l0.26-0.7c-8.75-2.42-18.04-2.42-26.8,0l0.26,0.7
						C361.38,135.96,370.48,135.96,379.07,138.28z"/>
				</g>
				<g>
					<path class="st0" d="M353.16,138.25l3.22,8.8h19.12l3.22-8.8C370.35,135.99,361.51,135.99,353.16,138.25z"/>
					<path d="M375.57,147.17h-19.29l-3.29-9.01l0.13-0.04c8.38-2.27,17.23-2.27,25.61,0l0.13,0.04L375.57,147.17z M356.46,146.92
						h18.94l3.14-8.59c-8.25-2.21-16.96-2.21-25.22,0L356.46,146.92z"/>
				</g>
				<g>
					<g>
						<path class="st6" d="M376.18,179.67h0.13c1.56,0,2.83-1.27,2.83-2.83v-0.21C378.49,177.94,377.45,179.01,376.18,179.67z"/>
					</g>
					<g>
						<path class="st6" d="M355.68,179.67h-0.13c-1.56,0-2.83-1.27-2.83-2.83v-0.21C353.37,177.94,354.41,179.01,355.68,179.67z"/>
					</g>
				</g>
				<g>
					<g>
						<path class="st0" d="M382.67,145.23c0.09-0.38,0-0.84-0.2-1.01l-2.31-1.99c-0.04-0.03-0.08-0.05-0.12-0.06v1.86l2.57,1.44
							L382.67,145.23z"/>
						<path class="st6" d="M382.7,145.65l-2.78-1.56v-2.08l0.15,0.03c0.06,0.01,0.12,0.04,0.18,0.09l2.31,1.99
							c0.24,0.2,0.34,0.7,0.24,1.14L382.7,145.65z M380.17,143.94l2.36,1.33l0.02-0.07c0.09-0.37-0.01-0.77-0.16-0.89l-2.22-1.92
							V143.94z"/>
					</g>
					<g>
						<path class="st0" d="M349.18,145.23c-0.09-0.38,0-0.84,0.2-1.01l2.31-1.99c0.04-0.03,0.08-0.05,0.12-0.06v1.86l-2.57,1.44
							L349.18,145.23z"/>
						<path class="st6" d="M349.15,145.65l-0.09-0.39c-0.1-0.43,0-0.93,0.24-1.14l2.31-1.99c0.05-0.05,0.11-0.08,0.18-0.09
							l0.15-0.03v2.08L349.15,145.65z M351.69,142.39l-2.22,1.92c-0.15,0.13-0.25,0.52-0.16,0.89l0.02,0.07l2.37-1.33V142.39z"/>
					</g>
				</g>
				<g>
					<g>
						<path class="st6" d="M372.74,131.65c0-4.16-0.74-7.82-1.85-9.94c0.83,2.17,1.35,5.31,1.35,8.81c0,1.69-0.12,3.3-0.34,4.75
							h0.65C372.67,134.13,372.74,132.92,372.74,131.65z"/>
					</g>
					<g>
						<path class="st6" d="M359.12,131.65c0-4.16,0.74-7.82,1.85-9.94c-0.83,2.17-1.35,5.31-1.35,8.81c0,1.69,0.12,3.3,0.34,4.75
							h-0.65C359.19,134.13,359.12,132.92,359.12,131.65z"/>
					</g>
				</g>
				<g>
					<rect x="356.37" y="147.05" class="st0" width="19.12" height="16.71"/>
					<path d="M375.61,163.89h-19.37v-16.96h19.37V163.89z M356.5,163.64h18.86v-16.46H356.5V163.64z"/>
				</g>
			</g>
			<g>
				<g>
					<g>
						<path class="st0" d="M438.84,182.23c-4.32,0.51-8.64,0.51-12.96,0c-4.98-0.63-8.7-5.67-8.43-10.28
							c0.76-15.08,0.76-30.17-0.02-45.25c-0.26-4.38,3.28-9.16,8-9.79c4.62-0.58,9.24-0.58,13.87,0c4.72,0.63,8.26,5.41,8,9.79
							c-0.78,15.08-0.79,30.17-0.02,45.25C447.54,176.55,443.82,181.6,438.84,182.23z"/>
						<path class="st6" d="M432.36,182.77c-2.17,0-4.34-0.13-6.5-0.38c-4.86-0.61-8.87-5.5-8.58-10.45
							c0.76-15,0.75-30.22-0.02-45.23c-0.28-4.69,3.53-9.35,8.14-9.97c4.62-0.58,9.3-0.58,13.91,0c4.62,0.62,8.42,5.28,8.14,9.97
							c-0.77,15.01-0.78,30.23-0.02,45.23c0.29,4.96-3.72,9.84-8.58,10.45h0C436.71,182.65,434.54,182.77,432.36,182.77z
							 M432.36,116.64c-2.31,0-4.62,0.14-6.91,0.43c-4.45,0.6-8.12,5.09-7.85,9.62c0.78,15.02,0.78,30.25,0.02,45.27
							c-0.28,4.79,3.59,9.51,8.28,10.1c4.29,0.5,8.63,0.5,12.92,0c4.69-0.59,8.56-5.31,8.28-10.1c-0.76-15.02-0.75-30.25,0.02-45.27
							c0.27-4.53-3.4-9.02-7.85-9.62C436.98,116.78,434.67,116.64,432.36,116.64z"/>
					</g>
				</g>
				<g>
					<path class="st7" d="M442.7,173.74h-20.67c0.02,0.24,0.05,0.48,0.08,0.72h20.5C442.65,174.22,442.68,173.98,442.7,173.74z"/>
				</g>
				<g>
					<path class="st6" d="M444.81,166.34l-0.18-0.62c-1.28-4.41-1.99-10.26-1.99-16.47c0-0.68,0.01-1.37,0.03-2.06l0.01-0.05
						l3.13-7.38l0.01,0.58c0.04,1.71,0.06,3.41,0.06,5.04c0,6.97-0.34,13.81-1.01,20.31L444.81,166.34z M442.92,147.22
						c-0.02,0.68-0.03,1.36-0.03,2.03c0,5.89,0.64,11.45,1.8,15.76c0.63-6.3,0.95-12.9,0.95-19.63c0-1.45-0.02-2.94-0.05-4.45
						L442.92,147.22z"/>
				</g>
				<g>
					<path class="st6" d="M419.92,166.34l-0.07-0.64c-0.67-6.51-1.01-13.34-1.01-20.31c0-1.62,0.02-3.31,0.06-5.04l0.01-0.58
						l3.14,7.42c0.02,0.69,0.03,1.38,0.03,2.06c0,6.21-0.71,12.06-1.99,16.47L419.92,166.34z M419.14,140.94
						c-0.03,1.52-0.05,3.02-0.05,4.45c0,6.73,0.32,13.33,0.95,19.63c1.16-4.31,1.8-9.87,1.8-15.76c0-0.67-0.01-1.35-0.03-2.03
						L419.14,140.94z"/>
				</g>
				<g>
					<path class="st0" d="M445.59,138.35V127.5c0-6.37-5.2-11.58-11.57-11.58h-3.32c-6.36,0-11.57,5.21-11.57,11.58v10.85
						c4.33-0.99,8.78-1.51,13.23-1.49C436.81,136.84,441.26,137.36,445.59,138.35z"/>
					<path d="M445.72,138.51l-0.15-0.04c-4.36-1-8.8-1.52-13.2-1.49c-0.06,0-0.12,0-0.17,0c-4.34,0-8.72,0.5-13.03,1.49l-0.15,0.04
						V127.5c0-6.46,5.24-11.71,11.69-11.71h3.32c6.45,0,11.69,5.25,11.69,11.71V138.51z M430.7,116.04
						c-6.31,0-11.44,5.14-11.44,11.46v10.69c4.27-0.97,8.62-1.46,12.93-1.46c0.12,0,0.23,0,0.35,0c4.31,0,8.65,0.49,12.93,1.46
						V127.5c0-6.32-5.13-11.46-11.44-11.46H430.7z"/>
				</g>
				<g>
					<path class="st0" d="M441.92,163.76c-6.37-0.96-12.74-0.96-19.12,0c-0.88,3.33-1.15,6.66-0.81,9.99h20.75
						C443.07,170.42,442.8,167.09,441.92,163.76z"/>
					<path d="M442.85,173.87h-20.97l-0.01-0.11c-0.34-3.33-0.06-6.71,0.82-10.03l0.02-0.08l0.08-0.01c6.35-0.96,12.8-0.96,19.15,0
						l0.08,0.01l0.02,0.08c0.88,3.33,1.16,6.7,0.82,10.03L442.85,173.87z M422.1,173.62h20.52c0.32-3.24,0.05-6.52-0.8-9.75
						c-6.28-0.94-12.64-0.94-18.92,0C422.06,167.1,421.79,170.38,422.1,173.62z"/>
				</g>
				<g>
					<path class="st7" d="M442.74,173.75h-20.75c0.02,0.24,0.05,0.48,0.08,0.72h20.58C442.68,174.23,442.71,173.99,442.74,173.75z"
						/>
				</g>
				<g>
					<path class="st0" d="M422.08,174.47v5.21c2.53,1.37,6.2,2.23,10.29,2.23s7.76-0.86,10.29-2.23v-5.21H422.08z"/>
					<path d="M432.36,182.03c-3.94,0-7.71-0.82-10.35-2.24l-0.07-0.04v-5.41h20.83v5.41l-0.07,0.04
						C440.07,181.21,436.3,182.03,432.36,182.03z M422.2,179.6c2.6,1.38,6.3,2.18,10.16,2.18c3.86,0,7.56-0.79,10.16-2.18v-5.01
						H422.2V179.6z"/>
				</g>
				<g>
					<path class="st7" d="M445.51,138.28l0.26-0.7c-8.75-2.42-18.04-2.42-26.8,0l0.26,0.7
						C427.81,135.96,436.91,135.96,445.51,138.28z"/>
				</g>
				<g>
					<path class="st0" d="M419.59,138.25l3.22,8.8h19.12l3.22-8.8C436.79,135.99,427.94,135.99,419.59,138.25z"/>
					<path d="M442.01,147.17h-19.29l-3.29-9.01l0.13-0.04c8.38-2.27,17.23-2.27,25.61,0l0.13,0.04L442.01,147.17z M422.89,146.92
						h18.94l3.14-8.59c-8.25-2.21-16.96-2.21-25.22,0L422.89,146.92z"/>
				</g>
				<g>
					<g>
						<path class="st6" d="M442.61,179.67h0.13c1.56,0,2.83-1.27,2.83-2.83v-0.21C444.93,177.94,443.89,179.01,442.61,179.67z"/>
					</g>
					<g>
						<path class="st6" d="M422.11,179.67h-0.13c-1.56,0-2.83-1.27-2.83-2.83v-0.21C419.8,177.94,420.84,179.01,422.11,179.67z"/>
					</g>
				</g>
				<g>
					<g>
						<path class="st0" d="M449.11,145.23c0.09-0.38,0-0.84-0.2-1.01l-2.31-1.99c-0.04-0.03-0.08-0.05-0.12-0.06v1.86l2.57,1.44
							L449.11,145.23z"/>
						<path class="st6" d="M449.14,145.65l-2.78-1.56v-2.08l0.15,0.03c0.06,0.01,0.12,0.04,0.18,0.09l2.31,1.99
							c0.24,0.2,0.34,0.7,0.24,1.14L449.14,145.65z M446.61,143.94l2.36,1.33l0.02-0.07c0.09-0.37-0.01-0.77-0.16-0.89l-2.22-1.92
							V143.94z"/>
					</g>
					<g>
						<path class="st0" d="M415.62,145.23c-0.09-0.38,0-0.84,0.2-1.01l2.31-1.99c0.04-0.03,0.08-0.05,0.12-0.06v1.86l-2.57,1.44
							L415.62,145.23z"/>
						<path class="st6" d="M415.59,145.65l-0.09-0.39c-0.1-0.43,0-0.93,0.24-1.14l2.31-1.99c0.05-0.05,0.11-0.08,0.18-0.09
							l0.15-0.03v2.08L415.59,145.65z M418.12,142.39l-2.22,1.92c-0.15,0.13-0.25,0.52-0.16,0.89l0.02,0.07l2.37-1.33V142.39z"/>
					</g>
				</g>
				<g>
					<g>
						<path class="st6" d="M439.17,131.65c0-4.16-0.74-7.82-1.85-9.94c0.83,2.17,1.35,5.31,1.35,8.81c0,1.69-0.12,3.3-0.34,4.75
							h0.65C439.1,134.13,439.17,132.92,439.17,131.65z"/>
					</g>
					<g>
						<path class="st6" d="M425.56,131.65c0-4.16,0.74-7.82,1.85-9.94c-0.83,2.17-1.35,5.31-1.35,8.81c0,1.69,0.12,3.3,0.34,4.75
							h-0.65C425.62,134.13,425.56,132.92,425.56,131.65z"/>
					</g>
				</g>
				<g>
					<rect x="422.81" y="147.05" class="st0" width="19.12" height="16.71"/>
					<path d="M442.05,163.89h-19.37v-16.96h19.37V163.89z M422.93,163.64h18.86v-16.46h-18.86V163.64z"/>
				</g>
			</g>
			<g>
				<g>
					<g>
						<path class="st0" d="M483.34,182.23c-4.32,0.51-8.64,0.51-12.96,0c-4.98-0.63-8.7-5.67-8.43-10.28
							c0.76-15.08,0.76-30.17-0.02-45.25c-0.26-4.38,3.28-9.16,8-9.79c4.62-0.58,9.24-0.58,13.87,0c4.72,0.63,8.26,5.41,8,9.79
							c-0.78,15.08-0.79,30.17-0.02,45.25C492.04,176.55,488.32,181.6,483.34,182.23z"/>
						<path class="st6" d="M476.86,182.77c-2.17,0-4.34-0.13-6.5-0.38c-4.86-0.61-8.87-5.5-8.58-10.45
							c0.76-15,0.75-30.22-0.02-45.23c-0.28-4.69,3.53-9.35,8.14-9.97c4.62-0.58,9.3-0.58,13.91,0c4.62,0.62,8.42,5.28,8.14,9.97
							c-0.77,15.01-0.78,30.23-0.02,45.23c0.29,4.96-3.72,9.84-8.58,10.45h0C481.2,182.65,479.03,182.77,476.86,182.77z
							 M476.86,116.64c-2.31,0-4.62,0.14-6.91,0.43c-4.45,0.6-8.12,5.09-7.85,9.62c0.78,15.02,0.78,30.25,0.02,45.27
							c-0.28,4.79,3.59,9.51,8.28,10.1c4.29,0.5,8.63,0.5,12.92,0c4.69-0.59,8.56-5.31,8.28-10.1c-0.76-15.02-0.75-30.25,0.02-45.27
							c0.27-4.53-3.4-9.02-7.85-9.62C481.48,116.78,479.17,116.64,476.86,116.64z"/>
					</g>
				</g>
				<g>
					<path class="st7" d="M487.2,173.74h-20.67c0.02,0.24,0.05,0.48,0.08,0.72h20.5C487.14,174.22,487.17,173.98,487.2,173.74z"/>
				</g>
				<g>
					<path class="st6" d="M489.3,166.34l-0.18-0.62c-1.28-4.41-1.99-10.26-1.99-16.47c0-0.68,0.01-1.37,0.03-2.06l0.01-0.05
						l3.13-7.38l0.01,0.58c0.04,1.71,0.06,3.41,0.06,5.04c0,6.97-0.34,13.81-1.01,20.31L489.3,166.34z M487.41,147.22
						c-0.02,0.68-0.03,1.36-0.03,2.03c0,5.89,0.64,11.45,1.8,15.76c0.63-6.3,0.95-12.9,0.95-19.63c0-1.45-0.02-2.94-0.05-4.45
						L487.41,147.22z"/>
				</g>
				<g>
					<path class="st6" d="M464.42,166.34l-0.07-0.64c-0.67-6.51-1.01-13.34-1.01-20.31c0-1.62,0.02-3.31,0.06-5.04l0.01-0.58
						l3.14,7.42c0.02,0.69,0.03,1.38,0.03,2.06c0,6.21-0.71,12.06-1.99,16.47L464.42,166.34z M463.64,140.94
						c-0.03,1.52-0.05,3.02-0.05,4.45c0,6.73,0.32,13.33,0.95,19.63c1.16-4.31,1.8-9.87,1.8-15.76c0-0.67-0.01-1.35-0.03-2.03
						L463.64,140.94z"/>
				</g>
				<g>
					<path class="st0" d="M490.09,138.35V127.5c0-6.37-5.2-11.58-11.57-11.58h-3.32c-6.36,0-11.57,5.21-11.57,11.58v10.85
						c4.33-0.99,8.78-1.51,13.23-1.49C481.31,136.84,485.76,137.36,490.09,138.35z"/>
					<path d="M490.21,138.51l-0.15-0.04c-4.36-1-8.8-1.52-13.2-1.49c-0.06,0-0.12,0-0.17,0c-4.34,0-8.72,0.5-13.03,1.49l-0.15,0.04
						V127.5c0-6.46,5.24-11.71,11.69-11.71h3.32c6.45,0,11.69,5.25,11.69,11.71V138.51z M475.2,116.04
						c-6.31,0-11.44,5.14-11.44,11.46v10.69c4.27-0.97,8.62-1.46,12.93-1.46c0.12,0,0.23,0,0.35,0c4.31,0,8.65,0.49,12.93,1.46
						V127.5c0-6.32-5.13-11.46-11.44-11.46H475.2z"/>
				</g>
				<g>
					<path class="st0" d="M486.42,163.76c-6.37-0.96-12.74-0.96-19.12,0c-0.88,3.33-1.15,6.66-0.81,9.99h20.75
						C487.57,170.42,487.3,167.09,486.42,163.76z"/>
					<path d="M487.35,173.87h-20.97l-0.01-0.11c-0.34-3.33-0.06-6.71,0.82-10.03l0.02-0.08l0.08-0.01c6.35-0.96,12.8-0.96,19.15,0
						l0.08,0.01l0.02,0.08c0.88,3.33,1.16,6.7,0.82,10.03L487.35,173.87z M466.6,173.62h20.52c0.32-3.24,0.05-6.52-0.8-9.75
						c-6.28-0.94-12.64-0.94-18.92,0C466.56,167.1,466.29,170.38,466.6,173.62z"/>
				</g>
				<g>
					<path class="st7" d="M487.23,173.75h-20.75c0.02,0.24,0.05,0.48,0.08,0.72h20.58C487.18,174.23,487.21,173.99,487.23,173.75z"
						/>
				</g>
				<g>
					<path class="st0" d="M466.57,174.47v5.21c2.53,1.37,6.2,2.23,10.29,2.23c4.08,0,7.76-0.86,10.29-2.23v-5.21H466.57z"/>
					<path d="M476.86,182.03c-3.94,0-7.71-0.82-10.35-2.24l-0.07-0.04v-5.41h20.83v5.41l-0.07,0.04
						C484.57,181.21,480.8,182.03,476.86,182.03z M466.7,179.6c2.6,1.38,6.3,2.18,10.16,2.18c3.86,0,7.56-0.79,10.16-2.18v-5.01
						H466.7V179.6z"/>
				</g>
				<g>
					<path class="st7" d="M490,138.28l0.26-0.7c-8.75-2.42-18.04-2.42-26.8,0l0.26,0.7C472.31,135.96,481.41,135.96,490,138.28z"/>
				</g>
				<g>
					<path class="st0" d="M464.09,138.25l3.22,8.8h19.12l3.22-8.8C481.28,135.99,472.44,135.99,464.09,138.25z"/>
					<path d="M486.51,147.17h-19.29l-3.29-9.01l0.13-0.04c8.38-2.27,17.23-2.27,25.61,0l0.13,0.04L486.51,147.17z M467.39,146.92
						h18.94l3.14-8.59c-8.25-2.21-16.96-2.21-25.22,0L467.39,146.92z"/>
				</g>
				<g>
					<g>
						<path class="st6" d="M487.11,179.67h0.13c1.56,0,2.83-1.27,2.83-2.83v-0.21C489.42,177.94,488.38,179.01,487.11,179.67z"/>
					</g>
					<g>
						<path class="st6" d="M466.61,179.67h-0.13c-1.56,0-2.83-1.27-2.83-2.83v-0.21C464.3,177.94,465.34,179.01,466.61,179.67z"/>
					</g>
				</g>
				<g>
					<g>
						<path class="st0" d="M493.61,145.23c0.09-0.38,0-0.84-0.2-1.01l-2.31-1.99c-0.04-0.03-0.08-0.05-0.12-0.06v1.86l2.57,1.44
							L493.61,145.23z"/>
						<path class="st6" d="M493.64,145.65l-2.78-1.56v-2.08l0.15,0.03c0.06,0.01,0.12,0.04,0.18,0.09l2.31,1.99
							c0.24,0.2,0.34,0.7,0.24,1.14L493.64,145.65z M491.1,143.94l2.36,1.33l0.02-0.07c0.09-0.37-0.01-0.77-0.16-0.89l-2.22-1.92
							V143.94z"/>
					</g>
					<g>
						<path class="st0" d="M460.11,145.23c-0.09-0.38,0-0.84,0.2-1.01l2.31-1.99c0.04-0.03,0.08-0.05,0.12-0.06v1.86l-2.57,1.44
							L460.11,145.23z"/>
						<path class="st6" d="M460.09,145.65l-0.09-0.39c-0.1-0.43,0-0.93,0.24-1.14l2.31-1.99c0.05-0.05,0.11-0.08,0.18-0.09
							l0.15-0.03v2.08L460.09,145.65z M462.62,142.39l-2.22,1.92c-0.15,0.13-0.25,0.52-0.16,0.89l0.02,0.07l2.37-1.33V142.39z"/>
					</g>
				</g>
				<g>
					<g>
						<path class="st6" d="M483.67,131.65c0-4.16-0.74-7.82-1.85-9.94c0.83,2.17,1.35,5.31,1.35,8.81c0,1.69-0.12,3.3-0.34,4.75
							h0.65C483.6,134.13,483.67,132.92,483.67,131.65z"/>
					</g>
					<g>
						<path class="st6" d="M470.05,131.65c0-4.16,0.74-7.82,1.85-9.94c-0.83,2.17-1.35,5.31-1.35,8.81c0,1.69,0.12,3.3,0.34,4.75
							h-0.65C470.12,134.13,470.05,132.92,470.05,131.65z"/>
					</g>
				</g>
				<g>
					<rect x="467.3" y="147.05" class="st0" width="19.12" height="16.71"/>
					<path d="M486.54,163.89h-19.37v-16.96h19.37V163.89z M467.43,163.64h18.86v-16.46h-18.86V163.64z"/>
				</g>
			</g>
			<g>
				<g>
					<g>
						<path class="st0" d="M526.35,182.23c-4.32,0.51-8.64,0.51-12.96,0c-4.98-0.63-8.7-5.67-8.43-10.28
							c0.76-15.08,0.76-30.17-0.02-45.25c-0.26-4.38,3.28-9.16,8-9.79c4.62-0.58,9.24-0.58,13.87,0c4.72,0.63,8.26,5.41,8,9.79
							c-0.78,15.08-0.79,30.17-0.02,45.25C535.05,176.55,531.33,181.6,526.35,182.23z"/>
						<path class="st6" d="M519.87,182.77c-2.17,0-4.34-0.13-6.5-0.38c-4.86-0.61-8.87-5.5-8.58-10.45
							c0.76-15,0.75-30.22-0.02-45.23c-0.28-4.69,3.53-9.35,8.14-9.97c4.62-0.58,9.3-0.58,13.91,0c4.62,0.62,8.42,5.28,8.15,9.97
							c-0.77,15.01-0.78,30.23-0.02,45.23c0.29,4.96-3.72,9.84-8.58,10.45h0C524.22,182.65,522.05,182.77,519.87,182.77z
							 M519.87,116.64c-2.31,0-4.62,0.14-6.91,0.43c-4.45,0.6-8.12,5.09-7.85,9.62c0.78,15.02,0.78,30.25,0.02,45.27
							c-0.28,4.79,3.59,9.51,8.28,10.1c4.29,0.5,8.63,0.5,12.92,0c4.69-0.59,8.56-5.31,8.28-10.1c-0.76-15.02-0.75-30.25,0.02-45.27
							c0.27-4.53-3.4-9.02-7.85-9.62C524.49,116.78,522.18,116.64,519.87,116.64z"/>
					</g>
				</g>
				<g>
					<path class="st7" d="M530.21,173.74h-20.67c0.02,0.24,0.05,0.48,0.08,0.72h20.5C530.16,174.22,530.19,173.98,530.21,173.74z"/>
				</g>
				<g>
					<path class="st6" d="M532.32,166.34l-0.18-0.62c-1.28-4.41-1.99-10.26-1.99-16.47c0-0.68,0.01-1.37,0.03-2.06l0.01-0.05
						l3.13-7.38l0.01,0.58c0.04,1.71,0.06,3.41,0.06,5.04c0,6.97-0.34,13.81-1.01,20.31L532.32,166.34z M530.43,147.22
						c-0.02,0.68-0.03,1.36-0.03,2.03c0,5.89,0.64,11.45,1.8,15.76c0.63-6.3,0.95-12.9,0.95-19.63c0-1.45-0.02-2.94-0.05-4.45
						L530.43,147.22z"/>
				</g>
				<g>
					<path class="st6" d="M507.43,166.34l-0.07-0.64c-0.67-6.51-1.01-13.34-1.01-20.31c0-1.62,0.02-3.31,0.06-5.04l0.01-0.58
						l3.14,7.42c0.02,0.69,0.03,1.38,0.03,2.06c0,6.21-0.71,12.06-1.99,16.47L507.43,166.34z M506.65,140.94
						c-0.03,1.52-0.05,3.02-0.05,4.45c0,6.73,0.32,13.33,0.95,19.63c1.16-4.31,1.8-9.87,1.8-15.76c0-0.67-0.01-1.35-0.03-2.03
						L506.65,140.94z"/>
				</g>
				<g>
					<path class="st0" d="M533.1,138.35V127.5c0-6.37-5.2-11.58-11.57-11.58h-3.32c-6.36,0-11.57,5.21-11.57,11.58v10.85
						c4.33-0.99,8.78-1.51,13.23-1.49C524.32,136.84,528.77,137.36,533.1,138.35z"/>
					<path d="M533.23,138.51l-0.15-0.04c-4.36-1-8.8-1.52-13.2-1.49c-0.06,0-0.12,0-0.17,0c-4.34,0-8.72,0.5-13.03,1.49l-0.15,0.04
						V127.5c0-6.46,5.24-11.71,11.69-11.71h3.32c6.45,0,11.69,5.25,11.69,11.71V138.51z M518.21,116.04
						c-6.31,0-11.44,5.14-11.44,11.46v10.69c4.27-0.97,8.62-1.46,12.93-1.46c0.12,0,0.23,0,0.35,0c4.31,0,8.65,0.49,12.93,1.46
						V127.5c0-6.32-5.13-11.46-11.44-11.46H518.21z"/>
				</g>
				<g>
					<path class="st0" d="M529.43,163.76c-6.37-0.96-12.74-0.96-19.12,0c-0.88,3.33-1.15,6.66-0.81,9.99h20.75
						C530.59,170.42,530.31,167.09,529.43,163.76z"/>
					<path d="M530.36,173.87h-20.97l-0.01-0.11c-0.34-3.33-0.06-6.71,0.82-10.03l0.02-0.08l0.08-0.01c6.35-0.96,12.8-0.96,19.15,0
						l0.08,0.01l0.02,0.08c0.88,3.33,1.16,6.7,0.82,10.03L530.36,173.87z M509.62,173.62h20.52c0.32-3.24,0.05-6.52-0.8-9.75
						c-6.28-0.94-12.64-0.94-18.92,0C509.57,167.1,509.3,170.38,509.62,173.62z"/>
				</g>
				<g>
					<path class="st7" d="M530.25,173.75H509.5c0.02,0.24,0.05,0.48,0.08,0.72h20.58C530.19,174.23,530.22,173.99,530.25,173.75z"/>
				</g>
				<g>
					<path class="st0" d="M509.59,174.47v5.21c2.53,1.37,6.2,2.23,10.29,2.23s7.76-0.86,10.29-2.23v-5.21H509.59z"/>
					<path d="M519.87,182.03c-3.94,0-7.71-0.82-10.35-2.24l-0.07-0.04v-5.41h20.83v5.41l-0.07,0.04
						C527.58,181.21,523.81,182.03,519.87,182.03z M509.71,179.6c2.6,1.38,6.3,2.18,10.16,2.18s7.56-0.79,10.16-2.18v-5.01h-20.33
						V179.6z"/>
				</g>
				<g>
					<path class="st7" d="M533.02,138.28l0.26-0.7c-8.75-2.42-18.04-2.42-26.8,0l0.26,0.7
						C515.32,135.96,524.42,135.96,533.02,138.28z"/>
				</g>
				<g>
					<path class="st0" d="M507.1,138.25l3.22,8.8h19.12l3.22-8.8C524.3,135.99,515.45,135.99,507.1,138.25z"/>
					<path d="M529.52,147.17h-19.29l-3.29-9.01l0.13-0.04c8.38-2.27,17.23-2.27,25.61,0l0.13,0.04L529.52,147.17z M510.4,146.92
						h18.94l3.14-8.59c-8.25-2.21-16.96-2.21-25.22,0L510.4,146.92z"/>
				</g>
				<g>
					<g>
						<path class="st6" d="M530.13,179.67h0.13c1.56,0,2.83-1.27,2.83-2.83v-0.21C532.44,177.94,531.4,179.01,530.13,179.67z"/>
					</g>
					<g>
						<path class="st6" d="M509.62,179.67h-0.13c-1.56,0-2.83-1.27-2.83-2.83v-0.21C507.31,177.94,508.35,179.01,509.62,179.67z"/>
					</g>
				</g>
				<g>
					<g>
						<path class="st0" d="M536.62,145.23c0.09-0.38,0-0.84-0.2-1.01l-2.31-1.99c-0.04-0.03-0.08-0.05-0.12-0.06v1.86l2.57,1.44
							L536.62,145.23z"/>
						<path class="st6" d="M536.65,145.65l-2.78-1.56v-2.08l0.15,0.03c0.06,0.01,0.12,0.04,0.18,0.09l2.31,1.99
							c0.24,0.2,0.34,0.7,0.24,1.14L536.65,145.65z M534.12,143.94l2.36,1.33l0.02-0.07c0.09-0.37-0.01-0.77-0.16-0.89l-2.22-1.92
							V143.94z"/>
					</g>
					<g>
						<path class="st0" d="M503.13,145.23c-0.09-0.38,0-0.84,0.2-1.01l2.31-1.99c0.04-0.03,0.08-0.05,0.12-0.06v1.86l-2.57,1.44
							L503.13,145.23z"/>
						<path class="st6" d="M503.1,145.65l-0.09-0.39c-0.1-0.43,0-0.93,0.24-1.14l2.31-1.99c0.05-0.05,0.11-0.08,0.18-0.09l0.15-0.03
							v2.08L503.1,145.65z M505.63,142.39l-2.22,1.92c-0.15,0.13-0.25,0.52-0.16,0.89l0.02,0.07l2.37-1.33V142.39z"/>
					</g>
				</g>
				<g>
					<g>
						<path class="st6" d="M526.68,131.65c0-4.16-0.74-7.82-1.85-9.94c0.83,2.17,1.35,5.31,1.35,8.81c0,1.69-0.12,3.3-0.34,4.75
							h0.65C526.62,134.13,526.68,132.92,526.68,131.65z"/>
					</g>
					<g>
						<path class="st6" d="M513.07,131.65c0-4.16,0.74-7.82,1.85-9.94c-0.83,2.17-1.35,5.31-1.35,8.81c0,1.69,0.12,3.3,0.34,4.75
							h-0.65C513.13,134.13,513.07,132.92,513.07,131.65z"/>
					</g>
				</g>
				<g>
					<rect x="510.32" y="147.05" class="st0" width="19.12" height="16.71"/>
					<path d="M529.56,163.89h-19.37v-16.96h19.37V163.89z M510.44,163.64h18.86v-16.46h-18.86V163.64z"/>
				</g>
			</g>
			<g>
				<path d="M275.76,271.45c-1.43,0.63-4.22,1.49-6.16,1.9l-0.7-2.38c2.92-0.6,6.19-1.81,7.68-2.82h2.13v26.18h-2.95V271.45z"/>
				<path d="M297.73,281.86c-0.32,1.14-0.7,2.22-1.05,3.11h17.84c-0.25,3.87-0.89,7.33-1.68,9.08c-0.79,1.78-1.81,2.29-4.67,2.29
					c-1.68,0-3.94-0.1-5.49-0.22l-0.57-2.41c2.19,0.19,4.32,0.32,5.84,0.32c1.59,0,2.06-0.25,2.51-1.27
					c0.38-0.98,0.89-3.21,1.21-5.62h-15.84c-0.41,0.89-0.86,1.81-1.33,2.7l-2.57-0.73c1.14-2.03,2.19-4.44,3.14-7.24h-7.08v-2.16
					h30.15v2.16H297.73z M313.41,276.81h-20.72v-9.01h20.72V276.81z M295.25,274.78h15.58v-4.89h-15.58V274.78z"/>
				<path d="M326.33,280.81c-1.02,3.24-2.32,6.16-3.84,8.6l-1.17-2.54c2.06-3.08,3.68-6.92,4.79-11.46h-4.35v-2.22h4.57v-6.79h2.35
					v6.79h3.3v2.22h-3.3v2.95c1.43,1.17,2.76,2.44,3.9,3.71l-1.33,2.13c-0.57-0.86-1.62-2.19-2.57-3.27v15.62h-2.35V280.81z
					 M344.03,285.23c2.03,2.92,4.7,5.27,8.09,7.17l-1.49,2.22c-3.33-2.09-6.28-5.01-8.19-8.13v10.06h-2.25v-9.87
					c-2,3.4-4.7,6.19-8.16,8.38l-1.59-1.94c3.46-1.94,6.22-4.54,8.32-7.9h-5.87v-11.3h7.3v-2.35h-8.95v-2.06h8.95v-3.11h2.25v3.11
					h9.14v2.06h-9.14v2.35h7.52v11.3H344.03z M335.15,275.86v2.7h5.05v-2.7H335.15z M335.15,280.5v2.76h5.05v-2.76H335.15z
					 M342.45,278.56h5.3v-2.7h-5.3V278.56z M342.45,283.26h5.3v-2.76h-5.3V283.26z"/>
			</g>
			<g>
				<path d="M425.93,291.83c0.83-3.4,3.62-6.79,7.9-9.65l0.83-0.54c4.44-2.89,5.62-4.28,5.62-6.6c0-2.6-2.16-4.35-5.43-4.35
					c-2.67,0-4.54,0.98-6.57,3.4l-2-1.68c2.41-2.98,4.98-4.25,8.7-4.25c4.95,0,8.57,2.92,8.57,6.95c0,3.21-1.24,4.7-6.92,8.31
					l-1.14,0.73c-3.78,2.48-6.16,5.21-6.44,7.49h14.88v2.7h-18V291.83z"/>
				<path d="M459.55,281.86c-0.32,1.14-0.7,2.22-1.05,3.11h17.84c-0.25,3.87-0.89,7.33-1.68,9.08c-0.79,1.78-1.81,2.29-4.67,2.29
					c-1.68,0-3.94-0.1-5.49-0.22l-0.57-2.41c2.19,0.19,4.32,0.32,5.84,0.32c1.59,0,2.06-0.25,2.51-1.27
					c0.38-0.98,0.89-3.21,1.21-5.62h-15.84c-0.41,0.89-0.86,1.81-1.33,2.7l-2.57-0.73c1.14-2.03,2.19-4.44,3.14-7.24h-7.08v-2.16
					h30.15v2.16H459.55z M475.22,276.81H454.5v-9.01h20.72V276.81z M457.07,274.78h15.58v-4.89h-15.58V274.78z"/>
				<path d="M488.14,280.81c-1.02,3.24-2.32,6.16-3.84,8.6l-1.17-2.54c2.06-3.08,3.68-6.92,4.79-11.46h-4.35v-2.22h4.57v-6.79h2.35
					v6.79h3.3v2.22h-3.3v2.95c1.43,1.17,2.76,2.44,3.9,3.71l-1.33,2.13c-0.57-0.86-1.62-2.19-2.57-3.27v15.62h-2.35V280.81z
					 M505.85,285.23c2.03,2.92,4.7,5.27,8.09,7.17l-1.49,2.22c-3.33-2.09-6.28-5.01-8.19-8.13v10.06h-2.25v-9.87
					c-2,3.4-4.7,6.19-8.16,8.38l-1.59-1.94c3.46-1.94,6.22-4.54,8.32-7.9h-5.87v-11.3h7.3v-2.35h-8.95v-2.06h8.95v-3.11h2.25v3.11
					h9.14v2.06h-9.14v2.35h7.52v11.3H505.85z M496.97,275.86v2.7h5.05v-2.7H496.97z M496.97,280.5v2.76h5.05v-2.76H496.97z
					 M504.27,278.56h5.3v-2.7h-5.3V278.56z M504.27,283.26h5.3v-2.76h-5.3V283.26z"/>
			</g>
			<g>
				<rect x="253.94" y="189.65" class="グラフィックスタイル_x0020_4" width="41.9" height="6.56"/>
				<rect x="253.94" y="196.21" class="グラフィックスタイル_x0020_4" width="41.9" height="6.56"/>
				<rect x="253.94" y="202.77" class="グラフィックスタイル_x0020_4" width="41.9" height="14.3"/>
				<polygon points="274.89,215.48 280.9,207.09 268.88,207.09 				"/>
			</g>
			<g>
				<rect x="412.89" y="189.65" class="グラフィックスタイル_x0020_4" width="41.9" height="6.56"/>
				<rect x="412.89" y="196.21" class="グラフィックスタイル_x0020_4" width="41.9" height="6.56"/>
				<rect x="412.89" y="202.77" class="グラフィックスタイル_x0020_4" width="41.9" height="14.3"/>
				<polygon points="433.84,215.48 439.85,207.09 427.83,207.09 				"/>
			</g>
		</g>
	</g>
</g>
</svg>
