<?xml version="1.0" encoding="utf-8"?>
<!-- Generator: Adobe Illustrator 23.0.3, SVG Export Plug-In . SVG Version: 6.00 Build 0)  -->
<svg version="1.1" xmlns="http://www.w3.org/2000/svg" xmlns:xlink="http://www.w3.org/1999/xlink" x="0px" y="0px"
	 viewBox="0 0 700 500" style="enable-background:new 0 0 700 500;" xml:space="preserve">
<style type="text/css">
	.グラフィックスタイル{fill:none;stroke:#000000;stroke-width:2;stroke-miterlimit:10;}
	.グラフィックスタイル_x0020_4{fill:#FFFFFF;stroke:#000000;stroke-width:1.2664;stroke-miterlimit:10;}
	.グラフィックスタイル_x0020_7{fill:none;stroke:#000000;stroke-width:1.5;stroke-linejoin:bevel;stroke-miterlimit:10;}
	.グラフィックスタイル_x0020_8{fill:#FFFFFF;stroke:#000000;stroke-width:1.5;stroke-miterlimit:10;}
	.st0{fill:#FFFFFF;}
	.st1{fill:#D8EACC;stroke:#000000;stroke-width:2;}
	.st2{fill:none;stroke:#000000;stroke-width:1.4318;stroke-linecap:round;stroke-linejoin:round;}
	.st3{fill:none;stroke:#000000;stroke-width:1.8264;stroke-linecap:round;stroke-linejoin:round;}
	.st4{fill:#FFFFFF;stroke:#000000;stroke-width:2;stroke-miterlimit:10;}
	.st5{fill:#FFFFFF;stroke:#000000;stroke-width:1.2664;stroke-miterlimit:10;}
	.st6{fill:#030201;}
	.st7{fill:#242323;}
	.st8{fill:none;stroke:#000000;stroke-width:2;stroke-linejoin:round;stroke-miterlimit:10;}
	.st9{fill:none;stroke:#000000;stroke-width:2;stroke-miterlimit:10;}
	.st10{fill:none;stroke:#000000;stroke-width:2;stroke-linejoin:bevel;stroke-miterlimit:10;}
	.st11{fill:#E83589;}
	.st12{fill:none;stroke:#000000;stroke-width:2;stroke-miterlimit:10;stroke-dasharray:5.901,5.901;}
	.st13{fill:none;stroke:#000000;stroke-width:1.5;stroke-linejoin:bevel;stroke-miterlimit:10;}
	.st14{fill:#D8EACC;stroke:#000000;stroke-width:1.5;}
	.st15{fill:none;stroke:#000000;stroke-width:1.5;stroke-miterlimit:10;}
	.st16{fill:none;stroke:#000000;stroke-linejoin:bevel;stroke-miterlimit:10;}
	.st17{fill:#FFFFFF;stroke:#000000;stroke-width:1.5;stroke-miterlimit:10;}
	.st18{fill:#FFFFFF;stroke:#DE0000;stroke-width:2;stroke-miterlimit:10;}
	.st19{fill:#DE0000;}
	.st20{fill:none;stroke:#000000;stroke-miterlimit:10;}
	.st21{fill:none;stroke:#000000;stroke-miterlimit:10;stroke-dasharray:3.0312,3.0312;}
	.st22{fill:url(#);stroke:#000000;stroke-width:1.1494;}
	.st23{fill:#FFFFFF;stroke:#000000;stroke-miterlimit:10;}
	.st24{fill:none;stroke:#000000;stroke-width:3;stroke-miterlimit:10;stroke-dasharray:5;}
	.st25{fill:none;stroke:#FFFFFF;stroke-width:0.75;stroke-linejoin:round;}
	.st26{fill:none;stroke:#000000;stroke-miterlimit:10;stroke-dasharray:5;}
	.st27{fill:none;stroke:#FFFFFF;stroke-width:3;stroke-linejoin:round;}
	.st28{fill:none;stroke:#000000;stroke-width:1.3;stroke-linejoin:bevel;stroke-miterlimit:10;}
	.st29{fill:none;stroke:#000000;stroke-width:1.5;stroke-miterlimit:10;stroke-dasharray:5;}
	.st30{fill:none;stroke:#47738A;stroke-linejoin:bevel;stroke-miterlimit:10;}
	.st31{fill:none;}
	.st32{fill:none;stroke:#FFFFFF;stroke-width:5;stroke-linejoin:round;}
	.st33{fill:#D8EACC;}
	.st34{fill:#D8EACC;stroke:#000000;stroke-width:0.25;}
	.st35{fill:none;stroke:#000000;stroke-width:2;}
	.st36{fill:none;stroke:#FFFFFF;stroke-linejoin:round;}
	.st37{fill:none;stroke:#000000;stroke-width:1.9773;stroke-linecap:round;stroke-linejoin:round;}
	.st38{fill:none;stroke:#000000;stroke-width:2.5222;stroke-linecap:round;stroke-linejoin:round;}
	.st39{fill:#FFFFFF;stroke:#000000;stroke-width:1.0238;stroke-miterlimit:10;}
	.st40{fill:#FFFFFF;stroke:#000000;stroke-width:1.089;stroke-miterlimit:10;}
	.st41{fill:#FFFFFF;stroke:#000000;stroke-width:1.2553;stroke-miterlimit:10;}
	.st42{fill:url(#);}
	.st43{fill:none;stroke:#000000;stroke-width:1.7765;stroke-linejoin:bevel;stroke-miterlimit:10;}
	.st44{fill:none;stroke:#000000;stroke-width:2.3687;stroke-miterlimit:10;}
	.st45{fill:#D8EACC;stroke:#000000;stroke-width:2.0455;}
	.st46{fill:none;stroke:#000000;stroke-width:2.0455;stroke-linecap:round;stroke-miterlimit:10;stroke-dasharray:0,6.1366;}
	.st47{fill:#FFFFFF;stroke:#000000;stroke-width:2.3687;stroke-miterlimit:10;}
	.st48{fill:#FFFFFF;stroke:#000000;stroke-width:1.4998;stroke-miterlimit:10;}
	.st49{fill:#FFFFFF;stroke:#000000;stroke-width:0.6137;stroke-miterlimit:10;}
	.st50{fill:url(#);stroke:#000000;stroke-width:1.0228;}
	.st51{fill:none;stroke:#FFFFFF;stroke-width:4.0911;stroke-linejoin:round;}
	.st52{fill:none;stroke:#000000;stroke-width:2.4559;stroke-linecap:round;stroke-linejoin:round;}
	.st53{fill:none;stroke:#000000;stroke-width:3.1327;stroke-linecap:round;stroke-linejoin:round;}
	.st54{fill:none;stroke:#FFFFFF;stroke-width:4;stroke-linejoin:round;}
</style>
<g id="レイヤー_5">
	<rect x="-369.06" y="-2687.14" class="st0" width="5667.56" height="5248"/>
</g>
<g id="レイヤー_1">
</g>
<g id="レイヤー_3">
</g>
<g id="レイヤー_4">
</g>
<g id="レイヤー_2">
	<g>
		<rect class="st0" width="700" height="500"/>
		<polygon class="st14" points="455.27,141.4 455.27,279.44 271.38,279.44 255.66,184.93 295.47,141.4 		"/>
		<polygon class="st14" points="455.27,292.19 455.27,425.72 549.78,425.72 549.78,141.4 455.27,141.4 		"/>
		<polygon class="st14" points="373.81,279.44 455.27,279.44 455.27,425.72 295.57,424.93 271.38,279.44 		"/>
		<rect x="319.9" y="154.46" class="グラフィックスタイル_x0020_8" width="128.09" height="98.94"/>
		<rect x="307.27" y="289.86" class="st17" width="140.72" height="91.41"/>
		<polygon class="グラフィックスタイル_x0020_8" points="466.3,173.74 466.3,378.93 536.26,378.93 536.26,226.43 
			497.08,226.43 497.08,173.74 		"/>
		<g>
			<g>
				<path d="M607.16,54.4c0.37,0.56,0.72,1.19,1.03,1.86l-1.72,0.51c-0.3-0.82-0.72-1.65-1.19-2.38h-1.63
					c-0.72,1.12-1.44,2-2.28,2.75l-1.3-1.12c1.51-1.33,2.63-3.03,3.33-5.1l1.82,0.3c-0.28,0.72-0.42,1.07-0.72,1.7h5.99v1.47H607.16
					z M610.35,66.5c-2.1,2.38-4.99,4.29-8.5,5.64l-1.19-1.44c3.08-0.96,5.99-2.59,8.08-4.57l0.12-0.12h-6.99
					c0.4-1.89,0.68-3.68,0.84-5.24h7.64v-2.14h-8.29v-1.47h17.92v5.01h-7.85v2.4h9.11c-0.14,2.54-0.44,4.5-0.86,5.43
					c-0.4,0.96-1.07,1.28-2.54,1.28c-0.86,0-1.82-0.05-2.8-0.16l-0.44-1.72c1.07,0.14,2.17,0.23,2.84,0.23
					c0.86,0,1.14-0.16,1.35-0.79c0.21-0.56,0.4-1.56,0.51-2.82h-7.18v7.08h-1.77V66.5z M604.39,62.16c-0.05,0.51-0.21,1.75-0.33,2.4
					h6.29v-2.4H604.39z M616.71,54.4c0.33,0.4,0.77,1.07,1.14,1.75l-1.7,0.56c-0.44-0.91-0.86-1.63-1.35-2.31h-1.56
					c-0.49,0.96-1.17,1.86-1.79,2.52l-1.35-1c1.21-1.26,2.17-3.03,2.73-5.03l1.79,0.26c-0.23,0.7-0.37,1.12-0.65,1.79h7.71v1.47
					H616.71z M618.18,58.62h-6.06v2.14h6.06V58.62z"/>
				<path d="M611.84,122.5h-1.79v-7.46c-2.12,2.66-5.38,5.03-9.06,6.52l-1.07-1.49c3.49-1.3,6.38-3.15,8.62-5.48h-8.53v-1.56h10.04
					v-2.54h1.79v2.54h10.21v1.56h-8.62c2.14,2,5.03,3.63,8.76,4.94l-1.14,1.63c-3.98-1.65-6.97-3.66-9.2-6.27V122.5z M618.16,102.56
					c-1.26,1.7-3.17,3.42-5.36,4.87c2.12,1.12,4.73,1.93,8.85,2.75l-0.96,1.58c-3.33-0.67-6.92-1.93-9.48-3.33
					c-2.75,1.61-6.24,2.87-9.76,3.56l-0.93-1.44c3.54-0.63,6.94-1.75,9.25-3.05c-0.91-0.65-2.24-1.84-3.31-2.94
					c-1.3,1.03-2.54,1.79-4.05,2.49l-1.14-1.21c2.82-1.17,5.55-3.36,6.97-5.57l1.77,0.35c-0.35,0.54-0.44,0.63-0.77,1.07h7.97
					L618.16,102.56z M608,103.14c-0.16,0.19-0.23,0.23-0.37,0.37c0.98,1.1,2.31,2.19,3.66,3.05c1.98-1.33,3.31-2.42,4.17-3.43H608z"
					/>
				<path d="M606.39,129.22c0.33-1.44,0.51-2.4,0.75-3.66l1.86,0.23l-0.02,0.16c-0.33,1.54-0.54,2.49-0.72,3.26h7.81v1.63h-8.2
					c-1.44,5.89-3.17,11.09-5.01,15.05l-1.77-0.68c1.93-4.24,3.61-9.13,4.92-14.38h-4.87v-1.63H606.39z M620.65,145.25
					c-1.12,0.16-2.4,0.26-3.89,0.26c-2.14,0-4.26-0.23-5.38-0.61c-1.33-0.44-2.05-1.4-2.05-2.75c0-0.86,0.3-1.72,0.79-2.28
					l1.47,0.91c-0.21,0.28-0.37,0.75-0.37,1.14c0,0.68,0.33,1.17,0.93,1.35c0.84,0.26,2.47,0.44,3.91,0.44
					c1.42,0,3.05-0.12,4.38-0.33L620.65,145.25z M610.45,134.46c2.63-0.33,5.64-0.51,8.32-0.51h1l0.12,1.7h-1.47
					c-2.49,0-5.1,0.14-7.74,0.44L610.45,134.46z"/>
				<path d="M606.39,153.69c0.33-1.44,0.51-2.4,0.75-3.66l1.86,0.23l-0.02,0.16c-0.33,1.54-0.54,2.49-0.72,3.26h6.52v1.63h-6.92
					c-1.44,5.89-3.17,11.09-5.01,15.05l-1.77-0.68c1.93-4.24,3.61-9.13,4.92-14.38h-4.87v-1.63H606.39z M620.65,169.72
					c-1.12,0.16-2.4,0.26-3.89,0.26c-2.14,0-4.26-0.23-5.38-0.61c-1.33-0.44-2.05-1.4-2.05-2.75c0-0.86,0.3-1.72,0.79-2.28
					l1.47,0.91c-0.21,0.28-0.37,0.75-0.37,1.14c0,0.68,0.33,1.17,0.93,1.35c0.84,0.26,2.47,0.44,3.91,0.44
					c1.42,0,3.05-0.12,4.38-0.33L620.65,169.72z M610.45,158.93c2.63-0.33,5.64-0.51,8.32-0.51h1l0.12,1.7h-1.47
					c-2.49,0-5.1,0.14-7.74,0.44L610.45,158.93z M617.74,154.6c-0.47-1.19-1.17-2.52-2.03-3.77l1.4-0.54
					c0.84,1.24,1.58,2.61,2.03,3.73L617.74,154.6z M620.63,153.69c-0.49-1.28-1.24-2.7-2-3.77l1.35-0.51
					c0.77,1.02,1.56,2.42,2.05,3.66L620.63,153.69z"/>
				<path d="M606.04,174.55v13.14c0,3.03,1.65,4.61,4.85,4.61c2.03,0,3.96-1.03,5.1-2.7c0.96-1.42,1.72-3.19,2.35-5.48l1.65,1.05
					c-0.75,2.54-1.49,4.22-2.45,5.57c-1.58,2.21-3.94,3.38-6.76,3.38c-4.31,0-6.64-2.26-6.64-6.45v-13.12H606.04z"/>
				<path d="M610.05,197.55h1.79v1.4h7.48v2.68h2.77v1.28h-2.77v2.75h-7.48v1.28h8.74v1.28h-8.74v1.3h10.25v1.33h-22.14v-1.33h10.09
					v-1.3h-8.41v-1.28h8.41v-1.28h-7.43v-1.26h7.43v-1.49h-10.09v-1.28h10.09v-1.42h-7.43v-1.26h7.43V197.55z M619.25,219.69h-1.84
					v-1.03h-12.77v1.03h-1.84v-7.64h16.45V219.69z M604.64,214.66h12.77v-1.33h-12.77V214.66z M604.64,217.34h12.77v-1.44h-12.77
					V217.34z M611.84,200.21v1.42h5.69v-1.42H611.84z M611.84,202.91v1.49h5.69v-1.49H611.84z"/>
				<path d="M609.07,225.59c-0.26-0.7-0.7-2.1-0.89-2.7l1.82-0.12c0.19,0.68,0.65,2.07,0.93,2.82h7.92v1.58h-7.34
					c0.42,1.12,1.12,2.66,1.68,3.77h7.22v1.58h-6.38c0.72,1.35,1.72,2.87,2.61,4.05l-1.82,0.61c-1-1.45-1.98-3.03-2.82-4.66h-10.46
					v-1.58h9.69c-0.58-1.23-1.14-2.56-1.58-3.77h-7.71v-1.58H609.07z M616.5,242.74c-1.82,0.09-2.77,0.14-3.73,0.14
					c-2.94,0-5.06-0.23-6.45-0.68c-2.19-0.7-3.4-2.14-3.4-4.01c0-0.91,0.28-1.77,0.72-2.31l1.44,0.82
					c-0.23,0.56-0.35,1.05-0.35,1.51c0,2.03,2.38,2.94,7.64,2.94c1.26,0,2.49-0.07,3.96-0.19L616.5,242.74z"/>
				<path d="M605.18,264.02c1.89,1.89,4.05,2.61,7.97,2.63h9.16c-0.23,0.51-0.42,1.05-0.56,1.65h-8.85
					c-4.08-0.05-6.34-0.82-8.34-2.84c-1.05,1.24-2.38,2.49-3.64,3.42l-1.02-1.65c1.1-0.65,2.33-1.58,3.52-2.68v-6.25h-3.45v-1.58
					h5.22V264.02z M604.18,252.39c-1.1-1.56-2.28-2.96-3.4-3.96l1.28-1.07c1.35,1.19,2.54,2.47,3.49,3.8L604.18,252.39z
					 M606.46,251.16v-1.47h4.12c-0.4-0.75-0.91-1.51-1.49-2.24l1.63-0.63c0.75,1.05,1.21,1.86,1.68,2.87h3.03
					c0.44-0.82,0.98-2.05,1.28-2.91l1.84,0.47c-0.37,0.82-0.86,1.75-1.33,2.45h4.36v1.47h-6.73c-0.12,0.4-0.49,1.37-0.72,1.93h5.85
					v11.88h-11.86v-11.88h4.29c0.28-0.77,0.49-1.4,0.61-1.93H606.46z M609.84,256.56h8.39v-2.14h-8.39V256.56z M609.84,259.94h8.39
					v-2.12h-8.39V259.94z M609.84,263.6h8.39v-2.33h-8.39V263.6z"/>
				<path d="M608.95,279.96h-3.01v3.68h3.03v1.54h-3.03v4.87c0.63-0.16,2.4-0.68,3.56-1.05l0.16,1.51
					c-2.77,0.98-6.13,1.93-9.18,2.61l-0.61-1.65l1.23-0.26v-9.09h1.58v8.74l0.58-0.14l0.56-0.14l0.49-0.12v-10.51h-3.4v-7.57h8.02
					V279.96z M602.59,278.45h4.71v-4.5h-4.71V278.45z M620.42,273.88c-0.89,2.17-2.03,4.03-3.43,5.62c1.47,1.28,3.29,2.4,5.34,3.24
					l-0.89,1.54c-2.1-0.93-4.05-2.21-5.57-3.63c-1.7,1.61-3.7,2.89-6.03,3.84l-0.93-1.44c2.1-0.68,4.12-1.93,5.83-3.56
					c-0.77-0.86-1.56-1.96-2.1-2.96l-0.09,0.12l-0.05,0.07c-0.61,0.77-1.33,1.51-2.05,2.12l-1.14-1.24c1.75-1.33,3.45-3.8,4.26-6.17
					l1.72,0.28c-0.26,0.61-0.33,0.79-0.51,1.19h4.52L620.42,273.88z M620.32,293.57h-1.7v-1.38h-5.94v1.38h-1.7v-9.18h9.34V293.57z
					 M612.68,290.66h5.94v-4.71h-5.94V290.66z M613.5,275.26c0.65,1.17,1.28,2.03,2.31,3.12c1.05-1.21,1.84-2.45,2.52-3.94h-4.33
					c-0.09,0.16-0.19,0.33-0.4,0.68L613.5,275.26z"/>
			</g>
			<g>
				<path d="M605.73,77.21v12.61h3.61v1.79h-3.61v4.59h-2.05v-4.59h-9.6v-1.77l9.09-12.63H605.73z M603.68,83.1
					c0-1.07,0.05-2.89,0.12-4.03h-0.09c-0.63,1.23-1.23,2.31-1.7,2.96l-5.55,7.78h7.22V83.1z"/>
				<path d="M616.53,85.36c3.33,0,5.17-1.21,5.17-3.4c0-1.93-1.56-3.15-4.08-3.15c-1.89,0-3.15,0.56-4.57,2.03l-1.37-1.3
					c1.44-1.61,3.68-2.56,5.99-2.56c3.75,0,6.36,1.98,6.36,4.82c0,2.35-1.72,3.96-4.59,4.31v0.09c3.38,0.23,5.34,2.05,5.34,4.92
					c0,3.33-2.75,5.45-7.13,5.45c-2.84,0-4.99-0.84-6.64-2.63l1.38-1.38c1.4,1.4,3.15,2.1,5.24,2.1c2.98,0,4.78-1.4,4.78-3.71
					c0-2.61-1.86-3.82-5.92-3.82h-1.51v-1.77H616.53z"/>
			</g>
		</g>
		<g>
			<g>
				<path d="M241.68,242.56l0.26,1.51l-9.21,1.62l0.47,2.68l7.1-1.25l1.47,8.35c0.21,1.21-0.25,1.75-1.74,2.01
					c-0.86,0.15-1.72,0.26-2.6,0.33l-0.55-1.54c1.07-0.04,1.88-0.11,2.57-0.24c0.54-0.1,0.65-0.22,0.56-0.73l-1.13-6.43l-5.42,0.95
					l2,11.37l-1.65,0.29l-2-11.37l-5.15,0.9l1.54,8.77l-1.65,0.29l-1.8-10.24l6.8-1.19l-0.47-2.68l-9.02,1.58l-0.26-1.51l9.02-1.58
					l-0.5-2.87l1.65-0.29l0.5,2.87L241.68,242.56z"/>
				<path d="M229.87,269.79c-1.23-1.23-2.52-2.3-3.68-3.02l0.98-1.17c1.4,0.85,2.67,1.82,3.74,2.86L229.87,269.79z M232.6,280.08
					c1.99,1.4,4.05,1.71,7.58,1.11l8.23-1.44c-0.13,0.5-0.21,1.01-0.24,1.58l-7.96,1.4c-3.67,0.6-5.82,0.27-7.94-1.24
					c-0.75,1.28-1.74,2.62-2.73,3.65l-1.18-1.33c0.88-0.76,1.84-1.79,2.74-2.96l-0.98-5.61l-3.1,0.54l-0.25-1.42l4.69-0.82
					L232.6,280.08z M231.73,268.32L231.5,267l3.71-0.65c-0.47-0.61-1.06-1.22-1.69-1.77l1.37-0.82c0.84,0.82,1.38,1.48,1.96,2.31
					l2.72-0.48c0.27-0.8,0.56-2,0.69-2.82l1.73,0.13c-0.21,0.79-0.5,1.71-0.81,2.41l3.92-0.69l0.23,1.32l-6.05,1.06
					c-0.04,0.37-0.22,1.31-0.34,1.85l5.25-0.92l1.87,10.68l-10.66,1.87l-1.87-10.68l3.85-0.68c0.13-0.73,0.22-1.33,0.24-1.83
					L231.73,268.32z M235.61,272.65l7.54-1.32l-0.34-1.93l-7.54,1.32L235.61,272.65z M236.15,275.68l7.54-1.32l-0.33-1.91
					l-7.54,1.32L236.15,275.68z M236.72,278.97l7.54-1.32l-0.37-2.09l-7.54,1.32L236.72,278.97z"/>
				<path d="M187.43,175.34c-0.98-0.91-2.46-1.96-3.76-2.71l0.9-1.28c1.28,0.64,2.72,1.59,3.81,2.55L187.43,175.34z M187.61,180.81
					c-1.24-1.03-2.59-1.96-3.83-2.65l0.91-1.35c1.35,0.67,2.74,1.59,3.88,2.56L187.61,180.81z M186.34,189.82
					c0.95-1.85,1.84-4.53,2.48-7.51l1.5,0.79c-0.57,2.8-1.43,5.6-2.42,7.72L186.34,189.82z M196.76,179.83l-0.01,0.05
					c-0.29,1.89-1.1,4.92-1.83,7.01l-0.05,0.2l1.53-0.4c1.53-0.4,3.85-1.06,5.67-1.64c-0.84-0.97-1.79-1.97-2.78-2.94l1.19-0.96
					c2.07,1.86,3.88,3.79,5.24,5.62l-1.32,1.2c-0.65-0.9-0.94-1.28-1.4-1.85l-0.2,0.08c-2.24,0.87-7.07,2.38-10.45,3.28l-0.83-1.56
					l0.83-0.19l0.25-0.07c0.04-0.01,0.29-0.07,0.56-0.14c0.76-2.21,1.47-5.01,1.88-7.5l-5.28,0.93l-0.25-1.4l6.39-1.12l-0.74-4.23
					l-5.26,0.92l-0.25-1.44l5.25-0.92l-0.59-3.37l1.63-0.29l0.59,3.37l5.57-0.98l0.25,1.45l-5.57,0.98l0.74,4.23l6.66-1.17l0.25,1.4
					l-7.62,1.34L196.76,179.83z"/>
				<path d="M207.17,214.9c-0.86,1.73-2.31,3.58-4.05,5.22c2.08,0.67,4.56,0.99,8.39,1.07l-0.61,1.58c-3.1-0.08-6.52-0.65-9.05-1.5
					c-2.22,1.88-5.16,3.56-8.21,4.74l-1.06-1.15c3.08-1.12,5.96-2.67,7.83-4.2c-0.92-0.44-2.3-1.3-3.44-2.12
					c-1.01,1.13-2,2.01-3.25,2.88l-1.22-0.91c2.35-1.49,4.45-3.89,5.38-6.1l1.65,0.04c-0.23,0.54-0.3,0.64-0.52,1.08l7.16-1.26
					L207.17,214.9z M204.64,233.81l-1.61,0.28l-1.18-6.7c-1.49,2.72-4.04,5.37-7.11,7.29l-1.2-1.17c2.93-1.72,5.24-3.83,6.88-6.28
					l-7.66,1.35l-0.25-1.4l9.02-1.58l-0.4-2.28l1.61-0.28l0.4,2.28l9.17-1.61l0.25,1.4l-7.75,1.36c2.24,1.46,5.1,2.47,8.65,3.06
					l-0.77,1.64c-3.84-0.86-6.84-2.19-9.26-4.18L204.64,233.81z M198.13,217.02c-0.12,0.19-0.17,0.25-0.28,0.39
					c1.05,0.83,2.42,1.6,3.77,2.17c1.57-1.51,2.59-2.7,3.21-3.74L198.13,217.02z"/>
				<path d="M204.3,239.13c-0.91,0.59-2.52,1.39-3.89,1.96l-0.68-1.43c1.85-0.8,3.86-1.97,4.72-2.75l1.36-0.24l3.03,17.27
					l-1.88,0.33L204.3,239.13z"/>
				<path d="M204.85,271.16l0.12-0.06l0.08-0.06c0.73-0.39,1.65-0.94,2.21-1.31l0.43,1.46c-1.62,1.11-4.26,2.65-6.33,3.66
					l-0.87-1.51c1.12-0.52,1.28-0.59,2.35-1.13l0.48-0.24l-1.73-9.84l-2.72,0.48l-0.26-1.49l6.64-1.17l0.26,1.49l-2.28,0.4
					L204.85,271.16z M216.96,259.95l1.96,11.16l-10.05,1.76l-1.96-11.16l3.27-0.57c0.11-0.73,0.17-1.5,0.19-2.23l-5.23,0.92
					l-0.24-1.38l12.94-2.27l0.24,1.38l-6.07,1.07c-0.08,0.9-0.22,1.72-0.34,2.26L216.96,259.95z M207.3,276.39
					c1.54-0.94,2.99-2.29,3.89-3.66l1.43,0.63c-1.06,1.57-2.52,3.08-3.95,4.04L207.3,276.39z M208.68,262.72l0.36,2.03l6.93-1.22
					l-0.36-2.03L208.68,262.72z M209.6,267.94l6.93-1.22l-0.34-1.95l-6.93,1.22L209.6,267.94z M210.19,271.31l6.93-1.22l-0.38-2.16
					l-6.93,1.22L210.19,271.31z M220,275.32c-1.43-0.91-3.14-1.78-4.74-2.4l0.99-1.12c1.98,0.71,3.36,1.33,4.78,2.14L220,275.32z"/>
				<path d="M211.84,282.04c-0.91,0.59-2.52,1.39-3.89,1.96l-0.68-1.43c1.85-0.8,3.86-1.97,4.72-2.75l1.36-0.24l3.03,17.27
					l-1.88,0.33L211.84,282.04z"/>
				<path d="M213.76,310.68c-0.08,0.79-0.2,1.55-0.33,2.17l11.77-2.07c0.28,2.58,0.26,4.94-0.06,6.18
					c-0.32,1.26-0.93,1.72-2.81,2.05c-1.11,0.19-2.61,0.39-3.65,0.49l-0.66-1.52c1.47-0.13,2.88-0.29,3.89-0.47
					c1.05-0.18,1.33-0.41,1.51-1.13c0.14-0.69,0.21-2.22,0.15-3.85l-10.45,1.83c-0.17,0.63-0.36,1.29-0.57,1.93l-1.78-0.18
					c0.52-1.47,0.93-3.18,1.23-5.14l-4.67,0.82l-0.25-1.42l19.89-3.49l0.25,1.42L213.76,310.68z M223.51,305.54l-13.67,2.4
					l-1.04-5.95l13.67-2.4L223.51,305.54z M211.3,306.3l10.28-1.81l-0.57-3.22l-10.28,1.81L211.3,306.3z"/>
				<path d="M214.12,328.22c-1.23-1.23-2.52-2.3-3.68-3.02l0.98-1.17c1.4,0.85,2.67,1.82,3.74,2.86L214.12,328.22z M216.85,338.51
					c1.99,1.4,4.05,1.71,7.58,1.11l8.23-1.44c-0.13,0.5-0.21,1.01-0.24,1.57l-7.96,1.4c-3.67,0.6-5.82,0.27-7.94-1.24
					c-0.75,1.28-1.74,2.62-2.73,3.65l-1.18-1.32c0.88-0.76,1.84-1.79,2.74-2.96l-0.98-5.61l-3.1,0.54l-0.25-1.42l4.69-0.82
					L216.85,338.51z M215.97,326.75l-0.23-1.32l3.71-0.65c-0.47-0.61-1.06-1.22-1.69-1.77l1.37-0.82c0.84,0.82,1.38,1.48,1.96,2.31
					l2.72-0.48c0.27-0.8,0.56-2,0.69-2.82l1.73,0.13c-0.21,0.79-0.5,1.71-0.81,2.41l3.91-0.69l0.23,1.32l-6.05,1.06
					c-0.04,0.37-0.22,1.31-0.34,1.85l5.26-0.92l1.87,10.68l-10.66,1.87l-1.87-10.68l3.85-0.68c0.13-0.74,0.22-1.33,0.24-1.83
					L215.97,326.75z M219.86,331.08l7.54-1.32l-0.34-1.92l-7.54,1.32L219.86,331.08z M220.4,334.11l7.54-1.32l-0.33-1.9l-7.54,1.32
					L220.4,334.11z M220.97,337.4l7.54-1.32l-0.37-2.09l-7.54,1.32L220.97,337.4z"/>
				<path d="M222.76,352.23l-2.7,0.47l0.58,3.31l2.72-0.48l0.24,1.38l-2.72,0.48l0.77,4.38c0.54-0.25,2.05-0.99,3.04-1.5l0.39,1.33
					c-2.34,1.32-5.2,2.7-7.84,3.79l-0.8-1.39l1.07-0.43l-1.43-8.16l1.42-0.25l1.38,7.85l0.5-0.22l0.48-0.21l0.42-0.18l-1.66-9.44
					l-3.06,0.54l-1.19-6.8l7.2-1.26L222.76,352.23z M216.8,351.87l4.23-0.74l-0.71-4.04l-4.23,0.74L216.8,351.87z M232.1,344.96
					c-0.45,2.09-1.19,3.94-2.19,5.58c1.52,0.92,3.33,1.64,5.3,2.07l-0.55,1.52c-2.03-0.51-3.99-1.35-5.58-2.39
					c-1.27,1.71-2.87,3.18-4.82,4.41L223.2,355c1.78-0.94,3.4-2.39,4.67-4.12c-0.83-0.65-1.71-1.51-2.35-2.33l-0.06,0.12l-0.03,0.07
					c-0.42,0.79-0.95,1.57-1.51,2.23l-1.22-0.93c1.36-1.47,2.5-3.96,2.86-6.22l1.59-0.02c-0.13,0.58-0.17,0.76-0.27,1.15l4.06-0.71
					L232.1,344.96z M235.12,362.66l-1.53,0.27l-0.22-1.24l-5.34,0.94l0.22,1.24l-1.53,0.27l-1.45-8.25l8.4-1.47L235.12,362.66z
					 M226.1,347.29c0.77,0.94,1.47,1.62,2.57,2.44c0.75-1.25,1.27-2.49,1.64-3.94l-3.89,0.68c-0.06,0.16-0.12,0.32-0.25,0.67
					L226.1,347.29z M227.79,361.25l5.34-0.94l-0.74-4.23l-5.34,0.94L227.79,361.25z"/>
			</g>
			<g>
				<path d="M191.83,193.27l1.99,11.33l3.24-0.57l0.28,1.61l-3.24,0.57l0.72,4.12l-1.84,0.32l-0.72-4.12l-8.63,1.51l-0.28-1.59
					l6.17-12.78L191.83,193.27z M190.91,198.89c-0.17-0.96-0.41-2.6-0.53-3.64l-0.08,0.01c-0.37,1.21-0.75,2.27-1.06,2.93
					l-3.76,7.87l6.49-1.14L190.91,198.89z"/>
				<path d="M199.66,207.78c0.15-2.34,1.6-4.9,4.1-7.28l0.48-0.45c2.6-2.42,3.21-3.48,2.94-5c-0.3-1.72-1.93-2.62-4.08-2.24
					c-1.76,0.31-2.88,1.17-3.94,3l-1.51-0.88c1.25-2.25,2.79-3.38,5.24-3.81c3.27-0.57,5.99,0.93,6.46,3.59
					c0.37,2.12-0.27,3.24-3.6,6.29l-0.67,0.61c-2.2,2.07-3.46,4.15-3.38,5.69l9.82-1.72l0.31,1.78l-11.87,2.08L199.66,207.78z"/>
			</g>
		</g>
		<g>
			<path d="M237.61,446.54l0.27,1.42l-6.65,1.29l0.42,5.07l0.07-0.01c0.67-0.93,1.73-1.57,3.04-1.82c2.78-0.54,5.05,0.93,5.56,3.57
				c0.54,2.78-1.19,5.17-4.19,5.75c-1.94,0.38-3.62,0.14-5.17-0.74l0.75-1.31c1.16,0.66,2.73,0.9,4.13,0.63
				c1.94-0.38,3.1-2.09,2.73-4c-0.37-1.92-1.89-2.92-3.85-2.54c-1.28,0.25-2.5,1.14-2.93,2.13l-1.52,0.04l-0.74-7.92L237.61,446.54z
				"/>
			<path d="M244.82,457.25l0.49,2.5l-2.5,0.49l-0.49-2.5L244.82,457.25z"/>
			<path d="M255.47,443.07l0.23,1.17c-1.49,4.79-2.21,9.31-2.22,13.92l-1.65,0.32c-0.05-3.46,0.8-9,2.07-13.65l-6.82,1.32l0.63,3.27
				l-1.52,0.29l-0.91-4.67L255.47,443.07z"/>
			<path d="M266.35,440.96l0.28,1.42l-6.65,1.29l0.42,5.07l0.07-0.01c0.67-0.93,1.73-1.57,3.04-1.82c2.78-0.54,5.05,0.93,5.56,3.57
				c0.54,2.78-1.19,5.17-4.19,5.75c-1.94,0.38-3.62,0.14-5.17-0.74l0.75-1.31c1.16,0.66,2.73,0.9,4.13,0.63
				c1.94-0.38,3.1-2.09,2.73-4c-0.37-1.92-1.89-2.92-3.85-2.54c-1.28,0.25-2.5,1.14-2.93,2.13l-1.52,0.04l-0.74-7.92L266.35,440.96z
				"/>
			<path d="M280.84,445.5c0.88,4.55-0.59,7.74-3.82,8.37c-3.24,0.63-5.8-1.8-6.67-6.33c-0.88-4.55,0.59-7.74,3.84-8.37
				C277.4,438.54,279.96,440.97,280.84,445.5z M272.06,447.21c0.71,3.67,2.5,5.69,4.71,5.26c2.17-0.42,3.08-2.96,2.36-6.63
				c-0.72-3.71-2.51-5.71-4.71-5.28C272.25,440.98,271.35,443.53,272.06,447.21z"/>
		</g>
		<g>
			<path d="M456.74,110.89c2.55,0,3.96-0.93,3.96-2.6c0-1.48-1.19-2.41-3.12-2.41c-1.44,0-2.41,0.43-3.49,1.55l-1.05-1
				c1.1-1.23,2.82-1.96,4.58-1.96c2.87,0,4.87,1.51,4.87,3.69c0,1.8-1.32,3.03-3.51,3.3v0.07c2.58,0.18,4.08,1.57,4.08,3.76
				c0,2.55-2.1,4.17-5.45,4.17c-2.17,0-3.81-0.64-5.08-2.01l1.05-1.05c1.07,1.07,2.41,1.6,4.01,1.6c2.28,0,3.65-1.07,3.65-2.83
				c0-2-1.43-2.92-4.53-2.92h-1.16v-1.35H456.74z"/>
			<path d="M467.28,116.63v2.55h-2.55v-2.55H467.28z"/>
			<path d="M473.01,111.82c-1.92-0.77-2.94-1.98-2.94-3.53c0-2.21,2.05-3.81,4.87-3.81c2.78,0,4.81,1.57,4.81,3.69
				c0,1.02-0.45,1.92-1.23,2.51c-0.7,0.53-1.25,0.8-1.96,0.98v0.05c2.32,0.71,3.64,2.08,3.64,3.83c0,2.32-2.14,3.9-5.28,3.9
				c-3.17,0-5.26-1.51-5.26-3.83c0-1.73,1.19-3.07,3.35-3.74V111.82z M472.22,113.69c-0.5,0.41-0.8,1.07-0.8,1.76
				c0,1.6,1.35,2.62,3.51,2.62c2.05,0,3.46-1.11,3.46-2.69c0-0.68-0.3-1.28-0.89-1.78c-0.48-0.41-1.11-0.75-1.82-1
				c-0.25-0.09-0.84-0.25-0.87-0.25C473.75,112.62,473.11,112.96,472.22,113.69z M478.07,108.31c0-1.48-1.32-2.57-3.12-2.57
				c-1.85,0-3.14,1.05-3.14,2.57c0,0.75,0.23,1.27,0.73,1.67c0.32,0.25,0.73,0.5,1.16,0.71c0.37,0.16,1.18,0.43,1.25,0.41
				C476.85,110.68,478.07,109.59,478.07,108.31z"/>
			<path d="M490.59,111.96c-0.73,1.51-2.23,2.44-3.89,2.44c-2.69,0-4.65-2-4.65-4.74c0-1.35,0.54-2.69,1.46-3.67
				c0.96-1.02,2.14-1.51,3.56-1.51c3.19,0,5.2,2.53,5.2,6.54c0,5.58-2.37,8.13-8.04,8.66l-0.73-1.32c4.58-0.2,6.81-2.19,7.15-6.4
				H490.59z M483.75,109.52c0,2.08,1.28,3.53,3.17,3.53c0.94,0,1.92-0.48,2.53-1.25c0.57-0.71,0.89-1.55,0.89-2.26
				c0-0.93-0.39-1.98-1-2.69c-0.59-0.68-1.32-1-2.28-1C485.23,105.85,483.75,107.49,483.75,109.52z"/>
		</g>
		<g>
			<path d="M352.55,203.67c-1.18,0.52-3.49,1.23-5.09,1.57l-0.58-1.97c2.41-0.5,5.12-1.5,6.35-2.33h1.76v21.64h-2.44V203.67z"/>
			<path d="M369.12,212.28c-0.26,0.94-0.58,1.84-0.87,2.57H383c-0.21,3.2-0.73,6.06-1.39,7.5c-0.66,1.47-1.5,1.89-3.86,1.89
				c-1.39,0-3.25-0.08-4.54-0.18l-0.47-1.99c1.81,0.16,3.57,0.26,4.83,0.26c1.31,0,1.71-0.21,2.07-1.05c0.31-0.81,0.73-2.65,1-4.64
				h-13.09c-0.34,0.73-0.71,1.5-1.1,2.23l-2.12-0.6c0.94-1.68,1.81-3.67,2.6-5.98h-5.85v-1.78h24.92v1.78H369.12z M382.08,208.11
				h-17.13v-7.45h17.13V208.11z M367.08,206.43h12.88v-4.04h-12.88V206.43z"/>
			<path d="M392.76,211.41c-0.84,2.68-1.91,5.09-3.17,7.11l-0.97-2.1c1.7-2.54,3.04-5.72,3.96-9.47h-3.59v-1.84h3.78v-5.61h1.94
				v5.61h2.73v1.84h-2.73v2.44c1.18,0.97,2.28,2.02,3.23,3.07l-1.1,1.76c-0.47-0.71-1.34-1.81-2.12-2.7v12.91h-1.94V211.41z
				 M407.4,215.06c1.68,2.41,3.88,4.35,6.69,5.93l-1.23,1.84c-2.75-1.73-5.19-4.14-6.77-6.71v8.32h-1.86v-8.16
				c-1.65,2.81-3.88,5.12-6.74,6.92l-1.31-1.6c2.86-1.6,5.14-3.75,6.87-6.53h-4.85v-9.34h6.03v-1.94h-7.4v-1.71h7.4v-2.57h1.86v2.57
				h7.55v1.71h-7.55v1.94h6.22v9.34H407.4z M400.05,207.32v2.23h4.17v-2.23H400.05z M400.05,211.15v2.28h4.17v-2.28H400.05z
				 M406.08,209.55h4.38v-2.23h-4.38V209.55z M406.08,213.43h4.38v-2.28h-4.38V213.43z"/>
		</g>
		<g>
			<path d="M342.57,345.5c0.68-2.81,2.99-5.61,6.53-7.97l0.68-0.45c3.67-2.39,4.64-3.54,4.64-5.46c0-2.15-1.78-3.59-4.49-3.59
				c-2.2,0-3.75,0.81-5.43,2.81l-1.65-1.39c1.99-2.47,4.12-3.51,7.19-3.51c4.09,0,7.08,2.41,7.08,5.74c0,2.65-1.02,3.88-5.72,6.87
				l-0.94,0.6c-3.12,2.05-5.09,4.3-5.32,6.19h12.3v2.23h-14.87V345.5z"/>
			<path d="M370.35,337.26c-0.26,0.94-0.58,1.84-0.87,2.57h14.74c-0.21,3.2-0.73,6.06-1.39,7.5c-0.66,1.47-1.5,1.89-3.86,1.89
				c-1.39,0-3.25-0.08-4.54-0.18l-0.47-1.99c1.81,0.16,3.57,0.26,4.83,0.26c1.31,0,1.71-0.21,2.07-1.05c0.31-0.81,0.73-2.65,1-4.64
				h-13.09c-0.34,0.73-0.71,1.5-1.1,2.23l-2.12-0.6c0.94-1.68,1.81-3.67,2.6-5.98h-5.85v-1.78h24.92v1.78H370.35z M383.3,333.09
				h-17.13v-7.45h17.13V333.09z M368.3,331.41h12.88v-4.04H368.3V331.41z"/>
			<path d="M393.98,336.4c-0.84,2.68-1.91,5.09-3.17,7.11l-0.97-2.1c1.7-2.54,3.04-5.72,3.96-9.47h-3.59v-1.84h3.78v-5.61h1.94v5.61
				h2.73v1.84h-2.73v2.44c1.18,0.97,2.28,2.02,3.23,3.07l-1.1,1.76c-0.47-0.71-1.34-1.81-2.12-2.7v12.91h-1.94V336.4z
				 M408.62,340.04c1.68,2.41,3.88,4.35,6.69,5.93l-1.23,1.84c-2.75-1.73-5.19-4.14-6.77-6.71v8.32h-1.86v-8.16
				c-1.65,2.81-3.88,5.12-6.74,6.92l-1.31-1.6c2.86-1.6,5.14-3.75,6.87-6.53h-4.85v-9.34h6.03v-1.94h-7.4v-1.71h7.4v-2.57h1.86v2.57
				h7.55v1.71h-7.55v1.94h6.22v9.34H408.62z M401.27,332.3v2.23h4.17v-2.23H401.27z M401.27,336.13v2.28h4.17v-2.28H401.27z
				 M407.31,334.53h4.38v-2.23h-4.38V334.53z M407.31,338.42h4.38v-2.28h-4.38V338.42z"/>
		</g>
		<g>
			<path d="M497.87,300.67c3.75,0,5.82-1.36,5.82-3.83c0-2.18-1.76-3.54-4.59-3.54c-2.12,0-3.54,0.63-5.14,2.28l-1.55-1.47
				c1.63-1.81,4.14-2.89,6.74-2.89c4.22,0,7.16,2.23,7.16,5.43c0,2.65-1.94,4.46-5.17,4.85v0.11c3.8,0.26,6.01,2.31,6.01,5.53
				c0,3.75-3.1,6.14-8.03,6.14c-3.2,0-5.61-0.94-7.48-2.96l1.55-1.55c1.57,1.57,3.54,2.36,5.9,2.36c3.36,0,5.38-1.57,5.38-4.17
				c0-2.94-2.1-4.3-6.66-4.3h-1.71v-1.99H497.87z"/>
			<path d="M481.37,331.06c-0.26,0.94-0.58,1.84-0.87,2.57h14.74c-0.21,3.2-0.73,6.06-1.39,7.5c-0.66,1.47-1.5,1.89-3.86,1.89
				c-1.39,0-3.25-0.08-4.54-0.18l-0.47-1.99c1.81,0.16,3.57,0.26,4.83,0.26c1.31,0,1.71-0.21,2.07-1.05c0.31-0.81,0.73-2.65,1-4.64
				h-13.09c-0.34,0.73-0.71,1.5-1.1,2.23l-2.12-0.6c0.94-1.68,1.81-3.67,2.6-5.98h-5.85v-1.78h24.92v1.78H481.37z M494.32,326.89
				H477.2v-7.45h17.13V326.89z M479.32,325.21h12.88v-4.04h-12.88V325.21z"/>
			<path d="M505,330.19c-0.84,2.68-1.91,5.09-3.17,7.11l-0.97-2.1c1.71-2.54,3.04-5.72,3.96-9.47h-3.59v-1.84H505v-5.61h1.94v5.61
				h2.73v1.84h-2.73v2.44c1.18,0.97,2.28,2.02,3.23,3.07l-1.1,1.76c-0.47-0.71-1.34-1.81-2.12-2.7v12.91H505V330.19z M519.64,333.84
				c1.68,2.41,3.88,4.35,6.69,5.93l-1.23,1.84c-2.75-1.73-5.19-4.14-6.77-6.71v8.32h-1.86v-8.16c-1.65,2.81-3.88,5.12-6.74,6.92
				l-1.31-1.6c2.86-1.6,5.14-3.75,6.87-6.53h-4.85v-9.34h6.03v-1.94h-7.4v-1.71h7.4v-2.57h1.86v2.57h7.55v1.71h-7.55v1.94h6.22v9.34
				H519.64z M512.29,326.1v2.23h4.17v-2.23H512.29z M512.29,329.93v2.28h4.17v-2.28H512.29z M518.33,328.33h4.38v-2.23h-4.38V328.33
				z M518.33,332.21h4.38v-2.28h-4.38V332.21z"/>
		</g>
		<polyline class="st2" points="56.68,311.06 56.68,299.32 63.58,311.06 63.58,299.32 		"/>
		<g>
			<circle class="st3" cx="85.34" cy="334.54" r="24.35"/>
			<polygon points="94.7,344.48 107.8,341.79 69.04,317.25 91.25,357.4 			"/>
		</g>
		<g>
			
				<rect x="65.45" y="209.6" transform="matrix(6.123234e-17 -1 1 6.123234e-17 -172.2621 342.4629)" class="st11" width="39.3" height="95.53"/>
			<g>
				<path class="st0" d="M54.57,263.21h15.55v2.09H54.57v1.41h-2.32v-18.56h17.34v2.01H54.57V263.21z M55.25,260.86
					c2.12-1.08,3.67-2.24,5.41-4.02c-1.33-1.12-3.09-2.38-4.83-3.52l1.41-1.58c1.72,1.08,3.21,2.14,4.85,3.4
					c1.02-1.35,1.85-2.72,2.7-4.44l2.09,1.02c-0.93,1.85-1.97,3.5-3.01,4.85c1.16,0.96,2.7,2.32,4.25,3.79l-1.64,1.72
					c-1.35-1.35-2.86-2.74-4.08-3.79c-1.74,1.85-3.55,3.19-5.76,4.35L55.25,260.86z"/>
				<path class="st0" d="M83.73,249.98h-8.69v-1.87h19.7v1.87h-8.81v1.99h4.44v10.35H79.4v-10.35h4.33V249.98z M91.94,263.66v-11.7
					h2.12v14.74h-2.12v-1.14H77.82v1.14h-2.09v-14.74h2.09v11.7H91.94z M81.37,253.67v2.51h2.45v-2.51H81.37z M81.37,257.77v2.8
					h2.45v-2.8H81.37z M85.84,256.18h2.55v-2.51h-2.55V256.18z M85.84,260.57h2.55v-2.8h-2.55V260.57z"/>
				<path class="st0" d="M117.93,266.71h-2.26v-1.06h-13.44v1.06h-2.24v-18.75h17.94V266.71z M102.23,263.7h13.44v-13.85h-13.44
					V263.7z M113.74,262.81c-1.31-0.81-2.84-1.68-4.23-2.38c-1.51,1.27-3.34,2.28-5.37,3.01l-1.29-1.56
					c1.89-0.6,3.23-1.31,4.67-2.45l-0.54-0.25c-1.35-0.66-2.34-1.1-4.11-1.82l0.93-1.54c2.09,0.77,3.3,1.24,5.29,2.18
					c1.68-1.78,3.09-4.33,3.86-7.03l2.01,0.62c-0.85,2.63-2.38,5.5-3.94,7.34c0.1,0.06,0.1,0.06,0.19,0.1
					c1.04,0.52,2.18,1.14,3.75,2.07L113.74,262.81z M105.01,256.03c-0.48-1.62-1.04-2.99-1.66-4.06l1.91-0.77
					c0.66,1.16,1.22,2.49,1.72,4.04L105.01,256.03z M108.58,255.22c-0.5-1.58-1.06-2.92-1.68-4.08l1.82-0.73
					c0.75,1.33,1.39,2.8,1.72,4L108.58,255.22z"/>
			</g>
		</g>
		<g>
			<g>
				<g>
					<path class="st0" d="M366.26,400.77c0.44,3.73,0.44,7.46,0,11.19c-0.54,4.3-4.9,7.51-8.87,7.28
						c-13.02-0.66-26.05-0.65-39.07,0.02c-3.78,0.22-7.91-2.83-8.45-6.91c-0.5-3.99-0.5-7.98,0-11.97c0.55-4.08,4.68-7.13,8.45-6.91
						c13.02,0.67,26.05,0.68,39.07,0.02C361.36,393.26,365.72,396.48,366.26,400.77z"/>
					<path class="st6" d="M366.73,406.37c0,1.88-0.11,3.75-0.33,5.61c-0.53,4.2-4.75,7.66-9.03,7.41
						c-12.96-0.66-26.1-0.65-39.06,0.02c-4.05,0.24-8.07-3.05-8.61-7.03c-0.5-3.99-0.5-8.03,0-12.01c0.53-3.99,4.55-7.27,8.61-7.03
						c12.96,0.67,26.1,0.68,39.06,0.02c4.28-0.25,8.5,3.21,9.03,7.41v0C366.63,402.62,366.73,404.49,366.73,406.37z M309.63,406.37
						c0,1.99,0.12,3.99,0.37,5.97c0.51,3.84,4.39,7.01,8.3,6.78c12.97-0.67,26.12-0.68,39.09-0.02c4.14,0.24,8.21-3.1,8.72-7.15
						c0.44-3.7,0.44-7.45,0-11.15c-0.51-4.05-4.59-7.39-8.72-7.15c-12.97,0.66-26.12,0.65-39.09-0.02c-3.91-0.23-7.79,2.94-8.3,6.78
						C309.75,402.38,309.63,404.37,309.63,406.37z"/>
				</g>
			</g>
			<g>
				<path class="st7" d="M358.93,397.44v17.85c0.21-0.02,0.42-0.05,0.63-0.07v-17.7C359.35,397.49,359.14,397.46,358.93,397.44z"/>
			</g>
			<g>
				<path class="st6" d="M352.54,395.62l-0.53,0.15c-3.81,1.11-8.86,1.72-14.22,1.72c-0.59,0-1.18-0.01-1.78-0.02l-0.04-0.01
					l-6.37-2.71l0.5-0.01c1.48-0.04,2.94-0.05,4.35-0.05c6.02,0,11.92,0.29,17.54,0.88L352.54,395.62z M336.04,397.26
					c0.59,0.01,1.18,0.02,1.75,0.02c5.09,0,9.89-0.55,13.61-1.55c-5.44-0.54-11.14-0.82-16.95-0.82c-1.25,0-2.54,0.01-3.85,0.04
					L336.04,397.26z"/>
			</g>
			<g>
				<path class="st6" d="M352.54,417.11l-0.55,0.06c-5.62,0.58-11.52,0.88-17.54,0.88c-1.4,0-2.86-0.02-4.35-0.05l-0.5-0.01
					l6.41-2.72c0.59-0.02,1.19-0.02,1.78-0.02c5.36,0,10.41,0.61,14.22,1.72L352.54,417.11z M330.61,417.79
					c1.32,0.03,2.61,0.04,3.85,0.04c5.81,0,11.51-0.27,16.95-0.82c-3.72-1-8.52-1.55-13.61-1.55c-0.58,0-1.17,0.01-1.75,0.02
					L330.61,417.79z"/>
			</g>
			<g>
				<path class="st0" d="M328.38,394.95h-9.37c-5.5,0-10,4.49-10,9.99v2.87c0,5.49,4.5,9.99,10,9.99h9.37
					c-0.86-3.74-1.3-7.58-1.29-11.42C327.08,402.53,327.52,398.68,328.38,394.95z"/>
				<path d="M328.51,394.84l-0.03,0.13c-0.86,3.77-1.31,7.6-1.29,11.4c0,0.05,0,0.1,0,0.15c0,3.75,0.43,7.53,1.29,11.25l0.03,0.13
					h-9.5c-5.57,0-10.11-4.53-10.11-10.1v-2.87c0-5.57,4.53-10.1,10.11-10.1H328.51z M309.12,407.8c0,5.45,4.44,9.88,9.89,9.88h9.23
					c-0.84-3.69-1.26-7.44-1.26-11.16c0-0.1,0-0.2,0-0.3c0-3.72,0.42-7.47,1.26-11.16h-9.23c-5.45,0-9.89,4.43-9.89,9.88V407.8z"/>
			</g>
			<g>
				<path class="st0" d="M350.31,398.12c-0.83,5.5-0.83,11,0,16.51c2.88,0.76,5.75,1,8.63,0.7v-17.91
					C356.07,397.12,353.19,397.35,350.31,398.12z"/>
				<path d="M359.05,397.31v18.11l-0.1,0.01c-2.88,0.29-5.79,0.05-8.66-0.71l-0.07-0.02l-0.01-0.07c-0.83-5.49-0.83-11.05,0-16.54
					l0.01-0.07l0.07-0.02c2.87-0.76,5.79-1,8.66-0.71L359.05,397.31z M358.83,415.23v-17.72c-2.8-0.27-5.63-0.04-8.42,0.69
					c-0.81,5.42-0.81,10.91,0,16.33C353.21,415.27,356.04,415.5,358.83,415.23z"/>
			</g>
			<g>
				<path class="st7" d="M358.94,397.41v17.91c0.21-0.02,0.42-0.05,0.63-0.07v-17.77C359.36,397.46,359.15,397.43,358.94,397.41z"/>
			</g>
			<g>
				<path class="st0" d="M359.57,415.25h4.5c1.18-2.19,1.92-5.36,1.92-8.88s-0.74-6.7-1.92-8.88h-4.5V415.25z"/>
				<path d="M366.09,406.37c0,3.4-0.71,6.66-1.93,8.94l-0.03,0.06h-4.67v-17.98h4.67l0.03,0.06
					C365.39,399.71,366.09,402.97,366.09,406.37z M364,415.14c1.19-2.25,1.88-5.44,1.88-8.78s-0.68-6.53-1.88-8.78h-4.32v17.55H364z
					"/>
			</g>
			<g>
				<path class="st7" d="M328.32,395.02l-0.6-0.22c-2.09,7.56-2.09,15.58,0,23.14l0.6-0.22
					C326.31,410.3,326.31,402.44,328.32,395.02z"/>
			</g>
			<g>
				<path class="st0" d="M328.29,417.4l7.6-2.78v-16.51l-7.6-2.78C326.34,402.55,326.34,410.19,328.29,417.4z"/>
				<path d="M336,398.04v16.66l-7.78,2.84l-0.03-0.11c-1.96-7.23-1.96-14.88,0-22.11l0.03-0.11L336,398.04z M335.78,414.55v-16.35
					l-7.42-2.71c-1.91,7.13-1.91,14.65,0,21.77L335.78,414.55z"/>
			</g>
			<g>
				<g>
					<path class="st6" d="M364.06,397.52v-0.11c0-1.34-1.1-2.44-2.44-2.44h-0.18C362.56,395.52,363.49,396.42,364.06,397.52z"/>
				</g>
				<g>
					<path class="st6" d="M364.06,415.22v0.11c0,1.34-1.1,2.44-2.44,2.44h-0.18C362.56,417.22,363.49,416.32,364.06,415.22z"/>
				</g>
			</g>
			<g>
				<g>
					<path class="st0" d="M334.32,391.91c-0.33-0.08-0.73,0-0.88,0.17l-1.72,1.99c-0.03,0.03-0.05,0.07-0.05,0.1h1.61l1.25-2.22
						L334.32,391.91z"/>
					<path class="st6" d="M334.68,391.88l-1.35,2.4h-1.8l0.03-0.13c0.01-0.05,0.04-0.11,0.08-0.15l1.72-1.99
						c0.18-0.2,0.61-0.3,0.98-0.21L334.68,391.88z M333.21,394.07l1.15-2.04l-0.06-0.01c-0.32-0.08-0.66,0.01-0.77,0.14l-1.66,1.92
						H333.21z"/>
				</g>
				<g>
					<path class="st0" d="M334.32,420.83c-0.33,0.08-0.73,0-0.88-0.17l-1.72-1.99c-0.03-0.03-0.05-0.07-0.05-0.1h1.61l1.25,2.22
						L334.32,420.83z"/>
					<path class="st6" d="M334.68,420.85l-0.34,0.08c-0.37,0.09-0.81,0-0.98-0.21l-1.72-1.99c-0.04-0.05-0.07-0.1-0.08-0.15
						l-0.03-0.13h1.8L334.68,420.85z M331.87,418.67l1.66,1.92c0.11,0.13,0.45,0.21,0.77,0.14l0.06-0.01l-1.15-2.04H331.87z"/>
				</g>
			</g>
			<g>
				<g>
					<path class="st6" d="M322.59,400.49c-3.59,0-6.76,0.64-8.58,1.6c1.87-0.71,4.59-1.16,7.61-1.16c1.46,0,2.85,0.11,4.1,0.29
						v-0.56C324.73,400.55,323.68,400.49,322.59,400.49z"/>
				</g>
				<g>
					<path class="st6" d="M322.59,412.25c-3.59,0-6.76-0.64-8.58-1.6c1.87,0.71,4.59,1.16,7.61,1.16c1.46,0,2.85-0.11,4.1-0.29v0.56
						C324.73,412.19,323.68,412.25,322.59,412.25z"/>
				</g>
			</g>
			<g>
				
					<rect x="334.85" y="399.15" transform="matrix(6.123234e-17 -1 1 6.123234e-17 -63.2658 749.4709)" class="st0" width="16.51" height="14.43"/>
				<path d="M350.43,398.01v16.72h-14.65v-16.72H350.43z M350.21,414.51v-16.29H336v16.29H350.21z"/>
			</g>
		</g>
		<g>
			<g>
				<g>
					<path class="st0" d="M302.15,259c-3.73,0.44-7.46,0.44-11.19,0c-4.3-0.54-7.51-4.9-7.28-8.87c0.66-13.02,0.65-26.05-0.02-39.07
						c-0.22-3.78,2.83-7.91,6.91-8.45c3.99-0.5,7.98-0.5,11.97,0c4.08,0.55,7.13,4.68,6.91,8.45c-0.67,13.02-0.68,26.05-0.02,39.07
						C309.66,254.1,306.45,258.46,302.15,259z"/>
					<path class="st6" d="M296.55,259.47c-1.88,0-3.75-0.11-5.61-0.33c-4.2-0.53-7.66-4.75-7.41-9.03
						c0.66-12.96,0.65-26.1-0.02-39.06c-0.24-4.05,3.05-8.07,7.03-8.61c3.99-0.5,8.03-0.5,12.01,0c3.99,0.53,7.27,4.55,7.03,8.61
						c-0.67,12.96-0.68,26.1-0.02,39.06c0.25,4.28-3.21,8.5-7.41,9.03h0C300.31,259.36,298.43,259.47,296.55,259.47z M296.56,202.36
						c-1.99,0-3.99,0.12-5.97,0.37c-3.84,0.51-7.01,4.39-6.78,8.3c0.67,12.97,0.68,26.12,0.02,39.09c-0.24,4.14,3.1,8.21,7.15,8.72
						c3.7,0.44,7.45,0.44,11.15,0c4.05-0.51,7.39-4.59,7.15-8.72c-0.66-12.97-0.65-26.12,0.02-39.09c0.23-3.91-2.94-7.79-6.78-8.3
						C300.54,202.49,298.55,202.36,296.56,202.36z"/>
				</g>
			</g>
			<g>
				<path class="st7" d="M305.48,251.67h-17.85c0.02,0.21,0.05,0.42,0.07,0.63h17.7C305.43,252.09,305.46,251.88,305.48,251.67z"/>
			</g>
			<g>
				<path class="st6" d="M307.3,245.28l-0.15-0.53c-1.11-3.81-1.72-8.86-1.72-14.22c0-0.59,0.01-1.18,0.02-1.78l0.01-0.04l2.71-6.37
					l0.01,0.5c0.04,1.48,0.05,2.94,0.05,4.35c0,6.02-0.29,11.92-0.88,17.54L307.3,245.28z M305.67,228.77
					c-0.01,0.59-0.02,1.18-0.02,1.75c0,5.09,0.55,9.89,1.55,13.61c0.54-5.44,0.82-11.14,0.82-16.95c0-1.25-0.01-2.54-0.04-3.85
					L305.67,228.77z"/>
			</g>
			<g>
				<path class="st6" d="M285.81,245.28l-0.06-0.55c-0.58-5.62-0.88-11.52-0.88-17.54c0-1.4,0.02-2.86,0.05-4.35l0.01-0.5l2.72,6.41
					c0.02,0.59,0.02,1.19,0.02,1.78c0,5.36-0.61,10.41-1.72,14.22L285.81,245.28z M285.14,223.35c-0.03,1.32-0.04,2.61-0.04,3.85
					c0,5.81,0.27,11.51,0.82,16.95c1-3.72,1.55-8.52,1.55-13.61c0-0.58-0.01-1.17-0.02-1.75L285.14,223.35z"/>
			</g>
			<g>
				<path class="st0" d="M307.98,221.11v-9.37c0-5.5-4.49-10-9.99-10h-2.87c-5.49,0-9.99,4.5-9.99,10v9.37
					c3.74-0.86,7.58-1.3,11.42-1.29C300.4,219.81,304.24,220.26,307.98,221.11z"/>
				<path d="M308.08,221.25l-0.13-0.03c-3.77-0.86-7.6-1.31-11.4-1.29c-0.05,0-0.1,0-0.15,0c-3.75,0-7.53,0.43-11.25,1.29
					l-0.13,0.03v-9.5c0-5.57,4.53-10.11,10.1-10.11h2.87c5.57,0,10.1,4.53,10.1,10.11V221.25z M295.12,201.85
					c-5.45,0-9.88,4.44-9.88,9.89v9.23c3.69-0.84,7.44-1.26,11.16-1.26c0.1,0,0.2,0,0.3,0c3.72,0,7.47,0.42,11.16,1.26v-9.23
					c0-5.45-4.43-9.89-9.88-9.89H295.12z"/>
			</g>
			<g>
				<path class="st0" d="M304.81,243.05c-5.5-0.83-11-0.83-16.51,0c-0.76,2.88-1,5.75-0.7,8.63h17.91
					C305.8,248.8,305.57,245.93,304.81,243.05z"/>
				<path d="M305.61,251.78H287.5l-0.01-0.1c-0.29-2.88-0.05-5.79,0.71-8.66l0.02-0.07l0.07-0.01c5.49-0.83,11.05-0.83,16.54,0
					l0.07,0.01l0.02,0.07c0.76,2.87,1,5.79,0.71,8.66L305.61,251.78z M287.7,251.57h17.72c0.27-2.8,0.04-5.63-0.69-8.42
					c-5.42-0.81-10.91-0.81-16.33,0C287.66,245.94,287.42,248.77,287.7,251.57z"/>
			</g>
			<g>
				<path class="st7" d="M305.51,251.68H287.6c0.02,0.21,0.05,0.42,0.07,0.63h17.77C305.47,252.09,305.49,251.88,305.51,251.68z"/>
			</g>
			<g>
				<path class="st0" d="M287.67,252.3v4.5c2.19,1.18,5.36,1.92,8.88,1.92s6.7-0.74,8.88-1.92v-4.5H287.67z"/>
				<path d="M296.55,258.83c-3.4,0-6.66-0.71-8.94-1.93l-0.06-0.03v-4.67h17.98v4.67l-0.06,0.03
					C303.21,258.12,299.95,258.83,296.55,258.83z M287.78,256.73c2.25,1.19,5.44,1.88,8.78,1.88s6.53-0.68,8.78-1.88v-4.32h-17.55
					V256.73z"/>
			</g>
			<g>
				<path class="st7" d="M307.9,221.06l0.22-0.6c-7.56-2.09-15.58-2.09-23.14,0l0.22,0.6C292.63,219.05,300.48,219.05,307.9,221.06z
					"/>
			</g>
			<g>
				<path class="st0" d="M285.53,221.03l2.78,7.6h16.51l2.78-7.6C300.37,219.07,292.74,219.07,285.53,221.03z"/>
				<path d="M304.88,228.73h-16.66l-2.84-7.78l0.11-0.03c7.23-1.96,14.88-1.96,22.11,0l0.11,0.03L304.88,228.73z M288.38,228.51
					h16.35l2.71-7.42c-7.13-1.91-14.65-1.91-21.77,0L288.38,228.51z"/>
			</g>
			<g>
				<g>
					<path class="st6" d="M305.41,256.79h0.11c1.34,0,2.44-1.1,2.44-2.44v-0.18C307.4,255.3,306.5,256.22,305.41,256.79z"/>
				</g>
				<g>
					<path class="st6" d="M287.7,256.79h-0.11c-1.34,0-2.44-1.1-2.44-2.44v-0.18C285.71,255.3,286.61,256.22,287.7,256.79z"/>
				</g>
			</g>
			<g>
				<g>
					<path class="st0" d="M311.01,227.05c0.08-0.33,0-0.73-0.17-0.88l-1.99-1.72c-0.03-0.03-0.07-0.05-0.1-0.05v1.61l2.22,1.25
						L311.01,227.05z"/>
					<path class="st6" d="M311.04,227.42l-2.4-1.35v-1.8l0.13,0.03c0.05,0.01,0.11,0.04,0.15,0.08l1.99,1.72
						c0.2,0.18,0.3,0.61,0.21,0.98L311.04,227.42z M308.85,225.94l2.04,1.15l0.01-0.06c0.08-0.32-0.01-0.66-0.14-0.77l-1.92-1.66
						V225.94z"/>
				</g>
				<g>
					<path class="st0" d="M282.1,227.05c-0.08-0.33,0-0.73,0.17-0.88l1.99-1.72c0.03-0.03,0.07-0.05,0.1-0.05v1.61l-2.22,1.25
						L282.1,227.05z"/>
					<path class="st6" d="M282.07,227.42l-0.08-0.34c-0.09-0.37,0-0.81,0.21-0.98l1.99-1.72c0.05-0.04,0.1-0.07,0.15-0.08l0.13-0.03
						v1.8L282.07,227.42z M284.26,224.6l-1.92,1.66c-0.13,0.11-0.21,0.45-0.14,0.77l0.01,0.06l2.04-1.15V224.6z"/>
				</g>
			</g>
			<g>
				<g>
					<path class="st6" d="M302.43,215.33c0-3.59-0.64-6.76-1.6-8.58c0.71,1.87,1.16,4.59,1.16,7.61c0,1.46-0.11,2.85-0.29,4.1h0.56
						C302.38,217.47,302.43,216.42,302.43,215.33z"/>
				</g>
				<g>
					<path class="st6" d="M290.68,215.33c0-3.59,0.64-6.76,1.6-8.58c-0.71,1.87-1.16,4.59-1.16,7.61c0,1.46,0.11,2.85,0.29,4.1
						h-0.56C290.73,217.47,290.68,216.42,290.68,215.33z"/>
				</g>
			</g>
			<g>
				<rect x="288.3" y="228.62" class="st0" width="16.51" height="14.43"/>
				<path d="M304.92,243.16h-16.72v-14.65h16.72V243.16z M288.41,242.95h16.29v-14.21h-16.29V242.95z"/>
			</g>
		</g>
		<g>
			<g>
				<g>
					<path class="st0" d="M523.03,221.46c-3.73,0.44-7.46,0.44-11.19,0c-4.3-0.54-7.51-4.9-7.28-8.87
						c0.66-13.02,0.65-26.05-0.02-39.07c-0.22-3.78,2.83-7.91,6.91-8.45c3.99-0.5,7.98-0.5,11.97,0c4.08,0.55,7.13,4.68,6.91,8.45
						c-0.67,13.02-0.68,26.05-0.02,39.07C530.54,216.56,527.33,220.92,523.03,221.46z"/>
					<path class="st6" d="M517.43,221.93c-1.88,0-3.75-0.11-5.61-0.33c-4.2-0.53-7.66-4.75-7.41-9.03
						c0.66-12.96,0.65-26.1-0.02-39.06c-0.24-4.05,3.05-8.07,7.03-8.61c3.99-0.5,8.03-0.5,12.01,0c3.99,0.53,7.27,4.55,7.03,8.61
						c-0.67,12.96-0.68,26.1-0.02,39.06c0.25,4.28-3.21,8.5-7.41,9.03h0C521.18,221.82,519.31,221.93,517.43,221.93z M517.43,164.82
						c-1.99,0-3.99,0.12-5.97,0.37c-3.84,0.51-7.01,4.39-6.78,8.3c0.67,12.97,0.68,26.12,0.02,39.09c-0.24,4.14,3.1,8.21,7.15,8.72
						c3.7,0.44,7.45,0.44,11.15,0c4.05-0.51,7.39-4.59,7.15-8.72c-0.66-12.97-0.65-26.12,0.02-39.09c0.23-3.91-2.94-7.79-6.78-8.3
						C521.42,164.95,519.43,164.82,517.43,164.82z"/>
				</g>
			</g>
			<g>
				<path class="st7" d="M526.36,214.13h-17.85c0.02,0.21,0.05,0.42,0.07,0.63h17.7C526.31,214.55,526.34,214.34,526.36,214.13z"/>
			</g>
			<g>
				<path class="st6" d="M528.18,207.74l-0.15-0.53c-1.11-3.81-1.72-8.86-1.72-14.22c0-0.59,0.01-1.18,0.02-1.78l0.01-0.04
					l2.71-6.37l0.01,0.5c0.04,1.48,0.05,2.94,0.05,4.35c0,6.02-0.29,11.92-0.88,17.54L528.18,207.74z M526.54,191.23
					c-0.01,0.59-0.02,1.18-0.02,1.75c0,5.09,0.55,9.89,1.55,13.61c0.54-5.44,0.82-11.14,0.82-16.95c0-1.25-0.01-2.54-0.04-3.85
					L526.54,191.23z"/>
			</g>
			<g>
				<path class="st6" d="M506.69,207.74l-0.06-0.55c-0.58-5.62-0.88-11.52-0.88-17.54c0-1.4,0.02-2.86,0.05-4.35l0.01-0.5l2.72,6.41
					c0.02,0.59,0.02,1.19,0.02,1.78c0,5.36-0.61,10.41-1.72,14.22L506.69,207.74z M506.01,185.8c-0.03,1.32-0.04,2.61-0.04,3.85
					c0,5.81,0.27,11.51,0.82,16.95c1-3.72,1.55-8.52,1.55-13.61c0-0.58-0.01-1.17-0.02-1.75L506.01,185.8z"/>
			</g>
			<g>
				<path class="st0" d="M528.85,183.57v-9.37c0-5.5-4.49-10-9.99-10H516c-5.49,0-9.99,4.5-9.99,10v9.37
					c3.74-0.86,7.58-1.3,11.42-1.29C521.28,182.27,525.12,182.71,528.85,183.57z"/>
				<path d="M528.96,183.71l-0.13-0.03c-3.77-0.86-7.6-1.31-11.4-1.29c-0.05,0-0.1,0-0.15,0c-3.75,0-7.53,0.43-11.25,1.29
					l-0.13,0.03v-9.5c0-5.57,4.53-10.11,10.1-10.11h2.87c5.57,0,10.1,4.53,10.1,10.11V183.71z M516,164.31
					c-5.45,0-9.88,4.44-9.88,9.89v9.23c3.69-0.84,7.44-1.26,11.16-1.26c0.1,0,0.2,0,0.3,0c3.72,0,7.47,0.42,11.16,1.26v-9.23
					c0-5.45-4.43-9.89-9.88-9.89H516z"/>
			</g>
			<g>
				<path class="st0" d="M525.69,205.51c-5.5-0.83-11-0.83-16.51,0c-0.76,2.88-1,5.75-0.7,8.63h17.91
					C526.68,211.26,526.45,208.39,525.69,205.51z"/>
				<path d="M526.49,214.24h-18.11l-0.01-0.1c-0.29-2.88-0.05-5.79,0.71-8.66l0.02-0.07l0.07-0.01c5.49-0.83,11.05-0.83,16.54,0
					l0.07,0.01l0.02,0.07c0.76,2.87,1,5.79,0.71,8.66L526.49,214.24z M508.57,214.03h17.72c0.27-2.8,0.04-5.63-0.69-8.42
					c-5.42-0.81-10.91-0.81-16.33,0C508.54,208.4,508.3,211.23,508.57,214.03z"/>
			</g>
			<g>
				<path class="st7" d="M526.39,214.14h-17.91c0.02,0.21,0.05,0.42,0.07,0.63h17.77C526.34,214.55,526.37,214.34,526.39,214.14z"/>
			</g>
			<g>
				<path class="st0" d="M508.55,214.76v4.5c2.19,1.18,5.36,1.92,8.88,1.92s6.7-0.74,8.88-1.92v-4.5H508.55z"/>
				<path d="M517.43,221.29c-3.4,0-6.66-0.71-8.94-1.93l-0.06-0.03v-4.67h17.98v4.67l-0.06,0.03
					C524.09,220.58,520.83,221.29,517.43,221.29z M508.66,219.19c2.25,1.19,5.44,1.88,8.78,1.88s6.53-0.68,8.78-1.88v-4.32h-17.55
					V219.19z"/>
			</g>
			<g>
				<path class="st7" d="M528.78,183.52l0.22-0.6c-7.56-2.09-15.58-2.09-23.14,0l0.22,0.6C513.5,181.51,521.36,181.51,528.78,183.52
					z"/>
			</g>
			<g>
				<path class="st0" d="M506.4,183.49l2.78,7.6h16.51l2.78-7.6C521.25,181.53,513.61,181.53,506.4,183.49z"/>
				<path d="M525.76,191.19H509.1l-2.84-7.78l0.11-0.03c7.23-1.96,14.88-1.96,22.11,0l0.11,0.03L525.76,191.19z M509.26,190.97
					h16.35l2.71-7.42c-7.13-1.91-14.65-1.91-21.77,0L509.26,190.97z"/>
			</g>
			<g>
				<g>
					<path class="st6" d="M526.28,219.25h0.11c1.34,0,2.44-1.1,2.44-2.44v-0.18C528.28,217.76,527.38,218.68,526.28,219.25z"/>
				</g>
				<g>
					<path class="st6" d="M508.58,219.25h-0.11c-1.34,0-2.44-1.1-2.44-2.44v-0.18C506.59,217.76,507.48,218.68,508.58,219.25z"/>
				</g>
			</g>
			<g>
				<g>
					<path class="st0" d="M531.89,189.51c0.08-0.33,0-0.73-0.17-0.88l-1.99-1.72c-0.03-0.03-0.07-0.05-0.1-0.05v1.61l2.22,1.25
						L531.89,189.51z"/>
					<path class="st6" d="M531.92,189.88l-2.4-1.35v-1.8l0.13,0.03c0.05,0.01,0.11,0.04,0.15,0.08l1.99,1.72
						c0.2,0.18,0.3,0.61,0.21,0.98L531.92,189.88z M529.73,188.4l2.04,1.15l0.01-0.06c0.08-0.32-0.01-0.66-0.14-0.77l-1.92-1.66
						V188.4z"/>
				</g>
				<g>
					<path class="st0" d="M502.97,189.51c-0.08-0.33,0-0.73,0.17-0.88l1.99-1.72c0.03-0.03,0.07-0.05,0.1-0.05v1.61l-2.22,1.25
						L502.97,189.51z"/>
					<path class="st6" d="M502.95,189.88l-0.08-0.34c-0.09-0.37,0-0.81,0.21-0.98l1.99-1.72c0.05-0.04,0.1-0.07,0.15-0.08l0.13-0.03
						v1.8L502.95,189.88z M505.14,187.06l-1.92,1.66c-0.13,0.11-0.21,0.45-0.14,0.77l0.01,0.06l2.04-1.15V187.06z"/>
				</g>
			</g>
			<g>
				<g>
					<path class="st6" d="M523.31,177.79c0-3.59-0.64-6.76-1.6-8.58c0.71,1.87,1.16,4.59,1.16,7.61c0,1.46-0.11,2.85-0.29,4.1h0.56
						C523.25,179.93,523.31,178.88,523.31,177.79z"/>
				</g>
				<g>
					<path class="st6" d="M511.55,177.79c0-3.59,0.64-6.76,1.6-8.58c-0.71,1.87-1.16,4.59-1.16,7.61c0,1.46,0.11,2.85,0.29,4.1
						h-0.56C511.61,179.93,511.55,178.88,511.55,177.79z"/>
				</g>
			</g>
			<g>
				<rect x="509.18" y="191.08" class="st0" width="16.51" height="14.43"/>
				<path d="M525.79,205.62h-16.72v-14.65h16.72V205.62z M509.29,205.41h16.29v-14.21h-16.29V205.41z"/>
			</g>
		</g>
		<g>
			<rect x="517.43" y="238.01" class="st23" width="18.7" height="33.84"/>
			<rect x="517.43" y="233.04" class="st23" width="18.7" height="4.97"/>
			<rect x="517.43" y="228.07" class="st23" width="18.7" height="4.97"/>
			<polygon points="520.31,254.93 529.54,261.69 529.54,248.18 			"/>
		</g>
		<g>
			
				<rect x="301.7" y="167.63" transform="matrix(6.123234e-17 -1 1 6.123234e-17 147.0937 487.5618)" class="グラフィックスタイル_x0020_4" width="31.25" height="5.2"/>
			
				<rect x="296.5" y="167.63" transform="matrix(6.123234e-17 -1 1 6.123234e-17 141.8927 482.3609)" class="グラフィックスタイル_x0020_4" width="31.25" height="5.2"/>
			
				<rect x="311.92" y="162.61" transform="matrix(6.123234e-17 -1 1 6.123234e-17 157.3149 497.783)" class="st5" width="31.25" height="15.24"/>
			<polygon points="331.84,170.23 322.9,164.1 322.9,176.37 			"/>
		</g>
		<g>
			
				<rect x="290.59" y="301.17" transform="matrix(6.123234e-17 -1 1 6.123234e-17 0.7362 608.276)" class="グラフィックスタイル_x0020_4" width="27.82" height="5.2"/>
			
				<rect x="285.39" y="301.17" transform="matrix(6.123234e-17 -1 1 6.123234e-17 -4.4648 603.075)" class="グラフィックスタイル_x0020_4" width="27.82" height="5.2"/>
			
				<rect x="300.82" y="296.15" transform="matrix(6.123234e-17 -1 1 6.123234e-17 10.9574 618.4972)" class="st5" width="27.82" height="15.24"/>
			<polygon points="319.02,303.77 310.08,298.31 310.08,309.23 			"/>
		</g>
		<polyline class="グラフィックスタイル_x0020_7" points="146.85,89.79 195.35,395.1 166.12,433.03 		"/>
		<polyline class="グラフィックスタイル" points="295.57,424.93 549.78,426.19 549.78,133.94 302.3,133.94 255.66,184.93 
			299.81,450.44 		"/>
		<polyline class="グラフィックスタイル_x0020_7" points="258.77,61.34 284.42,82.33 574.77,78.13 		"/>
		<line class="st24" x1="207.94" y1="463.34" x2="195.35" y2="397.59"/>
		<line class="st24" x1="574.77" y1="71.84" x2="274.37" y2="71.84"/>
		<polyline class="グラフィックスタイル_x0020_7" points="216.57,447.95 205.37,441.89 295.86,426.66 285.82,420.21 		"/>
		<polyline class="st13" points="452.47,86.68 443.45,80.03 443.45,141.4 433.81,131.14 		"/>
		<line class="グラフィックスタイル_x0020_7" x1="525.58" y1="141.4" x2="577.81" y2="141.4"/>
		<line class="グラフィックスタイル_x0020_7" x1="559.11" y1="104.71" x2="588.96" y2="118.73"/>
	</g>
</g>
</svg>
